<svg width="139" height="180" viewBox="0 0 139 180" fill="none" xmlns="http://www.w3.org/2000/svg">
<g clip-path="url(#clip0_1_773)">
<path d="M69.5 139.509C107.884 139.509 139 108.279 139 69.7546C139 31.2302 107.884 0 69.5 0C31.1162 0 0 31.2302 0 69.7546C0 108.279 31.1162 139.509 69.5 139.509Z" fill="#DBF8FF"/>
<g filter="url(#filter0_d_1_773)">
<path d="M116.261 22.0859H23.1055C21.08 22.0859 19.438 23.7339 19.438 25.7669V166.871C19.438 168.904 21.08 170.552 23.1055 170.552H116.261C118.287 170.552 119.929 168.904 119.929 166.871V25.7669C119.929 23.7339 118.287 22.0859 116.261 22.0859Z" fill="white"/>
</g>
<path d="M54.1334 35.3129V60.1472H86.4078V35.3129H54.1334Z" fill="#F4F4F4"/>
<path opacity="0.1" d="M70.2706 51.2393L86.4078 35.3128H54.1334L70.2706 51.2393Z" fill="#40196D"/>
<path opacity="0.2" d="M70.2706 44.2211L86.4078 60.1472H54.1334L70.2706 44.2211Z" fill="#DBDCE0"/>
<g filter="url(#filter1_d_1_773)">
<path d="M72.1198 53.0763C74.8489 51.9953 76.1882 48.8986 75.1112 46.1595C74.0342 43.4204 70.9487 42.0762 68.2196 43.1571C65.4905 44.238 64.1512 47.3348 65.2282 50.0739C66.3052 52.813 69.3907 54.1572 72.1198 53.0763Z" fill="#40196D"/>
<path d="M69.7945 46.0104L70.6674 45.6644L69.8983 48.2139L72.2294 49.535L71.3132 49.8975L68.9605 48.6755L69.7945 46.0104Z" fill="white"/>
<path d="M68.5263 46.5125L69.1362 46.271L69.0005 48.66L70.6201 50.1721L69.9581 50.4346L68.4269 48.8669L68.5263 46.5125Z" fill="white"/>
<path d="M67.6695 46.8519L68.0168 46.7146L68.432 48.865L69.544 50.5984L69.1967 50.7361L68.0935 48.999L67.6695 46.8519Z" fill="white"/>
<path d="M67.1718 47.0492L67.3666 46.9719L68.8938 50.8561L68.699 50.933L67.1718 47.0492Z" fill="white"/>
<path d="M72.7442 49.3512C72.9838 49.2563 73.1013 48.9845 73.0068 48.744C72.9123 48.5036 72.6414 48.3856 72.4019 48.4805C72.1623 48.5754 72.0448 48.8472 72.1393 49.0876C72.2338 49.328 72.5047 49.446 72.7442 49.3512Z" fill="white"/>
</g>
<path fill-rule="evenodd" clip-rule="evenodd" d="M49.8302 113.325V125.742H49.5614V113.325H49.8302Z" fill="#48D38A"/>
<path d="M49.8302 130.253C50.7214 130.253 51.4439 129.542 51.4439 128.664C51.4439 127.787 50.7214 127.076 49.8302 127.076C48.939 127.076 48.2165 127.787 48.2165 128.664C48.2165 129.542 48.939 130.253 49.8302 130.253Z" fill="white"/>
<mask id="mask0_1_773" style="mask-type:alpha" maskUnits="userSpaceOnUse" x="47" y="126" width="6" height="6">
<path fill-rule="evenodd" clip-rule="evenodd" d="M47.4096 126.282V131.141H52.2508V126.282H47.4096ZM49.4598 129.782L48.5576 128.876L48.7718 128.662L49.4484 129.341L50.954 127.662L51.1788 127.865L49.4598 129.782Z" fill="white"/>
</mask>
<g mask="url(#mask0_1_773)">
<path d="M49.8302 131.141C51.167 131.141 52.2508 130.053 52.2508 128.711C52.2508 127.37 51.167 126.282 49.8302 126.282C48.493 126.282 47.4096 127.37 47.4096 128.711C47.4096 130.053 48.493 131.141 49.8302 131.141Z" fill="#48D38A"/>
</g>
<path fill-rule="evenodd" clip-rule="evenodd" d="M49.8299 131.681C51.4638 131.681 52.7885 130.351 52.7885 128.711C52.7885 127.072 51.4638 125.742 49.8299 125.742C48.196 125.742 46.8716 127.072 46.8716 128.711C46.8716 130.351 48.196 131.681 49.8299 131.681ZM49.8299 131.951C51.6123 131.951 53.0573 130.5 53.0573 128.711C53.0573 126.922 51.6123 125.472 49.8299 125.472C48.0474 125.472 46.6024 126.922 46.6024 128.711C46.6024 130.5 48.0474 131.951 49.8299 131.951Z" fill="#48D38A"/>
<path fill-rule="evenodd" clip-rule="evenodd" d="M49.8302 94.4293V106.846H49.5614V94.4293H49.8302Z" fill="#48D38A"/>
<path d="M49.8302 111.627C50.7214 111.627 51.4439 110.916 51.4439 110.039C51.4439 109.162 50.7214 108.451 49.8302 108.451C48.939 108.451 48.2165 109.162 48.2165 110.039C48.2165 110.916 48.939 111.627 49.8302 111.627Z" fill="white"/>
<mask id="mask1_1_773" style="mask-type:alpha" maskUnits="userSpaceOnUse" x="47" y="107" width="6" height="6">
<path fill-rule="evenodd" clip-rule="evenodd" d="M47.4096 107.656V112.515H52.2508V107.656H47.4096ZM49.4598 111.156L48.5576 110.251L48.7718 110.036L49.4484 110.715L50.954 109.036L51.1788 109.239L49.4598 111.156Z" fill="white"/>
</mask>
<g mask="url(#mask1_1_773)">
<path d="M49.8302 112.515C51.167 112.515 52.2508 111.427 52.2508 110.086C52.2508 108.744 51.167 107.656 49.8302 107.656C48.493 107.656 47.4096 108.744 47.4096 110.086C47.4096 111.427 48.493 112.515 49.8302 112.515Z" fill="#48D38A"/>
</g>
<path fill-rule="evenodd" clip-rule="evenodd" d="M49.8299 113.055C51.4638 113.055 52.7885 111.726 52.7885 110.086C52.7885 108.446 51.4638 107.117 49.8299 107.117C48.196 107.117 46.8716 108.446 46.8716 110.086C46.8716 111.726 48.196 113.055 49.8299 113.055ZM49.8299 113.325C51.6123 113.325 53.0573 111.875 53.0573 110.086C53.0573 108.297 51.6123 106.846 49.8299 106.846C48.0474 106.846 46.6024 108.297 46.6024 110.086C46.6024 111.875 48.0474 113.325 49.8299 113.325Z" fill="#48D38A"/>
<path fill-rule="evenodd" clip-rule="evenodd" d="M49.8302 75.8036V88.221H49.5614V75.8036H49.8302Z" fill="#48D38A"/>
<path d="M49.8302 74.3216C50.7214 74.3216 51.4439 73.6105 51.4439 72.7332C51.4439 71.856 50.7214 71.1449 49.8302 71.1449C48.939 71.1449 48.2165 71.856 48.2165 72.7332C48.2165 73.6105 48.939 74.3216 49.8302 74.3216Z" fill="#DCFFEC"/>
<mask id="mask2_1_773" style="mask-type:alpha" maskUnits="userSpaceOnUse" x="47" y="70" width="6" height="6">
<path fill-rule="evenodd" clip-rule="evenodd" d="M47.4096 70.3509V75.2098H52.2508V70.3509H47.4096ZM49.4598 73.8508L48.5576 72.9453L48.7718 72.7303L49.4484 73.4094L50.954 71.7305L51.1788 71.9337L49.4598 73.8508Z" fill="white"/>
</mask>
<g mask="url(#mask2_1_773)">
<path d="M49.8302 75.2098C51.167 75.2098 52.2508 74.1221 52.2508 72.7804C52.2508 71.4386 51.167 70.3509 49.8302 70.3509C48.493 70.3509 47.4096 71.4386 47.4096 72.7804C47.4096 74.1221 48.493 75.2098 49.8302 75.2098Z" fill="#48D38A"/>
</g>
<path fill-rule="evenodd" clip-rule="evenodd" d="M49.8299 75.7498C51.4638 75.7498 52.7885 74.4202 52.7885 72.7804C52.7885 71.1405 51.4638 69.8109 49.8299 69.8109C48.196 69.8109 46.8716 71.1405 46.8716 72.7804C46.8716 74.4202 48.196 75.7498 49.8299 75.7498ZM49.8299 76.0196C51.6123 76.0196 53.0573 74.5693 53.0573 72.7804C53.0573 70.9914 51.6123 69.5411 49.8299 69.5411C48.0474 69.5411 46.6024 70.9914 46.6024 72.7804C46.6024 74.5693 48.0474 76.0196 49.8299 76.0196Z" fill="#48D38A"/>
<path d="M49.8302 93.0011C50.7214 93.0011 51.4439 92.29 51.4439 91.4128C51.4439 90.5355 50.7214 89.8244 49.8302 89.8244C48.939 89.8244 48.2165 90.5355 48.2165 91.4128C48.2165 92.29 48.939 93.0011 49.8302 93.0011Z" fill="white"/>
<mask id="mask3_1_773" style="mask-type:alpha" maskUnits="userSpaceOnUse" x="47" y="89" width="6" height="5">
<path fill-rule="evenodd" clip-rule="evenodd" d="M47.4096 89.0304V93.8893H52.2508V89.0304H47.4096ZM49.4598 92.5303L48.5576 91.6248L48.7718 91.4102L49.4484 92.0893L50.954 90.4104L51.1788 90.6136L49.4598 92.5303Z" fill="white"/>
</mask>
<g mask="url(#mask3_1_773)">
<path d="M49.8302 93.8893C51.167 93.8893 52.2508 92.8016 52.2508 91.4599C52.2508 90.1182 51.167 89.0304 49.8302 89.0304C48.493 89.0304 47.4096 90.1182 47.4096 91.4599C47.4096 92.8016 48.493 93.8893 49.8302 93.8893Z" fill="#48D38A"/>
</g>
<path fill-rule="evenodd" clip-rule="evenodd" d="M49.8299 94.4293C51.4638 94.4293 52.7885 93.1001 52.7885 91.4602C52.7885 89.82 51.4638 88.4908 49.8299 88.4908C48.196 88.4908 46.8716 89.82 46.8716 91.4602C46.8716 93.1001 48.196 94.4293 49.8299 94.4293ZM49.8299 94.6995C51.6123 94.6995 53.0573 93.2492 53.0573 91.4602C53.0573 89.6709 51.6123 88.221 49.8299 88.221C48.0474 88.221 46.6024 89.6709 46.6024 91.4602C46.6024 93.2492 48.0474 94.6995 49.8299 94.6995Z" fill="#48D38A"/>
<path d="M60.6286 129.558C60.33 129.558 60.0693 129.497 59.8459 129.375C59.6255 129.251 59.4546 129.077 59.3336 128.853C59.2151 128.629 59.1561 128.37 59.1561 128.076C59.1561 127.784 59.2151 127.528 59.3336 127.306C59.4546 127.082 59.6255 126.91 59.8459 126.788C60.0693 126.664 60.33 126.602 60.6286 126.602C60.8167 126.602 60.9983 126.63 61.1732 126.687C61.3507 126.744 61.4934 126.82 61.6009 126.918L61.3709 127.456C61.1369 127.286 60.8948 127.201 60.6447 127.201C60.4133 127.201 60.2358 127.275 60.1122 127.424C59.9886 127.57 59.9266 127.787 59.9266 128.076C59.9266 128.367 59.9886 128.587 60.1122 128.736C60.2358 128.884 60.4133 128.958 60.6447 128.958C60.8948 128.958 61.1369 128.873 61.3709 128.703L61.6009 129.242C61.4934 129.339 61.3507 129.416 61.1732 129.473C60.9983 129.529 60.8167 129.558 60.6286 129.558Z" fill="black"/>
<path d="M64.0731 127.464V129.521H63.355V129.242C63.2956 129.339 63.2098 129.416 63.0968 129.473C62.9839 129.526 62.8599 129.554 62.7257 129.554C62.5507 129.554 62.3949 129.51 62.2577 129.424C62.1205 129.338 62.0127 129.215 61.935 129.056C61.8594 128.894 61.822 128.707 61.822 128.497C61.822 128.283 61.8609 128.094 61.939 127.93C62.0167 127.765 62.1246 127.637 62.2617 127.545C62.3989 127.453 62.5533 127.408 62.7257 127.408C62.8599 127.408 62.9824 127.437 63.0928 127.497C63.2058 127.553 63.293 127.63 63.355 127.727V127.464H64.0731ZM62.9516 129.007C63.0807 129.007 63.1801 128.962 63.2501 128.873C63.3198 128.784 63.355 128.656 63.355 128.489C63.355 128.319 63.3198 128.189 63.2501 128.1C63.1801 128.008 63.0807 127.962 62.9516 127.962C62.8251 127.962 62.7257 128.009 62.6531 128.104C62.5804 128.196 62.5441 128.327 62.5441 128.497C62.5441 128.661 62.579 128.788 62.649 128.877C62.7187 128.964 62.8196 129.007 62.9516 129.007Z" fill="black"/>
<path d="M65.802 127.416C65.9014 127.416 65.9781 127.43 66.032 127.46V128.128C65.9164 128.074 65.8046 128.047 65.6971 128.047C65.3905 128.047 65.2372 128.194 65.2372 128.489V129.521H64.507V128.055C64.507 127.834 64.4964 127.637 64.4747 127.464H65.1606L65.2049 127.808C65.2534 127.681 65.3315 127.584 65.4389 127.517C65.5464 127.449 65.6674 127.416 65.802 127.416Z" fill="black"/>
<path d="M68.3594 126.541V129.521H67.6413V129.242C67.5822 129.339 67.496 129.416 67.3831 129.473C67.2701 129.526 67.1465 129.554 67.0119 129.554C66.8374 129.554 66.6811 129.509 66.544 129.42C66.4068 129.328 66.2993 129.201 66.2212 129.039C66.146 128.874 66.1082 128.686 66.1082 128.473C66.1082 128.262 66.146 128.076 66.2212 127.914C66.2993 127.752 66.4068 127.627 66.544 127.541C66.6811 127.452 66.8374 127.408 67.0119 127.408C67.141 127.408 67.2595 127.434 67.367 127.489C67.4773 127.542 67.5646 127.615 67.6292 127.707V126.541H68.3594ZM67.2379 129.007C67.3669 129.007 67.4667 128.962 67.5364 128.873C67.6064 128.781 67.6413 128.651 67.6413 128.481C67.6413 128.316 67.605 128.189 67.5324 128.1C67.4627 128.008 67.3644 127.962 67.2379 127.962C67.1062 127.962 67.0053 128.007 66.9353 128.096C66.8656 128.182 66.8304 128.308 66.8304 128.473C66.8304 128.643 66.8656 128.775 66.9353 128.869C67.0079 128.961 67.1088 129.007 67.2379 129.007Z" fill="black"/>
<path d="M71.0448 129.558C70.8295 129.558 70.6172 129.529 70.4074 129.473C70.1976 129.416 70.0267 129.339 69.895 129.242L70.133 128.703C70.2728 128.792 70.4209 128.861 70.5768 128.91C70.7356 128.955 70.8941 128.979 71.0529 128.979C71.2142 128.979 71.3378 128.957 71.424 128.914C71.5102 128.868 71.5531 128.805 71.5531 128.724C71.5531 128.651 71.5142 128.591 71.4361 128.545C71.358 128.497 71.2117 128.449 70.9964 128.404C70.7246 128.35 70.5137 128.283 70.363 128.205C70.2123 128.124 70.1063 128.03 70.0443 127.922C69.9852 127.814 69.9555 127.683 69.9555 127.529C69.9555 127.354 70.0054 127.196 70.1048 127.055C70.2042 126.912 70.3443 126.801 70.5244 126.723C70.7044 126.642 70.9102 126.602 71.1416 126.602C71.3488 126.602 71.5491 126.631 71.7427 126.691C71.9389 126.748 72.0922 126.823 72.2026 126.918L71.9687 127.456C71.8421 127.367 71.709 127.299 71.5693 127.254C71.4295 127.205 71.2894 127.181 71.1497 127.181C71.0125 127.181 70.9021 127.208 70.8189 127.262C70.7356 127.313 70.6938 127.383 70.6938 127.472C70.6938 127.521 70.7085 127.561 70.7382 127.594C70.7679 127.626 70.8229 127.659 70.9036 127.691C70.9843 127.721 71.1053 127.753 71.2667 127.788C71.5274 127.845 71.7321 127.914 71.8799 127.995C72.0306 128.073 72.1366 128.166 72.1986 128.274C72.2606 128.379 72.2914 128.506 72.2914 128.655C72.2914 128.935 72.1825 129.157 71.9646 129.319C71.7468 129.478 71.4402 129.558 71.0448 129.558Z" fill="black"/>
<path d="M74.5664 128.566H73.2794C73.2926 128.725 73.3385 128.84 73.4166 128.91C73.4943 128.98 73.6088 129.015 73.7595 129.015C73.8615 129.015 73.9638 128.999 74.0661 128.967C74.1681 128.931 74.2609 128.884 74.3445 128.825L74.5301 129.311C74.4277 129.386 74.3041 129.445 74.1589 129.489C74.0137 129.532 73.8684 129.554 73.7232 129.554C73.4892 129.554 73.286 129.51 73.114 129.424C72.9416 129.338 72.81 129.215 72.7187 129.056C72.627 128.894 72.5815 128.703 72.5815 128.485C72.5815 128.277 72.6244 128.092 72.7106 127.93C72.7993 127.765 72.9204 127.637 73.0737 127.545C73.2295 127.453 73.407 127.408 73.6062 127.408C73.7998 127.408 73.9693 127.451 74.1145 127.537C74.2598 127.623 74.3712 127.748 74.4494 127.91C74.5271 128.069 74.5664 128.255 74.5664 128.468V128.566ZM73.6264 127.91C73.4459 127.91 73.333 128.015 73.2875 128.226H73.941C73.9139 128.015 73.809 127.91 73.6264 127.91Z" fill="black"/>
<path d="M76.2758 127.408C76.5178 127.408 76.6979 127.482 76.8164 127.63C76.9374 127.776 76.9979 127.997 76.9979 128.294V129.521H76.2677V128.327C76.2677 128.2 76.2461 128.109 76.2031 128.055C76.1599 127.999 76.0928 127.97 76.0014 127.97C75.891 127.97 75.8023 128.008 75.7352 128.084C75.6677 128.157 75.6343 128.254 75.6343 128.375V129.521H74.9041V128.055C74.9041 127.834 74.8931 127.637 74.8718 127.464H75.5577L75.594 127.768C75.6717 127.652 75.7685 127.563 75.8844 127.501C76 127.439 76.1305 127.408 76.2758 127.408Z" fill="black"/>
<path d="M78.6318 128.962C78.6802 128.962 78.7448 128.954 78.8254 128.938V129.493C78.7261 129.533 78.5995 129.554 78.4462 129.554C78.1693 129.554 77.9581 129.475 77.8128 129.319C77.6702 129.162 77.599 128.945 77.599 128.667V128.003H77.2158V127.464H77.599V126.999L78.3292 126.764V127.464H78.8214V128.003H78.3292V128.667C78.3292 128.764 78.3575 128.838 78.4139 128.89C78.473 128.938 78.5456 128.962 78.6318 128.962Z" fill="black"/>
<path d="M79.2406 128.521L79.0107 126.634L79.9103 126.638L79.6844 128.521H79.2406ZM79.0793 128.768H79.8417V129.521H79.0793V128.768Z" fill="black"/>
<path d="M59.2331 72.1903C59.2331 71.8933 59.291 71.6356 59.4065 71.4169C59.5221 71.1957 59.6875 71.0242 59.9028 70.9027C60.118 70.7812 60.3722 70.7205 60.6652 70.7205C60.9612 70.7205 61.2165 70.7812 61.4318 70.9027C61.647 71.0242 61.8125 71.1957 61.928 71.4169C62.0464 71.6356 62.1055 71.8933 62.1055 72.1903C62.1055 72.4844 62.0464 72.7425 61.928 72.9637C61.8125 73.1849 61.647 73.3579 61.4318 73.482C61.2165 73.6034 60.9612 73.6642 60.6652 73.6642C60.3722 73.6642 60.118 73.6034 59.9028 73.482C59.6904 73.3579 59.525 73.1849 59.4065 72.9637C59.291 72.7425 59.2331 72.4844 59.2331 72.1903ZM60.0117 72.1903C60.0117 72.4575 60.0656 72.6666 60.1731 72.8179C60.2805 72.9663 60.4448 73.0406 60.6652 73.0406C60.8857 73.0406 61.0511 72.9663 61.1615 72.8179C61.2719 72.6666 61.3269 72.4575 61.3269 72.1903C61.3269 71.9231 61.2719 71.7151 61.1615 71.5668C61.0511 71.4184 60.8857 71.344 60.6652 71.344C60.4448 71.344 60.2805 71.4184 60.1731 71.5668C60.0656 71.7125 60.0117 71.9205 60.0117 72.1903ZM62.5118 73.6196V72.1255C62.5118 72.0309 62.5089 71.9367 62.5038 71.8421C62.4983 71.7475 62.4902 71.6544 62.4796 71.5627H63.1735L63.2501 72.1944H63.1412C63.168 72.0405 63.2109 71.9135 63.2703 71.8137C63.3293 71.714 63.4034 71.6396 63.4922 71.591C63.5809 71.5425 63.6858 71.5182 63.8069 71.5182C63.8633 71.5182 63.9048 71.5207 63.9319 71.5263C63.9613 71.5288 63.9924 71.5369 64.0247 71.5506V72.1822C63.9572 72.1524 63.9037 72.1336 63.8633 72.1255C63.823 72.1174 63.7706 72.1134 63.706 72.1134C63.5956 72.1134 63.5054 72.1336 63.4357 72.1741C63.3657 72.212 63.3147 72.2713 63.2824 72.3523C63.2527 72.4333 63.238 72.5371 63.238 72.6641V73.6196H62.5118ZM65.0208 73.6642C64.8459 73.6642 64.69 73.6222 64.5528 73.5387C64.4157 73.4521 64.3082 73.3281 64.2301 73.1661C64.152 73.0042 64.1131 72.8124 64.1131 72.5912C64.1131 72.367 64.1509 72.1756 64.2261 72.0162C64.3042 71.8542 64.4116 71.7313 64.5488 71.6477C64.6885 71.5612 64.8459 71.5182 65.0208 71.5182C65.1767 71.5182 65.3179 71.5546 65.4444 71.6275C65.571 71.6978 65.6557 71.792 65.6986 71.9109H65.6381V70.6395H66.3562V73.6196H65.6502V73.2512H65.7026C65.6648 73.3752 65.5816 73.4753 65.4525 73.5508C65.326 73.6263 65.1822 73.6642 65.0208 73.6642ZM65.2508 73.1297C65.3692 73.1297 65.4661 73.0877 65.5412 73.0042C65.6194 72.9177 65.6582 72.78 65.6582 72.5912C65.6582 72.4023 65.6194 72.2658 65.5412 72.1822C65.4661 72.0957 65.3692 72.0526 65.2508 72.0526C65.1297 72.0526 65.0304 72.0957 64.9522 72.1822C64.8771 72.2658 64.8393 72.4023 64.8393 72.5912C64.8393 72.78 64.8771 72.9177 64.9522 73.0042C65.0304 73.0877 65.1297 73.1297 65.2508 73.1297ZM67.8833 73.6642C67.5122 73.6642 67.2232 73.5685 67.016 73.3767C66.8117 73.1849 66.7094 72.9217 66.7094 72.5871C66.7094 72.3791 66.7523 72.1944 66.8385 72.0324C66.9246 71.8704 67.0457 71.7449 67.2015 71.6558C67.3574 71.5642 67.5404 71.5182 67.7502 71.5182C67.9574 71.5182 68.1294 71.5642 68.2666 71.6558C68.4063 71.7449 68.5112 71.869 68.5813 72.0283C68.6513 72.1848 68.6862 72.367 68.6862 72.575V72.7288H67.3105V72.3887H68.1577L68.0891 72.4454C68.0891 72.2915 68.0594 72.1782 68.0003 72.1053C67.9439 72.0298 67.8632 71.9919 67.7583 71.9919C67.6372 71.9919 67.5445 72.0379 67.4799 72.1296C67.4179 72.2186 67.3871 72.3537 67.3871 72.5345V72.6074C67.3871 72.7881 67.4315 72.9206 67.5203 73.0042C67.609 73.0877 67.7366 73.1297 67.9035 73.1297C68.011 73.1297 68.1118 73.1175 68.2061 73.0933C68.3029 73.069 68.3942 73.0299 68.4804 72.9758L68.666 73.4455C68.5637 73.5158 68.4456 73.5696 68.311 73.6075C68.1764 73.6454 68.0341 73.6642 67.8833 73.6642ZM69.028 73.6196V72.1255C69.028 72.0309 69.0254 71.9367 69.0199 71.8421C69.0148 71.7475 69.0067 71.6544 68.9957 71.5627H69.6896L69.7663 72.1944H69.6573C69.6845 72.0405 69.7274 71.9135 69.7864 71.8137C69.8458 71.714 69.9196 71.6396 70.0083 71.591C70.0971 71.5425 70.202 71.5182 70.323 71.5182C70.3795 71.5182 70.4213 71.5207 70.4481 71.5263C70.4778 71.5288 70.5086 71.5369 70.5408 71.5506V72.1822C70.4737 72.1524 70.4198 72.1336 70.3795 72.1255C70.3391 72.1174 70.2867 72.1134 70.2221 72.1134C70.1121 72.1134 70.0219 72.1336 69.9518 72.1741C69.8821 72.212 69.8308 72.2713 69.7985 72.3523C69.7692 72.4333 69.7542 72.5371 69.7542 72.6641V73.6196H69.028ZM71.9642 73.6196V70.765H73.3076C73.6359 70.765 73.8886 70.8434 74.0661 70.9999C74.2462 71.1563 74.3364 71.3739 74.3364 71.6518C74.3364 71.838 74.296 71.9974 74.2154 72.1296C74.1347 72.2591 74.0177 72.3604 73.8644 72.4332C73.7111 72.5036 73.5281 72.5385 73.3157 72.5385L73.352 72.4373H73.5537C73.6722 72.4373 73.7771 72.4697 73.8684 72.5345C73.9597 72.5993 74.0353 72.6898 74.0943 72.8058L74.526 73.6196H73.7111L73.2471 72.7086C73.2174 72.6493 73.173 72.6088 73.114 72.5871C73.0575 72.5654 72.993 72.5547 72.9203 72.5547H72.7106V73.6196H71.9642ZM72.7106 72.0243H73.1785C73.3238 72.0243 73.4342 71.996 73.5094 71.9393C73.5845 71.88 73.6223 71.792 73.6223 71.6761C73.6223 71.5627 73.5845 71.4777 73.5094 71.421C73.4342 71.3643 73.3238 71.336 73.1785 71.336H72.7106V72.0243ZM75.8258 73.6642C75.4546 73.6642 75.1656 73.5685 74.9584 73.3767C74.7541 73.1849 74.6518 72.9217 74.6518 72.5871C74.6518 72.3791 74.6951 72.1944 74.7809 72.0324C74.8671 71.8704 74.9881 71.7449 75.144 71.6558C75.3002 71.5642 75.4829 71.5182 75.6926 71.5182C75.8999 71.5182 76.0719 71.5642 76.209 71.6558C76.3491 71.7449 76.454 71.869 76.5237 72.0283C76.5938 72.1848 76.6286 72.367 76.6286 72.575V72.7288H75.2529V72.3887H76.1001L76.0315 72.4454C76.0315 72.2915 76.0022 72.1782 75.9428 72.1053C75.8863 72.0298 75.8056 71.9919 75.7007 71.9919C75.5797 71.9919 75.4869 72.0379 75.4223 72.1296C75.3607 72.2186 75.3296 72.3537 75.3296 72.5345V72.6074C75.3296 72.7881 75.3739 72.9206 75.4627 73.0042C75.5514 73.0877 75.6794 73.1297 75.8459 73.1297C75.9538 73.1297 76.0546 73.1175 76.1485 73.0933C76.2453 73.069 76.337 73.0299 76.4229 72.9758L76.6084 73.4455C76.5065 73.5158 76.388 73.5696 76.2534 73.6075C76.1192 73.6454 75.9765 73.6642 75.8258 73.6642ZM78.0076 73.6642C77.7817 73.6642 77.584 73.6211 77.4146 73.5346C77.2451 73.4481 77.1131 73.3255 77.0192 73.1661C76.9249 73.0042 76.878 72.8113 76.878 72.5871C76.878 72.3629 76.9249 72.1715 77.0192 72.0121C77.1131 71.8528 77.2451 71.7313 77.4146 71.6477C77.584 71.5612 77.7817 71.5182 78.0076 71.5182C78.1473 71.5182 78.2845 71.5369 78.4191 71.5749C78.5533 71.6128 78.6623 71.6665 78.7459 71.7368L78.5442 72.2268C78.4796 72.1726 78.4055 72.1321 78.3223 72.1053C78.2416 72.0755 78.162 72.0607 78.0843 72.0607C77.9361 72.0607 77.8206 72.1053 77.7373 72.1944C77.6566 72.2834 77.6163 72.4145 77.6163 72.5871C77.6163 72.7598 77.6566 72.8923 77.7373 72.9839C77.8206 73.073 77.9361 73.1175 78.0843 73.1175C78.1594 73.1175 78.2387 73.1039 78.3223 73.0771C78.4055 73.0472 78.4796 73.0067 78.5442 72.9556L78.7459 73.4455C78.6597 73.5129 78.5493 73.567 78.4151 73.6075C78.283 73.6454 78.1473 73.6642 78.0076 73.6642ZM80.0849 73.6642C79.7137 73.6642 79.4244 73.5685 79.2175 73.3767C79.0129 73.1849 78.9109 72.9217 78.9109 72.5871C78.9109 72.3791 78.9538 72.1944 79.04 72.0324C79.1258 71.8704 79.2469 71.7449 79.4031 71.6558C79.559 71.5642 79.742 71.5182 79.9518 71.5182C80.1586 71.5182 80.331 71.5642 80.4682 71.6558C80.6079 71.7449 80.7128 71.869 80.7828 72.0283C80.8525 72.1848 80.8877 72.367 80.8877 72.575V72.7288H79.512V72.3887H80.3592L80.2906 72.4454C80.2906 72.2915 80.2609 72.1782 80.2019 72.1053C80.1454 72.0298 80.0647 71.9919 79.9598 71.9919C79.8388 71.9919 79.746 72.0379 79.6815 72.1296C79.6195 72.2186 79.5887 72.3537 79.5887 72.5345V72.6074C79.5887 72.7881 79.6331 72.9206 79.7218 73.0042C79.8106 73.0877 79.9382 73.1297 80.1051 73.1297C80.2125 73.1297 80.3134 73.1175 80.4076 73.0933C80.5045 73.069 80.5958 73.0299 80.682 72.9758L80.8676 73.4455C80.7652 73.5158 80.6468 73.5696 80.5125 73.6075C80.3779 73.6454 80.2353 73.6642 80.0849 73.6642ZM81.2295 73.6196V71.5627H81.9476V73.6196H81.2295ZM81.2134 71.2712V70.6233H81.9678V71.2712H81.2134ZM82.9889 73.6196L82.0973 71.5627H82.8517L83.3802 72.9313H83.235L83.7877 71.5627H84.4937L83.594 73.6196H82.9889ZM85.6753 73.6642C85.3042 73.6642 85.0148 73.5685 84.808 73.3767C84.6033 73.1849 84.5014 72.9217 84.5014 72.5871C84.5014 72.3791 84.5443 72.1944 84.6305 72.0324C84.7163 71.8704 84.8373 71.7449 84.9935 71.6558C85.1494 71.5642 85.3324 71.5182 85.5422 71.5182C85.7491 71.5182 85.9214 71.5642 86.0586 71.6558C86.1983 71.7449 86.3032 71.869 86.3733 72.0283C86.443 72.1848 86.4782 72.367 86.4782 72.575V72.7288H85.1025V72.3887H85.9497L85.8811 72.4454C85.8811 72.2915 85.8514 72.1782 85.7923 72.1053C85.7359 72.0298 85.6552 71.9919 85.5503 71.9919C85.4292 71.9919 85.3365 72.0379 85.2719 72.1296C85.2099 72.2186 85.1791 72.3537 85.1791 72.5345V72.6074C85.1791 72.7881 85.2235 72.9206 85.3123 73.0042C85.401 73.0877 85.5286 73.1297 85.6955 73.1297C85.803 73.1297 85.9038 73.1175 85.9981 73.0933C86.0949 73.069 86.1862 73.0299 86.2724 72.9758L86.458 73.4455C86.3557 73.5158 86.2372 73.5696 86.103 73.6075C85.9684 73.6454 85.8257 73.6642 85.6753 73.6642ZM87.6349 73.6642C87.46 73.6642 87.3041 73.6222 87.1669 73.5387C87.0298 73.4521 86.9223 73.3281 86.8442 73.1661C86.7661 73.0042 86.7272 72.8124 86.7272 72.5912C86.7272 72.367 86.765 72.1756 86.8402 72.0162C86.9183 71.8542 87.0257 71.7313 87.1629 71.6477C87.3026 71.5612 87.46 71.5182 87.6349 71.5182C87.7908 71.5182 87.932 71.5546 88.0585 71.6275C88.185 71.6978 88.2698 71.792 88.3127 71.9109H88.2522V70.6395H88.9703V73.6196H88.2643V73.2512H88.3167C88.2789 73.3752 88.1957 73.4753 88.0666 73.5508C87.94 73.6263 87.7963 73.6642 87.6349 73.6642ZM87.8649 73.1297C87.9833 73.1297 88.0801 73.0877 88.1553 73.0042C88.2335 72.9177 88.2723 72.78 88.2723 72.5912C88.2723 72.4023 88.2335 72.2658 88.1553 72.1822C88.0801 72.0957 87.9833 72.0526 87.8649 72.0526C87.7438 72.0526 87.6444 72.0957 87.5663 72.1822C87.4911 72.2658 87.4534 72.4023 87.4534 72.5912C87.4534 72.78 87.4911 72.9177 87.5663 73.0042C87.6444 73.0877 87.7438 73.1297 87.8649 73.1297Z" fill="black"/>
<path d="M59.2331 91.3314C59.2331 91.0344 59.291 90.7767 59.4065 90.558C59.5221 90.3368 59.6875 90.1653 59.9028 90.0438C60.118 89.9223 60.3722 89.8616 60.6652 89.8616C60.9612 89.8616 61.2165 89.9223 61.4318 90.0438C61.647 90.1653 61.8125 90.3368 61.928 90.558C62.0464 90.7767 62.1055 91.0344 62.1055 91.3314C62.1055 91.6255 62.0464 91.8836 61.928 92.1048C61.8125 92.326 61.647 92.499 61.4318 92.6231C61.2165 92.7445 60.9612 92.8053 60.6652 92.8053C60.3722 92.8053 60.118 92.7445 59.9028 92.6231C59.6904 92.499 59.525 92.326 59.4065 92.1048C59.291 91.8836 59.2331 91.6255 59.2331 91.3314ZM60.0117 91.3314C60.0117 91.5987 60.0656 91.8077 60.1731 91.959C60.2805 92.1074 60.4448 92.1817 60.6652 92.1817C60.8857 92.1817 61.0511 92.1074 61.1615 91.959C61.2719 91.8077 61.3269 91.5987 61.3269 91.3314C61.3269 91.0642 61.2719 90.8562 61.1615 90.7079C61.0511 90.5595 60.8857 90.4852 60.6652 90.4852C60.4448 90.4852 60.2805 90.5595 60.1731 90.7079C60.0656 90.8536 60.0117 91.0616 60.0117 91.3314ZM62.5119 92.7607V91.2666C62.5119 91.172 62.5089 91.0778 62.5038 90.9832C62.4983 90.8886 62.4902 90.7955 62.4796 90.7038H63.1735L63.2501 91.3355H63.1412C63.168 91.1816 63.2109 91.0546 63.2703 90.9548C63.3293 90.8551 63.4034 90.7807 63.4922 90.7321C63.5809 90.6836 63.6858 90.6593 63.8069 90.6593C63.8633 90.6593 63.9048 90.6618 63.9319 90.6674C63.9613 90.6699 63.9924 90.678 64.0247 90.6917V91.3233C63.9572 91.2935 63.9037 91.2747 63.8633 91.2666C63.823 91.2585 63.7706 91.2545 63.706 91.2545C63.5956 91.2545 63.5054 91.2747 63.4357 91.3152C63.3657 91.3531 63.3147 91.4124 63.2824 91.4934C63.2527 91.5744 63.238 91.6782 63.238 91.8052V92.7607H62.5119ZM65.0208 92.8053C64.8459 92.8053 64.69 92.7633 64.5528 92.6798C64.4157 92.5933 64.3082 92.4692 64.2301 92.3072C64.152 92.1453 64.1131 91.9535 64.1131 91.7323C64.1131 91.5081 64.1509 91.3167 64.2261 91.1573C64.3042 90.9953 64.4116 90.8724 64.5488 90.7888C64.6885 90.7023 64.8459 90.6593 65.0208 90.6593C65.1767 90.6593 65.3179 90.6957 65.4444 90.7686C65.571 90.8389 65.6557 90.9331 65.6986 91.052H65.6381V89.7806H66.3562V92.7607H65.6502V92.3923H65.7026C65.6648 92.5163 65.5816 92.6164 65.4525 92.6919C65.326 92.7674 65.1822 92.8053 65.0208 92.8053ZM65.2508 92.2708C65.3692 92.2708 65.4661 92.2288 65.5412 92.1453C65.6194 92.0588 65.6582 91.9211 65.6582 91.7323C65.6582 91.5434 65.6194 91.4069 65.5412 91.3233C65.4661 91.2368 65.3692 91.1937 65.2508 91.1937C65.1297 91.1937 65.0304 91.2368 64.9522 91.3233C64.8771 91.4069 64.8393 91.5434 64.8393 91.7323C64.8393 91.9211 64.8771 92.0588 64.9522 92.1453C65.0304 92.2288 65.1297 92.2708 65.2508 92.2708ZM67.8833 92.8053C67.5122 92.8053 67.2232 92.7096 67.016 92.5178C66.8117 92.326 66.7094 92.0628 66.7094 91.7282C66.7094 91.5203 66.7523 91.3355 66.8385 91.1735C66.9246 91.0115 67.0457 90.886 67.2015 90.7969C67.3574 90.7053 67.5404 90.6593 67.7502 90.6593C67.9574 90.6593 68.1294 90.7053 68.2666 90.7969C68.4063 90.886 68.5112 91.0101 68.5813 91.1695C68.6513 91.3259 68.6862 91.5081 68.6862 91.7161V91.8699H67.3105V91.5298H68.1577L68.0891 91.5865C68.0891 91.4326 68.0594 91.3193 68.0003 91.2464C67.9439 91.1709 67.8632 91.133 67.7583 91.133C67.6372 91.133 67.5445 91.179 67.4799 91.2707C67.4179 91.3598 67.3871 91.4948 67.3871 91.6756V91.7485C67.3871 91.9292 67.4315 92.0617 67.5203 92.1453C67.609 92.2288 67.7366 92.2708 67.9035 92.2708C68.011 92.2708 68.1118 92.2587 68.2061 92.2344C68.3029 92.2101 68.3942 92.171 68.4804 92.1169L68.666 92.5866C68.5637 92.6569 68.4456 92.7107 68.311 92.7486C68.1764 92.7865 68.0341 92.8053 67.8833 92.8053ZM69.028 92.7607V91.2666C69.028 91.172 69.0254 91.0778 69.0199 90.9832C69.0148 90.8886 69.0067 90.7955 68.9957 90.7038H69.6896L69.7663 91.3355H69.6573C69.6845 91.1816 69.7274 91.0546 69.7864 90.9548C69.8458 90.8551 69.9196 90.7807 70.0083 90.7321C70.0971 90.6836 70.202 90.6593 70.323 90.6593C70.3795 90.6593 70.4213 90.6618 70.4481 90.6674C70.4778 90.6699 70.5086 90.678 70.5408 90.6917V91.3233C70.4737 91.2935 70.4198 91.2747 70.3795 91.2666C70.3391 91.2585 70.2867 91.2545 70.2221 91.2545C70.1121 91.2545 70.0219 91.2747 69.9518 91.3152C69.8822 91.3531 69.8308 91.4124 69.7985 91.4934C69.7692 91.5744 69.7542 91.6782 69.7542 91.8052V92.7607H69.028ZM71.9642 92.7607V89.9061H73.3601C73.6883 89.9061 73.9355 89.9871 74.1024 90.1491C74.2693 90.3085 74.3525 90.5256 74.3525 90.801C74.3525 91.0737 74.2693 91.2909 74.1024 91.4529C73.9355 91.6149 73.6883 91.6958 73.3601 91.6958H72.7106V92.7607H71.9642ZM72.7106 91.1209H73.2633C73.3898 91.1209 73.4837 91.094 73.5457 91.0399C73.6076 90.9832 73.6385 90.9037 73.6385 90.801C73.6385 90.6983 73.6076 90.6188 73.5457 90.5621C73.4837 90.5054 73.3898 90.4771 73.2633 90.4771H72.7106V91.1209ZM74.6423 92.7607V91.2666C74.6423 91.172 74.6397 91.0778 74.6342 90.9832C74.6287 90.8886 74.6206 90.7955 74.61 90.7038H75.3039L75.3805 91.3355H75.2716C75.2984 91.1816 75.3417 91.0546 75.4007 90.9548C75.4598 90.8551 75.5338 90.7807 75.6226 90.7321C75.7114 90.6836 75.8162 90.6593 75.9373 90.6593C75.9938 90.6593 76.0356 90.6618 76.0623 90.6674C76.092 90.6699 76.1228 90.678 76.1551 90.6917V91.3233C76.088 91.2935 76.0341 91.2747 75.9937 91.2666C75.9534 91.2585 75.901 91.2545 75.8364 91.2545C75.726 91.2545 75.6362 91.2747 75.5661 91.3152C75.4961 91.3531 75.4451 91.4124 75.4128 91.4934C75.3831 91.5744 75.3684 91.6782 75.3684 91.8052V92.7607H74.6423ZM77.361 92.8053C77.1325 92.8053 76.9348 92.7622 76.768 92.6757C76.6011 92.5892 76.472 92.4666 76.3807 92.3072C76.2894 92.1453 76.2435 91.9535 76.2435 91.7323C76.2435 91.5081 76.2894 91.3167 76.3807 91.1573C76.472 90.9979 76.6011 90.8753 76.768 90.7888C76.9348 90.7023 77.1325 90.6593 77.361 90.6593C77.5869 90.6593 77.7831 90.7023 77.95 90.7888C78.1169 90.8753 78.246 90.9994 78.3373 91.1614C78.4286 91.3207 78.4745 91.511 78.4745 91.7323C78.4745 91.9509 78.4286 92.1412 78.3373 92.3032C78.246 92.4652 78.1169 92.5892 77.95 92.6757C77.7831 92.7622 77.5869 92.8053 77.361 92.8053ZM77.361 92.2708C77.4795 92.2708 77.5734 92.2288 77.6434 92.1453C77.7135 92.0588 77.7483 91.9211 77.7483 91.7323C77.7483 91.5434 77.7135 91.4069 77.6434 91.3233C77.5734 91.2368 77.4795 91.1937 77.361 91.1937C77.24 91.1937 77.1446 91.2368 77.0746 91.3233C77.0045 91.4069 76.9697 91.5434 76.9697 91.7323C76.9697 91.9211 77.0045 92.0588 77.0746 92.1453C77.1446 92.2288 77.24 92.2708 77.361 92.2708ZM79.863 92.8053C79.6371 92.8053 79.4394 92.7622 79.27 92.6757C79.1005 92.5892 78.9689 92.4666 78.8746 92.3072C78.7807 92.1453 78.7334 91.9524 78.7334 91.7282C78.7334 91.5041 78.7807 91.3126 78.8746 91.1533C78.9689 90.9939 79.1005 90.8724 79.27 90.7888C79.4394 90.7023 79.6371 90.6593 79.863 90.6593C80.0031 90.6593 80.1403 90.678 80.2745 90.716C80.4091 90.7539 80.518 90.8076 80.6013 90.8779L80.3996 91.3679C80.335 91.3137 80.2613 91.2733 80.1777 91.2464C80.097 91.2166 80.0178 91.2018 79.9397 91.2018C79.7919 91.2018 79.6763 91.2464 79.5927 91.3355C79.512 91.4245 79.4717 91.5556 79.4717 91.7282C79.4717 91.9009 79.512 92.0334 79.5927 92.125C79.6763 92.2141 79.7919 92.2587 79.9397 92.2587C80.0152 92.2587 80.0944 92.245 80.1777 92.2182C80.2613 92.1883 80.335 92.1479 80.3996 92.0967L80.6013 92.5866C80.5155 92.654 80.4051 92.7081 80.2705 92.7486C80.1388 92.7865 80.0031 92.8053 79.863 92.8053ZM81.9403 92.8053C81.5692 92.8053 81.2802 92.7096 81.0729 92.5178C80.8687 92.326 80.7663 92.0628 80.7663 91.7282C80.7663 91.5203 80.8096 91.3355 80.8954 91.1735C80.9816 91.0115 81.1026 90.886 81.2585 90.7969C81.4148 90.7053 81.5974 90.6593 81.8072 90.6593C82.0144 90.6593 82.1864 90.7053 82.3236 90.7969C82.4637 90.886 82.5686 91.0101 82.6382 91.1695C82.7083 91.3259 82.7431 91.5081 82.7431 91.7161V91.8699H81.3674V91.5298H82.2146L82.1461 91.5865C82.1461 91.4326 82.1167 91.3193 82.0573 91.2464C82.0008 91.1709 81.9201 91.133 81.8152 91.133C81.6942 91.133 81.6014 91.179 81.5369 91.2707C81.4753 91.3598 81.4441 91.4948 81.4441 91.6756V91.7485C81.4441 91.9292 81.4885 92.0617 81.5772 92.1453C81.666 92.2288 81.794 92.2708 81.9605 92.2708C82.0683 92.2708 82.1692 92.2587 82.2631 92.2344C82.3599 92.2101 82.4516 92.171 82.5374 92.1169L82.723 92.5866C82.621 92.6569 82.5025 92.7107 82.3679 92.7486C82.2337 92.7865 82.091 92.8053 81.9403 92.8053ZM83.872 92.8053C83.6809 92.8053 83.5075 92.7865 83.3516 92.7486C83.1983 92.7081 83.0677 92.654 82.9603 92.5866L83.1337 92.1169C83.2386 92.1762 83.3556 92.2248 83.4847 92.2627C83.6164 92.3006 83.7469 92.3194 83.876 92.3194C83.978 92.3194 84.0521 92.3047 84.0979 92.2748C84.1463 92.2425 84.1705 92.2005 84.1705 92.1493C84.1705 92.1088 84.1555 92.0764 84.1262 92.0521C84.0965 92.0279 84.0521 92.0102 83.993 91.9995L83.5573 91.9226C83.385 91.8902 83.2507 91.8269 83.1539 91.7323C83.0596 91.6351 83.0127 91.5096 83.0127 91.3557C83.0127 91.2155 83.0501 91.094 83.1257 90.9913C83.2008 90.886 83.3083 90.805 83.4484 90.7483C83.5881 90.6891 83.7535 90.6593 83.9446 90.6593C84.1005 90.6593 84.2483 90.6769 84.3884 90.7119C84.5307 90.7469 84.6547 90.8025 84.7596 90.8779L84.574 91.3355C84.4904 91.2788 84.3924 91.2328 84.2795 91.1978C84.1691 91.1599 84.0657 91.1411 83.9688 91.1411C83.8529 91.1411 83.7712 91.1588 83.7227 91.1937C83.6743 91.2261 83.6501 91.2666 83.6501 91.3152C83.6501 91.3531 83.6633 91.3855 83.6905 91.4124C83.7172 91.4367 83.7602 91.4544 83.8196 91.465L84.2553 91.542C84.4328 91.5718 84.5685 91.6336 84.6627 91.7282C84.7596 91.8199 84.808 91.9454 84.808 92.1048C84.808 92.2531 84.7676 92.3801 84.6869 92.4854C84.6088 92.5881 84.4999 92.6676 84.3602 92.7243C84.2201 92.7784 84.0576 92.8053 83.872 92.8053ZM85.9126 92.8053C85.7216 92.8053 85.5481 92.7865 85.3922 92.7486C85.2389 92.7081 85.1083 92.654 85.0009 92.5866L85.1744 92.1169C85.2792 92.1762 85.3962 92.2248 85.5253 92.2627C85.657 92.3006 85.7876 92.3194 85.9167 92.3194C86.019 92.3194 86.0927 92.3047 86.1386 92.2748C86.187 92.2425 86.2112 92.2005 86.2112 92.1493C86.2112 92.1088 86.1965 92.0764 86.1668 92.0521C86.1371 92.0279 86.0927 92.0102 86.0337 91.9995L85.598 91.9226C85.4259 91.8902 85.2913 91.8269 85.1945 91.7323C85.1003 91.6351 85.0533 91.5096 85.0533 91.3557C85.0533 91.2155 85.0911 91.094 85.1663 90.9913C85.2415 90.886 85.3493 90.805 85.489 90.7483C85.6288 90.6891 85.7942 90.6593 85.9853 90.6593C86.1411 90.6593 86.2893 90.6769 86.429 90.7119C86.5717 90.7469 86.6953 90.8025 86.8002 90.8779L86.6146 91.3355C86.5313 91.2788 86.4331 91.2328 86.3201 91.1978C86.2097 91.1599 86.1063 91.1411 86.0095 91.1411C85.8939 91.1411 85.8118 91.1588 85.7634 91.1937C85.7149 91.2261 85.6907 91.2666 85.6907 91.3152C85.6907 91.3531 85.7043 91.3855 85.7311 91.4124C85.7579 91.4367 85.8011 91.4544 85.8602 91.465L86.2959 91.542C86.4734 91.5718 86.6091 91.6336 86.7034 91.7282C86.8002 91.8199 86.8486 91.9454 86.8486 92.1048C86.8486 92.2531 86.8082 92.3801 86.7276 92.4854C86.6494 92.5881 86.5405 92.6676 86.4008 92.7243C86.261 92.7784 86.0982 92.8053 85.9126 92.8053ZM87.1666 92.7607V90.7038H87.8847V92.7607H87.1666ZM87.1504 90.4123V89.7644H87.9048V90.4123H87.1504ZM88.3288 92.7607V91.2626C88.3288 91.1709 88.3262 91.0778 88.3207 90.9832C88.3156 90.8886 88.3075 90.7955 88.2965 90.7038H88.9904L89.0308 91.0601H88.9864C89.0539 90.9306 89.1492 90.8319 89.2728 90.7645C89.3968 90.6942 89.5365 90.6593 89.6924 90.6593C89.9319 90.6593 90.1109 90.7307 90.229 90.8739C90.35 91.0141 90.4105 91.2342 90.4105 91.5339V92.7607H89.6924V91.5663C89.6924 91.4341 89.6697 91.3421 89.6238 91.2909C89.5783 91.2368 89.5123 91.2099 89.4261 91.2099C89.3132 91.2099 89.2219 91.2479 89.1518 91.3233C89.0821 91.3962 89.0469 91.4934 89.0469 91.6148V92.7607H88.3288ZM91.8471 93.6677C91.6428 93.6677 91.4624 93.649 91.3065 93.611C91.1532 93.5761 91.0146 93.5205 90.891 93.445L91.016 92.9349C91.0886 92.9779 91.1679 93.0144 91.254 93.0442C91.3402 93.074 91.429 93.0953 91.5203 93.109C91.6146 93.1252 91.7033 93.1333 91.7866 93.1333C91.9586 93.1333 92.0866 93.0928 92.1698 93.0118C92.2531 92.9334 92.2949 92.8215 92.2949 92.6757V92.3153H92.3352C92.2923 92.4342 92.2076 92.5299 92.0811 92.6028C91.9545 92.6731 91.8148 92.7081 91.6615 92.7081C91.4785 92.7081 91.3186 92.6676 91.1814 92.5866C91.0468 92.5031 90.9408 92.3842 90.8627 92.2303C90.7875 92.0764 90.7498 91.8942 90.7498 91.6837C90.7498 91.4731 90.7875 91.2909 90.8627 91.1371C90.9408 90.9832 91.0468 90.8658 91.1814 90.7848C91.3186 90.7012 91.4785 90.6593 91.6615 90.6593C91.8203 90.6593 91.9601 90.6942 92.0811 90.7645C92.2021 90.8348 92.2843 90.928 92.3272 91.0439L92.2949 91.0358L92.3393 90.7038H93.0291C93.0185 90.7955 93.0104 90.8886 93.0049 90.9832C92.9994 91.0778 92.9969 91.1709 92.9969 91.2626V92.5947C92.9969 92.9404 92.8986 93.2047 92.7024 93.3883C92.5061 93.5746 92.2208 93.6677 91.8471 93.6677ZM91.8834 92.1736C92.007 92.1736 92.1053 92.1317 92.1779 92.0481C92.2505 91.9645 92.2868 91.8431 92.2868 91.6837C92.2868 91.5217 92.2505 91.4002 92.1779 91.3193C92.1053 91.2357 92.007 91.1937 91.8834 91.1937C91.7569 91.1937 91.6575 91.2357 91.5849 91.3193C91.5122 91.4002 91.4759 91.5217 91.4759 91.6837C91.4759 91.8431 91.5122 91.9645 91.5849 92.0481C91.6575 92.1317 91.7569 92.1736 91.8834 92.1736Z" fill="black"/>
<path d="M59.3097 111.534V108.679H60.7056C61.0338 108.679 61.281 108.76 61.4479 108.922C61.6148 109.081 61.698 109.299 61.698 109.574C61.698 109.847 61.6148 110.064 61.4479 110.226C61.281 110.388 61.0338 110.469 60.7056 110.469H60.0561V111.534H59.3097ZM60.0561 109.894H60.6088C60.7353 109.894 60.8292 109.867 60.8912 109.813C60.9531 109.756 60.984 109.677 60.984 109.574C60.984 109.471 60.9531 109.392 60.8912 109.335C60.8292 109.278 60.7353 109.25 60.6088 109.25H60.0561V109.894ZM61.9878 111.534V110.04C61.9878 109.945 61.9852 109.851 61.9797 109.756C61.9742 109.662 61.9661 109.568 61.9555 109.477H62.6494L62.726 110.108H62.6171C62.6439 109.955 62.6872 109.828 62.7462 109.728C62.8053 109.628 62.8793 109.554 62.9681 109.505C63.0569 109.457 63.1617 109.432 63.2828 109.432C63.3393 109.432 63.3811 109.435 63.4078 109.44C63.4376 109.443 63.4684 109.451 63.5006 109.465V110.096C63.4335 110.067 63.3796 110.048 63.3393 110.04C63.2989 110.032 63.2465 110.027 63.1819 110.027C63.0715 110.027 62.9817 110.048 62.9116 110.088C62.8416 110.126 62.7906 110.185 62.7583 110.266C62.7286 110.347 62.7139 110.451 62.7139 110.578V111.534H61.9878ZM63.7174 111.534V109.477H64.4355V111.534H63.7174ZM63.7012 109.185V108.537H64.4557V109.185H63.7012ZM64.8796 111.534V110.036C64.8796 109.944 64.8771 109.851 64.8716 109.756C64.8661 109.662 64.858 109.568 64.8474 109.477H65.5412L65.5816 109.833H65.5372C65.6043 109.704 65.7001 109.605 65.8237 109.538C65.9472 109.467 66.0873 109.432 66.2432 109.432C66.4827 109.432 66.6613 109.504 66.7798 109.647C66.9008 109.787 66.9613 110.007 66.9613 110.307V111.534H66.2432V110.339C66.2432 110.207 66.2205 110.115 66.1746 110.064C66.1288 110.01 66.0631 109.983 65.977 109.983C65.864 109.983 65.7727 110.021 65.7026 110.096C65.6326 110.169 65.5977 110.266 65.5977 110.388V111.534H64.8796ZM68.4419 111.578C68.1514 111.578 67.9325 111.509 67.7843 111.372C67.6391 111.232 67.5665 111.02 67.5665 110.736V110.007H67.1832V109.477H67.5665V108.991L68.2846 108.821V109.477H68.7848V110.007H68.2846V110.708C68.2846 110.827 68.3117 110.906 68.3653 110.947C68.4192 110.985 68.4837 111.003 68.5589 111.003C68.6048 111.003 68.6436 111.001 68.6759 110.995C68.7111 110.987 68.7474 110.976 68.7848 110.963V111.518C68.7258 111.542 68.6667 111.558 68.6073 111.566C68.5508 111.574 68.4958 111.578 68.4419 111.578ZM69.0636 111.534V109.477H69.7817V111.534H69.0636ZM69.0474 109.185V108.537H69.8018V109.185H69.0474ZM70.2258 111.534V110.036C70.2258 109.944 70.2232 109.851 70.2177 109.756C70.2122 109.662 70.2042 109.568 70.1935 109.477H70.8874L70.9278 109.833H70.8834C70.9505 109.704 71.0462 109.605 71.1698 109.538C71.2934 109.467 71.4335 109.432 71.5894 109.432C71.8289 109.432 72.0075 109.504 72.126 109.647C72.247 109.787 72.3075 110.007 72.3075 110.307V111.534H71.5894V110.339C71.5894 110.207 71.5667 110.115 71.5208 110.064C71.475 110.01 71.4093 109.983 71.3231 109.983C71.2102 109.983 71.1189 110.021 71.0488 110.096C70.9788 110.169 70.9439 110.266 70.9439 110.388V111.534H70.2258ZM73.7441 112.441C73.5394 112.441 73.3594 112.422 73.2035 112.384C73.0502 112.349 72.9116 112.294 72.788 112.218L72.913 111.708C72.9856 111.751 73.0649 111.787 73.151 111.817C73.2369 111.847 73.3256 111.868 73.4173 111.882C73.5112 111.898 73.6 111.906 73.6836 111.906C73.8556 111.906 73.9832 111.866 74.0668 111.785C74.1501 111.706 74.1919 111.594 74.1919 111.449V111.088H74.2322C74.189 111.207 74.1042 111.303 73.9781 111.376C73.8515 111.446 73.7118 111.481 73.5585 111.481C73.3755 111.481 73.2156 111.441 73.0784 111.36C72.9438 111.276 72.8375 111.157 72.7597 111.003C72.6842 110.849 72.6468 110.667 72.6468 110.457C72.6468 110.246 72.6842 110.064 72.7597 109.91C72.8375 109.756 72.9438 109.639 73.0784 109.558C73.2156 109.474 73.3755 109.432 73.5585 109.432C73.7169 109.432 73.857 109.467 73.9781 109.538C74.0991 109.608 74.1809 109.701 74.2242 109.817L74.1919 109.809L74.2363 109.477H74.9261C74.9151 109.568 74.9071 109.662 74.9019 109.756C74.8964 109.851 74.8939 109.944 74.8939 110.036V111.368C74.8939 111.713 74.7956 111.978 74.5994 112.161C74.4028 112.348 74.1178 112.441 73.7441 112.441ZM73.7804 110.947C73.904 110.947 74.0023 110.905 74.0749 110.821C74.1475 110.738 74.1838 110.616 74.1838 110.457C74.1838 110.295 74.1475 110.173 74.0749 110.092C74.0023 110.009 73.904 109.967 73.7804 109.967C73.6539 109.967 73.5545 110.009 73.4819 110.092C73.4092 110.173 73.3729 110.295 73.3729 110.457C73.3729 110.616 73.4092 110.738 73.4819 110.821C73.5545 110.905 73.6539 110.947 73.7804 110.947ZM77.9702 111.578C77.661 111.578 77.3933 111.518 77.1674 111.396C76.9444 111.275 76.7709 111.103 76.6469 110.882C76.5259 110.661 76.4654 110.401 76.4654 110.104C76.4654 109.807 76.5259 109.55 76.6469 109.331C76.7709 109.11 76.9444 108.938 77.1674 108.817C77.3933 108.695 77.661 108.635 77.9702 108.635C78.1668 108.635 78.3454 108.661 78.5068 108.716C78.6681 108.767 78.8042 108.841 78.9142 108.938L78.6923 109.525C78.5687 109.436 78.4543 109.374 78.3494 109.339C78.2475 109.301 78.1305 109.282 77.9984 109.282C77.7564 109.282 77.5697 109.354 77.4377 109.497C77.3086 109.637 77.244 109.84 77.244 110.104C77.244 110.372 77.3086 110.577 77.4377 110.72C77.5697 110.86 77.7564 110.93 77.9984 110.93C78.1305 110.93 78.2475 110.913 78.3494 110.878C78.4543 110.84 78.5687 110.777 78.6923 110.687L78.9142 111.275C78.8042 111.372 78.6681 111.447 78.5068 111.501C78.3454 111.553 78.1668 111.578 77.9702 111.578ZM79.9958 111.578C79.8183 111.578 79.662 111.536 79.5278 111.453C79.3932 111.366 79.2869 111.242 79.2091 111.08C79.1335 110.918 79.0961 110.727 79.0961 110.505C79.0961 110.281 79.1335 110.09 79.2091 109.93C79.2869 109.768 79.3932 109.645 79.5278 109.562C79.662 109.475 79.8183 109.432 79.9958 109.432C80.1542 109.432 80.2969 109.47 80.4234 109.546C80.5525 109.621 80.6372 109.72 80.6776 109.841H80.6372L80.6816 109.477H81.3715C81.3634 109.568 81.3553 109.662 81.3473 109.756C81.3418 109.851 81.3388 109.944 81.3388 110.036V111.534H80.6292L80.6211 111.186H80.6695C80.6292 111.304 80.5444 111.4 80.4154 111.473C80.2888 111.543 80.1491 111.578 79.9958 111.578ZM80.2257 111.044C80.3468 111.044 80.4447 111.002 80.5202 110.918C80.5954 110.832 80.6332 110.694 80.6332 110.505C80.6332 110.316 80.5954 110.18 80.5202 110.096C80.4447 110.01 80.3468 109.967 80.2257 109.967C80.1047 109.967 80.0064 110.01 79.9312 110.096C79.8557 110.18 79.8183 110.316 79.8183 110.505C79.8183 110.694 79.8546 110.832 79.9272 110.918C80.0024 111.002 80.1018 111.044 80.2257 111.044ZM81.7852 111.534V110.04C81.7852 109.945 81.7822 109.851 81.7771 109.756C81.7716 109.662 81.7635 109.568 81.7529 109.477H82.4468L82.5235 110.108H82.4145C82.4413 109.955 82.4842 109.828 82.5436 109.728C82.6027 109.628 82.6768 109.554 82.7655 109.505C82.8543 109.457 82.9592 109.432 83.0802 109.432C83.1367 109.432 83.1781 109.435 83.2053 109.44C83.2346 109.443 83.2658 109.451 83.298 109.465V110.096C83.2306 110.067 83.177 110.048 83.1367 110.04C83.0963 110.032 83.0439 110.027 82.9793 110.027C82.8689 110.027 82.7787 110.048 82.709 110.088C82.639 110.126 82.588 110.185 82.5557 110.266C82.526 110.347 82.5114 110.451 82.5114 110.578V111.534H81.7852ZM84.2941 111.578C84.1192 111.578 83.9633 111.536 83.8262 111.453C83.689 111.366 83.5812 111.242 83.5034 111.08C83.4253 110.918 83.3864 110.727 83.3864 110.505C83.3864 110.281 83.4238 110.09 83.4994 109.93C83.5771 109.768 83.685 109.645 83.8221 109.562C83.9619 109.475 84.1192 109.432 84.2941 109.432C84.45 109.432 84.5912 109.469 84.7177 109.542C84.8439 109.612 84.9286 109.706 84.9719 109.825H84.9114V108.554H85.6295V111.534H84.9235V111.165H84.9759C84.9382 111.289 84.8549 111.389 84.7258 111.465C84.5993 111.54 84.4555 111.578 84.2941 111.578ZM84.5241 111.044C84.6422 111.044 84.739 111.002 84.8146 110.918C84.8923 110.832 84.9316 110.694 84.9316 110.505C84.9316 110.316 84.8923 110.18 84.8146 110.096C84.739 110.01 84.6422 109.967 84.5241 109.967C84.4031 109.967 84.3033 110.01 84.2256 110.096C84.15 110.18 84.1126 110.316 84.1126 110.505C84.1126 110.694 84.15 110.832 84.2256 110.918C84.3033 111.002 84.4031 111.044 84.5241 111.044Z" fill="black"/>
<g filter="url(#filter2_d_1_773)">
<path fill-rule="evenodd" clip-rule="evenodd" d="M26.9686 143.951C26.9686 143.138 27.6254 142.479 28.4356 142.479H111.298C112.108 142.479 112.765 143.138 112.765 143.951V155.853C112.765 156.666 112.108 157.325 111.298 157.325H28.4356C27.6254 157.325 26.9686 156.666 26.9686 155.853V143.951Z" fill="white"/>
</g>
<path d="M50.9338 151.656L50.6796 151.061H49.4048L49.1506 151.656H48.3922L49.7356 148.773H50.3327L51.6801 151.656H50.9338ZM49.6509 150.49H50.4335L50.0422 149.579L49.6509 150.49Z" fill="#40196D"/>
<path d="M52.82 151.689C52.4731 151.689 52.2017 151.594 52.0051 151.405C51.8089 151.217 51.7106 150.959 51.7106 150.632C51.7106 150.416 51.7579 150.226 51.8518 150.061C51.9486 149.897 52.0832 149.77 52.2552 149.68C52.4276 149.589 52.6264 149.543 52.8523 149.543C53.003 149.543 53.1508 149.566 53.2961 149.612C53.4413 149.655 53.5572 149.714 53.643 149.79L53.4574 150.296C53.3848 150.237 53.3001 150.189 53.2033 150.154C53.1064 150.119 53.0137 150.102 52.9249 150.102C52.7745 150.102 52.6586 150.145 52.5779 150.231C52.4973 150.318 52.4569 150.446 52.4569 150.616C52.4569 150.788 52.4973 150.92 52.5779 151.009C52.6586 151.095 52.7756 151.138 52.9289 151.138C53.0177 151.138 53.1094 151.12 53.2033 151.086C53.3001 151.051 53.3848 151.003 53.4574 150.944L53.643 151.442C53.5543 151.52 53.4362 151.581 53.288 151.624C53.1428 151.667 52.9869 151.689 52.82 151.689Z" fill="#40196D"/>
<path d="M55.1137 151.098C55.1621 151.098 55.2266 151.09 55.3073 151.073V151.628C55.2079 151.669 55.0814 151.689 54.9281 151.689C54.6512 151.689 54.4399 151.61 54.2947 151.454C54.152 151.298 54.0809 151.08 54.0809 150.802V150.138H53.6976V149.6H54.0809V149.134L54.8111 148.899V149.6H55.3033V150.138H54.8111V150.802C54.8111 150.899 54.8393 150.974 54.8958 151.025C54.9549 151.073 55.0275 151.098 55.1137 151.098Z" fill="#40196D"/>
<path d="M55.5817 151.656V149.599H56.3119V151.656H55.5817ZM55.5615 148.591H56.324V149.251H55.5615V148.591Z" fill="#40196D"/>
<path d="M58.1478 149.604H58.8659L57.9542 151.656H57.3531L56.4534 149.604H57.2119L57.6718 150.786L58.1478 149.604Z" fill="#40196D"/>
<path d="M61.1164 149.6V151.656H60.3983V151.377C60.3392 151.474 60.253 151.551 60.1401 151.608C60.0271 151.662 59.9035 151.689 59.7689 151.689C59.5943 151.689 59.4381 151.646 59.3009 151.559C59.1638 151.473 59.0563 151.35 58.9782 151.191C58.903 151.029 58.8652 150.843 58.8652 150.632C58.8652 150.419 58.9045 150.23 58.9822 150.065C59.0603 149.901 59.1678 149.772 59.305 149.68C59.4421 149.589 59.5969 149.543 59.7689 149.543C59.9035 149.543 60.026 149.573 60.136 149.632C60.249 149.689 60.3367 149.766 60.3983 149.863V149.6H61.1164ZM59.9948 151.142C60.1239 151.142 60.2237 151.098 60.2934 151.009C60.3634 150.92 60.3983 150.791 60.3983 150.624C60.3983 150.454 60.3634 150.324 60.2934 150.235C60.2237 150.144 60.1239 150.098 59.9948 150.098C59.8687 150.098 59.7689 150.145 59.6963 150.239C59.6237 150.331 59.5874 150.462 59.5874 150.632C59.5874 150.797 59.6226 150.924 59.6923 151.013C59.7623 151.099 59.8632 151.142 59.9948 151.142Z" fill="#40196D"/>
<path d="M62.7609 151.098C62.8093 151.098 62.8738 151.09 62.9545 151.073V151.628C62.8548 151.669 62.7286 151.689 62.5753 151.689C62.298 151.689 62.0872 151.61 61.9419 151.454C61.7993 151.298 61.7281 151.08 61.7281 150.802V150.138H61.3448V149.6H61.7281V149.134L62.4583 148.899V149.6H62.9505V150.138H62.4583V150.802C62.4583 150.899 62.4866 150.974 62.543 151.025C62.6021 151.073 62.6747 151.098 62.7609 151.098Z" fill="#40196D"/>
<path d="M65.121 150.701H63.834C63.8472 150.86 63.8931 150.975 63.9712 151.045C64.0489 151.115 64.1634 151.15 64.3141 151.15C64.4161 151.15 64.5184 151.134 64.6207 151.102C64.7227 151.067 64.8154 151.019 64.8991 150.96L65.0846 151.446C64.9823 151.521 64.8587 151.581 64.7135 151.624C64.5683 151.667 64.423 151.689 64.2778 151.689C64.0438 151.689 63.8406 151.646 63.6686 151.559C63.4962 151.473 63.3646 151.35 63.2732 151.191C63.1816 151.029 63.1361 150.839 63.1361 150.62C63.1361 150.412 63.179 150.227 63.2652 150.065C63.3539 149.901 63.475 149.772 63.6283 149.68C63.7841 149.589 63.9616 149.543 64.1608 149.543C64.3544 149.543 64.5239 149.586 64.6691 149.672C64.8143 149.759 64.9258 149.883 65.004 150.045C65.0817 150.204 65.121 150.391 65.121 150.604V150.701ZM64.181 150.045C64.0005 150.045 63.8876 150.15 63.8421 150.361H64.4956C64.4685 150.15 64.3636 150.045 64.181 150.045Z" fill="#40196D"/>
<path d="M68.0649 151.693C67.7664 151.693 67.5056 151.632 67.2822 151.511C67.0618 151.387 66.8909 151.213 66.7699 150.988C66.6518 150.764 66.5924 150.505 66.5924 150.211C66.5924 149.919 66.6518 149.663 66.7699 149.442C66.8909 149.217 67.0618 149.045 67.2822 148.923C67.5056 148.799 67.7664 148.737 68.0649 148.737C68.2534 148.737 68.435 148.765 68.6095 148.822C68.787 148.879 68.9297 148.956 69.0372 149.053L68.8072 149.591C68.5732 149.421 68.3312 149.336 68.081 149.336C67.85 149.336 67.6725 149.411 67.5485 149.559C67.4249 149.705 67.3629 149.922 67.3629 150.211C67.3629 150.502 67.4249 150.723 67.5485 150.871C67.6725 151.019 67.85 151.094 68.081 151.094C68.3312 151.094 68.5732 151.009 68.8072 150.839L69.0372 151.377C68.9297 151.474 68.787 151.551 68.6095 151.608C68.435 151.665 68.2534 151.693 68.0649 151.693Z" fill="#40196D"/>
<path d="M71.5094 149.6V151.656H70.7913V151.377C70.7323 151.474 70.6461 151.551 70.5331 151.608C70.4202 151.662 70.2966 151.689 70.162 151.689C69.987 151.689 69.8312 151.646 69.694 151.559C69.5568 151.473 69.4494 151.35 69.3713 151.191C69.2961 151.029 69.2583 150.843 69.2583 150.632C69.2583 150.419 69.2972 150.23 69.3753 150.065C69.4534 149.901 69.5609 149.772 69.698 149.68C69.8352 149.589 69.99 149.543 70.162 149.543C70.2966 149.543 70.4187 149.573 70.5291 149.632C70.6421 149.689 70.7294 149.766 70.7913 149.863V149.6H71.5094ZM70.3879 151.142C70.517 151.142 70.6164 151.098 70.6864 151.009C70.7565 150.92 70.7913 150.791 70.7913 150.624C70.7913 150.454 70.7565 150.324 70.6864 150.235C70.6164 150.144 70.517 150.098 70.3879 150.098C70.2614 150.098 70.162 150.145 70.0894 150.239C70.0167 150.331 69.9804 150.462 69.9804 150.632C69.9804 150.797 70.0153 150.924 70.0853 151.013C70.1554 151.099 70.2562 151.142 70.3879 151.142Z" fill="#40196D"/>
<path d="M73.2384 149.551C73.3381 149.551 73.4148 149.566 73.4683 149.595V150.264C73.3528 150.209 73.2413 150.183 73.1335 150.183C72.8269 150.183 72.6736 150.33 72.6736 150.624V151.656H71.9433V150.191C71.9433 149.969 71.9327 149.772 71.9111 149.6H72.5969L72.6413 149.944C72.6897 149.817 72.7678 149.72 72.8753 149.652C72.9831 149.585 73.1041 149.551 73.2384 149.551Z" fill="#40196D"/>
<path d="M75.7961 148.676V151.656H75.078V151.377C75.0185 151.474 74.9327 151.551 74.8198 151.608C74.7068 151.662 74.5828 151.689 74.4486 151.689C74.2737 151.689 74.1178 151.644 73.9806 151.555C73.8435 151.464 73.7356 151.337 73.6579 151.175C73.5823 151.01 73.5449 150.821 73.5449 150.608C73.5449 150.397 73.5823 150.211 73.6579 150.049C73.7356 149.887 73.8435 149.763 73.9806 149.676C74.1178 149.587 74.2737 149.543 74.4486 149.543C74.5777 149.543 74.6958 149.57 74.8036 149.624C74.9136 149.678 75.0013 149.751 75.0658 149.842V148.676H75.7961ZM74.6745 151.142C74.8036 151.142 74.903 151.098 74.9731 151.009C75.0427 150.917 75.078 150.786 75.078 150.616C75.078 150.451 75.0416 150.324 74.969 150.235C74.899 150.144 74.8007 150.098 74.6745 150.098C74.5425 150.098 74.4416 150.142 74.3719 150.231C74.3019 150.318 74.2671 150.443 74.2671 150.608C74.2671 150.778 74.3019 150.91 74.3719 151.005C74.4446 151.096 74.5454 151.142 74.6745 151.142Z" fill="#40196D"/>
<path d="M105.273 151.529L105.68 151.927L107.693 149.964L105.68 148.002L105.273 148.4L106.878 149.964L105.273 151.529Z" fill="#40196D"/>
<g filter="url(#filter3_d_1_773)">
<path d="M38.6878 145.399H32.6942C32.3888 145.398 32.0958 145.515 31.8795 145.723C31.6632 145.932 31.5414 146.215 31.5409 146.51V154.001C31.5496 154.61 32.0546 155.103 32.6838 155.117H38.6354C38.9409 155.117 39.2339 155 39.45 154.792C39.6663 154.584 39.7881 154.3 39.7888 154.005V146.485C39.7918 146.2 39.6773 145.925 39.4709 145.722C39.2647 145.518 38.9831 145.402 38.6878 145.399Z" fill="white"/>
</g>
<path d="M35.6659 152.597C35.9861 152.597 36.2863 152.536 36.5664 152.414C36.8482 152.292 37.0958 152.124 37.31 151.909C37.5252 151.694 37.6932 151.445 37.8131 151.162C37.9349 150.88 37.9958 150.579 37.9958 150.259C37.9958 149.937 37.9349 149.635 37.8131 149.353C37.6917 149.07 37.523 148.821 37.3078 148.606C37.0936 148.392 36.8456 148.223 36.5641 148.101C36.284 147.979 35.9838 147.918 35.6636 147.918C35.3434 147.918 35.0425 147.979 34.7608 148.101C34.4806 148.223 34.2328 148.392 34.0173 148.606C33.8033 148.821 33.6356 149.07 33.5139 149.353C33.3939 149.635 33.3339 149.937 33.3339 150.259C33.3339 150.579 33.3947 150.88 33.5162 151.162C33.6379 151.445 33.8057 151.694 34.0196 151.909C34.2336 152.124 34.4806 152.292 34.7608 152.414C35.0425 152.536 35.3442 152.597 35.6659 152.597ZM35.6682 151.432C35.5066 151.432 35.355 151.401 35.2134 151.339C35.0733 151.277 34.9494 151.193 34.8416 151.086C34.7339 150.978 34.6492 150.854 34.5876 150.713C34.5276 150.571 34.4976 150.419 34.4976 150.259C34.4976 150.106 34.5261 149.959 34.583 149.819C34.6399 149.676 34.7208 149.554 34.8255 149.452C34.8762 149.398 34.9294 149.372 34.9848 149.373C35.0417 149.373 35.0902 149.392 35.1302 149.429C35.1703 149.465 35.1933 149.511 35.1995 149.568C35.2057 149.624 35.1833 149.679 35.1325 149.735C35.0633 149.806 35.0102 149.886 34.9732 149.976C34.9378 150.066 34.9201 150.16 34.9201 150.259C34.9201 150.398 34.9532 150.524 35.0194 150.636C35.0871 150.749 35.1772 150.84 35.2895 150.908C35.4035 150.975 35.5297 151.01 35.6682 151.01C35.8068 151.01 35.9322 150.975 36.0446 150.908C36.157 150.84 36.247 150.749 36.3147 150.636C36.3825 150.524 36.4163 150.398 36.4163 150.259C36.4148 150.16 36.3956 150.066 36.3586 149.976C36.3232 149.886 36.2716 149.807 36.2039 149.737C36.1531 149.68 36.13 149.624 36.1347 149.568C36.1408 149.513 36.1639 149.466 36.2039 149.429C36.244 149.392 36.2917 149.373 36.3471 149.373C36.404 149.372 36.4579 149.398 36.5087 149.452C36.6134 149.556 36.6942 149.679 36.751 149.821C36.8082 149.961 36.8365 150.107 36.8365 150.259C36.8365 150.419 36.8057 150.571 36.7441 150.713C36.6843 150.854 36.6003 150.978 36.4925 151.086C36.3863 151.193 36.2624 151.277 36.1208 151.339C35.9792 151.401 35.8283 151.432 35.6682 151.432ZM35.6682 150.354C35.6021 150.354 35.5482 150.332 35.5066 150.289C35.465 150.246 35.4443 150.19 35.4443 150.122V149.248C35.4443 149.18 35.465 149.125 35.5066 149.082C35.5482 149.038 35.6021 149.016 35.6682 149.016C35.7329 149.016 35.786 149.038 35.8275 149.082C35.8691 149.125 35.8899 149.18 35.8899 149.248V150.122C35.8899 150.19 35.8691 150.246 35.8275 150.289C35.786 150.332 35.7329 150.354 35.6682 150.354Z" fill="#FFC83E"/>
</g>
<defs>
<filter id="filter0_d_1_773" x="-5.56201" y="-2.91411" width="150.491" height="198.466" filterUnits="userSpaceOnUse" color-interpolation-filters="sRGB">
<feFlood flood-opacity="0" result="BackgroundImageFix"/>
<feColorMatrix in="SourceAlpha" type="matrix" values="0 0 0 0 0 0 0 0 0 0 0 0 0 0 0 0 0 0 127 0" result="hardAlpha"/>
<feOffset/>
<feGaussianBlur stdDeviation="12.5"/>
<feColorMatrix type="matrix" values="0 0 0 0 0 0 0 0 0 0 0 0 0 0 0 0 0 0 0.06 0"/>
<feBlend mode="normal" in2="BackgroundImageFix" result="effect1_dropShadow_1_773"/>
<feBlend mode="normal" in="SourceGraphic" in2="effect1_dropShadow_1_773" result="shape"/>
</filter>
<filter id="filter1_d_1_773" x="60.856" y="42.7835" width="18.6275" height="18.6664" filterUnits="userSpaceOnUse" color-interpolation-filters="sRGB">
<feFlood flood-opacity="0" result="BackgroundImageFix"/>
<feColorMatrix in="SourceAlpha" type="matrix" values="0 0 0 0 0 0 0 0 0 0 0 0 0 0 0 0 0 0 127 0" result="hardAlpha"/>
<feOffset dy="4"/>
<feGaussianBlur stdDeviation="2"/>
<feColorMatrix type="matrix" values="0 0 0 0 0 0 0 0 0 0 0 0 0 0 0 0 0 0 0.15 0"/>
<feBlend mode="normal" in2="BackgroundImageFix" result="effect1_dropShadow_1_773"/>
<feBlend mode="normal" in="SourceGraphic" in2="effect1_dropShadow_1_773" result="shape"/>
</filter>
<filter id="filter2_d_1_773" x="1.96863" y="117.479" width="135.796" height="64.8465" filterUnits="userSpaceOnUse" color-interpolation-filters="sRGB">
<feFlood flood-opacity="0" result="BackgroundImageFix"/>
<feColorMatrix in="SourceAlpha" type="matrix" values="0 0 0 0 0 0 0 0 0 0 0 0 0 0 0 0 0 0 127 0" result="hardAlpha"/>
<feOffset/>
<feGaussianBlur stdDeviation="12.5"/>
<feColorMatrix type="matrix" values="0 0 0 0 0 0 0 0 0 0 0 0 0 0 0 0 0 0 0.06 0"/>
<feBlend mode="normal" in2="BackgroundImageFix" result="effect1_dropShadow_1_773"/>
<feBlend mode="normal" in="SourceGraphic" in2="effect1_dropShadow_1_773" result="shape"/>
</filter>
<filter id="filter3_d_1_773" x="21.7632" y="135.621" width="27.8034" height="29.2732" filterUnits="userSpaceOnUse" color-interpolation-filters="sRGB">
<feFlood flood-opacity="0" result="BackgroundImageFix"/>
<feColorMatrix in="SourceAlpha" type="matrix" values="0 0 0 0 0 0 0 0 0 0 0 0 0 0 0 0 0 0 127 0" result="hardAlpha"/>
<feOffset/>
<feGaussianBlur stdDeviation="4.88886"/>
<feColorMatrix type="matrix" values="0 0 0 0 0 0 0 0 0 0 0 0 0 0 0 0 0 0 0.06 0"/>
<feBlend mode="normal" in2="BackgroundImageFix" result="effect1_dropShadow_1_773"/>
<feBlend mode="normal" in="SourceGraphic" in2="effect1_dropShadow_1_773" result="shape"/>
</filter>
<clipPath id="clip0_1_773">
<rect width="139" height="180" fill="white"/>
</clipPath>
</defs>
</svg>
