<svg width="183" height="180" viewBox="0 0 183 180" fill="none" xmlns="http://www.w3.org/2000/svg">
<g clip-path="url(#clip0_1_1535)">
<path d="M181.851 115.827C181.851 115.827 175.524 117.83 171.039 123.137C166.554 128.444 159.518 129.232 159.518 129.232L153.18 118.776C153.18 118.776 159.505 116.843 164.094 111.906C168.683 106.97 175.524 105.365 175.524 105.365L181.862 115.821L181.851 115.827Z" fill="#0D823F"/>
<path d="M179.545 115.333C179.545 115.333 173.148 116.719 169.848 121.153C166.549 125.588 160.152 126.973 160.152 126.973L155.477 119.26C155.477 119.26 161.54 118.061 165.173 113.44C168.807 108.82 174.87 107.62 174.87 107.62L179.545 115.333Z" fill="#48D38A"/>
<path d="M171.166 115.375C169.523 112.664 166.498 111.516 164.401 112.775C162.304 114.034 161.919 117.242 163.556 119.942C165.199 122.653 168.224 123.801 170.321 122.542C172.436 121.287 172.809 118.085 171.166 115.375Z" fill="#0D823F"/>
<path d="M169.353 115.521L165.362 118.75L165.463 118.873L169.454 115.645L169.353 115.521Z" fill="#48D38A"/>
<path d="M169.8 116.064L165.809 119.292L165.909 119.416L169.9 116.187L169.8 116.064Z" fill="#48D38A"/>
<path d="M167.709 119.637L165.501 116.934L165.884 116.624L167.87 117.29C168.33 117.44 168.722 117.599 169.08 117.774L169.081 117.764C168.756 117.422 168.478 117.106 168.135 116.685L167.209 115.552L167.542 115.283L169.75 117.987L169.395 118.274L167.41 117.597C166.971 117.449 166.538 117.287 166.165 117.104L166.158 117.12C166.46 117.444 166.732 117.764 167.098 118.213L168.042 119.369L167.709 119.637Z" fill="#48D38A"/>
<path d="M86.2293 180C127.798 180 161.495 146.468 161.495 105.105C161.495 63.7415 127.798 30.2098 86.2293 30.2098C44.6609 30.2098 10.9631 63.7415 10.9631 105.105C10.9631 146.468 44.6609 180 86.2293 180Z" fill="#FFF5DB"/>
<mask id="mask0_1_1535" style="mask-type:luminance" maskUnits="userSpaceOnUse" x="12" y="30" width="151" height="150">
<path d="M87.4942 180C129.063 180 162.76 146.468 162.76 105.105C162.76 63.7415 129.063 30.2098 87.4942 30.2098C45.9259 30.2098 12.2281 63.7415 12.2281 105.105C12.2281 146.468 45.9259 180 87.4942 180Z" fill="#FFE197"/>
</mask>
<g mask="url(#mask0_1_1535)">
<path d="M84.9107 129.162C62.7825 129.162 43.7497 142.031 35.2983 160.777H134.511C126.06 142.031 107.028 129.162 84.9107 129.162Z" fill="#48D38A"/>
<path d="M134.511 160.777H35.298V203.172H134.511V160.777Z" fill="#48D38A"/>
<path d="M139.69 131.578C138.089 141.549 128.602 145.972 120.139 143.978C112.265 142.112 106.591 134.945 105.426 127.132C104.437 120.528 106.203 112.68 106.568 106.005C106.721 103.143 106.756 100.128 105.414 97.5822C104.072 95.0366 100.506 93.0541 96.6569 95.635L93.9616 93.6172C96.6451 88.6783 102.577 84.866 108.204 85.3469C113.818 85.8277 118.974 89.8632 120.775 95.189C122.434 100.104 121.363 105.465 120.41 110.557C119.468 115.659 118.703 121.138 120.892 125.842C122.446 129.185 125.471 131.813 129.014 132.892C132.533 133.959 136.523 133.479 139.69 131.578Z" fill="#40196D"/>
<path d="M95.1275 98.4139C97.305 98.4139 99.0705 96.6546 99.0705 94.4841C99.0705 92.3136 97.305 90.5543 95.1275 90.5543C92.9497 90.5543 91.1842 92.3136 91.1842 94.4841C91.1842 96.6546 92.9497 98.4139 95.1275 98.4139Z" fill="#48D38A"/>
<path d="M88.1828 169.303C94.5536 169.303 99.7177 164.156 99.7177 157.807C99.7177 151.458 94.5536 146.311 88.1828 146.311C81.8124 146.311 76.6479 151.458 76.6479 157.807C76.6479 164.156 81.8124 169.303 88.1828 169.303Z" fill="#9C7ACD"/>
<path d="M99.3766 157.724L93.6914 137.324L80.5908 134.285L75.0351 158.111L99.3766 157.724Z" fill="#9C7ACD"/>
<path d="M93.8562 134.756C94.6329 136.598 94.8214 140.375 95.1157 142.123C95.1157 142.123 86.3819 142.71 84.4398 139.894C83.6631 138.733 83.4746 137.079 84.0514 135.73C85.7111 132.727 92.5027 131.565 93.8562 134.756Z" fill="#511B7C"/>
<path d="M86.8053 140.267C78.6483 140.326 71.9861 133.768 71.9275 125.639L71.798 106.447C71.739 98.3178 78.3072 91.6779 86.4637 91.6192C94.6207 91.5608 101.283 98.118 101.342 106.248L101.471 125.439C101.542 133.569 94.9623 140.208 86.8053 140.267Z" fill="#9C7ACD"/>
<path d="M72.1277 120.784C70.1619 120.796 68.5495 119.212 68.5377 117.253L68.5023 111.962C68.4905 110.003 70.0793 108.396 72.0451 108.384C74.0108 108.373 75.6233 109.956 75.6351 111.915L75.6705 117.206C75.6823 119.165 74.1049 120.772 72.1277 120.784Z" fill="#9C7ACD"/>
<path d="M102.718 120.585C100.753 120.597 99.14 119.013 99.1282 117.054L99.0932 111.763C99.0814 109.804 100.67 108.197 102.636 108.185C104.602 108.174 106.214 109.757 106.226 111.716L106.261 117.007C106.285 118.966 104.696 120.561 102.718 120.585Z" fill="#9C7ACD"/>
<path d="M101.353 106.249C101.318 100.865 98.446 96.0315 93.9734 93.6151C94.7265 98.9291 97.2455 104.103 101.365 108.173L101.353 106.249Z" fill="#40196D"/>
<path d="M86.5814 122.426C86.3929 122.379 86.2634 122.215 86.2634 122.027L86.2166 114.707C86.2166 114.472 86.4047 114.284 86.6286 114.284C86.8639 114.284 87.0523 114.472 87.0523 114.695L87.0991 122.015C87.0991 122.25 86.9111 122.438 86.6872 122.438C86.6522 122.438 86.6168 122.438 86.5814 122.426Z" fill="#40196D"/>
<path d="M80.0136 117.381C79.8251 117.334 79.6957 117.17 79.6957 116.982L79.6839 114.694C79.6839 114.459 79.8723 114.272 80.0958 114.272C80.3315 114.272 80.5196 114.459 80.5196 114.683L80.5314 116.97C80.5314 117.205 80.3433 117.392 80.1194 117.392C80.084 117.392 80.049 117.381 80.0136 117.381Z" fill="#40196D"/>
<path d="M93.0787 117.287C92.8906 117.24 92.7612 117.076 92.7612 116.888L92.7494 114.601C92.7494 114.366 92.9379 114.178 93.1614 114.178C93.3966 114.178 93.5851 114.366 93.5851 114.589L93.5969 116.877C93.5969 117.111 93.4084 117.299 93.185 117.299C93.1377 117.299 93.1141 117.299 93.0787 117.287Z" fill="#40196D"/>
<path d="M93.5391 122.322C92.5622 121.935 91.4557 122.404 91.0674 123.378C90.6786 124.351 91.1496 125.455 92.1266 125.841L93.8098 126.51C94.4807 125.455 94.9281 124.234 95.0693 122.921L93.5391 122.322Z" fill="#6F4A9D"/>
<path d="M86.6408 130.838C86.4527 130.791 86.3233 130.627 86.3233 130.44C86.3233 130.205 86.5114 130.017 86.7353 130.017C91.161 129.982 94.7274 126.381 94.692 121.97C94.692 121.735 94.8804 121.547 95.1039 121.547C95.3392 121.547 95.5277 121.735 95.5277 121.958C95.5631 126.826 91.6198 130.815 86.7353 130.85C86.6998 130.85 86.6762 130.85 86.6408 130.838Z" fill="#40196D"/>
<path d="M98.0222 97.0498C95.2916 93.7179 91.1247 91.5948 86.4755 91.6183C78.3185 91.6771 71.739 98.3165 71.798 106.446L71.833 111.948C82.7443 111.303 92.2548 105.543 98.0222 97.0498Z" fill="#40196D"/>
<path d="M95.5749 169.057V169.866C95.5749 171.814 93.9975 173.385 92.0435 173.385H79.8614C77.931 173.385 76.3654 171.837 76.33 169.936C76.4126 169.855 76.4949 169.784 76.5775 169.714C78.4961 168.048 81.5796 166.57 84.6164 165.256C90.5019 167.18 93.6446 168.083 95.5749 169.057Z" fill="#5F36A8"/>
<path d="M136.593 188.541L123.544 200.717C119.283 193.99 99.9863 175.119 97.4032 172.316C96.3959 171.222 93.6083 167.071 84.9293 164.165C87.1485 163.034 89.3268 161.999 90.9911 161.053C94.5596 159.019 95.2308 157.051 95.308 154.027C95.3346 153.096 95.2435 152.174 95.082 151.255L95.1398 151.24L94.439 139.612C97.625 141.608 98.7087 145.304 99.4276 148.821C100.215 152.688 100.425 156.765 102.217 160.278C104.076 163.927 132.161 186.608 136.593 188.541Z" fill="#9C7ACD"/>
<path d="M76.33 169.936C73.2696 172.693 49.0461 200.847 47.4687 204.66L35.7689 195.756C42.784 191.521 70.0089 159.472 71.8688 151.566C72.422 149.243 73.8932 145.771 76.3182 144.598V154.463L87.7118 149.548L91.3372 147.976C92.7966 147.355 94.4681 148.164 94.8682 149.689C95.1507 150.768 95.386 151.859 95.5041 152.962C95.6217 153.889 95.6449 154.803 95.5627 155.742C95.3156 158.757 94.5271 160.693 90.8308 162.499C89.1126 163.343 86.8761 164.247 84.5928 165.244C81.556 166.57 78.4838 168.036 76.5534 169.702C76.4944 169.795 76.4004 169.866 76.33 169.936Z" fill="#9C7ACD"/>
<path d="M76.33 135.437V135.39C76.33 133.443 77.9074 131.871 79.861 131.871H86.4173H92.0435C93.9975 131.871 95.5745 133.455 95.5745 135.39V141.314V152.963L95.5159 152.975C95.3983 151.872 95.1744 150.781 94.88 149.702C94.4681 148.177 92.7966 147.368 91.3491 147.989L87.7236 149.561L76.33 144.61V135.437ZM82.5094 136.575C82.5094 135.707 81.8031 134.991 80.9206 134.991C80.0376 134.991 79.3314 135.695 79.3314 136.575C79.3314 137.443 80.0376 138.159 80.9206 138.159C81.8031 138.159 82.5094 137.455 82.5094 136.575Z" fill="#5F36A8"/>
<path d="M87.7241 149.547L76.33 154.474V144.608L87.7241 149.547Z" fill="#9C7ACD"/>
<path d="M76.33 154.875C76.2473 154.875 76.1769 154.852 76.1061 154.805C75.9884 154.734 75.9298 154.605 75.9298 154.476V144.61C75.9298 144.388 76.1061 144.212 76.33 144.212C76.5534 144.212 76.7301 144.388 76.7301 144.61V153.866L87.5705 149.186C87.7708 149.103 88.0061 149.186 88.1001 149.397C88.1828 149.596 88.1001 149.831 87.8885 149.924L76.4948 154.84C76.4358 154.863 76.3768 154.875 76.33 154.875Z" fill="#40196D"/>
<path d="M84.6164 165.656C84.4633 165.656 84.3103 165.562 84.2513 165.422C84.1572 165.222 84.2512 164.987 84.4633 164.893C85.1578 164.588 85.8405 164.296 86.5113 164.014C88.0415 163.357 89.5009 162.747 90.6782 162.16C94.1737 160.436 94.939 158.641 95.1861 155.72C95.2566 154.84 95.2447 153.949 95.1271 153.022C95.1035 152.799 95.2566 152.6 95.4805 152.576C95.6921 152.553 95.9042 152.705 95.9278 152.928C96.0455 153.913 96.0687 154.852 95.9864 155.791C95.7275 158.934 94.8564 160.999 91.0311 162.876C89.8306 163.474 88.3709 164.096 86.8175 164.753C86.1462 165.034 85.4635 165.328 84.769 165.633C84.7222 165.644 84.6632 165.656 84.6164 165.656Z" fill="#40196D"/>
<path d="M82.0266 157.197C81.8735 157.197 81.7205 157.103 81.6619 156.963C81.5792 156.763 81.6619 156.528 81.8735 156.434L95.0685 150.733C95.2684 150.651 95.5041 150.733 95.5981 150.944C95.6803 151.144 95.5981 151.378 95.386 151.472L82.1915 157.174C82.1324 157.185 82.0738 157.197 82.0266 157.197Z" fill="#40196D"/>
<path d="M82.0266 161.983C81.8735 161.983 81.7205 161.889 81.6619 161.749C81.5792 161.549 81.6619 161.315 81.8735 161.221L95.4332 155.367C95.6331 155.285 95.8688 155.367 95.9628 155.578C96.0451 155.778 95.9628 156.012 95.7508 156.106L82.1915 161.96C82.1324 161.983 82.0738 161.983 82.0266 161.983Z" fill="#40196D"/>
<path d="M82.1801 152.33C82.121 152.33 82.0742 152.319 82.027 152.295L76.1655 149.761C75.9652 149.679 75.8712 149.444 75.9534 149.233C76.0479 149.034 76.2714 148.94 76.483 149.022L82.3449 151.556C82.5448 151.638 82.6393 151.873 82.5566 152.084C82.4862 152.236 82.3449 152.33 82.1801 152.33Z" fill="#40196D"/>
<path d="M82.5094 136.575C82.5094 135.707 81.8031 134.992 80.9206 134.992C80.0376 134.992 79.3314 135.695 79.3314 136.575C79.3314 137.443 80.0376 138.159 80.9206 138.159C81.8031 138.159 82.5094 137.455 82.5094 136.575Z" fill="white"/>
</g>
<g filter="url(#filter0_d_1_1535)">
<path d="M134.632 10.4895H39.6359C37.3072 10.4895 35.4193 12.368 35.4193 14.6853V86.4336C35.4193 88.7508 37.3072 90.6294 39.6359 90.6294H134.632C136.961 90.6294 138.848 88.7508 138.848 86.4336V14.6853C138.848 12.368 136.961 10.4895 134.632 10.4895Z" fill="white"/>
</g>
<path d="M121.551 64.529H52.8592C50.9962 64.529 49.4859 66.0318 49.4859 67.8856V77.9139C49.4859 79.7677 50.9962 81.2705 52.8592 81.2705H121.551C123.414 81.2705 124.924 79.7677 124.924 77.9139V67.8856C124.924 66.0318 123.414 64.529 121.551 64.529Z" fill="#F9F9F9"/>
<path d="M83.7672 74.3052H84.6333V74.6836H82.4432V74.3052H83.3093V71.3354L82.5039 71.846V71.4122L83.5079 70.7757H83.7672V74.3052Z" fill="black"/>
<path d="M86.6998 74.7277C86.2512 74.7277 85.9092 74.5594 85.6739 74.2225C85.442 73.8822 85.3261 73.3846 85.3261 72.7296C85.3261 72.0747 85.442 71.5787 85.6739 71.2422C85.9092 70.902 86.2512 70.7316 86.6998 70.7316C87.1485 70.7316 87.4888 70.902 87.7203 71.2422C87.9555 71.5787 88.0732 72.073 88.0732 72.7242C88.0732 73.3792 87.9555 73.8768 87.7203 74.2171C87.4888 74.5573 87.1485 74.7277 86.6998 74.7277ZM86.6998 74.3488C87.0123 74.3488 87.2421 74.2171 87.3893 73.9536C87.5402 73.6901 87.6153 73.2806 87.6153 72.7242C87.6153 72.1716 87.5419 71.7654 87.3947 71.5057C87.2476 71.246 87.0161 71.1159 86.6998 71.1159C86.3874 71.1159 86.1555 71.246 86.0045 71.5057C85.8578 71.7654 85.784 72.1716 85.784 72.7242C85.784 73.2768 85.8578 73.6867 86.0045 73.9536C86.1555 74.2171 86.3874 74.3488 86.6998 74.3488Z" fill="black"/>
<path d="M89.6046 73.1194C89.3069 73.1194 89.075 73.0187 88.9097 72.8173C88.744 72.6164 88.6614 72.318 88.6614 71.9228C88.6614 71.5313 88.744 71.2347 88.9097 71.0337C89.075 70.8323 89.3069 70.7316 89.6046 70.7316C89.9023 70.7316 90.1342 70.8323 90.2995 71.0337C90.469 71.2347 90.5534 71.5313 90.5534 71.9228C90.5534 72.318 90.469 72.6164 90.2995 72.8173C90.1342 73.0187 89.9023 73.1194 89.6046 73.1194ZM90.0238 74.6836H89.5882L91.8609 70.7757H92.2965L90.0238 74.6836ZM89.6046 72.801C89.7885 72.801 89.9226 72.7313 90.0073 72.5924C90.0954 72.4498 90.1397 72.2266 90.1397 71.9228C90.1397 71.6228 90.0954 71.4033 90.0073 71.264C89.9226 71.1214 89.7885 71.0501 89.6046 71.0501C89.4246 71.0501 89.2901 71.1214 89.2019 71.264C89.1138 71.4033 89.0695 71.6228 89.0695 71.9228C89.0695 72.2266 89.1138 72.4498 89.2019 72.5924C89.2901 72.7313 89.4246 72.801 89.6046 72.801ZM92.2801 74.7222C91.9819 74.7222 91.7504 74.6215 91.5852 74.4201C91.4194 74.2192 91.3368 73.9208 91.3368 73.5256C91.3368 73.1303 91.4194 72.8341 91.5852 72.6365C91.7504 72.4351 91.9819 72.3344 92.2801 72.3344C92.5777 72.3344 92.8097 72.4351 92.9749 72.6365C93.144 72.8341 93.2288 73.1303 93.2288 73.5256C93.2288 73.9208 93.144 74.2192 92.9749 74.4201C92.8097 74.6215 92.5777 74.7222 92.2801 74.7222ZM92.2801 74.4038C92.4677 74.4038 92.6035 74.3341 92.6882 74.1952C92.7763 74.0564 92.8206 73.8331 92.8206 73.5256C92.8206 73.2256 92.7763 73.0061 92.6882 72.8668C92.6001 72.7242 92.4639 72.6529 92.2801 72.6529C92.0962 72.6529 91.96 72.7242 91.8719 72.8668C91.7871 73.0061 91.745 73.2256 91.745 73.5256C91.745 73.8294 91.7871 74.0526 91.8719 74.1952C91.96 74.3341 92.0962 74.4038 92.2801 74.4038Z" fill="black"/>
<path d="M116.508 78.2514C119.554 78.2514 122.024 75.7939 122.024 72.7624C122.024 69.7309 119.554 67.2733 116.508 67.2733C113.461 67.2733 110.992 69.7309 110.992 72.7624C110.992 75.7939 113.461 78.2514 116.508 78.2514Z" fill="#40196D"/>
<path d="M114.386 72.6973C114.386 72.5001 114.547 72.3403 114.745 72.3403H118.336C118.534 72.3403 118.695 72.5001 118.695 72.6973C118.695 72.8945 118.534 73.0548 118.336 73.0548H114.745C114.547 73.0548 114.386 72.8945 114.386 72.6973Z" fill="white"/>
<path d="M116.573 70.651C116.771 70.651 116.932 70.8109 116.932 71.0085V74.5813C116.932 74.7785 116.771 74.9383 116.573 74.9383C116.375 74.9383 116.214 74.7785 116.214 74.5813V71.0085C116.214 70.8109 116.375 70.651 116.573 70.651Z" fill="white"/>
<path fill-rule="evenodd" clip-rule="evenodd" d="M57.7601 77.9773C60.6544 77.9773 63.0005 75.6424 63.0005 72.7628C63.0005 69.8828 60.6544 67.5483 57.7601 67.5483C54.8658 67.5483 52.5197 69.8828 52.5197 72.7628C52.5197 75.6424 54.8658 77.9773 57.7601 77.9773ZM57.7601 78.2518C60.8066 78.2518 63.2762 75.7943 63.2762 72.7628C63.2762 69.7313 60.8066 67.2734 57.7601 67.2734C54.7136 67.2734 52.244 69.7313 52.244 72.7628C52.244 75.7943 54.7136 78.2518 57.7601 78.2518Z" fill="#40196D"/>
<path d="M55.6383 72.6973C55.6383 72.5001 55.799 72.3403 55.9976 72.3403H59.588C59.7862 72.3403 59.9468 72.5001 59.9468 72.6973C59.9468 72.8945 59.7862 73.0548 59.588 73.0548H55.9976C55.799 73.0548 55.6383 72.8945 55.6383 72.6973Z" fill="#40196D"/>
<path d="M67.5089 55.2856H68.9113C69.2478 55.2856 69.5084 55.3666 69.693 55.5281C69.8782 55.6876 69.9705 55.9045 69.9705 56.1789C69.9705 56.4504 69.8765 56.6673 69.6893 56.8292C69.5016 56.9912 69.2423 57.0722 68.9113 57.0722H68.2864V58.2164H67.5089V55.2856ZM68.808 56.4957C69.1002 56.4957 69.2465 56.3929 69.2465 56.1869C69.2465 56.0828 69.2107 56.0043 69.139 55.9523C69.0698 55.8973 68.9594 55.8701 68.808 55.8701H68.2864V56.4957H68.808Z" fill="black"/>
<path d="M72.1509 57.245H70.8311C70.845 57.407 70.8918 57.5236 70.972 57.595C71.0521 57.6663 71.1693 57.7019 71.3236 57.7019C71.4286 57.7019 71.5332 57.6856 71.6382 57.6524C71.7427 57.6168 71.838 57.5689 71.9236 57.5085L72.1138 58.0024C72.0088 58.0792 71.8823 58.1396 71.7331 58.1836C71.5842 58.2277 71.4354 58.2495 71.2865 58.2495C71.0466 58.2495 70.8383 58.2055 70.6616 58.1178C70.4849 58.0301 70.35 57.905 70.2564 57.7431C70.1624 57.5786 70.1156 57.3852 70.1156 57.1628C70.1156 56.9513 70.1598 56.7633 70.248 56.5989C70.339 56.4315 70.463 56.301 70.6203 56.2074C70.7801 56.1143 70.9623 56.0677 71.1663 56.0677C71.3649 56.0677 71.5387 56.1113 71.6875 56.1994C71.8368 56.2871 71.9511 56.4134 72.0312 56.5779C72.1109 56.7399 72.1509 56.9295 72.1509 57.146V57.245ZM71.187 56.5779C71.0023 56.5779 70.8864 56.6853 70.8396 56.8993H71.5096C71.4822 56.6853 71.3746 56.5779 71.187 56.5779Z" fill="black"/>
<path d="M73.8253 56.0757C73.9274 56.0757 74.0062 56.0908 74.0615 56.121V56.8003C73.9425 56.7453 73.8283 56.718 73.7178 56.718C73.4037 56.718 73.2464 56.8678 73.2464 57.167V58.2164H72.4975V56.7264C72.4975 56.5011 72.4866 56.301 72.4642 56.1252H73.1675L73.2131 56.4751C73.2628 56.3463 73.3429 56.2473 73.453 56.1789C73.5635 56.1101 73.6874 56.0757 73.8253 56.0757Z" fill="black"/>
<path d="M75.2775 58.2495C74.9216 58.2495 74.6429 58.1534 74.4418 57.9613C74.2402 57.7691 74.1395 57.5073 74.1395 57.175C74.1395 56.9555 74.188 56.7621 74.2845 56.5947C74.3836 56.4273 74.5215 56.298 74.6982 56.2074C74.8748 56.1143 75.0789 56.0677 75.3104 56.0677C75.4647 56.0677 75.6165 56.0908 75.7654 56.1378C75.9147 56.1814 76.0331 56.2418 76.1213 56.3186L75.9311 56.8334C75.8565 56.773 75.7696 56.7247 75.6705 56.6891C75.571 56.6534 75.4757 56.6358 75.385 56.6358C75.2303 56.6358 75.1118 56.6794 75.0292 56.7675C74.9465 56.8552 74.9048 56.9857 74.9048 57.1586C74.9048 57.3344 74.9465 57.4674 75.0292 57.558C75.1118 57.6457 75.232 57.6898 75.3888 57.6898C75.4799 57.6898 75.5739 57.6717 75.6705 57.6361C75.7696 57.6004 75.8565 57.5526 75.9311 57.4922L76.1213 57.9982C76.0302 58.0779 75.9087 58.1396 75.7574 58.1836C75.6081 58.2277 75.4483 58.2495 75.2775 58.2495Z" fill="black"/>
<path d="M78.3042 57.245H76.9844C76.9983 57.407 77.0451 57.5236 77.1252 57.595C77.2053 57.6663 77.3226 57.7019 77.4769 57.7019C77.5814 57.7019 77.6864 57.6856 77.7914 57.6524C77.896 57.6168 77.9913 57.5689 78.0769 57.5085L78.2671 58.0024C78.1621 58.0792 78.0352 58.1396 77.8863 58.1836C77.7375 58.2277 77.5886 58.2495 77.4398 58.2495C77.1994 58.2495 76.9916 58.2055 76.8149 58.1178C76.6382 58.0301 76.5033 57.905 76.4092 57.7431C76.3156 57.5786 76.2688 57.3852 76.2688 57.1628C76.2688 56.9513 76.3131 56.7633 76.4012 56.5989C76.4923 56.4315 76.6163 56.301 76.7736 56.2074C76.9334 56.1143 77.1155 56.0677 77.3196 56.0677C77.5182 56.0677 77.6919 56.1113 77.8408 56.1994C77.99 56.2871 78.1043 56.4134 78.1844 56.5779C78.2641 56.7399 78.3042 56.9295 78.3042 57.146V57.245ZM77.3403 56.5779C77.1556 56.5779 77.0396 56.6853 76.9928 56.8993H77.6628C77.6354 56.6853 77.5279 56.5779 77.3403 56.5779Z" fill="black"/>
<path d="M80.0575 56.0677C80.3054 56.0677 80.4905 56.1432 80.6115 56.2938C80.7359 56.4424 80.7979 56.6673 80.7979 56.9694V58.2164H80.049V57.0021C80.049 56.8733 80.0271 56.781 79.9828 56.7264C79.9386 56.6685 79.8698 56.64 79.7762 56.64C79.6628 56.64 79.5717 56.6782 79.503 56.755C79.4338 56.8292 79.3997 56.9278 79.3997 57.0516V58.2164H78.6508V56.7264C78.6508 56.5011 78.6398 56.301 78.6175 56.1252H79.3208L79.3583 56.434C79.438 56.3161 79.5376 56.2254 79.656 56.1621C79.7745 56.0992 79.9086 56.0677 80.0575 56.0677Z" fill="black"/>
<path d="M82.4736 57.6483C82.5233 57.6483 82.5895 57.6403 82.6722 57.6239V58.1878C82.5701 58.229 82.4402 58.2495 82.2834 58.2495C81.9992 58.2495 81.7825 58.1698 81.6336 58.0108C81.4877 57.8518 81.4143 57.6306 81.4143 57.3478V56.6727H81.0214V56.1252H81.4143V55.6519L82.1632 55.4131V56.1252H82.6679V56.6727H82.1632V57.3478C82.1632 57.4469 82.1923 57.5224 82.2501 57.5744C82.3108 57.6239 82.3854 57.6483 82.4736 57.6483Z" fill="black"/>
<path d="M85.1667 56.1252V58.2164H84.4305V57.9323C84.3697 58.0313 84.2816 58.1094 84.1657 58.1673C84.0497 58.2222 83.9228 58.2495 83.7849 58.2495C83.6057 58.2495 83.4459 58.2055 83.3051 58.1178C83.1646 58.0301 83.0542 57.905 82.9741 57.7431C82.8969 57.5786 82.8585 57.3889 82.8585 57.175C82.8585 56.958 82.8982 56.7663 82.9783 56.5989C83.0584 56.4315 83.1684 56.301 83.3093 56.2074C83.4501 56.1143 83.6087 56.0677 83.7849 56.0677C83.9228 56.0677 84.0484 56.0979 84.1614 56.1583C84.2774 56.2158 84.3672 56.2938 84.4305 56.3929V56.1252H85.1667ZM84.0168 57.6936C84.1492 57.6936 84.2513 57.6482 84.3229 57.558C84.3946 57.4674 84.4305 57.3369 84.4305 57.167C84.4305 56.9937 84.3946 56.862 84.3229 56.7717C84.2513 56.6782 84.1492 56.6316 84.0168 56.6316C83.887 56.6316 83.7849 56.6794 83.7107 56.7755C83.6361 56.8691 83.599 57.0021 83.599 57.175C83.599 57.3424 83.6348 57.4716 83.7065 57.5618C83.7782 57.6499 83.8815 57.6936 84.0168 57.6936Z" fill="black"/>
<path d="M87.8501 56.1252V58.085C87.8501 58.4278 87.7468 58.6888 87.5398 58.8671C87.3332 59.048 87.0296 59.1386 86.6298 59.1386C86.2879 59.1386 85.991 59.0782 85.7401 58.9578L85.8519 58.414C85.9758 58.4689 86.1028 58.5117 86.2326 58.5419C86.365 58.5747 86.489 58.591 86.605 58.591C86.7757 58.591 86.9014 58.5541 86.9815 58.4799C87.0642 58.4085 87.1055 58.2961 87.1055 58.1425V57.8337C87.0363 57.9243 86.9427 58.0011 86.8242 58.064C86.7083 58.1274 86.5843 58.1589 86.4519 58.1589C86.2727 58.1589 86.1112 58.1165 85.9678 58.0313C85.827 57.9436 85.717 57.8215 85.6368 57.665C85.5567 57.5056 85.5167 57.3218 85.5167 57.1133C85.5167 56.9073 85.5567 56.7264 85.6368 56.5699C85.717 56.4105 85.827 56.2871 85.9678 56.1994C86.1112 56.1113 86.2727 56.0677 86.4519 56.0677C86.5923 56.0677 86.7209 56.0962 86.8365 56.1541C86.9524 56.2116 87.0422 56.2901 87.1055 56.3887V56.1252H87.8501ZM86.6834 57.6033C86.8158 57.6033 86.9191 57.5606 86.9937 57.4754C87.0684 57.3877 87.1055 57.2668 87.1055 57.1133C87.1055 56.9652 87.0684 56.8485 86.9937 56.7633C86.9191 56.6757 86.8158 56.6316 86.6834 56.6316C86.551 56.6316 86.4464 56.674 86.3693 56.7592C86.2946 56.8443 86.2575 56.9622 86.2575 57.1133C86.2575 57.2643 86.2959 57.3835 86.3731 57.4716C86.4506 57.5593 86.5539 57.6033 86.6834 57.6033Z" fill="black"/>
<path d="M90.2308 57.245H88.911C88.9249 57.407 88.9717 57.5236 89.0519 57.595C89.132 57.6663 89.2492 57.7019 89.4035 57.7019C89.5085 57.7019 89.6131 57.6856 89.7181 57.6524C89.8227 57.6168 89.9179 57.5689 90.0035 57.5085L90.1937 58.0024C90.0887 58.0792 89.9622 58.1396 89.8129 58.1836C89.6641 58.2277 89.5153 58.2495 89.3664 58.2495C89.1265 58.2495 88.9182 58.2055 88.7415 58.1178C88.5653 58.0301 88.4299 57.905 88.3363 57.7431C88.2423 57.5786 88.1955 57.3852 88.1955 57.1628C88.1955 56.9513 88.2397 56.7633 88.3279 56.5989C88.4189 56.4315 88.5429 56.301 88.7002 56.2074C88.86 56.1143 89.0422 56.0677 89.2462 56.0677C89.4448 56.0677 89.6186 56.1113 89.7674 56.1994C89.9167 56.2871 90.0309 56.4134 90.1111 56.5779C90.1908 56.7399 90.2308 56.9295 90.2308 57.146V57.245ZM89.2669 56.5779C89.0822 56.5779 88.9663 56.6853 88.9195 56.8993H89.5899C89.5621 56.6853 89.4545 56.5779 89.2669 56.5779Z" fill="black"/>
<path d="M93.0184 57.6483C93.0681 57.6483 93.1343 57.6403 93.217 57.6239V58.1878C93.1149 58.229 92.9855 58.2495 92.8282 58.2495C92.544 58.2495 92.3277 58.1698 92.1784 58.0108C92.0325 57.8518 91.9592 57.6306 91.9592 57.3478V56.6727H91.5662V56.1252H91.9592V55.6519L92.708 55.4131V56.1252H93.2128V56.6727H92.708V57.3478C92.708 57.4469 92.7371 57.5224 92.7949 57.5744C92.8556 57.6239 92.9303 57.6483 93.0184 57.6483Z" fill="black"/>
<path d="M94.5575 58.2495C94.323 58.2495 94.1189 58.2055 93.9452 58.1178C93.7715 58.0301 93.6378 57.9038 93.5438 57.7389C93.4502 57.5744 93.4034 57.381 93.4034 57.1586C93.4034 56.9362 93.4502 56.7428 93.5438 56.5779C93.6378 56.4134 93.7715 56.2871 93.9452 56.1994C94.1189 56.1113 94.323 56.0677 94.5575 56.0677C94.7894 56.0677 94.9905 56.113 95.1617 56.2036C95.3354 56.2913 95.4691 56.4176 95.5627 56.5821C95.6567 56.7441 95.7035 56.9362 95.7035 57.1586C95.7035 57.381 95.6567 57.5744 95.5627 57.7389C95.4691 57.9008 95.3354 58.0271 95.1617 58.1178C94.9905 58.2055 94.7894 58.2495 94.5575 58.2495ZM94.5575 57.6936C94.8277 57.6936 94.9631 57.5152 94.9631 57.1586C94.9631 56.9773 94.9285 56.8443 94.8594 56.7592C94.7932 56.6715 94.6928 56.6274 94.5575 56.6274C94.4196 56.6274 94.3163 56.6715 94.2471 56.7592C94.1784 56.8443 94.1438 56.9773 94.1438 57.1586C94.1438 57.3424 94.1784 57.4783 94.2471 57.566C94.3163 57.6512 94.4196 57.6936 94.5575 57.6936Z" fill="black"/>
<path d="M98.3646 58.2537C98.1441 58.2537 97.9261 58.2248 97.7111 58.1673C97.4956 58.1094 97.3206 58.0313 97.1857 57.9323L97.4298 57.3852C97.5732 57.4754 97.7246 57.5455 97.8848 57.595C98.0475 57.6415 98.2103 57.665 98.3731 57.665C98.5384 57.665 98.6653 57.6428 98.7534 57.5992C98.8419 57.5526 98.8858 57.488 98.8858 57.4057C98.8858 57.3315 98.8457 57.2711 98.766 57.2245C98.6859 57.175 98.5354 57.1271 98.3149 57.0801C98.0366 57.0256 97.8198 56.9581 97.6655 56.8788C97.5108 56.7961 97.402 56.7004 97.3387 56.5905C97.278 56.4806 97.2477 56.3476 97.2477 56.1911C97.2477 56.0127 97.2987 55.852 97.4007 55.7094C97.5028 55.5642 97.6461 55.4513 97.8308 55.372C98.0155 55.2894 98.2267 55.2483 98.4637 55.2483C98.6762 55.2483 98.8816 55.2785 99.0802 55.3389C99.2817 55.3968 99.439 55.4736 99.552 55.5697L99.3121 56.1172C99.1822 56.0266 99.046 55.9578 98.9022 55.9112C98.7589 55.8617 98.6155 55.8369 98.4722 55.8369C98.3313 55.8369 98.2183 55.8646 98.1327 55.9196C98.0475 55.9716 98.0045 56.0429 98.0045 56.1336C98.0045 56.1831 98.0197 56.2242 98.0501 56.2569C98.0804 56.2901 98.1369 56.3228 98.22 56.356C98.3026 56.3862 98.4266 56.4189 98.5923 56.4546C98.8597 56.512 99.0692 56.5821 99.221 56.6643C99.3753 56.7441 99.4846 56.8389 99.5478 56.9488C99.6115 57.0558 99.6431 57.1846 99.6431 57.3357C99.6431 57.621 99.5314 57.8459 99.3079 58.0108C99.0844 58.1727 98.7698 58.2537 98.3646 58.2537Z" fill="black"/>
<path d="M102.249 56.1252V58.2164H101.512V57.9323C101.452 58.0313 101.363 58.1094 101.247 58.1673C101.132 58.2222 101.005 58.2495 100.867 58.2495C100.688 58.2495 100.528 58.2055 100.387 58.1178C100.246 58.0301 100.136 57.905 100.056 57.7431C99.9791 57.5786 99.9403 57.3889 99.9403 57.175C99.9403 56.958 99.9804 56.7663 100.06 56.5989C100.14 56.4315 100.251 56.301 100.391 56.2074C100.532 56.1143 100.69 56.0677 100.867 56.0677C101.005 56.0677 101.13 56.0979 101.244 56.1583C101.359 56.2158 101.449 56.2938 101.512 56.3929V56.1252H102.249ZM101.099 57.6936C101.231 57.6936 101.333 57.6482 101.405 57.558C101.476 57.4674 101.512 57.3369 101.512 57.167C101.512 56.9937 101.476 56.862 101.405 56.7717C101.333 56.6782 101.231 56.6316 101.099 56.6316C100.969 56.6316 100.867 56.6794 100.793 56.7755C100.718 56.8691 100.681 57.0021 100.681 57.175C100.681 57.3424 100.717 57.4716 100.788 57.5618C100.86 57.6499 100.964 57.6936 101.099 57.6936Z" fill="black"/>
<path d="M104.866 56.1294L103.931 58.2164H103.314L102.392 56.1294H103.17L103.641 57.3315L104.13 56.1294H104.866Z" fill="black"/>
<path d="M106.901 57.245H105.581C105.595 57.407 105.642 57.5236 105.722 57.595C105.802 57.6663 105.919 57.7019 106.073 57.7019C106.178 57.7019 106.283 57.6856 106.388 57.6524C106.493 57.6168 106.588 57.5689 106.673 57.5085L106.864 58.0024C106.759 58.0792 106.632 58.1396 106.483 58.1836C106.334 58.2277 106.185 58.2495 106.036 58.2495C105.796 58.2495 105.588 58.2055 105.411 58.1178C105.235 58.0301 105.1 57.905 105.006 57.7431C104.912 57.5786 104.865 57.3852 104.865 57.1628C104.865 56.9513 104.91 56.7633 104.998 56.5989C105.089 56.4315 105.213 56.301 105.37 56.2074C105.53 56.1143 105.712 56.0677 105.916 56.0677C106.115 56.0677 106.288 56.1113 106.437 56.1994C106.587 56.2871 106.701 56.4134 106.781 56.5779C106.861 56.7399 106.901 56.9295 106.901 57.146V57.245ZM105.937 56.5779C105.752 56.5779 105.636 56.6853 105.589 56.8993H106.26C106.232 56.6853 106.124 56.5779 105.937 56.5779Z" fill="black"/>
<path d="M74.3625 20.9606C74.1125 20.9606 73.8658 20.928 73.6217 20.8627C73.3779 20.7973 73.1793 20.7087 73.0263 20.5967L73.3029 19.9762C73.4656 20.0788 73.6377 20.1582 73.8186 20.2141C74.0033 20.267 74.1875 20.2934 74.3722 20.2934C74.5594 20.2934 74.7032 20.2685 74.8036 20.2188C74.9035 20.1659 74.9533 20.0928 74.9533 19.9995C74.9533 19.9155 74.9081 19.8471 74.8175 19.7942C74.7268 19.7382 74.5565 19.6838 74.3064 19.6309C73.9906 19.5687 73.7452 19.4925 73.5702 19.4023C73.3952 19.309 73.2717 19.2001 73.2 19.0757C73.1313 18.9513 73.0967 18.8004 73.0967 18.6231C73.0967 18.421 73.1545 18.239 73.27 18.0772C73.386 17.9124 73.5483 17.7849 73.7579 17.6947C73.9674 17.6014 74.2065 17.5547 74.4751 17.5547C74.7159 17.5547 74.9486 17.5889 75.1738 17.6573C75.4019 17.7227 75.5803 17.8098 75.7084 17.9186L75.4365 18.5392C75.2893 18.4365 75.1346 18.3587 74.9722 18.3059C74.8095 18.2499 74.6471 18.2219 74.4848 18.2219C74.325 18.2219 74.1968 18.253 74.1002 18.3152C74.0033 18.3743 73.9548 18.4552 73.9548 18.5578C73.9548 18.6138 73.9721 18.6605 74.0062 18.6978C74.0408 18.7351 74.1049 18.7725 74.1985 18.8098C74.2925 18.844 74.4329 18.8813 74.6206 18.9217C74.9237 18.9871 75.1611 19.0664 75.3332 19.1597C75.5082 19.2499 75.6317 19.3572 75.7038 19.4816C75.7755 19.6029 75.8113 19.7491 75.8113 19.9202C75.8113 20.2437 75.6848 20.4987 75.4318 20.6854C75.1784 20.8689 74.8221 20.9606 74.3625 20.9606Z" fill="black"/>
<path d="M77.8273 18.4831C78.0301 18.4831 78.2114 18.5361 78.3708 18.6418C78.5306 18.7476 78.6554 18.8953 78.7461 19.085C78.8367 19.2748 78.8823 19.4925 78.8823 19.7382C78.8823 19.9808 78.8367 20.1955 78.7461 20.3821C78.6588 20.5656 78.5353 20.7071 78.3759 20.8067C78.2165 20.9062 78.0335 20.956 77.8273 20.956C77.6709 20.956 77.5288 20.9264 77.4006 20.8673C77.2724 20.8051 77.1737 20.7196 77.105 20.6107V21.9264H76.2562V19.2297C76.2562 18.9746 76.244 18.7476 76.2187 18.5485H77.016L77.0628 18.9171C77.1223 18.7864 77.2205 18.6822 77.3584 18.6044C77.4959 18.5236 77.6519 18.4831 77.8273 18.4831ZM77.5692 20.3261C77.7223 20.3261 77.8383 20.2764 77.9163 20.1768C77.9943 20.0773 78.0335 19.9311 78.0335 19.7382C78.0335 19.5423 77.9926 19.3914 77.9116 19.2856C77.8332 19.1768 77.7193 19.1223 77.5692 19.1223C77.4162 19.1223 77.299 19.1737 77.2176 19.2763C77.1362 19.379 77.0957 19.5298 77.0957 19.7289C77.0957 19.9218 77.1362 20.0695 77.2176 20.1721C77.299 20.2748 77.4162 20.3261 77.5692 20.3261Z" fill="black"/>
<path d="M81.4776 19.8175H79.982C79.9976 20.0011 80.0507 20.1333 80.1413 20.2141C80.232 20.295 80.3648 20.3354 80.5398 20.3354C80.6583 20.3354 80.7772 20.3168 80.8961 20.2795C81.015 20.239 81.1225 20.1846 81.2195 20.1162L81.4354 20.676C81.3165 20.7631 81.1727 20.8315 81.0041 20.8813C80.835 20.9311 80.6663 20.956 80.4976 20.956C80.2257 20.956 79.9895 20.9062 79.7897 20.8067C79.5894 20.7071 79.4363 20.5656 79.3301 20.3821C79.2238 20.1955 79.1707 19.9762 79.1707 19.7242C79.1707 19.4847 79.2204 19.2717 79.3208 19.085C79.4237 18.8953 79.5645 18.7476 79.7425 18.6418C79.9238 18.5361 80.1304 18.4831 80.3615 18.4831C80.5866 18.4831 80.7835 18.5329 80.9522 18.6325C81.1213 18.732 81.2507 18.8751 81.3414 19.0617C81.432 19.2452 81.4776 19.4598 81.4776 19.7056V19.8175ZM80.3851 19.0617C80.1755 19.0617 80.0444 19.183 79.9912 19.4256H80.7506C80.7194 19.183 80.5976 19.0617 80.3851 19.0617Z" fill="black"/>
<path d="M83.4645 18.4831C83.7457 18.4831 83.9549 18.5687 84.0927 18.7398C84.2331 18.9077 84.3036 19.1628 84.3036 19.505V20.9186H83.4548V19.5423C83.4548 19.3961 83.4299 19.2919 83.3797 19.2297C83.33 19.1643 83.2519 19.1317 83.1453 19.1317C83.0175 19.1317 82.9142 19.1752 82.8362 19.2623C82.7578 19.3463 82.719 19.4583 82.719 19.5983V20.9186H81.8702V19.2297C81.8702 18.9746 81.8575 18.7476 81.8326 18.5485H82.6296L82.6717 18.8984C82.7624 18.7646 82.875 18.662 83.0095 18.5905C83.144 18.5189 83.2954 18.4831 83.4645 18.4831Z" fill="black"/>
<path d="M87.3045 17.4847V20.9186H86.47V20.5967C86.4013 20.7087 86.301 20.7973 86.1698 20.8627C86.0387 20.9248 85.8949 20.956 85.7385 20.956C85.5352 20.956 85.3539 20.9046 85.1945 20.802C85.0351 20.6962 84.9099 20.55 84.8197 20.3634C84.732 20.1737 84.6881 19.956 84.6881 19.7102C84.6881 19.4676 84.732 19.253 84.8197 19.0664C84.9099 18.8797 85.0351 18.7367 85.1945 18.6371C85.3539 18.5345 85.5352 18.4831 85.7385 18.4831C85.8886 18.4831 86.026 18.5143 86.1513 18.5765C86.279 18.6387 86.3807 18.7226 86.4557 18.8284V17.4847H87.3045ZM86.0012 20.3261C86.1513 20.3261 86.2668 20.2748 86.3482 20.1721C86.4291 20.0664 86.47 19.9155 86.47 19.7196C86.47 19.5298 86.4279 19.3836 86.3431 19.281C86.2622 19.1752 86.1479 19.1223 86.0012 19.1223C85.8477 19.1223 85.7305 19.1737 85.6495 19.2763C85.5681 19.3758 85.5276 19.5205 85.5276 19.7102C85.5276 19.9062 85.5681 20.0586 85.6495 20.1675C85.7338 20.2732 85.851 20.3261 86.0012 20.3261Z" fill="black"/>
<path d="M90.1157 19.281V19.8455H89.2484V20.7133H88.6762V19.8455H87.8088V19.281H88.6762V18.4132H89.2484V19.281H90.1157Z" fill="black"/>
<path d="M91.877 20.9606C91.6269 20.9606 91.3798 20.928 91.1361 20.8627C90.8924 20.7973 90.6938 20.7087 90.5407 20.5967L90.8173 19.9762C90.9797 20.0788 91.1517 20.1582 91.333 20.2141C91.5173 20.267 91.702 20.2934 91.8863 20.2934C92.0739 20.2934 92.2177 20.2685 92.3176 20.2188C92.4175 20.1659 92.4677 20.0928 92.4677 19.9995C92.4677 19.9155 92.4226 19.8471 92.3319 19.7942C92.2413 19.7382 92.0709 19.6838 91.8209 19.6309C91.5051 19.5687 91.2597 19.4925 91.0847 19.4023C90.9097 19.309 90.7861 19.2001 90.714 19.0757C90.6453 18.9513 90.6112 18.8004 90.6112 18.6231C90.6112 18.421 90.6689 18.239 90.7845 18.0772C90.9 17.9124 91.0628 17.7849 91.2723 17.6947C91.4815 17.6014 91.7205 17.5547 91.9896 17.5547C92.2303 17.5547 92.4631 17.5889 92.6882 17.6573C92.9164 17.7227 93.0943 17.8098 93.2225 17.9186L92.9505 18.5392C92.8038 18.4365 92.649 18.3587 92.4867 18.3059C92.3239 18.2499 92.1616 18.2219 91.9988 18.2219C91.8394 18.2219 91.7113 18.253 91.6143 18.3152C91.5173 18.3743 91.4692 18.4552 91.4692 18.5578C91.4692 18.6138 91.4861 18.6605 91.5207 18.6978C91.5548 18.7351 91.6189 18.7725 91.713 18.8098C91.8066 18.844 91.9474 18.8813 92.135 18.9217C92.4382 18.9871 92.6756 19.0664 92.8476 19.1597C93.0226 19.2499 93.1462 19.3572 93.2179 19.4816C93.29 19.6029 93.3258 19.7491 93.3258 19.9202C93.3258 20.2437 93.1993 20.4987 92.9459 20.6854C92.6929 20.8689 92.3366 20.9606 91.877 20.9606Z" fill="black"/>
<path d="M96.2791 18.5485V20.9186H95.4446V20.5967C95.3759 20.7087 95.276 20.7973 95.1444 20.8627C95.0133 20.9249 94.8695 20.956 94.713 20.956C94.5098 20.956 94.3285 20.9062 94.1691 20.8067C94.0097 20.7071 93.8849 20.5656 93.7942 20.3821C93.7065 20.1955 93.6627 19.9808 93.6627 19.7382C93.6627 19.4925 93.7082 19.2748 93.7989 19.085C93.8895 18.8953 94.0144 18.7476 94.1737 18.6418C94.3331 18.5361 94.5132 18.4831 94.713 18.4831C94.8695 18.4831 95.0116 18.5174 95.1398 18.5858C95.2709 18.6511 95.3725 18.7398 95.4446 18.8517V18.5485H96.2791ZM94.9757 20.3261C95.1258 20.3261 95.2414 20.2748 95.3228 20.1721C95.4037 20.0695 95.4446 19.9218 95.4446 19.7289C95.4446 19.5329 95.4037 19.3837 95.3228 19.281C95.2414 19.1752 95.1258 19.1223 94.9757 19.1223C94.8286 19.1223 94.713 19.1768 94.6287 19.2856C94.5444 19.3914 94.5022 19.5423 94.5022 19.7382C94.5022 19.928 94.5427 20.0742 94.6241 20.1768C94.7055 20.2764 94.8227 20.3261 94.9757 20.3261Z" fill="black"/>
<path d="M98.4106 18.5531H99.245L98.1854 20.9186H97.4867L96.4414 18.5531H97.3227L97.8573 19.9155L98.4106 18.5531Z" fill="black"/>
<path d="M101.552 19.8175H100.055C100.071 20.0011 100.125 20.1333 100.215 20.2141C100.306 20.295 100.439 20.3354 100.614 20.3354C100.732 20.3354 100.851 20.3168 100.97 20.2795C101.089 20.239 101.196 20.1846 101.293 20.1162L101.509 20.676C101.39 20.7631 101.247 20.8315 101.078 20.8813C100.909 20.9311 100.74 20.956 100.572 20.956C100.3 20.956 100.063 20.9062 99.8636 20.8067C99.6633 20.7071 99.5103 20.5656 99.404 20.3821C99.2978 20.1955 99.2446 19.9762 99.2446 19.7242C99.2446 19.4847 99.2944 19.2717 99.3947 19.085C99.4976 18.8953 99.6385 18.7476 99.8164 18.6418C99.9977 18.5361 100.204 18.4831 100.435 18.4831C100.661 18.4831 100.857 18.5329 101.026 18.6325C101.195 18.732 101.325 18.8751 101.415 19.0617C101.506 19.2452 101.552 19.4598 101.552 19.7056V19.8175ZM100.459 19.0617C100.249 19.0617 100.118 19.183 100.065 19.4256H100.825C100.793 19.183 100.672 19.0617 100.459 19.0617Z" fill="black"/>
<path fill-rule="evenodd" clip-rule="evenodd" d="M41.0837 21.6276L38.5338 19.12C38.4264 19.0145 38.4264 18.8439 38.5338 18.7381L41.0837 16.2305C41.2388 16.0778 41.4911 16.0778 41.6465 16.2305C41.8016 16.3832 41.8016 16.631 41.6465 16.7838L39.4652 18.9292L41.6465 21.0741C41.8016 21.2271 41.8016 21.475 41.6465 21.6276C41.4911 21.7804 41.2388 21.7804 41.0837 21.6276Z" fill="#40196D"/>
<path opacity="0.9" d="M131.372 14.5788H125.64C123.186 14.5788 121.197 16.6016 121.197 19.0969C121.197 21.5922 123.186 23.615 125.64 23.615H131.372C133.826 23.615 135.815 21.5922 135.815 19.0969C135.815 16.6016 133.826 14.5788 131.372 14.5788Z" fill="#40196D"/>
<path opacity="0.9" d="M131.418 22.5919C133.291 22.5919 134.808 21.0483 134.808 19.1442C134.808 17.24 133.291 15.6964 131.418 15.6964C129.546 15.6964 128.028 17.24 128.028 19.1442C128.028 21.0483 129.546 22.5919 131.418 22.5919Z" fill="white"/>
<path d="M93.7533 31.6222H80.7901C79.8 31.6222 78.9974 32.4209 78.9974 33.4061C78.9974 34.3914 79.8 35.1901 80.7901 35.1901H93.7533C94.7434 35.1901 95.5461 34.3914 95.5461 33.4061C95.5461 32.4209 94.7434 31.6222 93.7533 31.6222Z" fill="#CACACA"/>
<path d="M70.003 42.133H69.5649V42.5039H70.003V42.905H69.5649V44.1126H69.0462L68.1097 41.8725V44.1126H67.5709V42.905H67.1378V42.5039H67.5709V42.133H67.1378V41.7322H67.5709V40.5446H68.0895L69.0209 42.8748V40.5446H69.5649V41.7322H70.003V42.133Z" fill="black"/>
<path d="M74.5164 43.5852V44.5456H70.74V43.662L72.5705 41.7253C72.9512 41.3155 73.1418 40.9415 73.1418 40.6034C73.1418 40.3882 73.0773 40.2268 72.9487 40.1193C72.8251 40.0066 72.6426 39.9502 72.4005 39.9502C71.9321 39.9502 71.4455 40.1269 70.9407 40.4804L70.5545 39.6198C70.7759 39.4302 71.0592 39.2817 71.4041 39.174C71.7491 39.0613 72.099 39.005 72.4545 39.005C73.0258 39.005 73.4791 39.1433 73.8135 39.42C74.1534 39.6915 74.3233 40.0578 74.3233 40.5189C74.3233 40.8365 74.2562 41.1311 74.1226 41.4026C73.994 41.669 73.7751 41.966 73.4661 42.2941L72.2226 43.5852H74.5164Z" fill="black"/>
<path d="M77.525 41.003C77.8648 41.003 78.1659 41.0773 78.4286 41.2259C78.6963 41.3693 78.9025 41.5743 79.0463 41.8406C79.1956 42.107 79.2706 42.4145 79.2706 42.7628C79.2706 43.1316 79.1829 43.4568 79.0079 43.7387C78.838 44.0152 78.5909 44.2305 78.2667 44.3841C77.9475 44.533 77.5739 44.6073 77.1467 44.6073C76.7968 44.6073 76.4489 44.5506 76.104 44.4382C75.7645 44.3253 75.4888 44.1768 75.278 43.9922L75.6638 43.1316C76.1529 43.4853 76.6526 43.662 77.1623 43.662C77.8058 43.662 78.1275 43.3775 78.1275 42.809C78.1275 42.5375 78.0424 42.3248 77.8728 42.1712C77.708 42.0122 77.4815 41.9329 77.1931 41.9329C77.0127 41.9329 76.8301 41.966 76.6445 42.0327C76.4645 42.0994 76.3022 42.1917 76.1584 42.3092H75.4711V39.0741H79.0004V39.9963H76.6445V41.2182C76.8866 41.0747 77.1801 41.003 77.525 41.003Z" fill="black"/>
<path d="M81.1441 43.3083V44.1C81.1441 44.4021 81.0901 44.6736 80.9817 44.9144C80.8788 45.1603 80.7013 45.4062 80.4492 45.652L79.9933 45.2987C80.2455 45.0373 80.4028 44.7864 80.4643 44.5456H79.8854V43.3083H81.1441Z" fill="black"/>
<path d="M83.8448 44.6148C83.1807 44.6148 82.6709 44.374 82.3158 43.8923C81.9654 43.4111 81.7905 42.7141 81.7905 41.8022C81.7905 40.9005 81.9654 40.2115 82.3158 39.735C82.6709 39.2586 83.1807 39.0204 83.8448 39.0204C84.5089 39.0204 85.0162 39.2586 85.3661 39.735C85.7216 40.2115 85.8991 40.9005 85.8991 41.8022C85.8991 42.7141 85.7216 43.4111 85.3661 43.8923C85.0162 44.374 84.5089 44.6148 83.8448 44.6148ZM83.8448 43.6926C84.1484 43.6926 84.3698 43.5441 84.5089 43.247C84.648 42.9499 84.7176 42.4683 84.7176 41.8022C84.7176 41.1516 84.648 40.6803 84.5089 40.3882C84.3698 40.0911 84.1484 39.9426 83.8448 39.9426C83.5412 39.9426 83.3198 40.0911 83.1807 40.3882C83.0415 40.6803 82.9719 41.1516 82.9719 41.8022C82.9719 42.4683 83.0415 42.9499 83.1807 43.247C83.3198 43.5441 83.5412 43.6926 83.8448 43.6926Z" fill="black"/>
<path d="M90.6533 43.5466H89.904V44.5456H88.7225V43.5466H86.4135V42.6554L88.9388 39.0741H89.904V42.6168H90.6533V43.5466ZM88.7225 42.6168V40.8954L87.5178 42.6168H88.7225Z" fill="black"/>
<path d="M93.1061 44.6148C92.442 44.6148 91.9322 44.374 91.5767 43.8923C91.2268 43.4111 91.0518 42.7141 91.0518 41.8022C91.0518 40.9005 91.2268 40.2115 91.5767 39.735C91.9322 39.2586 92.442 39.0204 93.1061 39.0204C93.7702 39.0204 94.2775 39.2586 94.6274 39.735C94.9825 40.2115 95.1604 40.9005 95.1604 41.8022C95.1604 42.7141 94.9825 43.4111 94.6274 43.8923C94.2775 44.374 93.7702 44.6148 93.1061 44.6148ZM93.1061 43.6926C93.4097 43.6926 93.631 43.5441 93.7702 43.247C93.9093 42.9499 93.9785 42.4683 93.9785 41.8022C93.9785 41.1516 93.9093 40.6803 93.7702 40.3882C93.631 40.0911 93.4097 39.9426 93.1061 39.9426C92.8021 39.9426 92.5807 40.0911 92.442 40.3882C92.3028 40.6803 92.2332 41.1516 92.2332 41.8022C92.2332 42.4683 92.3028 42.9499 92.442 43.247C92.5807 43.5441 92.8021 43.6926 93.1061 43.6926Z" fill="black"/>
<path d="M97.0571 43.3083V44.5456H95.7984V43.3083H97.0571Z" fill="black"/>
<path d="M100.09 41.003C100.43 41.003 100.731 41.0773 100.994 41.2259C101.261 41.3693 101.467 41.5743 101.611 41.8406C101.761 42.107 101.835 42.4145 101.835 42.7628C101.835 43.1316 101.748 43.4568 101.573 43.7387C101.403 44.0152 101.156 44.2305 100.831 44.3841C100.512 44.533 100.139 44.6073 99.7114 44.6073C99.3614 44.6073 99.014 44.5506 98.669 44.4382C98.3292 44.3253 98.0538 44.1768 97.8426 43.9922L98.2288 43.1316C98.7179 43.4853 99.2172 43.662 99.727 43.662C100.37 43.662 100.692 43.3775 100.692 42.809C100.692 42.5375 100.607 42.3248 100.437 42.1712C100.273 42.0122 100.046 41.9329 99.7578 41.9329C99.5777 41.9329 99.3947 41.966 99.2096 42.0327C99.0291 42.0994 98.8672 42.1917 98.723 42.3092H98.0357V39.0741H101.565V39.9963H99.2096V41.2182C99.4516 41.0747 99.7451 41.003 100.09 41.003Z" fill="black"/>
<path d="M105.3 41.7331C105.619 41.8252 105.863 41.9866 106.033 42.2173C106.208 42.4427 106.296 42.7217 106.296 43.0548C106.296 43.5365 106.113 43.9154 105.747 44.1923C105.382 44.4688 104.885 44.6073 104.257 44.6073C103.876 44.6073 103.511 44.5531 103.161 44.4457C102.811 44.3329 102.527 44.1818 102.311 43.9922L102.697 43.1316C103.186 43.4853 103.688 43.662 104.203 43.662C104.538 43.662 104.78 43.6057 104.929 43.4929C105.083 43.375 105.161 43.1908 105.161 42.9394C105.161 42.6986 105.083 42.5245 104.929 42.4171C104.78 42.3042 104.538 42.248 104.203 42.248H103.415V41.3104H104.072C104.391 41.3104 104.628 41.2566 104.782 41.149C104.937 41.0363 105.014 40.8673 105.014 40.6418C105.014 40.4164 104.945 40.2448 104.805 40.1269C104.672 40.0091 104.479 39.9502 104.226 39.9502C103.99 39.9502 103.748 39.9963 103.5 40.0885C103.253 40.1756 103.011 40.3063 102.774 40.4804L102.388 39.6198C102.609 39.4302 102.893 39.2817 103.238 39.174C103.583 39.0613 103.938 39.005 104.304 39.005C104.674 39.005 104.999 39.0665 105.276 39.1894C105.56 39.3124 105.776 39.484 105.925 39.7043C106.08 39.9246 106.157 40.1833 106.157 40.4804C106.157 40.7776 106.082 41.0363 105.933 41.2566C105.784 41.4718 105.572 41.6306 105.3 41.7331Z" fill="black"/>
<path d="M142.246 128.888C140.645 138.859 131.158 143.281 122.695 141.287C114.821 139.422 109.147 132.254 107.982 124.442C106.993 117.837 108.759 109.989 109.124 103.315C109.277 100.452 109.312 97.4371 107.97 94.8915C106.629 92.3459 103.062 90.3634 99.213 92.9442L96.5177 90.9264C99.2012 85.988 105.133 82.1752 110.76 82.6565C116.374 83.1373 121.53 87.1729 123.331 92.4986C124.99 97.4136 123.919 102.775 122.966 107.866C122.024 112.969 121.259 118.447 123.449 123.151C125.002 126.495 128.027 129.122 131.57 130.201C135.089 131.269 139.08 130.788 142.246 128.888Z" fill="#40196D"/>
<path d="M166.672 78.065C166.672 78.065 160.345 80.0677 155.859 85.3745C151.374 90.6814 144.338 91.4698 144.338 91.4698L138 81.0143C138 81.0143 144.325 79.0804 148.914 74.1436C153.503 69.2073 160.345 67.6028 160.345 67.6028L166.683 78.0583L166.672 78.065Z" fill="#0D823F"/>
<path d="M164.365 77.5716C164.365 77.5716 157.968 78.9571 154.668 83.3916C151.369 87.8257 144.972 89.2116 144.972 89.2116L140.296 81.4989C140.296 81.4989 146.36 80.2989 149.993 75.6789C153.627 71.0585 159.69 69.8589 159.69 69.8589L164.365 77.5716Z" fill="#48D38A"/>
<path d="M155.986 77.6127C154.343 74.9018 151.318 73.7543 149.221 75.013C147.124 76.2718 146.739 79.4807 148.376 82.1807C150.019 84.8912 153.044 86.0392 155.141 84.7804C157.256 83.5259 157.63 80.3236 155.986 77.6127Z" fill="#0D823F"/>
<path d="M154.174 77.7571L150.183 80.9853L150.283 81.1087L154.275 77.8804L154.174 77.7571Z" fill="#48D38A"/>
<path d="M154.619 78.3021L150.628 81.5303L150.729 81.6537L154.72 78.4255L154.619 78.3021Z" fill="#48D38A"/>
<path d="M152.53 81.8744L150.321 79.1706L150.705 78.8606L152.691 79.5273C153.151 79.6771 153.542 79.8357 153.901 80.011L153.902 80.001C153.576 79.659 153.299 79.3431 152.956 78.9222L152.03 77.7889L152.362 77.52L154.571 80.2238L154.216 80.5112L152.231 79.8344C151.792 79.6863 151.359 79.5239 150.986 79.3414L150.979 79.3565C151.281 79.6804 151.552 80.001 151.919 80.4499L152.863 81.6054L152.53 81.8744Z" fill="#48D38A"/>
<path d="M29.2108 95.6874C29.2108 95.6874 22.8839 97.6901 18.3985 102.997C13.9132 108.304 6.87699 109.092 6.87699 109.092L0.539093 98.6366C0.539093 98.6366 6.86468 96.7028 11.4535 91.766C16.0423 86.8297 22.8836 85.2252 22.8836 85.2252L29.2215 95.6807L29.2108 95.6874Z" fill="#0D823F"/>
<path d="M26.9042 95.1932C26.9042 95.1932 20.5069 96.579 17.2076 101.013C13.9083 105.448 7.51088 106.833 7.51088 106.833L2.83569 99.1204C2.83569 99.1204 8.89877 97.9208 12.5324 93.3004C16.166 88.6804 22.2291 87.4804 22.2291 87.4804L26.9042 95.1932Z" fill="#48D38A"/>
<path d="M18.5254 95.2347C16.8823 92.5238 13.8572 91.3762 11.76 92.635C9.66283 93.8937 9.27845 97.1022 10.9151 99.8022C12.5583 102.513 15.5834 103.661 17.6806 102.402C19.7951 101.147 20.1686 97.9452 18.5254 95.2347Z" fill="#0D823F"/>
<path d="M16.7129 95.3815L12.7215 98.6098L12.8223 98.7331L16.8137 95.5049L16.7129 95.3815Z" fill="#48D38A"/>
<path d="M17.1591 95.924L13.1678 99.1519L13.2686 99.2756L17.2599 96.0474L17.1591 95.924Z" fill="#48D38A"/>
<path d="M15.0689 99.4976L12.8603 96.7939L13.2436 96.4838L15.2298 97.1505C15.6894 97.3003 16.081 97.4589 16.4397 97.6343L16.4408 97.6242C16.1147 97.2822 15.8377 96.9663 15.4941 96.5455L14.5684 95.4122L14.901 95.1432L17.1097 97.847L16.7545 98.1344L14.7694 97.4576C14.3302 97.3095 13.8978 97.1471 13.5242 96.9646L13.5175 96.9797C13.8196 97.3036 14.091 97.6242 14.4576 98.0731L15.4015 99.2287L15.0689 99.4976Z" fill="#48D38A"/>
<path d="M53.2568 125.73C52.8267 125.73 52.4434 125.898 52.1445 126.195L44.8907 133.442H54.8363V127.3C54.8363 126.455 54.1073 125.73 53.2568 125.73Z" fill="#E9A123"/>
<path d="M67.4654 143.505H64.0909V151.941H67.4654V143.505Z" fill="#E9A123"/>
<path d="M31.4955 167.112V169.416L35.1224 168.441L38.7494 169.416V167.112H31.4955Z" fill="#E9A123"/>
<path d="M44.302 167.112V169.416L47.9287 168.441L51.5558 169.416V167.112H44.302Z" fill="#E9A123"/>
<path d="M65.25 147.341C65.0818 139.286 58.9311 132.726 51.0882 131.825V126.195C51.0882 125.34 50.3592 124.615 49.5087 124.615C49.0786 124.615 48.6953 124.783 48.3959 125.08L41.7873 131.686H34.1502C29.626 131.769 25.6158 133.73 22.7554 136.796C22.503 136.155 22.1198 135.607 21.6056 135.179C21.5589 135.133 21.5589 135.133 21.5215 135.096C21.5682 134.538 21.4748 133.99 21.3065 133.516C20.8392 132.364 19.7735 131.686 18.2311 131.556C18.0161 131.556 17.8479 131.686 17.8011 131.899C17.8011 132.113 17.932 132.28 18.147 132.327C19.3809 132.41 20.1941 132.921 20.5774 133.823C20.6615 134.083 20.7457 134.38 20.7457 134.631C19.9791 134.25 19.0818 134.12 18.3153 134.287C17.4646 134.501 16.8664 135.309 16.8664 136.247C16.8664 137.186 17.4179 137.911 18.3153 138.162C19.1285 138.375 19.9791 138.078 20.6148 137.353C20.9607 136.972 21.213 136.498 21.3439 135.987C21.7272 136.415 22.0263 136.926 22.1572 137.52C19.9417 140.205 18.5303 143.615 18.4461 147.369C18.4461 147.499 18.4461 147.629 18.4461 147.75C18.4461 156.483 25.4475 163.563 34.1502 163.777H49.2561C58.0899 163.777 65.2968 156.613 65.2968 147.75C65.25 147.592 65.25 147.471 65.25 147.341ZM19.9791 136.852C19.7268 137.149 19.1659 137.623 18.4461 137.409C17.6329 137.195 17.5487 136.471 17.5487 136.257C17.5487 135.792 17.8479 135.188 18.4461 135.021C18.6144 134.975 18.792 134.975 18.9976 134.975C19.5492 134.975 20.1474 135.142 20.6615 135.486C20.5307 135.96 20.3157 136.471 19.9791 136.852Z" fill="#FFC83E"/>
<path d="M65.2505 147.722C65.2505 147.592 65.2505 147.462 65.2505 147.341C65.0354 154.328 57.9499 159.958 49.2097 159.958H34.1038C25.532 159.828 18.6147 154.244 18.3997 147.341C18.3997 147.471 18.3997 147.601 18.3997 147.722C18.3997 155.564 24.0364 162.086 31.4958 163.452V167.205H38.7496V163.749H44.2927V167.205H51.5465V163.582C59.3143 162.467 65.2505 155.777 65.2505 147.722Z" fill="#FFC83E"/>
<path d="M43.9014 134.379H35.9651C35.1986 134.379 34.5536 135.021 34.5536 135.783C34.5536 136.554 35.1892 137.186 35.9651 137.186H43.9014C44.6676 137.186 45.3127 136.544 45.3127 135.783C45.3127 135.021 44.6773 134.379 43.9014 134.379Z" fill="#E9A123"/>
<path d="M59.7815 143.551C59.5294 143.551 59.2675 143.337 59.2675 143.04C59.2675 142.445 58.7531 141.934 58.1552 141.934C57.5569 141.934 57.0429 142.445 57.0429 143.04C57.0429 143.3 56.8278 143.551 56.5284 143.551C56.2295 143.551 56.0144 143.337 56.0144 143.04C56.0144 141.888 56.9493 140.949 58.1084 140.949C59.2583 140.949 60.2023 141.888 60.2023 143.04C60.2584 143.337 60.0434 143.551 59.7815 143.551Z" fill="#E9A123"/>
</g>
<defs>
<filter id="filter0_d_1_1535" x="10.4193" y="-14.5105" width="153.429" height="130.14" filterUnits="userSpaceOnUse" color-interpolation-filters="sRGB">
<feFlood flood-opacity="0" result="BackgroundImageFix"/>
<feColorMatrix in="SourceAlpha" type="matrix" values="0 0 0 0 0 0 0 0 0 0 0 0 0 0 0 0 0 0 127 0" result="hardAlpha"/>
<feOffset/>
<feGaussianBlur stdDeviation="12.5"/>
<feColorMatrix type="matrix" values="0 0 0 0 0 0 0 0 0 0 0 0 0 0 0 0 0 0 0.06 0"/>
<feBlend mode="normal" in2="BackgroundImageFix" result="effect1_dropShadow_1_1535"/>
<feBlend mode="normal" in="SourceGraphic" in2="effect1_dropShadow_1_1535" result="shape"/>
</filter>
<clipPath id="clip0_1_1535">
<rect width="183" height="180" fill="white"/>
</clipPath>
</defs>
</svg>
