<svg width="119" height="127" viewBox="0 0 119 127" fill="none" xmlns="http://www.w3.org/2000/svg">
<g clip-path="url(#clip0_1_1096)">
<path d="M58.0125 124.573C87.5127 124.573 111.427 100.731 111.427 71.3195C111.427 41.9083 87.5127 18.0658 58.0125 18.0658C28.5123 18.0658 4.59773 41.9083 4.59773 71.3195C4.59773 100.731 28.5123 124.573 58.0125 124.573Z" fill="#DBF8FF"/>
<g filter="url(#filter0_d_1_1096)">
<path d="M90.5994 8.35883H30.0233C26.4369 8.35883 23.5295 11.2574 23.5295 14.833V103.808C23.5295 107.384 26.4369 110.282 30.0233 110.282H90.5994C94.1858 110.282 97.0932 107.384 97.0932 103.808V14.833C97.0932 11.2574 94.1858 8.35883 90.5994 8.35883Z" fill="white"/>
</g>
<path d="M32.5771 25.4649C35.2669 25.4649 37.4474 23.2909 37.4474 20.6092C37.4474 17.9275 35.2669 15.7536 32.5771 15.7536C29.8873 15.7536 27.7067 17.9275 27.7067 20.6092C27.7067 23.2909 29.8873 25.4649 32.5771 25.4649Z" fill="#253B80"/>
<path d="M34.3526 19.2539C34.348 19.2838 34.3426 19.3144 34.3366 19.3459C34.1292 20.4073 33.4198 20.774 32.5138 20.774H32.0524C31.9415 20.774 31.8482 20.8542 31.8309 20.9631L31.5948 22.4566L31.528 22.88C31.5166 22.9515 31.5721 23.016 31.6445 23.016H32.4627C32.5595 23.016 32.6417 22.9458 32.6571 22.8506L32.6652 22.8091L32.8191 21.8344L32.8291 21.7809C32.8443 21.6853 32.9268 21.6151 33.0236 21.6151H33.1458C33.9385 21.6151 34.5592 21.2942 34.7407 20.3657C34.8164 19.9778 34.7772 19.6539 34.5768 19.4261C34.516 19.3574 34.4408 19.3004 34.3526 19.2539Z" fill="#179BD7"/>
<path d="M34.136 19.168C34.1043 19.1588 34.0716 19.1505 34.0381 19.1429C34.0045 19.1356 33.9699 19.1291 33.9345 19.1234C33.8101 19.1033 33.6738 19.0938 33.5277 19.0938H32.2952C32.265 19.0938 32.236 19.1007 32.2103 19.113C32.1535 19.1403 32.1111 19.1939 32.1011 19.2596L31.8387 20.9152L31.8311 20.9635C31.8485 20.8545 31.9418 20.7743 32.0526 20.7743H32.514C33.4201 20.7743 34.1295 20.4075 34.3369 19.3462C34.3431 19.3148 34.3483 19.2842 34.3529 19.2542C34.3004 19.2265 34.2436 19.2028 34.1825 19.1825C34.1673 19.1775 34.1519 19.1727 34.136 19.168Z" fill="#B8DFF9"/>
<path d="M32.1011 19.2596C32.1113 19.1939 32.1535 19.1403 32.2106 19.1132C32.2366 19.1009 32.2652 19.094 32.2955 19.094H33.528C33.674 19.094 33.8103 19.1035 33.9345 19.1236C33.9702 19.1293 34.0048 19.1358 34.0383 19.1431C34.0719 19.1507 34.1046 19.159 34.1362 19.1682C34.1519 19.1729 34.1676 19.1777 34.1828 19.1826C34.2441 19.2028 34.3009 19.2267 34.3534 19.2543C34.4151 18.862 34.3529 18.595 34.14 18.3531C33.9055 18.0869 33.4823 17.9729 32.9406 17.9729H31.3684C31.2575 17.9729 31.1631 18.0531 31.1461 18.1622L30.4913 22.3012C30.4783 22.3831 30.5416 22.457 30.6244 22.457H31.5953L31.839 20.9152L32.1011 19.2596Z" fill="white"/>
<path d="M27.5204 32.4174V29.4705H28.9708C29.3119 29.4705 29.5691 29.5541 29.7422 29.7213C29.9155 29.8857 30.0021 30.1101 30.0021 30.3943C30.0021 30.6758 29.9155 30.9001 29.7422 31.0673C29.5691 31.2345 29.3119 31.3181 28.9708 31.3181H28.2958V32.4174H27.5204ZM28.2958 30.7246H28.8702C29.0017 30.7246 29.0993 30.6965 29.1637 30.641C29.228 30.5825 29.2602 30.5002 29.2602 30.3943C29.2602 30.2883 29.228 30.2061 29.1637 30.1476C29.0993 30.089 29.0017 30.0599 28.8702 30.0599H28.2958V30.7246ZM31.0925 32.4632C30.9081 32.4632 30.7461 32.4201 30.6063 32.3338C30.4667 32.2445 30.3561 32.1165 30.2752 31.949C30.1968 31.7818 30.1578 31.5842 30.1578 31.3555C30.1578 31.1245 30.1968 30.9265 30.2752 30.7621C30.3561 30.5949 30.4667 30.4682 30.6063 30.3816C30.7461 30.2926 30.9081 30.2479 31.0925 30.2479C31.2575 30.2479 31.4057 30.287 31.5372 30.3649C31.6713 30.4431 31.7592 30.5447 31.8011 30.6701H31.7592L31.8055 30.294H32.5222C32.5138 30.3886 32.5054 30.4849 32.497 30.5825C32.4916 30.6798 32.4886 30.7761 32.4886 30.8707V32.4174H31.7508L31.7424 32.0577H31.7927C31.7508 32.1804 31.6629 32.2793 31.5288 32.3545C31.3973 32.4271 31.2521 32.4632 31.0925 32.4632ZM31.3316 31.9115C31.4574 31.9115 31.5593 31.8684 31.6378 31.7818C31.7159 31.6929 31.7551 31.5508 31.7551 31.3555C31.7551 31.1606 31.7159 31.0198 31.6378 30.9336C31.5593 30.8443 31.4574 30.7998 31.3316 30.7998C31.2059 30.7998 31.1039 30.8443 31.0255 30.9336C30.9473 31.0198 30.9081 31.1606 30.9081 31.3555C30.9081 31.5508 30.9459 31.6929 31.0214 31.7818C31.0996 31.8684 31.2032 31.9115 31.3316 31.9115ZM32.9403 33.366L32.7639 32.7892C32.8981 32.7641 33.0101 32.7364 33.0996 32.7056C33.1918 32.6778 33.2673 32.6387 33.3259 32.5886C33.3846 32.5384 33.4306 32.4729 33.4642 32.3923L33.5691 32.1499L33.5523 32.4298L32.6214 30.294H33.4098L33.9548 31.7026H33.8163L34.378 30.294H35.1161L34.16 32.4632C34.0846 32.6334 34.0037 32.7725 33.9169 32.8812C33.8331 32.9898 33.7408 33.0764 33.6402 33.1403C33.5426 33.2045 33.4349 33.2519 33.3176 33.2824C33.2029 33.3158 33.0771 33.3439 32.9403 33.366ZM35.2694 33.3201V30.8707C35.2694 30.7761 35.2667 30.6798 35.2611 30.5825C35.2556 30.4849 35.2473 30.3886 35.2359 30.294H35.9572L36.0032 30.6701H35.9613C36.0005 30.5447 36.087 30.4431 36.2212 30.3649C36.3553 30.287 36.5049 30.2479 36.6698 30.2479C36.8543 30.2479 37.0163 30.2926 37.1561 30.3816C37.296 30.4682 37.4049 30.5949 37.4831 30.7621C37.5642 30.9265 37.6048 31.1245 37.6048 31.3555C37.6048 31.5842 37.5642 31.7818 37.4831 31.949C37.4049 32.1165 37.296 32.2445 37.1561 32.3338C37.0163 32.4201 36.8543 32.4632 36.6698 32.4632C36.5076 32.4632 36.361 32.4271 36.2295 32.3545C36.0981 32.2793 36.0116 32.1804 35.9696 32.0577H36.0159V33.3201H35.2694ZM36.4308 31.9115C36.5595 31.9115 36.6615 31.8684 36.7369 31.7818C36.8151 31.6929 36.8543 31.5508 36.8543 31.3555C36.8543 31.1606 36.8151 31.0198 36.7369 30.9336C36.6615 30.8443 36.5595 30.7998 36.4308 30.7998C36.305 30.7998 36.203 30.8443 36.1249 30.9336C36.0465 31.0198 36.0075 31.1606 36.0075 31.3555C36.0075 31.5508 36.0465 31.6929 36.1249 31.7818C36.203 31.8684 36.305 31.9115 36.4308 31.9115ZM38.8062 32.4632C38.6217 32.4632 38.4594 32.4201 38.3196 32.3338C38.1801 32.2445 38.0697 32.1165 37.9886 31.949C37.9102 31.7818 37.8712 31.5842 37.8712 31.3555C37.8712 31.1245 37.9102 30.9265 37.9886 30.7621C38.0697 30.5949 38.1801 30.4682 38.3196 30.3816C38.4594 30.2926 38.6217 30.2479 38.8062 30.2479C38.9709 30.2479 39.1191 30.287 39.2505 30.3649C39.3847 30.4431 39.4726 30.5447 39.5145 30.6701H39.4726L39.5188 30.294H40.2358C40.2274 30.3886 40.219 30.4849 40.2106 30.5825C40.205 30.6798 40.2023 30.7761 40.2023 30.8707V32.4174H39.4642L39.4558 32.0577H39.5061C39.4642 32.1804 39.3763 32.2793 39.2421 32.3545C39.1107 32.4271 38.9655 32.4632 38.8062 32.4632ZM39.045 31.9115C39.1707 31.9115 39.2727 31.8684 39.3511 31.7818C39.4293 31.6929 39.4685 31.5508 39.4685 31.3555C39.4685 31.1606 39.4293 31.0198 39.3511 30.9336C39.2727 30.8443 39.1707 30.7998 39.045 30.7998C38.9192 30.7998 38.8173 30.8443 38.7391 30.9336C38.6607 31.0198 38.6217 31.1606 38.6217 31.3555C38.6217 31.5508 38.6593 31.6929 38.7348 31.7818C38.8129 31.8684 38.9165 31.9115 39.045 31.9115ZM40.6655 32.4174V29.3411H41.412V32.4174H40.6655Z" fill="#979797"/>
<path d="M28.5632 39.3412V38.7857L28.6868 38.8968C28.4862 38.886 28.2936 38.8545 28.1092 38.8022C27.9277 38.7474 27.7749 38.676 27.651 38.5883L27.8614 38C27.9853 38.0849 28.1297 38.1521 28.295 38.2014C28.4599 38.2507 28.6265 38.2756 28.7942 38.2756C28.9676 38.2756 29.0887 38.2524 29.1574 38.2057C29.2261 38.1561 29.2607 38.0987 29.2607 38.0329C29.2607 37.9752 29.2359 37.9272 29.1864 37.8889C29.1396 37.8503 29.0544 37.8174 28.9305 37.7899L28.464 37.6872C28.2054 37.6322 28.0142 37.5362 27.8904 37.3992C27.7665 37.262 27.7048 37.0851 27.7048 36.8683C27.7048 36.7038 27.7446 36.5569 27.8244 36.428C27.9069 36.2964 28.021 36.1894 28.167 36.1071C28.3155 36.0249 28.4889 35.9728 28.6868 35.9507L28.5632 36.0208V35.494H29.1369V36.0208L29.013 35.9426C29.181 35.9507 29.3419 35.9823 29.4958 36.0373C29.6499 36.092 29.7752 36.1635 29.8714 36.2511L29.6691 36.8025C29.5701 36.7257 29.4533 36.6666 29.3184 36.6256C29.1837 36.5817 29.0392 36.5598 28.8851 36.5598C28.7393 36.5598 28.6252 36.5857 28.5424 36.638C28.4626 36.6901 28.4229 36.7572 28.4229 36.8395C28.4229 36.8945 28.4461 36.9411 28.4929 36.9794C28.5424 37.018 28.6279 37.0509 28.7488 37.0781L29.2153 37.1811C29.4766 37.2358 29.6705 37.3305 29.7971 37.465C29.9236 37.5966 29.9869 37.7681 29.9869 37.9792C29.9869 38.144 29.9472 38.2893 29.8674 38.4155C29.7876 38.5417 29.6762 38.6444 29.5331 38.724C29.3927 38.8035 29.2291 38.8558 29.042 38.8804L29.1369 38.7817V39.3412H28.5632ZM30.4229 38.868V38.2507H31.075V36.5968H31.4217L30.4929 37.1234V36.4239L31.2938 35.9672H31.8344V38.2507H32.441V38.868H30.4229ZM32.8026 38.868V38.3125L33.6859 37.3949C33.793 37.2852 33.8701 37.1892 33.9169 37.1069C33.9637 37.0247 33.9872 36.9411 33.9872 36.8559C33.9872 36.7518 33.9512 36.6736 33.8798 36.6213C33.8109 36.5693 33.7105 36.5434 33.5786 36.5434C33.4685 36.5434 33.3557 36.5639 33.2399 36.6049C33.1272 36.6434 33.013 36.7065 32.8975 36.7942L32.6623 36.243C32.7915 36.1441 32.947 36.0659 33.1285 36.0084C33.3103 35.9507 33.4974 35.9219 33.69 35.9219C34.0283 35.9219 34.2855 35.9947 34.4616 36.14C34.6406 36.2854 34.7299 36.4954 34.7299 36.7696C34.7299 36.9452 34.6888 37.1139 34.6063 37.2757C34.5265 37.4348 34.3929 37.605 34.2057 37.7859L33.5291 38.4443V38.2507H34.8372V38.868H32.8026ZM35.2194 38.868L36.602 36.3662V36.5968H35.1575V35.9672H37.316V36.535L36.0492 38.868H35.2194ZM37.6486 38.868V38.1192H38.4124V38.868H37.6486ZM39.9494 38.9133C39.5643 38.9133 39.267 38.7857 39.058 38.5306C38.8489 38.2729 38.7442 37.9107 38.7442 37.4443C38.7442 37.1234 38.7981 36.8505 38.9054 36.6256C39.0152 36.3978 39.1694 36.2236 39.3676 36.1031C39.5683 35.9823 39.809 35.9219 40.0897 35.9219C40.2493 35.9219 40.4062 35.9467 40.5603 35.996C40.7172 36.0454 40.8546 36.1195 40.973 36.2182L40.7378 36.7737C40.6388 36.6941 40.5327 36.6364 40.42 36.6008C40.3072 36.5625 40.1944 36.5434 40.0816 36.5434C39.8753 36.5434 39.7184 36.6078 39.611 36.7367C39.5064 36.8629 39.4542 37.0536 39.4542 37.3086V37.5225H39.3922C39.4171 37.4046 39.4626 37.3046 39.5286 37.2221C39.5945 37.1371 39.677 37.0727 39.776 37.0287C39.878 36.9848 39.9894 36.963 40.1103 36.963C40.2728 36.963 40.4173 37.0042 40.5438 37.0864C40.6704 37.166 40.7708 37.2771 40.8451 37.4197C40.9222 37.5624 40.9606 37.7241 40.9606 37.9053C40.9606 38.1027 40.9165 38.2769 40.8286 38.4279C40.7432 38.5786 40.625 38.6981 40.4735 38.7857C40.3223 38.8709 40.1476 38.9133 39.9494 38.9133ZM39.9083 38.3373C39.9797 38.3373 40.043 38.3209 40.0981 38.288C40.153 38.2551 40.1944 38.2084 40.2217 38.148C40.252 38.0876 40.2672 38.0178 40.2672 37.9382C40.2672 37.8557 40.252 37.7859 40.2217 37.7282C40.1944 37.6681 40.153 37.6214 40.0981 37.5885C40.043 37.5527 39.9797 37.5349 39.9083 37.5349C39.8366 37.5349 39.7733 37.5527 39.7184 37.5885C39.6632 37.6214 39.6208 37.6681 39.5905 37.7282C39.5629 37.7859 39.5491 37.8557 39.5491 37.9382C39.5491 38.0178 39.5629 38.0876 39.5905 38.148C39.6208 38.2084 39.6632 38.2551 39.7184 38.288C39.7733 38.3209 39.8366 38.3373 39.9083 38.3373ZM42.0568 38.9133C41.8945 38.9133 41.7363 38.8874 41.5821 38.8351C41.4282 38.783 41.2906 38.7089 41.1694 38.6129L41.4047 38.0615C41.5037 38.1383 41.6097 38.196 41.7225 38.2343C41.8353 38.2729 41.948 38.292 42.0608 38.292C42.2701 38.292 42.427 38.2289 42.5314 38.1027C42.6361 37.9738 42.6883 37.7818 42.6883 37.5268V37.3127H42.7543C42.7297 37.4278 42.6829 37.5281 42.6139 37.6131C42.5479 37.6983 42.4654 37.7627 42.3664 37.8064C42.2672 37.8503 42.1557 37.8724 42.0321 37.8724C41.8753 37.8724 41.7322 37.8325 41.6029 37.753C41.4734 37.6708 41.3717 37.5583 41.2973 37.4157C41.2232 37.2701 41.1859 37.1083 41.1859 36.9301C41.1859 36.7327 41.2286 36.5585 41.3138 36.4075C41.3993 36.2565 41.5175 36.1387 41.6689 36.0537C41.8228 35.9658 41.9975 35.9219 42.1931 35.9219C42.5782 35.9219 42.8754 36.0494 43.0845 36.3045C43.2936 36.5598 43.3982 36.9217 43.3982 37.3909C43.3982 37.709 43.3444 37.9819 43.2373 38.2098C43.1326 38.4373 42.9785 38.6115 42.7748 38.7323C42.5741 38.8529 42.3348 38.9133 42.0568 38.9133ZM42.2342 37.2962C42.3086 37.2962 42.3718 37.2798 42.424 37.2469C42.4792 37.214 42.5217 37.1673 42.552 37.1069C42.5823 37.0465 42.5974 36.9767 42.5974 36.8972C42.5974 36.8176 42.5823 36.7475 42.552 36.6874C42.5217 36.627 42.4792 36.5803 42.424 36.5474C42.3718 36.5145 42.3086 36.4981 42.2342 36.4981C42.1628 36.4981 42.0995 36.5145 42.0443 36.5474C41.9921 36.5803 41.951 36.627 41.9207 36.6874C41.8904 36.7475 41.8753 36.8176 41.8753 36.8972C41.8753 36.9767 41.8904 37.0465 41.9207 37.1069C41.951 37.1673 41.9921 37.214 42.0443 37.2469C42.0995 37.2798 42.1628 37.2962 42.2342 37.2962Z" fill="black"/>
<path d="M28.1313 46.5311C28.0518 46.4176 27.988 46.3057 27.9396 46.1954C27.8928 46.0851 27.8587 45.9732 27.8368 45.8597C27.8165 45.7448 27.8065 45.6243 27.8065 45.4984C27.8065 45.3711 27.8165 45.2506 27.8368 45.1373C27.8587 45.0238 27.8928 44.9119 27.9396 44.8016C27.988 44.6914 28.0518 44.5803 28.1313 44.4684H28.4096C28.3285 44.6501 28.2676 44.8248 28.2271 44.9928C28.1881 45.1605 28.1687 45.3291 28.1687 45.4984C28.1687 45.6664 28.1881 45.8349 28.2271 46.0042C28.2676 46.1719 28.3285 46.3477 28.4096 46.5311H28.1313ZM28.6057 45.6057V45.3307H29.3422V45.6057H28.6057ZM30.1963 46.1372C29.9983 46.1372 29.8455 46.0633 29.7381 45.9158C29.6321 45.7664 29.5791 45.5569 29.5791 45.2864C29.5791 45.0114 29.6321 44.8024 29.7381 44.6595C29.8455 44.515 29.9983 44.4427 30.1963 44.4427C30.3956 44.4427 30.5484 44.515 30.6544 44.6595C30.7604 44.8024 30.8134 45.0106 30.8134 45.284C30.8134 45.5561 30.7604 45.7664 30.6544 45.9158C30.5484 46.0633 30.3956 46.1372 30.1963 46.1372ZM30.1963 45.8435C30.2866 45.8435 30.3537 45.799 30.3972 45.7106C30.4424 45.6205 30.4651 45.4784 30.4651 45.284C30.4651 45.0899 30.4424 44.9499 30.3972 44.8645C30.3537 44.779 30.2866 44.7364 30.1963 44.7364C30.1057 44.7364 30.038 44.779 29.9929 44.8645C29.9491 44.9499 29.9274 45.0891 29.9274 45.2819C29.9274 45.4776 29.9499 45.6205 29.995 45.7106C30.0402 45.799 30.1073 45.8435 30.1963 45.8435ZM31.0111 46.1115V45.7386H31.3898V46.1115H31.0111ZM31.6675 46.1115L32.46 44.6547V44.7714H31.6137V44.4684H32.7988V44.7388L32.0673 46.1115H31.6675ZM33.6675 46.1372C33.4558 46.1372 33.2921 46.0649 33.1767 45.9204C33.0614 45.7758 33.0038 45.5731 33.0038 45.3121C33.0038 45.1287 33.0333 44.9726 33.0926 44.8437C33.1518 44.7132 33.2359 44.6137 33.3452 44.5452C33.4558 44.477 33.588 44.4427 33.7425 44.4427C33.8312 44.4427 33.9193 44.4581 34.0067 44.4894C34.0954 44.5188 34.1725 44.5625 34.2379 44.6199L34.1211 44.8879C34.0635 44.8397 34.0018 44.8041 33.9364 44.7806C33.8709 44.7558 33.8047 44.7434 33.7379 44.7434C33.6099 44.7434 33.5126 44.7852 33.4455 44.8693C33.3784 44.9532 33.3452 45.0783 33.3452 45.2444V45.3959H33.3146C33.327 45.3215 33.3527 45.2584 33.3917 45.2072C33.4306 45.1543 33.4807 45.1139 33.5415 45.0861C33.6021 45.0581 33.6692 45.044 33.7425 45.044C33.836 45.044 33.9193 45.0672 33.9926 45.1139C34.0673 45.1589 34.1257 45.222 34.1679 45.3026C34.2101 45.3819 34.2309 45.4728 34.2309 45.5755C34.2309 45.6842 34.2068 45.7812 34.1587 45.8667C34.1103 45.9506 34.044 46.0166 33.9599 46.0649C33.8771 46.1129 33.7798 46.1372 33.6675 46.1372ZM33.6489 45.8551C33.6989 45.8551 33.7425 45.8443 33.7798 45.8225C33.8174 45.8007 33.846 45.7696 33.8663 45.7292C33.8866 45.6887 33.8966 45.6421 33.8966 45.5895C33.8966 45.5367 33.8866 45.4908 33.8663 45.452C33.846 45.4116 33.8174 45.3803 33.7798 45.3587C33.7425 45.3353 33.6989 45.3237 33.6489 45.3237C33.5991 45.3237 33.5553 45.3353 33.518 45.3587C33.4807 45.3803 33.4509 45.4116 33.4293 45.452C33.409 45.4908 33.3987 45.5367 33.3987 45.5895C33.3987 45.6421 33.409 45.6887 33.4293 45.7292C33.4509 45.7696 33.4807 45.8007 33.518 45.8225C33.5553 45.8443 33.5991 45.8551 33.6489 45.8551ZM35.0085 46.1372C34.9354 46.1372 34.8629 46.1293 34.7913 46.1137C34.7193 46.0983 34.6525 46.0773 34.5901 46.0509C34.5279 46.0228 34.4757 45.9902 34.4335 45.953L34.5481 45.6826C34.6182 45.7324 34.6915 45.7705 34.7677 45.7969C34.844 45.8233 34.9222 45.8365 35.0014 45.8365C35.092 45.8365 35.1621 45.8155 35.2118 45.7734C35.2635 45.73 35.2892 45.671 35.2892 45.5963C35.2892 45.5218 35.2648 45.462 35.2167 45.417C35.1683 45.3719 35.102 45.3493 35.0179 45.3493C34.9587 45.3493 34.9032 45.3603 34.8519 45.3819C34.8021 45.4037 34.7569 45.4372 34.7164 45.4822H34.4827V44.4684H35.5345V44.7644H34.8262V45.2096H34.7421C34.781 45.1613 34.8324 45.1241 34.8965 45.0977C34.9603 45.0713 35.032 45.0581 35.1115 45.0581C35.2175 45.0581 35.3095 45.0804 35.3874 45.1255C35.4669 45.1692 35.5283 45.2304 35.5721 45.3096C35.6156 45.3873 35.6375 45.479 35.6375 45.5847C35.6375 45.6936 35.6116 45.7899 35.5602 45.8737C35.5104 45.956 35.4379 46.0207 35.3427 46.0671C35.2494 46.1137 35.138 46.1372 35.0085 46.1372ZM36.4992 46.1115V45.8109H35.793V45.5591L36.5552 44.4684H36.8497V45.538H37.0742V45.8109H36.8497V46.1115H36.4992ZM36.4992 45.538V44.8971H36.5576L36.0548 45.6222V45.538H36.4992ZM37.4379 46.5311H37.1575C37.2384 46.3491 37.2984 46.1736 37.3373 46.0042C37.3779 45.8349 37.3982 45.6664 37.3982 45.4984C37.3982 45.3307 37.3779 45.163 37.3373 44.995C37.2984 44.8256 37.2384 44.6501 37.1575 44.4684H37.4379C37.5175 44.5803 37.5805 44.6914 37.6273 44.8016C37.6757 44.9119 37.71 45.0246 37.73 45.1395C37.7503 45.253 37.7606 45.3727 37.7606 45.4984C37.7606 45.6243 37.7503 45.7448 37.73 45.8597C37.71 45.9748 37.6757 46.0873 37.6273 46.1978C37.5805 46.3081 37.5175 46.4192 37.4379 46.5311ZM38.8035 45.6057V45.3307H39.5399V45.6057H38.8035ZM40.3589 46.1372C40.2436 46.1372 40.1322 46.1207 40.0246 46.0881C39.9186 46.0555 39.8328 46.0104 39.7674 45.953L39.882 45.6826C39.9521 45.7338 40.0262 45.7729 40.1041 45.799C40.182 45.8241 40.2623 45.8365 40.3448 45.8365C40.4416 45.8365 40.5141 45.8187 40.5622 45.7829C40.6106 45.747 40.6347 45.6944 40.6347 45.6243C40.6347 45.5591 40.6115 45.5102 40.5647 45.4776C40.5195 45.4434 40.4516 45.4261 40.3613 45.4261H40.0854V45.1395H40.3286C40.4065 45.1395 40.4687 45.1217 40.5154 45.0861C40.5622 45.0486 40.5858 44.9982 40.5858 44.9346C40.5858 44.8723 40.5639 44.8248 40.5203 44.7922C40.4765 44.7596 40.4135 44.7434 40.3307 44.7434C40.1733 44.7434 40.0332 44.7954 39.9102 44.8995L39.7931 44.6339C39.8634 44.5733 39.9483 44.5266 40.0481 44.494C40.1493 44.4597 40.2553 44.4427 40.3659 44.4427C40.5436 44.4427 40.6823 44.4824 40.7821 44.5617C40.8833 44.6393 40.9341 44.748 40.9341 44.8879C40.9341 44.9842 40.9068 45.0672 40.8522 45.1373C40.7975 45.2056 40.7229 45.2514 40.6277 45.2749V45.2444C40.7399 45.263 40.8273 45.3088 40.8895 45.3819C40.952 45.455 40.9831 45.5467 40.9831 45.6569C40.9831 45.806 40.9271 45.9233 40.8148 46.0088C40.7042 46.0943 40.5522 46.1372 40.3589 46.1372ZM41.2089 46.1115V45.7386H41.5875V46.1115H41.2089ZM42.4029 46.1372C42.3297 46.1372 42.2572 46.1293 42.1855 46.1137C42.1138 46.0983 42.0468 46.0773 41.9846 46.0509C41.9221 46.0228 41.8699 45.9902 41.828 45.953L41.9424 45.6826C42.0124 45.7324 42.0857 45.7705 42.1622 45.7969C42.2385 45.8233 42.3164 45.8365 42.3959 45.8365C42.4862 45.8365 42.5566 45.8155 42.6063 45.7734C42.6577 45.73 42.6834 45.671 42.6834 45.5963C42.6834 45.5218 42.6593 45.462 42.6109 45.417C42.5628 45.3719 42.4965 45.3493 42.4124 45.3493C42.3532 45.3493 42.2977 45.3603 42.2464 45.3819C42.1963 45.4037 42.1512 45.4372 42.1109 45.4822H41.8769V44.4684H42.929V44.7644H42.2207V45.2096H42.1366C42.1755 45.1613 42.2269 45.1241 42.2907 45.0977C42.3545 45.0713 42.4262 45.0581 42.5057 45.0581C42.6117 45.0581 42.7037 45.0804 42.7816 45.1255C42.8611 45.1692 42.9228 45.2304 42.9663 45.3096C43.0099 45.3873 43.0318 45.479 43.0318 45.5847C43.0318 45.6936 43.0061 45.7899 42.9547 45.8737C42.9046 45.956 42.8324 46.0207 42.7372 46.0671C42.6437 46.1137 42.5322 46.1372 42.4029 46.1372ZM43.7696 46.1372C43.6543 46.1372 43.5429 46.1207 43.4353 46.0881C43.3293 46.0555 43.2435 46.0104 43.1781 45.953L43.2927 45.6826C43.3628 45.7338 43.4369 45.7729 43.5148 45.799C43.5927 45.8241 43.673 45.8365 43.7555 45.8365C43.8523 45.8365 43.9245 45.8187 43.9729 45.7829C44.0214 45.747 44.0454 45.6944 44.0454 45.6243C44.0454 45.5591 44.0222 45.5102 43.9754 45.4776C43.9302 45.4434 43.8623 45.4261 43.772 45.4261H43.4961V45.1395H43.7393C43.8172 45.1395 43.8794 45.1217 43.9262 45.0861C43.9729 45.0486 43.9965 44.9982 43.9965 44.9346C43.9965 44.8723 43.9746 44.8248 43.931 44.7922C43.8872 44.7596 43.8242 44.7434 43.7414 44.7434C43.584 44.7434 43.4439 44.7954 43.3209 44.8995L43.2038 44.6339C43.2741 44.5733 43.359 44.5266 43.4588 44.494C43.56 44.4597 43.666 44.4427 43.7766 44.4427C43.9543 44.4427 44.093 44.4824 44.1928 44.5617C44.294 44.6393 44.3445 44.748 44.3445 44.8879C44.3445 44.9842 44.3175 45.0672 44.2629 45.1373C44.2082 45.2056 44.1336 45.2514 44.0384 45.2749V45.2444C44.1506 45.263 44.238 45.3088 44.3002 45.3819C44.3627 45.455 44.3938 45.5467 44.3938 45.6569C44.3938 45.806 44.3378 45.9233 44.2255 46.0088C44.1149 46.0943 43.9629 46.1372 43.7696 46.1372ZM45.2906 46.1115H44.9912L45.9592 44.4684H46.2583L45.2906 46.1115ZM45.0193 45.4472C44.8838 45.4472 44.7778 45.4021 44.7015 45.3121C44.625 45.2204 44.5869 45.0977 44.5869 44.9437C44.5869 44.7884 44.625 44.6666 44.7015 44.5778C44.7794 44.4878 44.8855 44.4427 45.0193 44.4427C45.1548 44.4427 45.2608 44.4886 45.3374 44.5803C45.4137 44.6703 45.4518 44.7917 45.4518 44.9437C45.4518 45.0977 45.4137 45.2204 45.3374 45.3121C45.2608 45.4021 45.1548 45.4472 45.0193 45.4472ZM45.0193 45.2304C45.0661 45.2304 45.1021 45.208 45.127 45.163C45.1535 45.1179 45.1667 45.0449 45.1667 44.9437C45.1667 44.8413 45.1535 44.769 45.127 44.7269C45.1021 44.6852 45.0661 44.6641 45.0193 44.6641C44.9709 44.6641 44.9344 44.6852 44.9095 44.7269C44.8846 44.7674 44.8722 44.8397 44.8722 44.9437C44.8722 45.0478 44.8846 45.1217 44.9095 45.1651C44.9344 45.2088 44.9709 45.2304 45.0193 45.2304ZM46.2302 46.1372C46.0947 46.1372 45.9886 46.0913 45.9124 45.9996C45.8361 45.908 45.7977 45.7853 45.7977 45.6313C45.7977 45.476 45.8361 45.3541 45.9124 45.2654C45.9903 45.177 46.0963 45.1325 46.2302 45.1325C46.3675 45.1325 46.4733 45.1778 46.5482 45.2678C46.6245 45.3579 46.6629 45.479 46.6629 45.6313C46.6629 45.7853 46.6245 45.908 46.5482 45.9996C46.4733 46.0913 46.3675 46.1372 46.2302 46.1372ZM46.2302 45.9158C46.2786 45.9158 46.3153 45.8939 46.3402 45.8505C46.3667 45.8055 46.38 45.7324 46.38 45.6313C46.38 45.5289 46.3667 45.4566 46.3402 45.4145C46.3153 45.3711 46.2786 45.3493 46.2302 45.3493C46.1836 45.3493 46.1469 45.3703 46.1203 45.4124C46.0955 45.4542 46.083 45.5272 46.083 45.6313C46.083 45.7354 46.0955 45.8093 46.1203 45.8527C46.1469 45.8948 46.1836 45.9158 46.2302 45.9158Z" fill="#F7685B"/>
<path d="M48.0097 46.1115V44.6315H47.4277V44.4683H48.7835V44.6315H48.2039V46.1115H48.0097ZM49.3033 46.1325C49.1911 46.1325 49.0929 46.1083 49.0088 46.0603C48.9263 46.0104 48.8622 45.9406 48.817 45.8505C48.7719 45.7588 48.7494 45.6507 48.7494 45.5264C48.7494 45.4005 48.7719 45.2926 48.817 45.2026C48.8622 45.1122 48.9263 45.0432 49.0088 44.9949C49.0929 44.9453 49.1911 44.9205 49.3033 44.9205C49.4172 44.9205 49.5154 44.9453 49.5978 44.9949C49.6822 45.0432 49.7469 45.1122 49.792 45.2026C49.8388 45.2926 49.8621 45.4005 49.8621 45.5264C49.8621 45.6507 49.8388 45.7588 49.792 45.8505C49.7469 45.9406 49.6822 46.0104 49.5978 46.0603C49.5154 46.1083 49.4172 46.1325 49.3033 46.1325ZM49.3033 45.9786C49.4156 45.9786 49.5045 45.9406 49.57 45.8642C49.6354 45.7866 49.6682 45.6741 49.6682 45.5264C49.6682 45.3773 49.6346 45.2646 49.5676 45.1885C49.5021 45.1109 49.4139 45.072 49.3033 45.072C49.1927 45.072 49.1048 45.1109 49.0394 45.1885C48.9736 45.2646 48.9409 45.3773 48.9409 45.5264C48.9409 45.6741 48.9736 45.7866 49.0394 45.8642C49.1048 45.9406 49.1927 45.9786 49.3033 45.9786ZM50.6015 46.1325C50.4987 46.1325 50.4081 46.1083 50.3302 46.0603C50.2523 46.0104 50.1915 45.9406 50.148 45.8505C50.1058 45.7602 50.0849 45.6523 50.0849 45.5264C50.0849 45.3991 50.1058 45.2902 50.148 45.2001C50.1915 45.1101 50.2523 45.0408 50.3302 44.9928C50.4081 44.9445 50.4987 44.9205 50.6015 44.9205C50.7075 44.9205 50.7987 44.9469 50.8749 44.9998C50.9528 45.0526 51.005 45.1241 51.0315 45.2141H51.0037V44.3961H51.193V46.1115H51.0058V45.8316H51.0315C51.0066 45.9249 50.9553 45.9988 50.8774 46.0533C50.7995 46.1061 50.7075 46.1325 50.6015 46.1325ZM50.6413 45.9786C50.7519 45.9786 50.8406 45.9406 50.9077 45.8642C50.9747 45.7866 51.0083 45.6741 51.0083 45.5264C51.0083 45.3773 50.9747 45.2646 50.9077 45.1885C50.8406 45.1109 50.7519 45.072 50.6413 45.072C50.5306 45.072 50.4417 45.1109 50.3749 45.1885C50.3091 45.2646 50.2764 45.3773 50.2764 45.5264C50.2764 45.6741 50.3091 45.7866 50.3749 45.8642C50.4417 45.9406 50.5306 45.9786 50.6413 45.9786ZM52.0054 46.1325C51.901 46.1325 51.8099 46.1083 51.732 46.0603C51.6541 46.0104 51.5933 45.9406 51.5497 45.8505C51.5075 45.7602 51.4867 45.6523 51.4867 45.5264C51.4867 45.3991 51.5075 45.2902 51.5497 45.2001C51.5933 45.1101 51.6541 45.0408 51.732 44.9928C51.8099 44.9445 51.901 44.9205 52.0054 44.9205C52.1114 44.9205 52.2026 44.9477 52.2791 45.0019C52.357 45.0548 52.4084 45.1271 52.4333 45.2187H52.4052L52.4311 44.9415H52.6134C52.6085 44.9866 52.6039 45.0324 52.5993 45.0791C52.5961 45.1241 52.5948 45.1683 52.5948 45.2117V46.1115H52.4052V45.8365H52.4311C52.406 45.9281 52.3546 46.0004 52.2767 46.0533C52.1988 46.1061 52.1085 46.1325 52.0054 46.1325ZM52.043 45.9786C52.1553 45.9786 52.244 45.9406 52.3094 45.8642C52.3749 45.7866 52.4076 45.6741 52.4076 45.5264C52.4076 45.3773 52.3749 45.2646 52.3094 45.1885C52.244 45.1109 52.1553 45.072 52.043 45.072C51.9324 45.072 51.8434 45.1109 51.7764 45.1885C51.7109 45.2646 51.6782 45.3773 51.6782 45.5264C51.6782 45.6741 51.7109 45.7866 51.7764 45.8642C51.8434 45.9406 51.9324 45.9786 52.043 45.9786ZM52.9025 46.6405L52.8582 46.4844C52.9315 46.4672 52.9923 46.4469 53.0405 46.4237C53.0905 46.4019 53.1316 46.3725 53.1643 46.3353C53.1971 46.2978 53.2252 46.2512 53.2484 46.1954L53.3093 46.0578L53.3047 46.1371L52.7927 44.9415H52.9985L53.4215 45.9691H53.3607L53.7793 44.9415H53.9779L53.4356 46.2094C53.4045 46.2838 53.3701 46.3461 53.3328 46.3957C53.2952 46.4469 53.2549 46.4882 53.2111 46.5192C53.1692 46.5518 53.1224 46.5774 53.071 46.5963C53.0194 46.6149 52.9634 46.6295 52.9025 46.6405Z" fill="black"/>
<g filter="url(#filter1_d_1_1096)">
<path d="M17.3175 92.7367C17.3175 91.7924 23.9344 58.1573 28.3033 58.1573C32.6725 58.1573 32.2206 64.3461 35.3844 64.3461C38.5482 64.3461 39.3014 59.9405 42.3145 59.9405C45.3276 59.9405 48.1901 67.5977 52.71 64.3461C57.2298 61.0943 58.435 71.2691 64.3106 71.374C70.1862 71.4789 73.1017 65.4999 82.1411 65.4999C91.1805 65.4999 98.7884 79.8889 104.595 79.8889" stroke="#F7685B" stroke-width="4.33164" stroke-linecap="round" stroke-linejoin="round"/>
</g>
<path d="M105.571 78.3314C106.434 78.3314 107.133 79.0286 107.133 79.8887C107.133 80.7488 106.434 81.446 105.571 81.446C104.708 81.446 104.009 80.7488 104.009 79.8887C104.009 79.0286 104.708 78.3314 105.571 78.3314Z" fill="#F7685B"/>
<path opacity="0.2" d="M105.571 84.1715C107.944 84.1715 109.867 82.2541 109.867 79.8889C109.867 77.5237 107.944 75.6063 105.571 75.6063C103.199 75.6063 101.276 77.5237 101.276 79.8889C101.276 82.2541 103.199 84.1715 105.571 84.1715Z" fill="#F7685B"/>
<g filter="url(#filter2_d_1_1096)">
<path d="M56.6367 106.874H9.13508C8.45367 106.874 7.90128 107.425 7.90128 108.104V117.945C7.90128 118.625 8.45367 119.175 9.13508 119.175H56.6367C57.3181 119.175 57.8705 118.625 57.8705 117.945V108.104C57.8705 107.425 57.3181 106.874 56.6367 106.874Z" fill="white"/>
<path d="M56.6367 106.874H9.13508C8.45367 106.874 7.90128 107.425 7.90128 108.104V117.945C7.90128 118.625 8.45367 119.175 9.13508 119.175H56.6367C57.3181 119.175 57.8705 118.625 57.8705 117.945V108.104C57.8705 107.425 57.3181 106.874 56.6367 106.874Z" stroke="#F7685B"/>
</g>
<path d="M21.7359 114.517V111.698H23.1073C23.4227 111.698 23.6646 111.764 23.833 111.894C24.0041 112.025 24.0897 112.202 24.0897 112.426C24.0897 112.591 24.0402 112.732 23.9413 112.849C23.8451 112.967 23.7128 113.047 23.5443 113.089V113.025C23.7449 113.06 23.8986 113.137 24.0055 113.257C24.1151 113.375 24.1699 113.528 24.1699 113.717C24.1699 113.965 24.079 114.161 23.8972 114.305C23.7154 114.446 23.4668 114.517 23.1514 114.517H21.7359ZM22.4456 113.977H23.0551C23.1942 113.977 23.2971 113.952 23.3639 113.901C23.4334 113.85 23.4681 113.772 23.4681 113.665C23.4681 113.556 23.4334 113.477 23.3639 113.429C23.2971 113.381 23.1942 113.357 23.0551 113.357H22.4456V113.977ZM22.4456 112.818H22.9709C23.1126 112.818 23.2155 112.794 23.2797 112.746C23.3465 112.698 23.38 112.624 23.38 112.526C23.38 112.427 23.3465 112.355 23.2797 112.31C23.2155 112.262 23.1126 112.238 22.9709 112.238H22.4456V112.818ZM25.2573 114.56C24.9979 114.56 24.8055 114.49 24.6798 114.349C24.5569 114.205 24.4954 113.988 24.4954 113.697V112.486H25.2091V113.701C25.2091 113.808 25.2305 113.887 25.2733 113.941C25.3187 113.992 25.3869 114.017 25.4778 114.017C25.5794 114.017 25.6623 113.981 25.7264 113.909C25.7932 113.834 25.8266 113.737 25.8266 113.617V112.486H26.5404V114.517H25.8467V114.153H25.9069C25.8427 114.283 25.7558 114.385 25.6462 114.457C25.5366 114.526 25.407 114.56 25.2573 114.56ZM26.9942 115.424L26.8258 114.872C26.9541 114.848 27.0611 114.822 27.1466 114.792C27.2348 114.766 27.307 114.728 27.363 114.68C27.4192 114.632 27.4633 114.57 27.4955 114.493L27.5956 114.261L27.5796 114.529L26.6895 112.486H27.4433L27.9645 113.833H27.8322L28.3696 112.486H29.0752L28.1611 114.56C28.0889 114.723 28.0112 114.856 27.9285 114.96C27.8482 115.064 27.76 115.147 27.6637 115.208C27.5704 115.269 27.4674 115.315 27.3551 115.344C27.2456 115.376 27.1252 115.403 26.9942 115.424ZM30.4213 114.517V111.698H31.8087C32.1349 111.698 32.381 111.778 32.5465 111.938C32.7123 112.095 32.7953 112.31 32.7953 112.582C32.7953 112.851 32.7123 113.065 32.5465 113.225C32.381 113.385 32.1349 113.465 31.8087 113.465H31.1631V114.517H30.4213ZM31.1631 112.897H31.7124C31.8382 112.897 31.9318 112.871 31.9931 112.818C32.0548 112.761 32.0854 112.683 32.0854 112.582C32.0854 112.48 32.0548 112.402 31.9931 112.346C31.9318 112.29 31.8382 112.262 31.7124 112.262H31.1631V112.897ZM33.8441 114.517V113.169L33.9926 113.577L32.7255 111.698H33.5796L34.2974 112.829H34.153L34.8708 111.698H35.6968L34.4378 113.577L34.586 113.169V114.517H33.8441ZM35.9859 114.517V111.698H37.3733C37.6995 111.698 37.9453 111.778 38.1111 111.938C38.2769 112.095 38.3596 112.31 38.3596 112.582C38.3596 112.851 38.2769 113.065 38.1111 113.225C37.9453 113.385 37.6995 113.465 37.3733 113.465H36.7277V114.517H35.9859ZM36.7277 112.897H37.277C37.4028 112.897 37.4964 112.871 37.5577 112.818C37.6191 112.761 37.65 112.683 37.65 112.582C37.65 112.48 37.6191 112.402 37.5577 112.346C37.4964 112.29 37.4028 112.262 37.277 112.262H36.7277V112.897ZM38.7269 114.517V111.698H39.4688V113.905H40.6799V114.517H38.7269Z" fill="#F7685B"/>
<path fill-rule="evenodd" clip-rule="evenodd" d="M17.4643 113.024C17.4643 114.552 16.2214 115.791 14.6882 115.791C13.155 115.791 11.9121 114.552 11.9121 113.024C11.9121 111.495 13.155 110.256 14.6882 110.256C16.2214 110.256 17.4643 111.495 17.4643 113.024ZM13.6075 112.974C13.6075 112.875 13.688 112.795 13.7874 112.795H14.5236V112.127C14.5236 112.028 14.6042 111.947 14.7036 111.947C14.8029 111.947 14.8835 112.028 14.8835 112.127V112.795H15.5867C15.6861 112.795 15.7666 112.875 15.7666 112.974C15.7666 113.073 15.6861 113.154 15.5867 113.154H14.8835V113.921C14.8835 114.02 14.8029 114.1 14.7036 114.1C14.6042 114.1 14.5236 114.02 14.5236 113.921V113.154H13.7874C13.688 113.154 13.6075 113.073 13.6075 112.974Z" fill="#F7685B"/>
<mask id="mask0_1_1096" style="mask-type:luminance" maskUnits="userSpaceOnUse" x="11" y="110" width="7" height="6">
<path fill-rule="evenodd" clip-rule="evenodd" d="M17.4643 113.024C17.4643 114.552 16.2214 115.791 14.6882 115.791C13.155 115.791 11.9121 114.552 11.9121 113.024C11.9121 111.495 13.155 110.256 14.6882 110.256C16.2214 110.256 17.4643 111.495 17.4643 113.024ZM13.6075 112.974C13.6075 112.875 13.688 112.795 13.7874 112.795H14.5236V112.127C14.5236 112.028 14.6042 111.947 14.7036 111.947C14.8029 111.947 14.8835 112.028 14.8835 112.127V112.795H15.5867C15.6861 112.795 15.7666 112.875 15.7666 112.974C15.7666 113.073 15.6861 113.154 15.5867 113.154H14.8835V113.921C14.8835 114.02 14.8029 114.1 14.7036 114.1C14.6042 114.1 14.5236 114.02 14.5236 113.921V113.154H13.7874C13.688 113.154 13.6075 113.073 13.6075 112.974Z" fill="#F7685B"/>
</mask>
<g mask="url(#mask0_1_1096)">
<path d="M14.5236 112.795V112.949H14.6779V112.795H14.5236ZM14.8835 112.795H14.7293V112.949H14.8835V112.795ZM14.8835 113.154V113H14.7293V113.154H14.8835ZM14.5236 113.154H14.6779V113H14.5236V113.154ZM14.6882 115.945C16.3066 115.945 17.6185 114.637 17.6185 113.024H17.3101C17.3101 114.467 16.1362 115.637 14.6882 115.637V115.945ZM11.7579 113.024C11.7579 114.637 13.0699 115.945 14.6882 115.945V115.637C13.2402 115.637 12.0664 114.467 12.0664 113.024H11.7579ZM14.6882 110.102C13.0699 110.102 11.7579 111.41 11.7579 113.024H12.0664C12.0664 111.58 13.2402 110.41 14.6882 110.41V110.102ZM17.6185 113.024C17.6185 111.41 16.3066 110.102 14.6882 110.102V110.41C16.1362 110.41 17.3101 111.58 17.3101 113.024H17.6185ZM13.7874 112.641C13.6028 112.641 13.4533 112.791 13.4533 112.974H13.7617C13.7617 112.96 13.7732 112.949 13.7874 112.949V112.641ZM14.5236 112.641H13.7874V112.949H14.5236V112.641ZM14.6779 112.795V112.127H14.3694V112.795H14.6779ZM14.6779 112.127C14.6779 112.113 14.6894 112.101 14.7036 112.101V111.793C14.519 111.793 14.3694 111.943 14.3694 112.127H14.6779ZM14.7036 112.101C14.7178 112.101 14.7293 112.113 14.7293 112.127H15.0377C15.0377 111.943 14.8881 111.793 14.7036 111.793V112.101ZM14.7293 112.127V112.795H15.0377V112.127H14.7293ZM15.5867 112.641H14.8835V112.949H15.5867V112.641ZM15.9209 112.974C15.9209 112.791 15.7713 112.641 15.5867 112.641V112.949C15.6009 112.949 15.6124 112.96 15.6124 112.974H15.9209ZM15.5867 113.307C15.7713 113.307 15.9209 113.158 15.9209 112.974H15.6124C15.6124 112.988 15.6009 113 15.5867 113V113.307ZM14.8835 113.307H15.5867V113H14.8835V113.307ZM14.7293 113.154V113.921H15.0377V113.154H14.7293ZM14.7293 113.921C14.7293 113.935 14.7178 113.946 14.7036 113.946V114.254C14.8881 114.254 15.0377 114.105 15.0377 113.921H14.7293ZM14.7036 113.946C14.6894 113.946 14.6779 113.935 14.6779 113.921H14.3694C14.3694 114.105 14.519 114.254 14.7036 114.254V113.946ZM14.6779 113.921V113.154H14.3694V113.921H14.6779ZM13.7874 113.307H14.5236V113H13.7874V113.307ZM13.4533 112.974C13.4533 113.158 13.6028 113.307 13.7874 113.307V113C13.7732 113 13.7617 112.988 13.7617 112.974H13.4533Z" fill="#F7685B"/>
</g>
<g filter="url(#filter3_d_1_1096)">
<path d="M109.999 106.874H62.4974C61.816 106.874 61.2636 107.425 61.2636 108.104V117.945C61.2636 118.625 61.816 119.175 62.4974 119.175H109.999C110.68 119.175 111.233 118.625 111.233 117.945V108.104C111.233 107.425 110.68 106.874 109.999 106.874Z" fill="white"/>
<path d="M109.999 106.874H62.4974C61.816 106.874 61.2636 107.425 61.2636 108.104V117.945C61.2636 118.625 61.816 119.175 62.4974 119.175H109.999C110.68 119.175 111.233 118.625 111.233 117.945V108.104C111.233 107.425 110.68 106.874 109.999 106.874Z" stroke="#F7685B"/>
</g>
<path d="M76.1616 114.56C75.9342 114.56 75.7178 114.534 75.512 114.481C75.3089 114.425 75.1377 114.35 74.9987 114.257L75.2072 113.685C75.2954 113.741 75.3916 113.789 75.4958 113.829C75.6002 113.869 75.7083 113.901 75.8206 113.925C75.9355 113.946 76.0518 113.957 76.1695 113.957C76.3461 113.957 76.4675 113.934 76.5343 113.889C76.6038 113.844 76.6387 113.785 76.6387 113.713C76.6387 113.649 76.616 113.6 76.5705 113.565C76.5251 113.528 76.4396 113.496 76.3139 113.469L75.8246 113.369C75.5653 113.316 75.3716 113.224 75.2432 113.093C75.115 112.96 75.0509 112.787 75.0509 112.574C75.0509 112.387 75.1004 112.226 75.1991 112.09C75.3008 111.951 75.4425 111.845 75.6242 111.77C75.806 111.693 76.0186 111.654 76.2617 111.654C76.4624 111.654 76.6506 111.682 76.8272 111.738C77.0035 111.791 77.148 111.866 77.2602 111.962L77.0517 112.498C76.9449 112.42 76.8245 112.362 76.6909 112.322C76.557 112.279 76.4088 112.258 76.2457 112.258C76.0908 112.258 75.9731 112.282 75.8928 112.33C75.8154 112.375 75.7765 112.44 75.7765 112.526C75.7765 112.584 75.7992 112.635 75.8446 112.678C75.8928 112.717 75.9796 112.751 76.1054 112.778L76.5865 112.873C76.8459 112.924 77.0398 113.015 77.168 113.145C77.2989 113.276 77.3646 113.447 77.3646 113.657C77.3646 113.838 77.3138 113.997 77.2121 114.133C77.1131 114.269 76.9741 114.374 76.795 114.449C76.616 114.523 76.4048 114.56 76.1616 114.56ZM78.8237 114.56C78.4548 114.56 78.1673 114.466 77.9615 114.277C77.7584 114.088 77.6567 113.828 77.6567 113.497C77.6567 113.292 77.6997 113.109 77.7852 112.949C77.8706 112.789 77.991 112.665 78.1459 112.578C78.3009 112.487 78.4829 112.442 78.6914 112.442C78.8973 112.442 79.0682 112.487 79.2045 112.578C79.3435 112.665 79.4479 112.788 79.5174 112.945C79.5869 113.1 79.6215 113.28 79.6215 113.485V113.637H78.2544V113.301H79.0963L79.0282 113.357C79.0282 113.205 78.9987 113.093 78.94 113.021C78.8837 112.947 78.8037 112.909 78.6993 112.909C78.5789 112.909 78.4867 112.955 78.4226 113.045C78.3612 113.133 78.3304 113.266 78.3304 113.445V113.517C78.3304 113.696 78.3745 113.826 78.4627 113.909C78.5511 113.992 78.6779 114.033 78.8437 114.033C78.9505 114.033 79.0509 114.021 79.1445 113.997C79.2407 113.973 79.3316 113.934 79.4171 113.881L79.6015 114.345C79.5001 114.414 79.3825 114.467 79.2486 114.505C79.115 114.542 78.9733 114.56 78.8237 114.56ZM79.9615 114.517V111.574H80.6752V114.517H79.9615ZM81.1166 114.517V111.574H81.8303V114.517H81.1166ZM83.4712 114.517V111.698H84.8586C85.1845 111.698 85.4306 111.778 85.5964 111.938C85.7619 112.095 85.845 112.31 85.845 112.582C85.845 112.851 85.7619 113.065 85.5964 113.225C85.4306 113.385 85.1845 113.465 84.8586 113.465H84.2128V114.517H83.4712ZM84.2128 112.897H84.7623C84.8878 112.897 84.9814 112.871 85.0431 112.818C85.1045 112.761 85.1353 112.683 85.1353 112.582C85.1353 112.48 85.1045 112.402 85.0431 112.346C84.9814 112.29 84.8878 112.262 84.7623 112.262H84.2128V112.897ZM86.8941 114.517V113.169L87.0423 113.577L85.7752 111.698H86.6293L87.3471 112.829H87.2027L87.9204 111.698H88.7467L87.4874 113.577L87.6359 113.169V114.517H86.8941ZM89.0355 114.517V111.698H90.423C90.7491 111.698 90.995 111.778 91.1608 111.938C91.3265 112.095 91.4093 112.31 91.4093 112.582C91.4093 112.851 91.3265 113.065 91.1608 113.225C90.995 113.385 90.7491 113.465 90.423 113.465H89.7774V114.517H89.0355ZM89.7774 112.897H90.3267C90.4524 112.897 90.546 112.871 90.6074 112.818C90.6691 112.761 90.6996 112.683 90.6996 112.582C90.6996 112.48 90.6691 112.402 90.6074 112.346C90.546 112.29 90.4524 112.262 90.3267 112.262H89.7774V112.897ZM91.7766 114.517V111.698H92.5184V113.905H93.7295V114.517H91.7766Z" fill="#F7685B"/>
<path fill-rule="evenodd" clip-rule="evenodd" d="M68.0496 115.791C69.5828 115.791 70.8258 114.552 70.8258 113.024C70.8258 111.495 69.5828 110.256 68.0496 110.256C66.5164 110.256 65.2737 111.495 65.2737 113.024C65.2737 114.552 66.5164 115.791 68.0496 115.791ZM67.1644 112.81C67.0646 112.81 66.9837 112.891 66.9837 112.99C66.9837 113.09 67.0646 113.17 67.1644 113.17H68.9713C69.0711 113.17 69.152 113.09 69.152 112.99C69.152 112.891 69.0711 112.81 68.9713 112.81H67.1644Z" fill="#F7685B"/>
<mask id="mask1_1_1096" style="mask-type:luminance" maskUnits="userSpaceOnUse" x="65" y="110" width="6" height="6">
<path fill-rule="evenodd" clip-rule="evenodd" d="M68.0496 115.791C69.5828 115.791 70.8258 114.552 70.8258 113.024C70.8258 111.495 69.5828 110.256 68.0496 110.256C66.5164 110.256 65.2737 111.495 65.2737 113.024C65.2737 114.552 66.5164 115.791 68.0496 115.791ZM67.1644 112.81C67.0646 112.81 66.9837 112.891 66.9837 112.99C66.9837 113.09 67.0646 113.17 67.1644 113.17H68.9713C69.0711 113.17 69.152 113.09 69.152 112.99C69.152 112.891 69.0711 112.81 68.9713 112.81H67.1644Z" fill="#F7685B"/>
</mask>
<g mask="url(#mask1_1_1096)">
<path d="M70.6714 113.024C70.6714 114.467 69.4976 115.637 68.0496 115.637V115.945C69.668 115.945 70.98 114.637 70.98 113.024H70.6714ZM68.0496 110.41C69.4976 110.41 70.6714 111.58 70.6714 113.024H70.98C70.98 111.41 69.668 110.102 68.0496 110.102V110.41ZM65.4278 113.024C65.4278 111.58 66.6016 110.41 68.0496 110.41V110.102C66.4312 110.102 65.1192 111.41 65.1192 113.024H65.4278ZM68.0496 115.637C66.6016 115.637 65.4278 114.467 65.4278 113.024H65.1192C65.1192 114.637 66.4312 115.945 68.0496 115.945V115.637ZM67.1379 112.99C67.1379 112.976 67.1498 112.964 67.1644 112.964V112.656C66.9794 112.656 66.8293 112.806 66.8293 112.99H67.1379ZM67.1644 113.017C67.1498 113.017 67.1379 113.005 67.1379 112.99H66.8293C66.8293 113.175 66.9794 113.324 67.1644 113.324V113.017ZM68.9713 113.017H67.1644V113.324H68.9713V113.017ZM68.9978 112.99C68.9978 113.005 68.9859 113.017 68.9713 113.017V113.324C69.1563 113.324 69.3061 113.175 69.3061 112.99H68.9978ZM68.9713 112.964C68.9859 112.964 68.9978 112.976 68.9978 112.99H69.3061C69.3061 112.806 69.1563 112.656 68.9713 112.656V112.964ZM67.1644 112.964H68.9713V112.656H67.1644V112.964Z" fill="#F7685B"/>
</g>
<path d="M27.1063 98.2171C27.1063 97.3486 27.8125 96.6446 28.6836 96.6446H91.5821C92.4535 96.6446 93.1597 97.3486 93.1597 98.2171V100.576C93.1597 101.445 92.4535 102.149 91.5821 102.149H28.6836C27.8125 102.149 27.1063 101.445 27.1063 100.576V98.2171Z" fill="#767680" fill-opacity="0.12"/>
<mask id="mask2_1_1096" style="mask-type:alpha" maskUnits="userSpaceOnUse" x="26" y="96" width="67" height="7">
<path d="M26.5146 98.2171C26.5146 97.3486 27.2207 96.6446 28.0918 96.6446H90.9906C91.8618 96.6446 92.5679 97.3486 92.5679 98.2171V100.576C92.5679 101.445 91.8618 102.149 90.9906 102.149H28.0918C27.2207 102.149 26.5146 101.445 26.5146 100.576V98.2171Z" fill="white"/>
</mask>
<g mask="url(#mask2_1_1096)">
<g filter="url(#filter4_dd_1_1096)">
<path d="M27.5996 98.6108C27.5996 97.7423 28.3058 97.0383 29.1769 97.0383H36.9325C37.8036 97.0383 38.51 97.7423 38.51 98.6108V100.184C38.51 101.052 37.8036 101.756 36.9325 101.756H29.1769C28.3058 101.756 27.5996 101.052 27.5996 100.184V98.6108Z" fill="white"/>
</g>
<g filter="url(#filter5_dd_1_1096)">
<path fill-rule="evenodd" clip-rule="evenodd" d="M29.1772 96.9399H36.9327C37.8585 96.9399 38.6087 97.6879 38.6087 98.6108V100.183C38.6087 101.106 37.8585 101.854 36.9327 101.854H29.1772C28.2517 101.854 27.5014 101.106 27.5014 100.183V98.6108C27.5014 97.6879 28.2517 96.9399 29.1772 96.9399ZM29.1772 97.038C28.306 97.038 27.5999 97.7421 27.5999 98.6108V100.183C27.5999 101.052 28.306 101.756 29.1772 101.756H36.9327C37.8039 101.756 38.5103 101.052 38.5103 100.183V98.6108C38.5103 97.7421 37.8039 97.038 36.9327 97.038H29.1772Z" fill="black" fill-opacity="0.04"/>
</g>
<path d="M32.7063 100.163V100.38H31.6399V100.163H32.0399V98.8745L31.6683 99.1045V98.8618L32.1527 98.5601H32.3063V100.163H32.7063Z" fill="black"/>
<path d="M33.0639 98.5601H33.7022C33.9978 98.5601 34.2266 98.6394 34.3891 98.7979C34.5514 98.9562 34.6325 99.1795 34.6325 99.4675C34.6325 99.757 34.5514 99.9819 34.3891 100.142C34.2266 100.301 33.9978 100.38 33.7022 100.38H33.0639V98.5601ZM33.6867 100.16C34.136 100.16 34.3607 99.9291 34.3607 99.4675C34.3607 99.0091 34.136 98.7799 33.6867 98.7799H33.3278V100.16H33.6867Z" fill="black"/>
<path d="M43.1505 100.162V100.379H42.0841V100.162H42.4841V98.8743L42.1125 99.1043V98.8616L42.5969 98.5599H42.7508V100.162H43.1505Z" fill="#979797"/>
<path d="M46.0814 98.5599L45.4383 100.379H45.2176L44.7256 98.974L44.2309 100.379H44.0103L43.3696 98.5599H43.6387L44.1282 100.006L44.6334 98.5599L44.8281 98.5626L45.3255 100.014L45.8226 98.5599H46.0814Z" fill="#979797"/>
<path d="M54.3833 100.162V100.379H53.3171V100.162H53.7169V98.8743L53.3453 99.1043V98.8616L53.8296 98.5599H53.9835V100.162H54.3833Z" fill="#979797"/>
<path d="M56.489 98.5599V100.379H56.2505V99.1299L55.7098 100.379H55.5278L54.9791 99.1374L54.9818 100.379H54.7435V98.5599H54.9561L55.6201 100.063L56.2762 98.5599H56.489Z" fill="#979797"/>
<path d="M65.6104 100.162V100.379H64.544V100.162H64.944V98.8743L64.5724 99.1043V98.8616L65.0568 98.5599H65.2106V100.162H65.6104Z" fill="#979797"/>
<path d="M66.6779 99.6487V100.379H66.4112V99.6436L65.6858 98.5599H65.9885L66.5472 99.4187L67.1033 98.5599H67.4059L66.6779 99.6487Z" fill="#979797"/>
<path d="M76.001 99.227C76.1154 99.227 76.2154 99.2518 76.3009 99.3011C76.388 99.3488 76.4545 99.4171 76.5008 99.5055C76.5486 99.5923 76.5724 99.6929 76.5724 99.807C76.5724 99.9245 76.5459 100.028 76.4932 100.116C76.4418 100.205 76.3674 100.274 76.2701 100.323C76.1727 100.373 76.0591 100.397 75.929 100.397C75.8162 100.397 75.7054 100.378 75.5958 100.339C75.4866 100.299 75.396 100.246 75.3243 100.178L75.4165 99.9833C75.5856 100.116 75.7573 100.183 75.9317 100.183C76.0532 100.183 76.147 100.15 76.2138 100.086C76.282 100.019 76.3163 99.928 76.3163 99.8121C76.3163 99.7015 76.282 99.612 76.2138 99.5438C76.147 99.4758 76.0572 99.4416 75.9444 99.4416C75.7806 99.4416 75.6488 99.5039 75.5498 99.6282H75.3781V98.5599H76.4956V98.7721H75.6396V99.3497C75.737 99.268 75.8574 99.227 76.001 99.227Z" fill="#979797"/>
<path d="M77.5888 99.6487V100.379H77.3221V99.6436L76.5968 98.5599H76.8992L77.4579 99.4187L78.0142 98.5599H78.3166L77.5888 99.6487Z" fill="#979797"/>
<path d="M87.4482 99.9296H86.5254L86.3307 100.379H86.0616L86.8741 98.5599H87.0972L87.9123 100.379H87.6432L87.4482 99.9296ZM87.3587 99.7201L86.9868 98.8538L86.6152 99.7201H87.3587Z" fill="#979797"/>
<path d="M88.1098 98.4987H88.3662V100.379H88.1098V98.4987Z" fill="#979797"/>
<path d="M88.7299 98.4987H88.986V100.379H88.7299V98.4987Z" fill="#979797"/>
</g>
</g>
<defs>
<filter id="filter0_d_1_1096" x="-6.48366" y="-21.6544" width="133.59" height="161.95" filterUnits="userSpaceOnUse" color-interpolation-filters="sRGB">
<feFlood flood-opacity="0" result="BackgroundImageFix"/>
<feColorMatrix in="SourceAlpha" type="matrix" values="0 0 0 0 0 0 0 0 0 0 0 0 0 0 0 0 0 0 127 0" result="hardAlpha"/>
<feOffset/>
<feGaussianBlur stdDeviation="15.0066"/>
<feColorMatrix type="matrix" values="0 0 0 0 0 0 0 0 0 0 0 0 0 0 0 0 0 0 0.06 0"/>
<feBlend mode="normal" in2="BackgroundImageFix" result="effect1_dropShadow_1_1096"/>
<feBlend mode="normal" in="SourceGraphic" in2="effect1_dropShadow_1_1096" result="shape"/>
</filter>
<filter id="filter1_d_1_1096" x="9.3762" y="55.9915" width="103.16" height="66.3447" filterUnits="userSpaceOnUse" color-interpolation-filters="sRGB">
<feFlood flood-opacity="0" result="BackgroundImageFix"/>
<feColorMatrix in="SourceAlpha" type="matrix" values="0 0 0 0 0 0 0 0 0 0 0 0 0 0 0 0 0 0 127 0" result="hardAlpha"/>
<feOffset dy="21.6582"/>
<feGaussianBlur stdDeviation="2.88776"/>
<feColorMatrix type="matrix" values="0 0 0 0 0.968627 0 0 0 0 0.407843 0 0 0 0 0.356863 0 0 0 0.3 0"/>
<feBlend mode="normal" in2="BackgroundImageFix" result="effect1_dropShadow_1_1096"/>
<feBlend mode="normal" in="SourceGraphic" in2="effect1_dropShadow_1_1096" result="shape"/>
</filter>
<filter id="filter2_d_1_1096" x="-21.1111" y="77.862" width="107.994" height="70.3257" filterUnits="userSpaceOnUse" color-interpolation-filters="sRGB">
<feFlood flood-opacity="0" result="BackgroundImageFix"/>
<feColorMatrix in="SourceAlpha" type="matrix" values="0 0 0 0 0 0 0 0 0 0 0 0 0 0 0 0 0 0 127 0" result="hardAlpha"/>
<feOffset/>
<feGaussianBlur stdDeviation="14.2562"/>
<feColorMatrix type="matrix" values="0 0 0 0 0 0 0 0 0 0 0 0 0 0 0 0 0 0 0.06 0"/>
<feBlend mode="normal" in2="BackgroundImageFix" result="effect1_dropShadow_1_1096"/>
<feBlend mode="normal" in="SourceGraphic" in2="effect1_dropShadow_1_1096" result="shape"/>
</filter>
<filter id="filter3_d_1_1096" x="32.2512" y="77.862" width="107.994" height="70.3257" filterUnits="userSpaceOnUse" color-interpolation-filters="sRGB">
<feFlood flood-opacity="0" result="BackgroundImageFix"/>
<feColorMatrix in="SourceAlpha" type="matrix" values="0 0 0 0 0 0 0 0 0 0 0 0 0 0 0 0 0 0 127 0" result="hardAlpha"/>
<feOffset/>
<feGaussianBlur stdDeviation="14.2562"/>
<feColorMatrix type="matrix" values="0 0 0 0 0 0 0 0 0 0 0 0 0 0 0 0 0 0 0.06 0"/>
<feBlend mode="normal" in2="BackgroundImageFix" result="effect1_dropShadow_1_1096"/>
<feBlend mode="normal" in="SourceGraphic" in2="effect1_dropShadow_1_1096" result="shape"/>
</filter>
<filter id="filter4_dd_1_1096" x="17.9954" y="91.0356" width="30.1188" height="23.9263" filterUnits="userSpaceOnUse" color-interpolation-filters="sRGB">
<feFlood flood-opacity="0" result="BackgroundImageFix"/>
<feColorMatrix in="SourceAlpha" type="matrix" values="0 0 0 0 0 0 0 0 0 0 0 0 0 0 0 0 0 0 127 0" result="hardAlpha"/>
<feOffset dy="3.60158"/>
<feGaussianBlur stdDeviation="0.600264"/>
<feColorMatrix type="matrix" values="0 0 0 0 0 0 0 0 0 0 0 0 0 0 0 0 0 0 0.04 0"/>
<feBlend mode="normal" in2="BackgroundImageFix" result="effect1_dropShadow_1_1096"/>
<feColorMatrix in="SourceAlpha" type="matrix" values="0 0 0 0 0 0 0 0 0 0 0 0 0 0 0 0 0 0 127 0" result="hardAlpha"/>
<feOffset dy="3.60158"/>
<feGaussianBlur stdDeviation="4.80211"/>
<feColorMatrix type="matrix" values="0 0 0 0 0 0 0 0 0 0 0 0 0 0 0 0 0 0 0.12 0"/>
<feBlend mode="normal" in2="effect1_dropShadow_1_1096" result="effect2_dropShadow_1_1096"/>
<feBlend mode="normal" in="SourceGraphic" in2="effect2_dropShadow_1_1096" result="shape"/>
</filter>
<filter id="filter5_dd_1_1096" x="17.8972" y="90.9372" width="30.3157" height="24.1229" filterUnits="userSpaceOnUse" color-interpolation-filters="sRGB">
<feFlood flood-opacity="0" result="BackgroundImageFix"/>
<feColorMatrix in="SourceAlpha" type="matrix" values="0 0 0 0 0 0 0 0 0 0 0 0 0 0 0 0 0 0 127 0" result="hardAlpha"/>
<feOffset dy="3.60158"/>
<feGaussianBlur stdDeviation="0.600264"/>
<feColorMatrix type="matrix" values="0 0 0 0 0 0 0 0 0 0 0 0 0 0 0 0 0 0 0.04 0"/>
<feBlend mode="normal" in2="BackgroundImageFix" result="effect1_dropShadow_1_1096"/>
<feColorMatrix in="SourceAlpha" type="matrix" values="0 0 0 0 0 0 0 0 0 0 0 0 0 0 0 0 0 0 127 0" result="hardAlpha"/>
<feOffset dy="3.60158"/>
<feGaussianBlur stdDeviation="4.80211"/>
<feColorMatrix type="matrix" values="0 0 0 0 0 0 0 0 0 0 0 0 0 0 0 0 0 0 0.12 0"/>
<feBlend mode="normal" in2="effect1_dropShadow_1_1096" result="effect2_dropShadow_1_1096"/>
<feBlend mode="normal" in="SourceGraphic" in2="effect2_dropShadow_1_1096" result="shape"/>
</filter>
<clipPath id="clip0_1_1096">
<rect width="119" height="127" fill="white"/>
</clipPath>
</defs>
</svg>
