<svg width="181" height="178" viewBox="0 0 181 178" fill="none" xmlns="http://www.w3.org/2000/svg">
<g clip-path="url(#clip0_1_1231)">
<g filter="url(#filter0_d_1_1231)">
<path d="M162.559 13.2607H18.4409C15.5982 13.2607 13.2938 15.5594 13.2938 18.395V159.588C13.2938 162.424 15.5982 164.722 18.4409 164.722H162.559C165.402 164.722 167.706 162.424 167.706 159.588V18.395C167.706 15.5594 165.402 13.2607 162.559 13.2607Z" fill="white"/>
</g>
<path d="M72.0472 31.5169C71.6735 31.5169 71.3048 31.4676 70.9413 31.3692C70.5772 31.2708 70.2807 31.1373 70.0521 30.9686L70.4653 30.0337C70.7076 30.1883 70.9643 30.3078 71.2353 30.3922C71.5104 30.4719 71.7859 30.5117 72.061 30.5117C72.3412 30.5117 72.556 30.4742 72.7053 30.3992C72.8546 30.3196 72.9292 30.2095 72.9292 30.0688C72.9292 29.9423 72.8612 29.8392 72.7262 29.7596C72.5907 29.6752 72.3366 29.5932 71.9628 29.5136C71.4919 29.4198 71.1253 29.305 70.8641 29.1692C70.6028 29.0285 70.4182 28.8645 70.3108 28.6771C70.2086 28.4896 70.1569 28.2624 70.1569 27.9953C70.1569 27.6907 70.2434 27.4165 70.4162 27.1728C70.5885 26.9245 70.8313 26.7324 71.1443 26.5965C71.4567 26.4559 71.8136 26.3856 72.2149 26.3856C72.5744 26.3856 72.922 26.4371 73.258 26.5403C73.5985 26.6386 73.8649 26.7699 74.0561 26.9339L73.6501 27.8687C73.4308 27.7141 73.1997 27.5969 72.9568 27.5173C72.7145 27.433 72.4716 27.3908 72.2292 27.3908C71.991 27.3908 71.7998 27.4377 71.6551 27.5313C71.5104 27.6204 71.4383 27.7422 71.4383 27.8969C71.4383 27.9812 71.4638 28.0515 71.515 28.1077C71.5666 28.164 71.6622 28.2202 71.8018 28.2764C71.9419 28.328 72.152 28.3842 72.4322 28.4451C72.8847 28.5436 73.2396 28.6631 73.4962 28.8036C73.7575 28.9395 73.9416 29.1012 74.049 29.2886C74.1563 29.4714 74.21 29.6916 74.21 29.9493C74.21 30.4367 74.0208 30.821 73.643 31.1021C73.2651 31.3786 72.7329 31.5169 72.0472 31.5169Z" fill="black"/>
<path d="M78.1573 29.7947H75.9244C75.9474 30.0712 76.0267 30.2704 76.1622 30.3922C76.2977 30.514 76.496 30.5749 76.7573 30.5749C76.9347 30.5749 77.1116 30.5468 77.2891 30.4906C77.4665 30.4297 77.6275 30.3477 77.7722 30.2446L78.0944 31.0881C77.9169 31.2193 77.7022 31.3224 77.4501 31.3974C77.1981 31.4723 76.946 31.5098 76.6944 31.5098C76.2879 31.5098 75.9357 31.4349 75.6371 31.2849C75.3385 31.135 75.1099 30.9217 74.9514 30.6452C74.7924 30.3641 74.7131 30.0337 74.7131 29.6541C74.7131 29.2933 74.7878 28.9723 74.9371 28.6912C75.091 28.4053 75.3011 28.1827 75.567 28.0234C75.838 27.864 76.1458 27.7844 76.4914 27.7844C76.8274 27.7844 77.1214 27.8594 77.3734 28.0093C77.625 28.1593 77.8188 28.3748 77.9543 28.656C78.0898 28.9325 78.1573 29.2558 78.1573 29.626V29.7947ZM76.5262 28.656C76.2133 28.656 76.0175 28.8388 75.9382 29.2043H77.0723C77.0257 28.8388 76.8437 28.656 76.5262 28.656Z" fill="black"/>
<path d="M81.1233 27.7844C81.5436 27.7844 81.856 27.9133 82.0615 28.171C82.2711 28.4241 82.3765 28.8083 82.3765 29.3238V31.4536H81.1095V29.38C81.1095 29.1598 81.0721 29.0028 80.9975 28.909C80.9228 28.8107 80.8057 28.7614 80.6472 28.7614C80.456 28.7614 80.3021 28.827 80.1855 28.9583C80.0685 29.0848 80.0102 29.2535 80.0102 29.4644V31.4536H78.7432V28.909C78.7432 28.5248 78.7248 28.1827 78.6874 27.8828H79.8772L79.9401 28.41C80.0756 28.2085 80.2438 28.0539 80.4443 27.9461C80.6452 27.8383 80.8712 27.7844 81.1233 27.7844Z" fill="black"/>
<path d="M86.8565 26.2802V31.4536H85.6105V30.9686C85.5077 31.1373 85.3584 31.2708 85.1626 31.3692C84.9667 31.463 84.752 31.5098 84.5183 31.5098C84.2151 31.5098 83.9446 31.4325 83.7064 31.2779C83.4686 31.1185 83.282 30.8983 83.1465 30.6171C83.0156 30.3313 82.9507 30.0033 82.9507 29.6331C82.9507 29.2676 83.0156 28.9442 83.1465 28.6631C83.282 28.3819 83.4686 28.1663 83.7064 28.0163C83.9446 27.8617 84.2151 27.7844 84.5183 27.7844C84.7423 27.7844 84.9478 27.8313 85.1344 27.925C85.3257 28.0187 85.4775 28.1452 85.5895 28.3046V26.2802H86.8565ZM84.9105 30.5609C85.1344 30.5609 85.3073 30.4836 85.4284 30.3289C85.5496 30.1696 85.6105 29.9423 85.6105 29.6471C85.6105 29.3613 85.5476 29.141 85.4213 28.9864C85.3001 28.827 85.1298 28.7474 84.9105 28.7474C84.6819 28.7474 84.5071 28.8247 84.3854 28.9793C84.2642 29.1293 84.2034 29.3472 84.2034 29.6331C84.2034 29.9283 84.2642 30.1579 84.3854 30.3219C84.5117 30.4812 84.6865 30.5609 84.9105 30.5609Z" fill="black"/>
<path d="M93.735 26.4489H94.7571V31.4536H93.6087L93.6021 29.1621L92.6567 31.4536H91.8238L90.8717 29.1902V31.4536H89.731V26.4489H90.7597L92.2507 29.865L93.735 26.4489Z" fill="black"/>
<path d="M97.3928 31.5098C96.996 31.5098 96.6509 31.4349 96.3569 31.2849C96.0629 31.135 95.8364 30.9194 95.6779 30.6382C95.5189 30.3571 95.4396 30.0267 95.4396 29.6471C95.4396 29.2675 95.5189 28.9372 95.6779 28.656C95.8364 28.3748 96.0629 28.1593 96.3569 28.0093C96.6509 27.8594 96.996 27.7844 97.3928 27.7844C97.785 27.7844 98.1255 27.8617 98.4149 28.0163C98.7089 28.1663 98.9354 28.3819 99.0939 28.663C99.2524 28.9395 99.3316 29.2675 99.3316 29.6471C99.3316 30.0267 99.2524 30.3571 99.0939 30.6382C98.9354 30.9147 98.7089 31.1303 98.4149 31.2849C98.1255 31.4349 97.785 31.5098 97.3928 31.5098ZM97.3928 30.5609C97.8499 30.5609 98.079 30.2563 98.079 29.6471C98.079 29.3378 98.0207 29.1105 97.9036 28.9653C97.7916 28.8153 97.6214 28.7404 97.3928 28.7404C97.1597 28.7404 96.9843 28.8153 96.8677 28.9653C96.7511 29.1105 96.6928 29.3378 96.6928 29.6471C96.6928 29.9611 96.7511 30.193 96.8677 30.343C96.9843 30.4882 97.1597 30.5609 97.3928 30.5609Z" fill="black"/>
<path d="M102.308 27.7844C102.728 27.7844 103.041 27.9133 103.246 28.171C103.456 28.4241 103.561 28.8083 103.561 29.3238V31.4536H102.294V29.38C102.294 29.1598 102.257 29.0028 102.182 28.909C102.108 28.8107 101.99 28.7614 101.832 28.7614C101.641 28.7614 101.487 28.827 101.37 28.9583C101.253 29.0848 101.195 29.2535 101.195 29.4644V31.4536H99.9279V28.909C99.9279 28.5248 99.9095 28.1827 99.8721 27.8828H101.062L101.125 28.41C101.26 28.2085 101.429 28.0539 101.629 27.9461C101.83 27.8383 102.056 27.7844 102.308 27.7844Z" fill="black"/>
<path d="M107.579 29.7947H105.346C105.37 30.0712 105.449 30.2704 105.584 30.3922C105.719 30.514 105.918 30.5749 106.179 30.5749C106.356 30.5749 106.534 30.5468 106.711 30.4906C106.889 30.4297 107.05 30.3477 107.194 30.2446L107.516 31.0881C107.339 31.2193 107.124 31.3224 106.872 31.3974C106.62 31.4723 106.368 31.5098 106.116 31.5098C105.71 31.5098 105.358 31.4349 105.059 31.2849C104.761 31.135 104.532 30.9217 104.373 30.6452C104.215 30.3641 104.135 30.0337 104.135 29.6541C104.135 29.2933 104.21 28.9723 104.359 28.6912C104.513 28.4053 104.723 28.1827 104.989 28.0234C105.26 27.864 105.568 27.7844 105.913 27.7844C106.249 27.7844 106.543 27.8594 106.795 28.0093C107.047 28.1593 107.241 28.3748 107.376 28.656C107.511 28.9325 107.579 29.2558 107.579 29.626V29.7947ZM105.948 28.656C105.635 28.656 105.44 28.8388 105.36 29.2043H106.494C106.447 28.8388 106.265 28.656 105.948 28.656Z" fill="black"/>
<path d="M111.765 27.8828L110.134 31.5801C109.92 32.0628 109.649 32.4142 109.322 32.6345C109 32.8594 108.601 33 108.125 33.0562L107.831 32.0862C108.158 32.0206 108.403 31.9363 108.566 31.8331C108.729 31.7301 108.853 31.5871 108.937 31.4044L109.028 31.2076L107.579 27.8828H108.895L109.693 29.9423L110.519 27.8828H111.765Z" fill="black"/>
<path fill-rule="evenodd" clip-rule="evenodd" d="M20.7231 32.5215L16.9163 28.7436C16.7559 28.5845 16.7559 28.3276 16.9163 28.1682L20.7231 24.3903C20.9546 24.1603 21.3314 24.1603 21.5633 24.3903C21.7949 24.6204 21.7949 24.9938 21.5633 25.2239L18.3068 28.4561L21.5633 31.6875C21.7949 31.918 21.7949 32.2914 21.5633 32.5215C21.3314 32.7515 20.9546 32.7515 20.7231 32.5215Z" fill="#40196D"/>
<g filter="url(#filter1_d_1_1231)">
<path d="M52.4133 45.925C52.4133 45.0116 53.1506 44.2711 54.0602 44.2711H126.943C127.852 44.2711 128.59 45.0116 128.59 45.925V54.1946C128.59 55.1081 127.852 55.8486 126.943 55.8486H54.0602C53.1506 55.8486 52.4133 55.1081 52.4133 54.1946V45.925Z" fill="white"/>
</g>
<g filter="url(#filter2_d_1_1231)">
<path fill-rule="evenodd" clip-rule="evenodd" d="M52.2073 45.9251C52.2073 44.8975 53.0371 44.0645 54.0602 44.0645H126.943C127.967 44.0645 128.796 44.8975 128.796 45.9251V54.1946C128.796 55.2223 127.967 56.0552 126.943 56.0552H54.0602C53.0371 56.0552 52.2073 55.2223 52.2073 54.1946V45.9251ZM54.0602 44.4779C53.2646 44.4779 52.6194 45.1258 52.6194 45.9251V54.1946C52.6194 54.9939 53.2646 55.6416 54.0602 55.6416H126.943C127.739 55.6416 128.384 54.9939 128.384 54.1946V45.9251C128.384 45.1258 127.739 44.4779 126.943 44.4779H54.0602Z" fill="#DFE3FF"/>
</g>
<path d="M59.3271 51.4236V48.7739H60.9576V49.0307H59.6272V49.9498H60.8835V50.2066H59.6272V51.4236H59.3271Z" fill="#40196D"/>
<path d="M62.2093 49.5071C62.2712 49.5071 62.3279 49.5145 62.3796 49.5294L62.3724 49.8048C62.3157 49.7849 62.2502 49.775 62.1761 49.775C61.9956 49.775 61.8611 49.8321 61.7722 49.9462C61.6857 50.0578 61.6423 50.1943 61.6423 50.3555V51.4237H61.3422V50.0764C61.3422 49.8829 61.3324 49.708 61.3125 49.5517H61.5978L61.6275 49.8978C61.6745 49.7713 61.7497 49.6745 61.8535 49.6076C61.9572 49.5406 62.0759 49.5071 62.2093 49.5071Z" fill="#40196D"/>
<path d="M64.209 50.4783H62.8412C62.8438 50.7165 62.898 50.8963 63.0044 51.0177C63.1133 51.1396 63.2697 51.2003 63.4753 51.2003C63.6926 51.2003 63.8925 51.1268 64.0755 50.9807L64.1752 51.2003C64.0939 51.2773 63.9891 51.338 63.8603 51.3824C63.7345 51.4272 63.6046 51.4497 63.4712 51.4497C63.1797 51.4497 62.9512 51.364 62.7855 51.1926C62.6204 51.0192 62.5375 50.7823 62.5375 50.482C62.5375 50.291 62.5744 50.1223 62.6485 49.976C62.7226 49.8271 62.8264 49.7118 62.9599 49.6299C63.0933 49.548 63.2452 49.5071 63.416 49.5071C63.6629 49.5071 63.8567 49.5889 63.9978 49.7527C64.1384 49.9139 64.209 50.1372 64.209 50.4225V50.4783ZM63.4195 49.7415C63.2636 49.7415 63.1368 49.7887 63.0376 49.8829C62.9415 49.9772 62.8796 50.1099 62.8525 50.2811H63.9385C63.9237 50.1049 63.8715 49.971 63.7826 49.8792C63.6961 49.7874 63.575 49.7415 63.4195 49.7415Z" fill="#40196D"/>
<path d="M66.2245 50.4783H64.8573C64.8594 50.7165 64.9141 50.8963 65.0204 51.0177C65.1288 51.1396 65.2858 51.2003 65.4908 51.2003C65.7081 51.2003 65.9086 51.1268 66.0911 50.9807L66.1913 51.2003C66.1095 51.2773 66.0047 51.338 65.8763 51.3824C65.7501 51.4272 65.6207 51.4497 65.4872 51.4497C65.1958 51.4497 64.9673 51.364 64.8016 51.1926C64.6359 51.0192 64.5531 50.7823 64.5531 50.482C64.5531 50.291 64.5904 50.1223 64.6646 49.976C64.7387 49.8271 64.8425 49.7118 64.9759 49.6299C65.1094 49.548 65.2613 49.5071 65.4315 49.5071C65.6785 49.5071 65.8728 49.5889 66.0134 49.7527C66.154 49.9139 66.2245 50.1372 66.2245 50.4225V50.4783ZM65.4351 49.7415C65.2797 49.7415 65.1523 49.7887 65.0537 49.8829C64.957 49.9772 64.8957 50.1099 64.8681 50.2811H65.9541C65.9392 50.1049 65.8876 49.971 65.7986 49.8792C65.7122 49.7874 65.591 49.7415 65.4351 49.7415Z" fill="#40196D"/>
<path d="M68.0468 49.7899V50.8133C68.0468 50.9522 68.0749 51.0503 68.1322 51.1074C68.189 51.162 68.2692 51.1891 68.373 51.1891C68.4421 51.1891 68.509 51.1778 68.573 51.1554V51.4124C68.4963 51.4369 68.4098 51.4497 68.3137 51.4497C68.1358 51.4497 67.9962 51.4002 67.895 51.3007C67.7958 51.1993 67.7467 51.0503 67.7467 50.8542V49.7899H67.3837V49.5517H67.7467V49.0717L68.0468 48.9637V49.5517H68.5806V49.7899H68.0468Z" fill="#40196D"/>
<path d="M69.8092 49.5071C69.8711 49.5071 69.9279 49.5145 69.98 49.5294L69.9723 49.8048C69.9156 49.7849 69.8501 49.775 69.776 49.775C69.5955 49.775 69.461 49.8321 69.3721 49.9462C69.2857 50.0578 69.2422 50.1943 69.2422 50.3555V51.4237H68.9421V50.0764C68.9421 49.8829 68.9324 49.708 68.9124 49.5517H69.1977L69.2274 49.8978C69.2744 49.7713 69.3496 49.6745 69.4534 49.6076C69.5572 49.5406 69.6758 49.5071 69.8092 49.5071Z" fill="#40196D"/>
<path d="M71.8902 49.5517V51.4237H71.5937V51.085C71.5395 51.2013 71.4567 51.2921 71.3457 51.3563C71.2368 51.4186 71.1095 51.4497 70.9638 51.4497C70.7981 51.4497 70.6524 51.4099 70.5266 51.3303C70.4029 51.2513 70.3068 51.1396 70.2377 50.9956C70.1707 50.8492 70.1375 50.6793 70.1375 50.4858C70.1375 50.2923 70.1723 50.1223 70.2413 49.976C70.3103 49.8271 70.407 49.7118 70.5302 49.6299C70.6565 49.548 70.8007 49.5071 70.9638 49.5071C71.1095 49.5071 71.2368 49.5393 71.3457 49.6038C71.4541 49.6683 71.5369 49.7589 71.5937 49.8755V49.5517H71.8902ZM71.0231 51.2003C71.2061 51.2003 71.3467 51.1381 71.4454 51.0141C71.5446 50.8877 71.5937 50.7091 71.5937 50.4783C71.5937 50.2476 71.5446 50.0702 71.4454 49.9462C71.3467 49.8221 71.2061 49.7601 71.0231 49.7601C70.8405 49.7601 70.6969 49.8246 70.5931 49.9536C70.4918 50.0802 70.4412 50.2575 70.4412 50.4858C70.4412 50.714 70.4918 50.8901 70.5931 51.0141C70.6943 51.1381 70.838 51.2003 71.0231 51.2003Z" fill="#40196D"/>
<path d="M73.4011 49.5071C73.848 49.5071 74.0715 49.7539 74.0715 50.2476V51.4237H73.7713V50.2625C73.7713 50.0888 73.7371 49.9623 73.6675 49.8829C73.5985 49.8011 73.4896 49.7601 73.3418 49.7601C73.1685 49.7601 73.0305 49.8135 72.9267 49.9202C72.8229 50.0268 72.7707 50.1707 72.7707 50.3518V51.4237H72.4706V50.0764C72.4706 49.8829 72.4609 49.708 72.4409 49.5517H72.7262L72.7559 49.8866C72.8132 49.7651 72.898 49.6721 73.0115 49.6076C73.1256 49.5406 73.2549 49.5071 73.4011 49.5071Z" fill="#40196D"/>
<path d="M75.2684 51.4497C74.955 51.4497 74.7065 51.3691 74.5234 51.2079L74.6237 50.9844C74.7249 51.0636 74.8277 51.1207 74.9314 51.1554C75.0352 51.1906 75.1513 51.2079 75.2796 51.2079C75.4203 51.2079 75.5266 51.184 75.5982 51.137C75.6723 51.0876 75.7096 51.0167 75.7096 50.9249C75.7096 50.8504 75.6846 50.7909 75.6355 50.7462C75.5859 50.7016 75.5046 50.6669 75.3906 50.642L75.0756 50.5676C74.9202 50.5329 74.799 50.4709 74.7126 50.3816C74.6288 50.2923 74.5868 50.1856 74.5868 50.0615C74.5868 49.8978 74.6523 49.7651 74.7832 49.6634C74.9141 49.5592 75.0869 49.5071 75.3016 49.5071C75.433 49.5071 75.5563 49.5281 75.6723 49.5703C75.7884 49.6125 75.886 49.6733 75.9653 49.7527L75.8651 49.9722C75.6897 49.8258 75.5021 49.7527 75.3016 49.7527C75.1687 49.7527 75.0649 49.7787 74.9908 49.8308C74.9192 49.8804 74.8829 49.9512 74.8829 50.0429C74.8829 50.1198 74.9054 50.1806 74.9499 50.2253C74.9969 50.2699 75.071 50.3047 75.1723 50.3295L75.4872 50.4076C75.6601 50.4473 75.7884 50.5093 75.8728 50.5937C75.9566 50.6756 75.9985 50.7835 75.9985 50.9175C75.9985 51.0789 75.9331 51.2079 75.8022 51.3043C75.6713 51.4012 75.4934 51.4497 75.2684 51.4497Z" fill="#40196D"/>
<path d="M77.1924 48.9303C77.0932 48.9303 77.0155 48.9588 76.9588 49.0158C76.9046 49.0704 76.8775 49.1659 76.8775 49.3024V49.5517H77.333V49.7899H76.8775V51.4236H76.5768V49.7899H76.2138V49.5517H76.5768V49.2651C76.5768 49.0692 76.6254 48.9215 76.7215 48.8223C76.8202 48.7206 76.9577 48.6697 77.1331 48.6697C77.2195 48.6697 77.3034 48.6809 77.3852 48.7032V48.96C77.3157 48.9402 77.2517 48.9303 77.1924 48.9303Z" fill="#40196D"/>
<path d="M79.2677 50.4783H77.9C77.9026 50.7165 77.9568 50.8963 78.0631 51.0177C78.172 51.1396 78.329 51.2003 78.534 51.2003C78.7513 51.2003 78.9513 51.1268 79.1343 50.9807L79.2345 51.2003C79.1527 51.2773 79.0479 51.338 78.919 51.3824C78.7933 51.4272 78.6634 51.4497 78.5299 51.4497C78.2385 51.4497 78.01 51.364 77.8448 51.1926C77.6791 51.0192 77.5963 50.7823 77.5963 50.482C77.5963 50.291 77.6331 50.1223 77.7073 49.976C77.7814 49.8271 77.8852 49.7118 78.0186 49.6299C78.1521 49.548 78.304 49.5071 78.4747 49.5071C78.7217 49.5071 78.9155 49.5889 79.0566 49.7527C79.1972 49.9139 79.2677 50.1372 79.2677 50.4225V50.4783ZM78.4783 49.7415C78.3224 49.7415 78.1956 49.7887 78.0964 49.8829C78.0002 49.9772 77.9384 50.1099 77.9113 50.2811H78.9973C78.9824 50.1049 78.9303 49.971 78.8413 49.8792C78.7549 49.7874 78.6337 49.7415 78.4783 49.7415Z" fill="#40196D"/>
<path d="M80.5905 49.5071C80.6523 49.5071 80.7091 49.5145 80.7607 49.5294L80.7536 49.8048C80.6968 49.7849 80.6314 49.775 80.5572 49.775C80.3768 49.775 80.2423 49.8321 80.1533 49.9462C80.0664 50.0578 80.0234 50.1943 80.0234 50.3555V51.4237H79.7233V50.0764C79.7233 49.8829 79.7136 49.708 79.6937 49.5517H79.979L80.0086 49.8978C80.0557 49.7713 80.1308 49.6745 80.2346 49.6076C80.3384 49.5406 80.457 49.5071 80.5905 49.5071Z" fill="#40196D"/>
<path d="M81.6781 51.4497C81.3641 51.4497 81.1156 51.3691 80.9331 51.2079L81.0328 50.9844C81.1346 51.0636 81.2368 51.1207 81.3406 51.1554C81.4444 51.1906 81.5605 51.2079 81.6888 51.2079C81.8299 51.2079 81.9363 51.184 82.0079 51.137C82.082 51.0876 82.1188 51.0167 82.1188 50.9249C82.1188 50.8504 82.0943 50.7909 82.0447 50.7462C81.9956 50.7016 81.9138 50.6669 81.8003 50.642L81.4853 50.5676C81.3294 50.5329 81.2087 50.4709 81.1218 50.3816C81.0379 50.2923 80.996 50.1856 80.996 50.0615C80.996 49.8978 81.0614 49.7651 81.1923 49.6634C81.3232 49.5592 81.496 49.5071 81.7113 49.5071C81.8422 49.5071 81.9659 49.5281 82.082 49.5703C82.1981 49.6125 82.2957 49.6733 82.3745 49.7527L82.2748 49.9722C82.0989 49.8258 81.9112 49.7527 81.7113 49.7527C81.5779 49.7527 81.4741 49.7787 81.3999 49.8308C81.3283 49.8804 81.2926 49.9512 81.2926 50.0429C81.2926 50.1198 81.3145 50.1806 81.359 50.2253C81.4061 50.2699 81.4802 50.3047 81.5814 50.3295L81.8964 50.4076C82.0692 50.4473 82.1981 50.5093 82.2819 50.5937C82.3658 50.6756 82.4077 50.7835 82.4077 50.9175C82.4077 51.0789 82.3422 51.2079 82.2114 51.3043C82.0805 51.4012 81.9025 51.4497 81.6781 51.4497Z" fill="#40196D"/>
<path d="M84.253 49.7899V50.8133C84.253 50.9522 84.2811 51.0503 84.3378 51.1074C84.3951 51.162 84.4754 51.1891 84.5792 51.1891C84.6482 51.1891 84.7147 51.1778 84.7791 51.1554V51.4124C84.7024 51.4369 84.616 51.4497 84.5199 51.4497C84.3419 51.4497 84.2023 51.4002 84.1011 51.3007C84.0019 51.1993 83.9528 51.0503 83.9528 50.8542V49.7899H83.5893V49.5517H83.9528V49.0717L84.253 48.9637V49.5517H84.7862V49.7899H84.253Z" fill="#40196D"/>
<path d="M85.9193 51.4497C85.7434 51.4497 85.589 51.4099 85.456 51.3303C85.3226 51.2513 85.2188 51.1381 85.1447 50.9919C85.0731 50.8455 85.0373 50.6743 85.0373 50.4783C85.0373 50.2823 85.0731 50.1112 85.1447 49.9648C85.2188 49.8184 85.3226 49.7055 85.456 49.6262C85.589 49.5468 85.7434 49.5071 85.9193 49.5071C86.0947 49.5071 86.2491 49.5468 86.3825 49.6262C86.5155 49.7055 86.6182 49.8184 86.6898 49.9648C86.764 50.1112 86.8013 50.2823 86.8013 50.4783C86.8013 50.6743 86.764 50.8455 86.6898 50.9919C86.6182 51.1381 86.5155 51.2513 86.3825 51.3303C86.2491 51.4099 86.0947 51.4497 85.9193 51.4497ZM85.9193 51.2003C86.1044 51.2003 86.2465 51.1396 86.3452 51.0177C86.4439 50.8938 86.4935 50.714 86.4935 50.4783C86.4935 50.2501 86.4429 50.0739 86.3416 49.9499C86.2404 49.8234 86.0993 49.7601 85.9193 49.7601C85.7362 49.7601 85.5941 49.8234 85.4929 49.9499C85.3916 50.0739 85.341 50.2501 85.341 50.4783C85.341 50.714 85.3901 50.8938 85.4893 51.0177C85.5905 51.1396 85.7337 51.2003 85.9193 51.2003Z" fill="#40196D"/>
<path d="M89.006 51.4497C88.8306 51.4497 88.6762 51.4099 88.5428 51.3303C88.4093 51.2513 88.3055 51.1381 88.2314 50.9919C88.1598 50.8455 88.124 50.6743 88.124 50.4783C88.124 50.2823 88.1598 50.1112 88.2314 49.9648C88.3055 49.8184 88.4093 49.7055 88.5428 49.6262C88.6762 49.5468 88.8306 49.5071 89.006 49.5071C89.1814 49.5071 89.3358 49.5468 89.4693 49.6262C89.6027 49.7055 89.7055 49.8184 89.7771 49.9648C89.8512 50.1112 89.888 50.2823 89.888 50.4783C89.888 50.6743 89.8512 50.8455 89.7771 50.9919C89.7055 51.1381 89.6027 51.2513 89.4693 51.3303C89.3358 51.4099 89.1814 51.4497 89.006 51.4497ZM89.006 51.2003C89.1916 51.2003 89.3332 51.1396 89.4324 51.0177C89.5311 50.8938 89.5807 50.714 89.5807 50.4783C89.5807 50.2501 89.5301 50.0739 89.4284 49.9499C89.3271 49.8234 89.1865 49.7601 89.006 49.7601C88.8235 49.7601 88.6813 49.8234 88.5801 49.9499C88.4789 50.0739 88.4277 50.2501 88.4277 50.4783C88.4277 50.714 88.4773 50.8938 88.576 51.0177C88.6778 51.1396 88.8209 51.2003 89.006 51.2003Z" fill="#40196D"/>
<path d="M90.7526 49.7899V50.8133C90.7526 50.9522 90.7812 51.0503 90.838 51.1074C90.8947 51.162 90.975 51.1891 91.0788 51.1891C91.1478 51.1891 91.2148 51.1778 91.2787 51.1554V51.4124C91.2025 51.4369 91.1156 51.4497 91.0195 51.4497C90.8415 51.4497 90.702 51.4002 90.6007 51.3007C90.502 51.1993 90.4524 51.0503 90.4524 50.8542V49.7899H90.0894V49.5517H90.4524V49.0717L90.7526 48.9637V49.5517H91.2864V49.7899H90.7526Z" fill="#40196D"/>
<path d="M92.5785 49.5071C93.0253 49.5071 93.2488 49.7539 93.2488 50.2476V51.4236H92.9486V50.2625C92.9486 50.0888 92.9144 49.9623 92.8448 49.8829C92.7758 49.801 92.6669 49.7601 92.5191 49.7601C92.3458 49.7601 92.2078 49.8134 92.104 49.9201C92.0002 50.0268 91.948 50.1707 91.948 50.3518V51.4236H91.6479V48.6846H91.948V49.8568C92.0073 49.7427 92.0917 49.6559 92.2001 49.5964C92.3116 49.5368 92.4373 49.5071 92.5785 49.5071Z" fill="#40196D"/>
<path d="M95.3758 50.4783H94.0085C94.0111 50.7165 94.0653 50.8963 94.1716 51.0177C94.28 51.1396 94.437 51.2003 94.642 51.2003C94.8599 51.2003 95.0598 51.1268 95.2428 50.9807L95.3425 51.2003C95.2612 51.2773 95.1559 51.338 95.0276 51.3824C94.9018 51.4272 94.7719 51.4497 94.6385 51.4497C94.347 51.4497 94.1185 51.364 93.9528 51.1926C93.7872 51.0192 93.7048 50.7823 93.7048 50.482C93.7048 50.291 93.7416 50.1223 93.8158 49.976C93.8899 49.8271 93.9937 49.7118 94.1272 49.6299C94.2606 49.548 94.4125 49.5071 94.5827 49.5071C94.8302 49.5071 95.024 49.5889 95.1646 49.7527C95.3057 49.9139 95.3758 50.1372 95.3758 50.4225V50.4783ZM94.5868 49.7415C94.4309 49.7415 94.3036 49.7887 94.2049 49.8829C94.1088 49.9772 94.0469 50.1099 94.0198 50.2811H95.1053C95.0905 50.1049 95.0388 49.971 94.9498 49.8792C94.8634 49.7874 94.7423 49.7415 94.5868 49.7415Z" fill="#40196D"/>
<path d="M96.699 49.5071C96.7604 49.5071 96.8176 49.5145 96.8693 49.5294L96.8621 49.8048C96.8048 49.7849 96.7394 49.775 96.6653 49.775C96.4853 49.775 96.3503 49.8321 96.2613 49.9462C96.1749 50.0578 96.132 50.1943 96.132 50.3555V51.4237H95.8318V50.0764C95.8318 49.8829 95.8216 49.708 95.8022 49.5517H96.0875L96.1171 49.8978C96.1637 49.7713 96.2393 49.6745 96.3431 49.6076C96.4469 49.5406 96.5656 49.5071 96.699 49.5071Z" fill="#40196D"/>
<path d="M99.0709 49.5071C99.234 49.5071 99.3782 49.5467 99.5045 49.6261C99.6302 49.7055 99.7279 49.8184 99.7969 49.9648C99.8665 50.1086 99.9007 50.2774 99.9007 50.4709C99.9007 50.6644 99.8665 50.8355 99.7969 50.9844C99.7279 51.1309 99.6302 51.2451 99.5045 51.3267C99.3782 51.4089 99.234 51.4497 99.0709 51.4497C98.9252 51.4497 98.7979 51.4175 98.689 51.3527C98.5806 51.2885 98.4977 51.1967 98.441 51.0773V51.4236H98.1403V48.6846H98.441V49.8829C98.4952 49.7614 98.5765 49.6683 98.6854 49.6038C98.7963 49.5393 98.9252 49.5071 99.0709 49.5071ZM99.0152 51.2002C99.1956 51.2002 99.3363 51.137 99.4375 51.0105C99.5387 50.8814 99.5893 50.7016 99.5893 50.4709C99.5893 50.2451 99.5387 50.0702 99.4375 49.9461C99.3388 49.8221 99.1982 49.7601 99.0152 49.7601C98.8301 49.7601 98.6879 49.8221 98.5887 49.9461C98.4901 50.0702 98.441 50.2476 98.441 50.4783C98.441 50.709 98.4901 50.8877 98.5887 51.0141C98.6879 51.138 98.8301 51.2002 99.0152 51.2002Z" fill="#40196D"/>
<path d="M102.004 49.5517V51.4237H101.708V51.085C101.654 51.2013 101.571 51.2921 101.46 51.3563C101.351 51.4186 101.224 51.4497 101.078 51.4497C100.913 51.4497 100.766 51.4099 100.641 51.3303C100.517 51.2513 100.421 51.1396 100.352 50.9956C100.285 50.8492 100.252 50.6793 100.252 50.4858C100.252 50.2923 100.286 50.1223 100.355 49.976C100.424 49.8271 100.521 49.7118 100.644 49.6299C100.77 49.548 100.915 49.5071 101.078 49.5071C101.224 49.5071 101.351 49.5393 101.46 49.6038C101.568 49.6683 101.651 49.7589 101.708 49.8755V49.5517H102.004ZM101.137 51.2003C101.32 51.2003 101.461 51.1381 101.559 51.0141C101.659 50.8877 101.708 50.7091 101.708 50.4783C101.708 50.2476 101.659 50.0702 101.559 49.9462C101.461 49.8221 101.32 49.7601 101.137 49.7601C100.955 49.7601 100.811 49.8246 100.707 49.9536C100.606 50.0802 100.555 50.2575 100.555 50.4858C100.555 50.714 100.606 50.8901 100.707 51.0141C100.809 51.1381 100.952 51.2003 101.137 51.2003Z" fill="#40196D"/>
<path d="M103.515 49.5071C103.962 49.5071 104.186 49.7539 104.186 50.2476V51.4237H103.885V50.2625C103.885 50.0888 103.851 49.9623 103.782 49.8829C103.713 49.8011 103.604 49.7601 103.456 49.7601C103.283 49.7601 103.144 49.8135 103.041 49.9202C102.937 50.0268 102.885 50.1707 102.885 50.3518V51.4237H102.585V50.0764C102.585 49.8829 102.575 49.708 102.555 49.5517H102.84L102.87 49.8866C102.927 49.7651 103.012 49.6721 103.126 49.6076C103.24 49.5406 103.369 49.5071 103.515 49.5071Z" fill="#40196D"/>
<path d="M106.402 51.4236H106.009L105.053 50.523V51.4236H104.752V48.6846H105.053V50.4113L105.931 49.5554H106.313L105.379 50.4522L106.402 51.4236Z" fill="#40196D"/>
<path d="M107.257 51.4497C106.943 51.4497 106.695 51.3691 106.512 51.2079L106.613 50.9844C106.714 51.0636 106.816 51.1207 106.92 51.1554C107.024 51.1906 107.14 51.2079 107.269 51.2079C107.409 51.2079 107.516 51.184 107.587 51.137C107.661 51.0876 107.698 51.0167 107.698 50.9249C107.698 50.8504 107.674 50.7909 107.624 50.7462C107.575 50.7016 107.493 50.6669 107.38 50.642L107.065 50.5676C106.909 50.5329 106.788 50.4709 106.702 50.3816C106.617 50.2923 106.575 50.1856 106.575 50.0615C106.575 49.8978 106.641 49.7651 106.772 49.6634C106.903 49.5592 107.076 49.5071 107.291 49.5071C107.421 49.5071 107.545 49.5281 107.661 49.5703C107.777 49.6125 107.875 49.6733 107.954 49.7527L107.854 49.9722C107.679 49.8258 107.491 49.7527 107.291 49.7527C107.157 49.7527 107.053 49.7787 106.979 49.8308C106.908 49.8804 106.872 49.9512 106.872 50.0429C106.872 50.1198 106.894 50.1806 106.938 50.2253C106.985 50.2699 107.059 50.3047 107.161 50.3295L107.476 50.4076C107.649 50.4473 107.777 50.5093 107.861 50.5937C107.945 50.6756 107.987 50.7835 107.987 50.9175C107.987 51.0789 107.922 51.2079 107.791 51.3043C107.66 51.4012 107.482 51.4497 107.257 51.4497Z" fill="#40196D"/>
<path d="M117.629 51.2028V52.127H114.529V51.2712L115.961 49.7704C116.229 49.4892 116.363 49.2267 116.363 48.9827C116.363 48.6974 116.194 48.5547 115.856 48.5547C115.684 48.5547 115.5 48.5899 115.307 48.6602C115.117 48.7264 114.926 48.8235 114.732 48.9517L114.368 48.1268C114.545 47.9821 114.773 47.8684 115.054 47.7857C115.337 47.6989 115.626 47.6555 115.918 47.6555C116.235 47.6555 116.511 47.7071 116.746 47.8105C116.985 47.9097 117.168 48.0545 117.296 48.2446C117.427 48.4307 117.493 48.6499 117.493 48.9021C117.493 49.1584 117.441 49.3921 117.339 49.6029C117.24 49.8097 117.069 50.0433 116.826 50.3037L115.949 51.2028H117.629Z" fill="#40196D"/>
<path d="M120.035 49.2308C120.307 49.2308 120.55 49.2907 120.764 49.4107C120.978 49.5306 121.145 49.698 121.264 49.913C121.384 50.128 121.443 50.3761 121.443 50.6573C121.443 50.9632 121.369 51.2319 121.221 51.4634C121.077 51.6909 120.869 51.8669 120.597 51.9908C120.33 52.1147 120.017 52.177 119.658 52.177C119.375 52.177 119.092 52.1336 118.812 52.0464C118.533 51.9597 118.308 51.8459 118.139 51.7052L118.497 50.8806C118.876 51.1452 119.269 51.2773 119.677 51.2773C119.907 51.2773 120.079 51.2319 120.19 51.1411C120.301 51.0457 120.356 50.9012 120.356 50.7069C120.356 50.5167 120.297 50.372 120.177 50.2727C120.062 50.1694 119.899 50.1177 119.69 50.1177C119.574 50.1177 119.449 50.1384 119.313 50.1797C119.181 50.2169 119.057 50.2665 118.942 50.3286H118.306V47.7112H121.209V48.592H119.43V49.3486C119.599 49.27 119.801 49.2308 120.035 49.2308Z" fill="#40196D"/>
<path d="M159.885 23.5561H142.591C141.453 23.5561 140.532 24.4756 140.532 25.6098V31.4258C140.532 32.56 141.453 33.4795 142.591 33.4795H159.885C161.022 33.4795 161.944 32.56 161.944 31.4258V25.6098C161.944 24.4756 161.022 23.5561 159.885 23.5561Z" fill="#40196D"/>
<path d="M148.323 26.8044H149.05V30.3371H148.476L146.722 28.0845V30.3371H146.001V26.8044H146.569L148.323 29.052V26.8044Z" fill="white"/>
<path d="M151.954 29.1413H150.304C150.317 29.3762 150.378 29.5482 150.486 29.6574C150.595 29.7632 150.757 29.8162 150.971 29.8162C151.099 29.8162 151.228 29.7946 151.356 29.7516C151.485 29.7086 151.603 29.6458 151.712 29.5631L151.91 30.0692C151.791 30.1651 151.643 30.2412 151.465 30.2974C151.29 30.3504 151.114 30.3768 150.936 30.3768C150.514 30.3768 150.183 30.2611 149.943 30.0295C149.702 29.7946 149.582 29.4755 149.582 29.0719C149.582 28.8172 149.633 28.5906 149.736 28.3921C149.841 28.1903 149.987 28.0349 150.175 27.9257C150.363 27.8133 150.575 27.757 150.812 27.757C151.165 27.757 151.443 27.8728 151.648 28.1043C151.852 28.3326 151.954 28.6419 151.954 29.0322V29.1413ZM150.832 28.283C150.691 28.283 150.575 28.3243 150.486 28.407C150.401 28.4897 150.345 28.6105 150.318 28.7692H151.311C151.272 28.445 151.112 28.283 150.832 28.283Z" fill="white"/>
<path d="M153.92 29.0421L154.977 30.3371H154.097L153.49 29.568L152.882 30.3371H152.007L153.065 29.0421L152.072 27.8215H152.951L153.49 28.5211L154.028 27.8215H154.913L153.92 29.0421Z" fill="white"/>
<path d="M156.107 28.3822V29.3597C156.107 29.4986 156.143 29.6012 156.216 29.6673C156.288 29.7301 156.382 29.7616 156.497 29.7616C156.57 29.7616 156.652 29.75 156.744 29.7269V30.3074C156.626 30.3537 156.482 30.3769 156.314 30.3769C156.005 30.3769 155.767 30.2892 155.603 30.1139C155.442 29.9385 155.361 29.6921 155.361 29.3746V28.3822H154.886V27.8216H155.361V27.2311L156.107 26.988V27.8216H156.744V28.3822H156.107Z" fill="white"/>
<path d="M55.1835 69.0472L54.7663 68.07H52.7748L52.352 69.0472H51.8969L53.5724 65.2454H53.958L55.6335 69.0472H55.1835ZM52.9302 67.7068H54.6109L53.7703 65.7524L52.9302 67.7068Z" fill="#979797"/>
<path d="M57.2788 69.0844C57.018 69.0844 56.7895 69.0273 56.5937 68.9136C56.4009 68.7998 56.2506 68.6397 56.1437 68.4331C56.0404 68.223 55.9883 67.9792 55.9883 67.7012C55.9883 67.4238 56.042 67.18 56.1493 66.9698C56.2562 66.7561 56.4081 66.5909 56.6039 66.4736C56.8038 66.3558 57.0359 66.2971 57.2998 66.2971C57.4818 66.2971 57.6567 66.3292 57.8244 66.3935C57.9956 66.4537 58.1368 66.5394 58.2477 66.6495L58.103 66.9698C57.9675 66.8633 57.8351 66.7847 57.7068 66.7352C57.582 66.6852 57.4537 66.6603 57.3212 66.6603C57.0467 66.6603 56.8309 66.7526 56.6739 66.9377C56.5165 67.1193 56.4382 67.3738 56.4382 67.7012C56.4382 68.0256 56.5149 68.2781 56.6683 68.4596C56.8253 68.6376 57.0431 68.7269 57.3212 68.7269C57.4537 68.7269 57.582 68.7019 57.7068 68.6519C57.8351 68.6019 57.9675 68.5239 58.103 68.4168L58.2477 68.7376C58.1332 68.8442 57.989 68.9294 57.8141 68.9936C57.6428 69.0543 57.4644 69.0844 57.2788 69.0844Z" fill="#979797"/>
<path d="M59.9289 69.0844C59.6687 69.0844 59.4401 69.0273 59.2438 68.9136C59.051 68.7998 58.9012 68.6397 58.7944 68.4331C58.6906 68.223 58.6389 67.9792 58.6389 67.7012C58.6389 67.4238 58.6926 67.18 58.7995 66.9698C58.9068 66.7561 59.0582 66.5909 59.2545 66.4736C59.4544 66.3558 59.6866 66.2971 59.9504 66.2971C60.1324 66.2971 60.3073 66.3292 60.475 66.3935C60.6463 66.4537 60.7874 66.5394 60.8978 66.6495L60.7531 66.9698C60.6176 66.8633 60.4857 66.7847 60.3574 66.7352C60.2321 66.6852 60.1038 66.6603 59.9719 66.6603C59.6968 66.6603 59.481 66.7526 59.3241 66.9377C59.1671 67.1193 59.0884 67.3738 59.0884 67.7012C59.0884 68.0256 59.1656 68.2781 59.3189 68.4596C59.4759 68.6376 59.6937 68.7269 59.9719 68.7269C60.1038 68.7269 60.2321 68.7019 60.3574 68.6519C60.4857 68.6019 60.6176 68.5239 60.7531 68.4168L60.8978 68.7376C60.7838 68.8442 60.6391 68.9294 60.4643 68.9936C60.293 69.0543 60.1145 69.0844 59.9289 69.0844Z" fill="#979797"/>
<path d="M62.5631 69.0844C62.31 69.0844 62.0871 69.0273 61.8944 68.9136C61.7016 68.7998 61.5518 68.6376 61.4444 68.4275C61.3411 68.2179 61.2895 67.9721 61.2895 67.691C61.2895 67.4095 61.3411 67.1642 61.4444 66.954C61.5518 66.7439 61.7016 66.5817 61.8944 66.468C62.0871 66.3542 62.31 66.2971 62.5631 66.2971C62.8167 66.2971 63.0397 66.3542 63.2324 66.468C63.4252 66.5817 63.5735 66.7439 63.6767 66.954C63.7836 67.1642 63.8373 67.4095 63.8373 67.691C63.8373 67.9721 63.7836 68.2179 63.6767 68.4275C63.5735 68.6376 63.4252 68.7998 63.2324 68.9136C63.0397 69.0273 62.8167 69.0844 62.5631 69.0844ZM62.5631 68.7269C62.8311 68.7269 63.0361 68.6397 63.1787 68.4653C63.3214 68.2873 63.393 68.0292 63.393 67.691C63.393 67.3631 63.3199 67.1106 63.1736 66.9326C63.0274 66.751 62.8239 66.6603 62.5631 66.6603C62.2993 66.6603 62.0938 66.751 61.9475 66.9326C61.8013 67.1106 61.7282 67.3631 61.7282 67.691C61.7282 68.0292 61.7998 68.2873 61.9424 68.4653C62.0887 68.6397 62.2957 68.7269 62.5631 68.7269Z" fill="#979797"/>
<path d="M66.767 66.3613V69.0471H66.3437V68.5825C66.2583 68.7462 66.1386 68.8707 65.9853 68.9564C65.8319 69.0415 65.6585 69.0844 65.4658 69.0844C65.1483 69.0844 64.9074 68.9956 64.7433 68.8176C64.5792 68.6396 64.4974 68.3759 64.4974 68.0271V66.3613H64.931V68.0164C64.931 68.2586 64.9806 68.4366 65.0808 68.5504C65.1805 68.6641 65.3323 68.7212 65.5358 68.7212C65.7746 68.7212 65.9674 68.6447 66.1136 68.4917C66.2598 68.3351 66.3329 68.1306 66.3329 67.8776V66.3613H66.767Z" fill="#979797"/>
<path d="M68.9462 66.2971C69.592 66.2971 69.9151 66.6516 69.9151 67.3595V69.0472H69.4815V67.3809C69.4815 67.132 69.4314 66.9505 69.3317 66.8362C69.2315 66.7189 69.0745 66.6603 68.8608 66.6603C68.6108 66.6603 68.4109 66.7368 68.2611 66.8898C68.1112 67.0428 68.0361 67.2493 68.0361 67.5095V69.0472H67.6025V67.1142C67.6025 66.8362 67.5882 66.5853 67.5601 66.3614H67.9722L68.0146 66.8418C68.0969 66.6674 68.2201 66.5338 68.3843 66.4415C68.5484 66.3451 68.7355 66.2971 68.9462 66.2971Z" fill="#979797"/>
<path d="M71.3119 66.7031V68.1714C71.3119 68.3709 71.3528 68.5111 71.4352 68.5932C71.517 68.6713 71.633 68.7105 71.7828 68.7105C71.8831 68.7105 71.9792 68.6947 72.0722 68.6626V69.0308C71.9613 69.0665 71.8365 69.0844 71.6974 69.0844C71.4403 69.0844 71.2388 69.013 71.0926 68.8707C70.9499 68.7248 70.8783 68.5111 70.8783 68.2301V66.7031H70.3538V66.3614H70.8783V65.6723L71.3119 65.5178V66.3614H72.083V66.7031H71.3119Z" fill="#979797"/>
<path d="M76.2174 67.0927C76.4347 67.1534 76.6044 67.2636 76.7256 67.4238C76.8473 67.5803 76.9076 67.7762 76.9076 68.0113C76.9076 68.3423 76.7972 68.5983 76.5758 68.7799C76.3544 68.9579 76.0425 69.0472 75.6391 69.0472H74.0546V65.2454H75.5854C75.9745 65.2454 76.2762 65.3326 76.4904 65.5071C76.7077 65.6779 76.8166 65.9217 76.8166 66.2384C76.8166 66.4414 76.7634 66.6174 76.6561 66.7668C76.5528 66.9132 76.4065 67.0213 76.2174 67.0927ZM74.4882 66.9326H75.5159C75.8017 66.9326 76.0174 66.8755 76.1637 66.7617C76.3099 66.648 76.383 66.4807 76.383 66.2599C76.383 65.8253 76.0941 65.6086 75.5159 65.6086H74.4882V66.9326ZM75.6018 68.684C75.9014 68.684 76.1207 68.6289 76.2598 68.5183C76.403 68.4045 76.474 68.2316 76.474 68.0006C76.474 67.5339 76.1831 67.3008 75.6018 67.3008H74.4882V68.684H75.6018Z" fill="#979797"/>
<path d="M80.0158 66.3614V69.0472H79.5878V68.5611C79.5091 68.7284 79.3894 68.8585 79.2289 68.9508C79.0719 69.0401 78.8884 69.0844 78.6777 69.0844C78.4384 69.0844 78.2283 69.0273 78.0463 68.9136C77.8678 68.7998 77.7287 68.6397 77.6285 68.4331C77.5324 68.223 77.4838 67.9792 77.4838 67.7012C77.4838 67.4238 77.5339 67.18 77.6342 66.9698C77.7339 66.7561 77.8729 66.5909 78.0514 66.4736C78.2334 66.3558 78.442 66.2971 78.6777 66.2971C78.8884 66.2971 79.0719 66.3435 79.2289 66.4358C79.3864 66.5287 79.5055 66.6582 79.5878 66.826V66.3614H80.0158ZM78.7636 68.7269C79.0274 68.7269 79.2309 68.6376 79.3736 68.4596C79.5162 68.2781 79.5878 68.022 79.5878 67.691C79.5878 67.3595 79.5162 67.105 79.3736 66.927C79.2309 66.749 79.0274 66.6603 78.7636 66.6603C78.4993 66.6603 78.2922 66.7526 78.1424 66.9377C77.9961 67.1193 77.923 67.3738 77.923 67.7012C77.923 68.0292 77.9961 68.2816 78.1424 68.4596C78.2886 68.6376 78.4957 68.7269 78.7636 68.7269Z" fill="#979797"/>
<path d="M80.8543 69.0472V65.1169H81.2879V69.0472H80.8543Z" fill="#979797"/>
<path d="M84.5014 66.3614V69.0472H84.073V68.5611C83.9942 68.7284 83.8751 68.8585 83.7146 68.9508C83.5571 69.0401 83.3735 69.0844 83.1629 69.0844C82.9241 69.0844 82.7134 69.0273 82.5314 68.9136C82.353 68.7998 82.2139 68.6397 82.1137 68.4331C82.0176 68.223 81.9695 67.9792 81.9695 67.7012C81.9695 67.4238 82.0191 67.18 82.1193 66.9698C82.219 66.7561 82.3581 66.5909 82.5365 66.4736C82.7185 66.3558 82.9277 66.2971 83.1629 66.2971C83.3735 66.2971 83.5571 66.3435 83.7146 66.4358C83.8715 66.5287 83.9906 66.6582 84.073 66.826V66.3614H84.5014ZM83.2488 68.7269C83.5126 68.7269 83.7161 68.6376 83.8587 68.4596C84.0014 68.2781 84.073 68.022 84.073 67.691C84.073 67.3595 84.0014 67.105 83.8587 66.927C83.7161 66.749 83.5126 66.6603 83.2488 66.6603C82.9844 66.6603 82.7773 66.7526 82.6275 66.9377C82.4813 67.1193 82.4082 67.3738 82.4082 67.7012C82.4082 68.0292 82.4813 68.2816 82.6275 68.4596C82.7738 68.6376 82.9808 68.7269 83.2488 68.7269Z" fill="#979797"/>
<path d="M86.6832 66.2971C87.3289 66.2971 87.6521 66.6516 87.6521 67.3595V69.0472H87.2185V67.3809C87.2185 67.132 87.1684 66.9505 87.0687 66.8362C86.9685 66.7189 86.8115 66.6603 86.5973 66.6603C86.3477 66.6603 86.1478 66.7368 85.998 66.8898C85.8482 67.0428 85.773 67.2493 85.773 67.5095V69.0472H85.3395V67.1142C85.3395 66.8362 85.3251 66.5853 85.2965 66.3614H85.7091L85.7516 66.8418C85.8339 66.6674 85.9571 66.5338 86.1212 66.4415C86.2854 66.3451 86.4725 66.2971 86.6832 66.2971Z" fill="#979797"/>
<path d="M89.6001 69.0844C89.3399 69.0844 89.1113 69.0273 88.915 68.9136C88.7222 68.7998 88.5724 68.6397 88.4656 68.4331C88.3618 68.223 88.3101 67.9792 88.3101 67.7012C88.3101 67.4238 88.3638 67.18 88.4707 66.9698C88.578 66.7561 88.7294 66.5909 88.9257 66.4736C89.1256 66.3558 89.3578 66.2971 89.6216 66.2971C89.8036 66.2971 89.9785 66.3292 90.1462 66.3935C90.3175 66.4537 90.4586 66.5394 90.569 66.6495L90.4249 66.9698C90.2888 66.8633 90.1569 66.7847 90.0286 66.7352C89.9038 66.6852 89.775 66.6603 89.6431 66.6603C89.3685 66.6603 89.1522 66.7526 88.9953 66.9377C88.8383 67.1193 88.7601 67.3738 88.7601 67.7012C88.7601 68.0256 88.8368 68.2781 88.9901 68.4596C89.1471 68.6376 89.3649 68.7269 89.6431 68.7269C89.775 68.7269 89.9038 68.7019 90.0286 68.6519C90.1569 68.6019 90.2888 68.5239 90.4249 68.4168L90.569 68.7376C90.455 68.8442 90.3103 68.9294 90.1355 68.9936C89.9642 69.0543 89.7857 69.0844 89.6001 69.0844Z" fill="#979797"/>
<path d="M93.3745 67.691H91.3994C91.403 68.0327 91.4817 68.2908 91.6351 68.4653C91.7921 68.6397 92.0186 68.7269 92.3151 68.7269C92.6291 68.7269 92.9179 68.6218 93.1823 68.4117L93.3265 68.7269C93.2089 68.8371 93.057 68.9243 92.8714 68.9885C92.6894 69.0523 92.5023 69.0844 92.3095 69.0844C91.8882 69.0844 91.5584 68.9615 91.3191 68.7162C91.0803 68.4668 90.9607 68.1271 90.9607 67.6961C90.9607 67.4222 91.0139 67.18 91.1212 66.9698C91.2281 66.7561 91.3779 66.5909 91.5707 66.4736C91.7634 66.3558 91.9828 66.2971 92.2292 66.2971C92.5861 66.2971 92.8663 66.4144 93.0698 66.6495C93.2733 66.8811 93.3745 67.2014 93.3745 67.611V67.691ZM92.2343 66.6337C92.0099 66.6337 91.8258 66.7011 91.6832 66.8362C91.5441 66.9719 91.4546 67.1621 91.4157 67.408H92.9839C92.9624 67.155 92.8878 66.9627 92.7589 66.8311C92.6342 66.6995 92.4593 66.6337 92.2343 66.6337Z" fill="#979797"/>
<path d="M93.9579 66.42H94.5091V66.9755H93.9579V66.42ZM93.9579 68.4969H94.5091V69.0472H93.9579V68.4969Z" fill="#979797"/>
<path d="M99.392 66.8898H98.8838V67.3916H99.392V67.7068H98.8838V69.0472H98.5141L97.219 66.1905V69.0472H96.8283V67.7068H96.3247V67.3916H96.8283V66.8898H96.3247V66.5746H96.8283V65.2454H97.1975L98.4931 68.1393V65.2454H98.8838V66.5746H99.392V66.8898Z" fill="#979797"/>
<path d="M102.355 68.6784V69.0472H99.9038V68.7162L101.237 67.2422C101.415 67.0428 101.546 66.8632 101.627 66.7031C101.71 66.5429 101.751 66.3828 101.751 66.2221C101.751 66.0125 101.69 65.8523 101.569 65.7417C101.447 65.6279 101.274 65.5708 101.05 65.5708C100.686 65.5708 100.325 65.7167 99.9682 66.0089L99.8021 65.6723C99.9524 65.53 100.141 65.4163 100.37 65.3306C100.598 65.2454 100.828 65.2026 101.06 65.2026C101.41 65.2026 101.687 65.2934 101.89 65.4749C102.093 65.6529 102.195 65.8947 102.195 66.2012C102.195 66.418 102.145 66.6281 102.045 66.8311C101.949 67.0305 101.786 67.2549 101.558 67.5038L100.471 68.6784H102.355Z" fill="#979797"/>
<path d="M104.275 69.09C103.84 69.09 103.508 68.9258 103.279 68.5983C103.055 68.2673 102.943 67.7833 102.943 67.1463C102.943 66.5088 103.055 66.0268 103.279 65.6988C103.508 65.3678 103.84 65.2026 104.275 65.2026C104.711 65.2026 105.041 65.3678 105.266 65.6988C105.494 66.0268 105.608 66.5072 105.608 67.1407C105.608 67.7782 105.494 68.2622 105.266 68.5932C105.041 68.9243 104.711 69.09 104.275 69.09ZM104.275 68.7213C104.579 68.7213 104.802 68.5932 104.944 68.3367C105.091 68.0807 105.164 67.6818 105.164 67.1407C105.164 66.6031 105.093 66.2084 104.95 65.9554C104.807 65.7024 104.582 65.5764 104.275 65.5764C103.972 65.5764 103.747 65.7024 103.601 65.9554C103.458 66.2084 103.387 66.6031 103.387 67.1407C103.387 67.6783 103.458 68.0771 103.601 68.3367C103.747 68.5932 103.972 68.7213 104.275 68.7213Z" fill="#979797"/>
<path d="M107.485 69.09C107.05 69.09 106.718 68.9258 106.489 68.5983C106.264 68.2673 106.152 67.7833 106.152 67.1463C106.152 66.5088 106.264 66.0268 106.489 65.6988C106.718 65.3678 107.05 65.2026 107.485 65.2026C107.92 65.2026 108.25 65.3678 108.475 65.6988C108.704 66.0268 108.818 66.5072 108.818 67.1407C108.818 67.7782 108.704 68.2622 108.475 68.5932C108.25 68.9243 107.92 69.09 107.485 69.09ZM107.485 68.7213C107.788 68.7213 108.012 68.5932 108.154 68.3367C108.3 68.0807 108.374 67.6818 108.374 67.1407C108.374 66.6031 108.302 66.2084 108.159 65.9554C108.017 65.7024 107.792 65.5764 107.485 65.5764C107.182 65.5764 106.957 65.7024 106.81 65.9554C106.668 66.2084 106.596 66.6031 106.596 67.1407C106.596 67.6783 106.668 68.0771 106.81 68.3367C106.957 68.5932 107.182 68.7213 107.485 68.7213Z" fill="#979797"/>
<path d="M109.983 68.4968V68.887C109.983 69.0364 109.958 69.1736 109.908 69.2981C109.858 69.4225 109.774 69.5434 109.656 69.6612L109.453 69.5062C109.592 69.346 109.671 69.193 109.688 69.0471H109.431V68.4968H109.983Z" fill="#979797"/>
<path d="M111.934 69.09C111.498 69.09 111.166 68.9258 110.938 68.5983C110.713 68.2673 110.601 67.7833 110.601 67.1463C110.601 66.5088 110.713 66.0268 110.938 65.6988C111.166 65.3678 111.498 65.2026 111.934 65.2026C112.369 65.2026 112.699 65.3678 112.924 65.6988C113.152 66.0268 113.267 66.5072 113.267 67.1407C113.267 67.7782 113.152 68.2622 112.924 68.5932C112.699 68.9243 112.369 69.09 111.934 69.09ZM111.934 68.7213C112.237 68.7213 112.46 68.5932 112.602 68.3367C112.749 68.0807 112.822 67.6818 112.822 67.1407C112.822 66.6031 112.751 66.2084 112.608 65.9554C112.465 65.7024 112.24 65.5764 111.934 65.5764C111.63 65.5764 111.405 65.7024 111.259 65.9554C111.116 66.2084 111.045 66.6031 111.045 67.1407C111.045 67.6783 111.116 68.0771 111.259 68.3367C111.405 68.5932 111.63 68.7213 111.934 68.7213Z" fill="#979797"/>
<path d="M115.143 69.09C114.708 69.09 114.376 68.9258 114.148 68.5983C113.923 68.2673 113.81 67.7833 113.81 67.1463C113.81 66.5088 113.923 66.0268 114.148 65.6988C114.376 65.3678 114.708 65.2026 115.143 65.2026C115.579 65.2026 115.908 65.3678 116.133 65.6988C116.362 66.0268 116.476 66.5072 116.476 67.1407C116.476 67.7782 116.362 68.2622 116.133 68.5932C115.908 68.9243 115.579 69.09 115.143 69.09ZM115.143 68.7213C115.447 68.7213 115.67 68.5932 115.812 68.3367C115.959 68.0807 116.032 67.6818 116.032 67.1407C116.032 66.6031 115.961 66.2084 115.817 65.9554C115.675 65.7024 115.45 65.5764 115.143 65.5764C114.84 65.5764 114.615 65.7024 114.469 65.9554C114.326 66.2084 114.254 66.6031 114.254 67.1407C114.254 67.6783 114.326 68.0771 114.469 68.3367C114.615 68.5932 114.84 68.7213 115.143 68.7213Z" fill="#979797"/>
<path d="M118.353 69.09C117.917 69.09 117.586 68.9258 117.358 68.5983C117.133 68.2673 117.02 67.7833 117.02 67.1463C117.02 66.5088 117.133 66.0268 117.358 65.6988C117.586 65.3678 117.917 65.2026 118.353 65.2026C118.788 65.2026 119.118 65.3678 119.343 65.6988C119.571 66.0268 119.686 66.5072 119.686 67.1407C119.686 67.7782 119.571 68.2622 119.343 68.5932C119.118 68.9243 118.788 69.09 118.353 69.09ZM118.353 68.7213C118.656 68.7213 118.879 68.5932 119.022 68.3367C119.169 68.0807 119.242 67.6818 119.242 67.1407C119.242 66.6031 119.17 66.2084 119.027 65.9554C118.885 65.7024 118.66 65.5764 118.353 65.5764C118.05 65.5764 117.825 65.7024 117.679 65.9554C117.535 66.2084 117.464 66.6031 117.464 67.1407C117.464 67.6783 117.535 68.0771 117.679 68.3367C117.825 68.5932 118.05 68.7213 118.353 68.7213Z" fill="#979797"/>
<path d="M120.3 68.4968H120.851V69.0471H120.3V68.4968Z" fill="#979797"/>
<path d="M124.231 67.8563V68.2194H123.653V69.0472H123.214V68.2194H121.458V67.8884L123.294 65.2454H123.653V67.8563H124.231ZM121.913 67.8563H123.214V65.9875L121.913 67.8563Z" fill="#979797"/>
<path d="M126.172 66.6602C126.411 66.6602 126.62 66.7118 126.798 66.8153C126.98 66.9147 127.119 67.0555 127.216 67.2371C127.312 67.4187 127.36 67.6283 127.36 67.867C127.36 68.1057 127.306 68.3173 127.2 68.5025C127.096 68.6876 126.946 68.8319 126.75 68.935C126.557 69.0344 126.331 69.0844 126.07 69.0844C125.838 69.0844 125.61 69.0436 125.385 68.9615C125.16 68.8763 124.971 68.7605 124.817 68.6147L124.984 68.2781C125.337 68.5703 125.699 68.7162 126.07 68.7162C126.338 68.7162 126.547 68.6412 126.696 68.4917C126.85 68.3387 126.926 68.1322 126.926 67.8726C126.926 67.6196 126.852 67.4166 126.702 67.2636C126.552 67.107 126.352 67.0285 126.102 67.0285C125.738 67.0285 125.447 67.1764 125.229 67.4717H124.925V65.2454H127.21V65.6086H125.363V66.9647C125.574 66.7617 125.844 66.6602 126.172 66.6602Z" fill="#979797"/>
<path d="M158.339 73.8455H23.6909C22.7812 73.8455 22.0438 74.5811 22.0438 75.4885V92.7397C22.0438 93.6471 22.7812 94.3827 23.6909 94.3827H158.339C159.248 94.3827 159.986 93.6471 159.986 92.7397V75.4885C159.986 74.5811 159.248 73.8455 158.339 73.8455Z" fill="#F9F9F9"/>
<path opacity="0.3" fill-rule="evenodd" clip-rule="evenodd" d="M36.8673 90.6862C40.5059 90.6862 43.4555 87.7438 43.4555 84.114C43.4555 80.4846 40.5059 77.5422 36.8673 77.5422C33.2287 77.5422 30.279 80.4846 30.279 84.114C30.279 87.7438 33.2287 90.6862 36.8673 90.6862Z" fill="#1B5ECE"/>
<mask id="mask0_1_1231" style="mask-type:alpha" maskUnits="userSpaceOnUse" x="32" y="79" width="10" height="10">
<path d="M36.867 88.3267C39.1995 88.3267 41.0903 86.4406 41.0903 84.1139C41.0903 81.7873 39.1995 79.9012 36.867 79.9012C34.5346 79.9012 32.6438 81.7873 32.6438 84.1139C32.6438 86.4406 34.5346 88.3267 36.867 88.3267Z" fill="#D42E12"/>
</mask>
<g mask="url(#mask0_1_1231)">
<path d="M36.867 88.3267C39.1995 88.3267 41.0903 86.4406 41.0903 84.1139C41.0903 81.7873 39.1995 79.9012 36.867 79.9012C34.5346 79.9012 32.6438 81.7873 32.6438 84.1139C32.6438 86.4406 34.5346 88.3267 36.867 88.3267Z" fill="#1B5ECE"/>
<mask id="mask1_1_1231" style="mask-type:alpha" maskUnits="userSpaceOnUse" x="32" y="79" width="9" height="9">
<path d="M35.7481 79.8674H37.9867C39.0073 79.8674 39.3773 79.9735 39.7504 80.1724C40.1235 80.3719 40.4163 80.6636 40.6159 81.0359C40.8154 81.4082 40.9217 81.7775 40.9217 82.7955V85.0284C40.9217 86.0464 40.8154 86.4157 40.6159 86.7875C40.4163 87.1598 40.1235 87.4521 39.7504 87.651C39.3773 87.8499 39.0071 87.956 37.9867 87.956H35.7481C34.7275 87.956 34.3574 87.8499 33.9843 87.651C33.6112 87.4521 33.3184 87.1598 33.1189 86.7875C32.9193 86.4157 32.813 86.0464 32.813 85.0284V82.7955C32.813 81.777 32.9193 81.4082 33.1189 81.0359C33.3184 80.6636 33.6112 80.3719 33.9843 80.1724C34.3574 79.9735 34.7276 79.8674 35.7481 79.8674Z" fill="white"/>
</mask>
<g mask="url(#mask1_1_1231)">
<g filter="url(#filter3_d_1_1231)">
<path d="M35.7481 79.8674H37.9867C39.0073 79.8674 39.3773 79.9735 39.7504 80.1724C40.1235 80.3719 40.4163 80.6636 40.6159 81.0359C40.8154 81.4082 40.9217 81.7775 40.9217 82.7955V85.0284C40.9217 86.0464 40.8154 86.4157 40.6159 86.7875C40.4163 87.1598 40.1235 87.4521 39.7504 87.651C39.3773 87.8499 39.0071 87.956 37.9867 87.956H35.7481C34.7275 87.956 34.3574 87.8499 33.9843 87.651C33.6112 87.4521 33.3184 87.1598 33.1189 86.7875C32.9193 86.4157 32.813 86.0464 32.813 85.0284V82.7955C32.813 81.777 32.9193 81.4082 33.1189 81.0359C33.3184 80.6636 33.6112 80.3719 33.9843 80.1724C34.3574 79.9735 34.7276 79.8674 35.7481 79.8674Z" fill="black"/>
</g>
<path d="M35.7481 79.8674H37.9867C39.0073 79.8674 39.3773 79.9735 39.7504 80.1724C40.1235 80.3719 40.4163 80.6636 40.6159 81.0359C40.8154 81.4082 40.9217 81.7775 40.9217 82.7955V85.0284C40.9217 86.0464 40.8154 86.4157 40.6159 86.7875C40.4163 87.1598 40.1235 87.4521 39.7504 87.651C39.3773 87.8499 39.0071 87.956 37.9867 87.956H35.7481C34.7275 87.956 34.3574 87.8499 33.9843 87.651C33.6112 87.4521 33.3184 87.1598 33.1189 86.7875C32.9193 86.4157 32.813 86.0464 32.813 85.0284V82.7955C32.813 81.777 32.9193 81.4082 33.1189 81.0359C33.3184 80.6636 33.6112 80.3719 33.9843 80.1724C34.3574 79.9735 34.7276 79.8674 35.7481 79.8674Z" fill="#1B5ECE"/>
<mask id="mask2_1_1231" style="mask-type:alpha" maskUnits="userSpaceOnUse" x="33" y="79" width="9" height="8">
<path d="M41.6774 85.0942V80.8299C41.6774 80.2097 41.6126 79.9843 41.491 79.7578C41.3693 79.5308 41.1909 79.3528 40.9637 79.2315C40.7361 79.1101 40.5105 79.0453 39.8886 79.0453H35.6134C34.9915 79.0453 34.7658 79.1101 34.5385 79.2315C34.3111 79.3528 34.1326 79.5308 34.011 79.7573C33.8894 79.9843 33.8246 80.2097 33.8246 80.8299V85.0947C33.8246 85.7149 33.8894 85.9399 34.011 86.1668C34.1326 86.3938 34.3111 86.5718 34.5384 86.6927C34.7659 86.814 34.9916 86.8788 35.6135 86.8788H39.8887C40.5106 86.8788 40.7363 86.814 40.9637 86.6927C41.191 86.5713 41.3695 86.3933 41.4911 86.1668C41.6126 85.9399 41.6774 85.7144 41.6774 85.0942Z" fill="white"/>
</mask>
<g mask="url(#mask2_1_1231)">
<path fill-rule="evenodd" clip-rule="evenodd" d="M34.7945 85.7359C34.9636 85.6971 37.3213 86.6187 38.4622 86.1658C39.1072 85.9118 38.8166 82.8241 39.0224 82.7828C39.3483 82.717 39.4384 83.554 39.4541 84.3675C39.466 84.98 39.4579 85.5941 39.3534 85.7155C39.3589 85.7869 40.6334 85.3549 40.6907 85.1912C40.7373 85.058 40.6936 84.4399 40.5869 83.7973C40.4537 82.9955 40.1881 82.2259 40.2954 82.1647C40.47 82.0642 40.7911 82.9302 40.8521 83.0108C40.9132 83.0914 41.2023 83.454 41.2748 83.706C41.3473 83.9584 41.5782 84.7122 41.6527 84.7898C41.6527 84.7898 41.707 84.6255 41.73 84.573C41.8437 84.3144 42.2571 83.5759 42.2571 83.5759C42.2571 83.5759 42.0313 82.9736 41.7098 82.412C41.3882 81.8495 41.0881 81.3297 41.1692 81.2889C41.3278 81.2089 41.9244 82.1259 41.9941 82.4375C42.0641 82.7512 42.0621 83.047 42.0621 83.0541C42.0724 83.0424 42.7272 82.2809 42.5532 81.5276C42.3777 80.7682 42.0749 80.7412 42.0118 80.6147C41.9484 80.4887 41.689 80.1439 41.5369 80.1526C41.3847 80.1613 40.8214 80.3163 40.8214 80.3163L34.7945 85.7359ZM34.7934 85.7318L40.8137 80.3133C40.8137 80.3133 41.0356 79.7624 41.0628 79.6094C41.0902 79.4564 40.7886 79.1504 40.6742 79.0703C40.5599 78.9902 40.5715 78.6801 39.8567 78.4068C39.142 78.1329 38.3132 78.7112 38.3132 78.7112C38.3132 78.7112 38.6037 78.7459 38.9033 78.8581C39.197 78.9678 40.0114 79.688 39.9139 79.8384C39.864 79.9154 39.3974 79.5457 38.8923 79.1489C38.3874 78.7526 37.8317 78.4481 37.8317 78.4481C37.8317 78.4481 37.0627 78.773 36.7974 78.8556C36.7435 78.8724 36.5774 78.9066 36.5774 78.9066C36.6432 78.9918 37.3455 79.3207 37.5812 79.4263C37.8168 79.5314 38.1323 79.87 38.2027 79.942C38.2731 80.0139 39.073 80.4484 38.9539 80.6126C38.8805 80.7136 38.1671 80.3474 37.4059 80.1113C36.7957 79.9221 36.2013 79.7996 36.0661 79.8303C35.9003 79.8675 35.32 81.1038 35.3887 81.1186C35.5198 81.0278 36.1168 81.0972 36.7097 81.1864C37.4971 81.3053 38.2979 81.5016 38.1931 81.8234C38.1268 82.0269 35.1671 81.343 34.8394 81.9637C34.2555 83.0618 34.8524 85.5655 34.7934 85.7318Z" fill="#164DA8"/>
</g>
<path fill-rule="evenodd" clip-rule="evenodd" d="M34.8249 83.2357C34.8249 83.6493 35.0932 83.9482 35.4699 83.9482C35.5447 83.9482 35.6169 83.9354 35.6828 83.912C35.5589 83.8523 35.4724 83.7248 35.4724 83.5769C35.4724 83.3729 35.6377 83.2056 35.8414 83.2056C35.9498 83.2056 36.0478 83.2525 36.1148 83.3275C36.1188 83.2979 36.1202 83.2668 36.1202 83.2357C36.1202 82.8256 35.8414 82.5283 35.4699 82.5283C35.0932 82.5283 34.8249 82.8256 34.8249 83.2357ZM34.2676 83.2357C34.2676 82.5512 34.7784 82.0106 35.4699 82.0106C36.1665 82.0106 36.6773 82.5512 36.6773 83.2357C36.6773 83.9247 36.1665 84.4643 35.4699 84.4643C34.7681 84.4643 34.2676 83.9252 34.2676 83.2357ZM38.9875 83.2357C38.9875 82.8256 38.7088 82.5283 38.3373 82.5283C37.9606 82.5283 37.691 82.8256 37.691 83.2357C37.691 83.6493 37.9606 83.9482 38.3373 83.9482C38.4122 83.9482 38.4844 83.9354 38.5502 83.912C38.4251 83.8513 38.34 83.7248 38.34 83.5769C38.34 83.3729 38.5051 83.2056 38.7088 83.2056C38.8172 83.2056 38.9153 83.2525 38.9823 83.3275C38.9863 83.2979 38.9875 83.2668 38.9875 83.2357ZM39.5449 83.2357C39.5449 83.9247 39.034 84.4643 38.3373 84.4643C37.6357 84.4643 37.1351 83.9252 37.1351 83.2357C37.1351 82.5512 37.6447 82.0106 38.3373 82.0106C39.034 82.0106 39.5449 82.5512 39.5449 83.2357ZM36.3697 82.0034C36.4115 82.1677 36.5781 82.2666 36.7414 82.2248C36.9051 82.1825 37.0038 82.0157 36.9618 81.8514L36.3697 82.0034ZM36.1203 84.8213H36.6776C36.6776 85.5094 36.1668 86.0485 35.4701 86.0485C34.7683 86.0485 34.2666 85.5094 34.2666 84.8213H34.8239C34.8239 85.234 35.0935 85.5313 35.4701 85.5313C35.8417 85.5313 36.1203 85.234 36.1203 84.8213ZM39.5449 85.0794V85.5119C39.5449 85.6374 39.4667 85.721 39.3312 85.721C39.218 85.721 39.1571 85.6583 39.1354 85.5782L39.236 85.5573C39.245 85.6017 39.2747 85.6287 39.3312 85.6287C39.3967 85.6287 39.4372 85.5879 39.4372 85.5124V85.465L39.4362 85.4619C39.4056 85.4992 39.3688 85.5242 39.3005 85.5242C39.2028 85.5242 39.1373 85.4665 39.1373 85.3355V85.0794H39.245V85.3171C39.245 85.3982 39.2808 85.4232 39.3348 85.4232C39.393 85.4232 39.4372 85.3849 39.4372 85.3089V85.0794H39.5449ZM38.8364 85.1559C38.7637 85.1559 38.7233 85.2054 38.7135 85.2569H38.9523C38.9496 85.2166 38.9135 85.1559 38.8364 85.1559ZM38.7126 85.34C38.7171 85.3967 38.7655 85.4522 38.8364 85.4522C38.8991 85.4522 38.9351 85.4145 38.9459 85.3839L39.0365 85.412C39.0105 85.4839 38.9459 85.5415 38.8364 85.5415C38.7081 85.5415 38.6093 85.442 38.6093 85.3038C38.6093 85.1682 38.7081 85.0672 38.8355 85.0672C38.9657 85.0672 39.0473 85.1615 39.0473 85.2987V85.3395H38.7126V85.34ZM38.12 85.0794H38.2088L38.2242 85.1335C38.252 85.0968 38.2943 85.0672 38.3606 85.0672C38.462 85.0672 38.5214 85.1258 38.5214 85.2569V85.5288H38.4136V85.2712C38.4136 85.1921 38.3767 85.1671 38.3265 85.1671C38.2718 85.1671 38.2277 85.2054 38.2277 85.2824V85.5288H38.12V85.0794ZM37.9242 85.3038C37.9242 85.2243 37.8704 85.1671 37.7985 85.1671C37.7258 85.1671 37.6738 85.2243 37.6738 85.3038C37.6738 85.3839 37.7258 85.4415 37.7985 85.4415C37.8704 85.4415 37.9242 85.3839 37.9242 85.3038ZM37.5661 85.3038C37.5661 85.1717 37.6649 85.0672 37.7985 85.0672C37.9332 85.0672 38.0319 85.1717 38.0319 85.3038C38.0319 85.4369 37.9332 85.5415 37.7985 85.5415C37.6631 85.5415 37.5661 85.4369 37.5661 85.3038ZM36.8271 85.0794H36.916L36.9304 85.133C36.9573 85.0968 37.0047 85.0672 37.0686 85.0672C37.136 85.0672 37.1719 85.0993 37.1898 85.1345C37.2176 85.0983 37.2642 85.0672 37.3333 85.0672C37.4168 85.0672 37.4777 85.1166 37.4777 85.2319V85.5288H37.3701V85.2615C37.3701 85.1932 37.3406 85.1671 37.2938 85.1671C37.2444 85.1671 37.2068 85.2028 37.2068 85.2742V85.5288H37.099V85.2615C37.099 85.1932 37.0668 85.1671 37.0219 85.1671C36.9734 85.1671 36.9349 85.2018 36.9349 85.2742V85.5288H36.8271V85.0794Z" fill="white"/>
</g>
</g>
<path d="M50.4573 86.7268C49.916 86.7268 49.4633 86.6268 49.0993 86.4269C48.7353 86.2265 48.4623 85.9378 48.2803 85.5609C48.0983 85.184 48.0073 84.7321 48.0073 84.2062C48.0073 83.685 48.103 83.2356 48.2943 82.8587C48.4856 82.4813 48.761 82.1906 49.1203 81.9856C49.4797 81.781 49.9137 81.6785 50.4223 81.6785C50.7816 81.6785 51.092 81.7321 51.3534 81.8392C51.6192 81.9417 51.8575 82.0952 52.0671 82.2997L51.8504 82.7537C51.6965 82.619 51.5472 82.5119 51.4025 82.4329C51.2624 82.3533 51.1153 82.2952 50.9613 82.2579C50.8073 82.2161 50.6276 82.1952 50.4223 82.1952C49.839 82.1952 49.391 82.3722 49.0783 82.7261C48.7703 83.075 48.6163 83.5707 48.6163 84.2134C48.6163 84.8601 48.7656 85.3558 49.0643 85.7006C49.3676 86.0449 49.8367 86.2173 50.4713 86.2173C50.7046 86.2173 50.9263 86.1964 51.1361 86.1545C51.3508 86.1076 51.5584 86.0428 51.7593 85.9587L51.6336 86.2729V84.5413H50.3733V84.0874H52.1305V86.3708C51.9296 86.4779 51.6755 86.5641 51.3672 86.6294C51.064 86.6942 50.7607 86.7268 50.4573 86.7268ZM54.6886 86.7268C54.3527 86.7268 54.0587 86.6549 53.8066 86.5105C53.5591 86.3616 53.3679 86.152 53.2324 85.8822C53.0969 85.6073 53.0294 85.2839 53.0294 84.9116C53.0294 84.5347 53.0969 84.2108 53.2324 83.941C53.3679 83.6707 53.5591 83.4636 53.8066 83.3193C54.0587 83.1704 54.3527 83.0959 54.6886 83.0959C55.0291 83.0959 55.3231 83.1704 55.5706 83.3193C55.8226 83.4636 56.0159 83.6707 56.1514 83.941C56.2915 84.2108 56.3615 84.5347 56.3615 84.9116C56.3615 85.2839 56.2915 85.6073 56.1514 85.8822C56.0159 86.152 55.8226 86.3616 55.5706 86.5105C55.3231 86.6549 55.0291 86.7268 54.6886 86.7268ZM54.6886 86.2662C55.0245 86.2662 55.2904 86.152 55.4862 85.924C55.6825 85.6914 55.7807 85.3538 55.7807 84.9116C55.7807 84.4648 55.68 84.1272 55.4796 83.8992C55.2832 83.6661 55.0199 83.5498 54.6886 83.5498C54.3573 83.5498 54.0934 83.6661 53.8976 83.8992C53.7013 84.1272 53.6036 84.4648 53.6036 84.9116C53.6036 85.3538 53.7013 85.6914 53.8976 85.924C54.0934 86.152 54.3573 86.2662 54.6886 86.2662ZM57.3156 86.6641V81.7413H57.8193L59.8005 86.2035H59.5976L61.5783 81.7413H62.0825V86.6641H61.5507V82.4885H61.7604L59.8916 86.6641H59.5066L57.6306 82.4885H57.8407V86.6641H57.3156ZM64.6962 86.7268C64.3603 86.7268 64.0663 86.6549 63.8142 86.5105C63.5668 86.3616 63.3756 86.152 63.2401 85.8822C63.1051 85.6073 63.0371 85.2839 63.0371 84.9116C63.0371 84.5347 63.1051 84.2108 63.2401 83.941C63.3756 83.6707 63.5668 83.4636 63.8142 83.3193C64.0663 83.1704 64.3603 83.0959 64.6962 83.0959C65.0368 83.0959 65.3308 83.1704 65.5782 83.3193C65.8303 83.4636 66.0241 83.6707 66.1591 83.941C66.2992 84.2108 66.3692 84.5347 66.3692 84.9116C66.3692 85.2839 66.2992 85.6073 66.1591 85.8822C66.0241 86.152 65.8303 86.3616 65.5782 86.5105C65.3308 86.6549 65.0368 86.7268 64.6962 86.7268ZM64.6962 86.2662C65.0322 86.2662 65.2985 86.152 65.4944 85.924C65.6902 85.6914 65.7884 85.3538 65.7884 84.9116C65.7884 84.4648 65.6882 84.1272 65.4872 83.8992C65.2914 83.6661 65.0276 83.5498 64.6962 83.5498C64.3649 83.5498 64.1011 83.6661 63.9053 83.8992C63.7094 84.1272 63.6113 84.4648 63.6113 84.9116C63.6113 85.3538 63.7094 85.6914 63.9053 85.924C64.1011 86.152 64.3649 86.2662 64.6962 86.2662ZM67.2532 86.6641V83.9691C67.2532 83.8385 67.2461 83.7059 67.2323 83.5707C67.2231 83.431 67.2113 83.2938 67.1975 83.1586H67.7436L67.8131 83.9267H67.7293C67.832 83.6569 67.9951 83.4519 68.2196 83.3127C68.4482 83.1683 68.7115 83.0959 69.0106 83.0959C69.4258 83.0959 69.7382 83.2076 69.9483 83.431C70.1631 83.6498 70.2704 83.9966 70.2704 84.4714V86.6641H69.7034V84.5066C69.7034 84.1761 69.6359 83.9364 69.5004 83.7875C69.3695 83.6335 69.1645 83.557 68.8843 83.557C68.5576 83.557 68.2989 83.6569 68.1071 83.8574C67.9159 84.0573 67.8203 84.3251 67.8203 84.6602V86.6641H67.2532ZM72.9159 86.7268C72.3652 86.7268 71.9311 86.5687 71.6141 86.252C71.2966 85.9311 71.1381 85.4864 71.1381 84.9182C71.1381 84.5505 71.2082 84.2317 71.3477 83.9619C71.4878 83.687 71.6842 83.4754 71.9357 83.3264C72.1878 83.1729 72.4772 83.0959 72.8039 83.0959C73.126 83.0959 73.3965 83.1637 73.6159 83.2984C73.8352 83.4335 74.0034 83.6268 74.12 83.8783C74.2366 84.1246 74.2949 84.4179 74.2949 84.7581V84.9672H71.5717V84.6112H73.9242L73.805 84.702C73.805 84.3297 73.7212 84.0384 73.553 83.8293C73.3847 83.6197 73.1352 83.5151 72.8039 83.5151C72.4537 83.5151 72.1811 83.6386 71.9848 83.8849C71.789 84.1272 71.6908 84.4551 71.6908 84.8698V84.9325C71.6908 85.3701 71.7982 85.7027 72.0129 85.9311C72.2323 86.1545 72.538 86.2662 72.9297 86.2662C73.1398 86.2662 73.3362 86.2356 73.5177 86.1755C73.7048 86.1102 73.8817 86.0056 74.0499 85.8613L74.2458 86.2591C74.0919 86.408 73.896 86.5243 73.6578 86.6085C73.4246 86.6875 73.1772 86.7268 72.9159 86.7268ZM74.9815 88.2492L74.8486 87.7815C75.068 87.73 75.25 87.6698 75.3947 87.6C75.544 87.5347 75.6677 87.4464 75.7654 87.3342C75.8635 87.2225 75.9474 87.0833 76.0174 86.9155L76.1995 86.5034L76.1856 86.7411L74.6528 83.1586H75.2684L76.5354 86.2382H76.3534L77.6066 83.1586H78.2017L76.5773 86.9573C76.4843 87.1807 76.3815 87.3669 76.2695 87.5158C76.1575 87.6698 76.0363 87.7927 75.9055 87.8861C75.7797 87.984 75.6396 88.0605 75.4857 88.1166C75.3318 88.1722 75.1636 88.2166 74.9815 88.2492Z" fill="black"/>
<path d="M149.89 82.033L150.487 82.6553L147.539 85.7297L144.589 82.6553L145.187 82.033L147.539 84.4842L149.89 82.033Z" fill="#979797"/>
<path d="M158.339 100.03H23.6909C22.7812 100.03 22.0438 100.766 22.0438 101.673V119.069C22.0438 119.976 22.7812 120.712 23.6909 120.712H158.339C159.248 120.712 159.986 119.976 159.986 119.069V101.673C159.986 100.766 159.248 100.03 158.339 100.03Z" fill="#F9F9F9"/>
<path d="M32.379 112.984C31.819 112.984 31.3897 112.767 31.091 112.334C30.7924 111.902 30.643 111.275 30.643 110.456C30.643 109.632 30.7924 109.006 31.091 108.578C31.3897 108.15 31.819 107.935 32.379 107.935C32.9437 107.935 33.373 108.15 33.667 108.578C33.9657 109.006 34.115 109.63 34.115 110.449C34.115 111.273 33.9657 111.902 33.667 112.334C33.3684 112.767 32.939 112.984 32.379 112.984ZM32.379 112.481C32.771 112.481 33.0627 112.316 33.2541 111.985C33.4454 111.655 33.5411 111.143 33.5411 110.449C33.5411 109.751 33.4454 109.241 33.2541 108.92C33.0627 108.594 32.771 108.431 32.379 108.431C31.9917 108.431 31.7 108.594 31.504 108.92C31.3127 109.246 31.217 109.756 31.217 110.449C31.217 111.143 31.3127 111.655 31.504 111.985C31.7 112.316 31.9917 112.481 32.379 112.481ZM36.5763 112.984C36.0163 112.984 35.587 112.767 35.2883 112.334C34.9897 111.902 34.8403 111.275 34.8403 110.456C34.8403 109.632 34.9897 109.006 35.2883 108.578C35.587 108.15 36.0163 107.935 36.5763 107.935C37.141 107.935 37.5703 108.15 37.8643 108.578C38.163 109.006 38.3123 109.63 38.3123 110.449C38.3123 111.273 38.163 111.902 37.8643 112.334C37.5656 112.767 37.1363 112.984 36.5763 112.984ZM36.5763 112.481C36.9683 112.481 37.26 112.316 37.4513 111.985C37.6426 111.655 37.7383 111.143 37.7383 110.449C37.7383 109.751 37.6426 109.241 37.4513 108.92C37.26 108.594 36.9683 108.431 36.5763 108.431C36.189 108.431 35.8973 108.594 35.7013 108.92C35.51 109.246 35.4143 109.756 35.4143 110.449C35.4143 111.143 35.51 111.655 35.7013 111.985C35.8973 112.316 36.189 112.481 36.5763 112.481ZM40.7736 112.984C40.2136 112.984 39.7843 112.767 39.4856 112.334C39.1869 111.902 39.0376 111.275 39.0376 110.456C39.0376 109.632 39.1869 109.006 39.4856 108.578C39.7843 108.15 40.2136 107.935 40.7736 107.935C41.3383 107.935 41.7676 108.15 42.0616 108.578C42.3603 109.006 42.5096 109.63 42.5096 110.449C42.5096 111.273 42.3603 111.902 42.0616 112.334C41.763 112.767 41.3336 112.984 40.7736 112.984ZM40.7736 112.481C41.1656 112.481 41.4573 112.316 41.6486 111.985C41.84 111.655 41.9356 111.143 41.9356 110.449C41.9356 109.751 41.84 109.241 41.6486 108.92C41.4573 108.594 41.1656 108.431 40.7736 108.431C40.3863 108.431 40.0946 108.594 39.8986 108.92C39.7073 109.246 39.6116 109.756 39.6116 110.449C39.6116 111.143 39.7073 111.655 39.8986 111.985C40.0946 112.316 40.3863 112.481 40.7736 112.481ZM43.7599 112.921V112.425H44.9219V108.494H45.2299L43.8719 109.339V108.76L45.0829 107.998H45.5029V112.425H46.5949V112.921H43.7599ZM47.9571 112.921V112.425H49.1192V108.494H49.4272L48.0692 109.339V108.76L49.2802 107.998H49.7002V112.425H50.7922V112.921H47.9571ZM52.1546 112.921V112.425H53.3163V108.494H53.6246L52.2666 109.339V108.76L53.4773 107.998H53.8976V112.425H54.9892V112.921H52.1546ZM56.3519 112.921V112.425H57.5135V108.494H57.8218L56.4638 109.339V108.76L57.6746 107.998H58.0949V112.425H59.1865V112.921H56.3519ZM60.2618 112.921V112.488L62.0119 110.665C62.2405 110.428 62.4113 110.202 62.5232 109.988C62.6398 109.769 62.6981 109.544 62.6981 109.311C62.6981 109.027 62.6091 108.813 62.4322 108.669C62.2548 108.52 61.9981 108.445 61.6622 108.445C61.4009 108.445 61.1581 108.492 60.9341 108.585C60.7148 108.673 60.5026 108.815 60.297 109.011L60.0869 108.557C60.2735 108.371 60.5118 108.222 60.8012 108.11C61.0906 107.993 61.3958 107.935 61.7179 107.935C62.2175 107.935 62.6025 108.052 62.873 108.285C63.1434 108.513 63.2789 108.839 63.2789 109.262C63.2789 109.574 63.2022 109.872 63.0478 110.156C62.8985 110.435 62.6792 110.724 62.3898 111.022L60.8431 112.586V112.425H63.4891V112.921H60.2618ZM65.9295 112.984C65.5982 112.984 65.2807 112.933 64.9775 112.83C64.6738 112.728 64.4197 112.581 64.2141 112.39L64.4314 111.944C64.66 112.13 64.8957 112.264 65.1385 112.349C65.3809 112.432 65.6422 112.474 65.9224 112.474C66.291 112.474 66.5712 112.398 66.7624 112.244C66.9537 112.085 67.0493 111.855 67.0493 111.552C67.0493 111.264 66.9511 111.045 66.7553 110.896C66.5594 110.742 66.2721 110.665 65.8942 110.665H65.1523V110.184H65.8452C66.1719 110.184 66.4311 110.1 66.6223 109.933C66.8136 109.765 66.9092 109.537 66.9092 109.248C66.9092 108.987 66.8207 108.79 66.6433 108.654C66.4705 108.515 66.221 108.445 65.8942 108.445C65.3625 108.445 64.9028 108.634 64.5153 109.011L64.2985 108.557C64.4897 108.361 64.73 108.21 65.0194 108.103C65.3088 107.991 65.612 107.935 65.9295 107.935C66.4147 107.935 66.7951 108.047 67.0702 108.27C67.3458 108.494 67.4834 108.803 67.4834 109.199C67.4834 109.502 67.397 109.763 67.2241 109.982C67.0518 110.195 66.8182 110.342 66.5242 110.421V110.345C66.8744 110.4 67.1449 110.54 67.3361 110.763C67.5278 110.982 67.6235 111.259 67.6235 111.594C67.6235 112.023 67.4716 112.362 67.1684 112.614C66.8698 112.861 66.4567 112.984 65.9295 112.984ZM70.7567 112.921V111.853H68.4047V111.434L70.8477 107.998H71.3237V111.385H72.0794V111.853H71.3237V112.921H70.7567ZM70.7567 111.385V108.682H70.9106L68.8807 111.532V111.385H70.7567Z" fill="black"/>
<g filter="url(#filter4_d_1_1231)">
<path d="M157.412 126.421H24.0247C22.8877 126.421 21.9659 127.34 21.9659 128.474V149.833C21.9659 150.967 22.8877 151.887 24.0247 151.887H157.412C158.549 151.887 159.471 150.967 159.471 149.833V128.474C159.471 127.34 158.549 126.421 157.412 126.421Z" fill="white"/>
</g>
<path d="M155.883 131.555H25.1176C24.2729 131.555 23.5882 132.238 23.5882 133.08V145.285C23.5882 146.128 24.2729 146.811 25.1176 146.811H155.883C156.727 146.811 157.412 146.128 157.412 145.285V133.08C157.412 132.238 156.727 131.555 155.883 131.555Z" fill="white"/>
<path d="M28.4211 141.779V140.158H27.8101V139.815H28.4211V139.173H27.8101V138.823H28.4211V137.208H28.8631L30.5726 141.034H30.4361V137.208H30.891V138.823H31.502V139.173H30.891V139.815H31.502V140.158H30.891V141.779H30.4556L28.746 137.954H28.8761V141.779H28.4211ZM33.6381 141.837C33.4387 141.837 33.2437 141.816 33.053 141.773C32.8624 141.729 32.6825 141.667 32.5136 141.584C32.3489 141.502 32.2037 141.403 32.078 141.286L32.2795 140.871C32.4919 141.04 32.7086 141.165 32.9295 141.247C33.1505 141.325 33.3867 141.364 33.6381 141.364C33.9674 141.364 34.2252 141.275 34.4115 141.098C34.5979 140.921 34.691 140.688 34.691 140.398C34.691 140.1 34.6022 139.855 34.4245 139.665C34.2469 139.475 33.9999 139.38 33.6836 139.38C33.4582 139.38 33.2567 139.426 33.0791 139.516C32.9014 139.603 32.7475 139.739 32.6176 139.925H32.2275V137.208H34.9445V137.662H32.7475V139.484H32.6045C32.7215 139.302 32.8819 139.164 33.0855 139.069C33.2935 138.97 33.5276 138.92 33.7876 138.92C34.0822 138.92 34.3357 138.98 34.5481 139.101C34.7647 139.223 34.9315 139.391 35.0485 139.607C35.1656 139.823 35.2241 140.076 35.2241 140.366C35.2241 140.655 35.1591 140.912 35.029 141.137C34.9034 141.358 34.7214 141.53 34.483 141.656C34.2491 141.777 33.9674 141.837 33.6381 141.837ZM37.451 141.837C36.931 141.837 36.5324 141.637 36.255 141.235C35.9777 140.833 35.839 140.251 35.839 139.49C35.839 138.725 35.9777 138.144 36.255 137.746C36.5324 137.349 36.931 137.15 37.451 137.15C37.9754 137.15 38.374 137.349 38.647 137.746C38.9243 138.144 39.063 138.723 39.063 139.484C39.063 140.249 38.9243 140.833 38.647 141.235C38.3697 141.637 37.971 141.837 37.451 141.837ZM37.451 141.371C37.815 141.371 38.0858 141.217 38.2635 140.91C38.4412 140.603 38.53 140.128 38.53 139.484C38.53 138.835 38.4412 138.362 38.2635 138.064C38.0858 137.761 37.815 137.61 37.451 137.61C37.0914 137.61 36.8205 137.761 36.6385 138.064C36.4608 138.367 36.372 138.84 36.372 139.484C36.372 140.128 36.4608 140.603 36.6385 140.91C36.8205 141.217 37.0914 141.371 37.451 141.371ZM40.081 142.518L39.834 142.33C39.951 142.209 40.0268 142.095 40.0615 141.986C40.1005 141.883 40.12 141.777 40.12 141.669L40.237 141.779H39.808V141.118H40.471V141.584C40.471 141.757 40.4428 141.92 40.3865 142.071C40.3301 142.227 40.2283 142.376 40.081 142.518ZM42.8275 141.837C42.3075 141.837 41.9088 141.637 41.6315 141.235C41.3542 140.833 41.2155 140.251 41.2155 139.49C41.2155 138.725 41.3542 138.144 41.6315 137.746C41.9088 137.349 42.3075 137.15 42.8275 137.15C43.3518 137.15 43.7505 137.349 44.0235 137.746C44.3008 138.144 44.4395 138.723 44.4395 139.484C44.4395 140.249 44.3008 140.833 44.0235 141.235C43.7462 141.637 43.3475 141.837 42.8275 141.837ZM42.8275 141.371C43.1915 141.371 43.4623 141.217 43.64 140.91C43.8177 140.603 43.9065 140.128 43.9065 139.484C43.9065 138.835 43.8177 138.362 43.64 138.064C43.4623 137.761 43.1915 137.61 42.8275 137.61C42.4678 137.61 42.197 137.761 42.015 138.064C41.8373 138.367 41.7485 138.84 41.7485 139.484C41.7485 140.128 41.8373 140.603 42.015 140.91C42.197 141.217 42.4678 141.371 42.8275 141.371ZM46.725 141.837C46.205 141.837 45.8063 141.637 45.529 141.235C45.2517 140.833 45.1129 140.251 45.1129 139.49C45.1129 138.725 45.2517 138.144 45.529 137.746C45.8063 137.349 46.205 137.15 46.725 137.15C47.2493 137.15 47.648 137.349 47.921 137.746C48.1983 138.144 48.337 138.723 48.337 139.484C48.337 140.249 48.1983 140.833 47.921 141.235C47.6436 141.637 47.245 141.837 46.725 141.837ZM46.725 141.371C47.089 141.371 47.3598 141.217 47.5375 140.91C47.7152 140.603 47.804 140.128 47.804 139.484C47.804 138.835 47.7152 138.362 47.5375 138.064C47.3598 137.761 47.089 137.61 46.725 137.61C46.3653 137.61 46.0945 137.761 45.9125 138.064C45.7348 138.367 45.646 138.84 45.646 139.484C45.646 140.128 45.7348 140.603 45.9125 140.91C46.0945 141.217 46.3653 141.371 46.725 141.371ZM50.6225 141.837C50.1025 141.837 49.7038 141.637 49.4264 141.235C49.1491 140.833 49.0104 140.251 49.0104 139.49C49.0104 138.725 49.1491 138.144 49.4264 137.746C49.7038 137.349 50.1025 137.15 50.6225 137.15C51.1468 137.15 51.5457 137.349 51.8187 137.746C52.0958 138.144 52.2344 138.723 52.2344 139.484C52.2344 140.249 52.0958 140.833 51.8187 141.235C51.5411 141.637 51.1422 141.837 50.6225 141.837ZM50.6225 141.371C50.9864 141.371 51.2573 141.217 51.4347 140.91C51.6126 140.603 51.7016 140.128 51.7016 139.484C51.7016 138.835 51.6126 138.362 51.4347 138.064C51.2573 137.761 50.9864 137.61 50.6225 137.61C50.2628 137.61 49.992 137.761 49.8099 138.064C49.6323 138.367 49.5435 138.84 49.5435 139.484C49.5435 140.128 49.6323 140.603 49.8099 140.91C49.992 141.217 50.2628 141.371 50.6225 141.371ZM52.9793 141.779V141.118H53.6425V141.779H52.9793ZM55.9991 141.837C55.4791 141.837 55.0803 141.637 54.8031 141.235C54.5255 140.833 54.3869 140.251 54.3869 139.49C54.3869 138.725 54.5255 138.144 54.8031 137.746C55.0803 137.349 55.4791 137.15 55.9991 137.15C56.5232 137.15 56.922 137.349 57.195 137.746C57.4721 138.144 57.6107 138.723 57.6107 139.484C57.6107 140.249 57.4721 140.833 57.195 141.235C56.9174 141.637 56.5191 141.837 55.9991 141.837ZM55.9991 141.371C56.3631 141.371 56.6336 141.217 56.8115 140.91C56.9889 140.603 57.0779 140.128 57.0779 139.484C57.0779 138.835 56.9889 138.362 56.8115 138.064C56.6336 137.761 56.3631 137.61 55.9991 137.61C55.6391 137.61 55.3686 137.761 55.1866 138.064C55.0087 138.367 54.9197 138.84 54.9197 139.484C54.9197 140.128 55.0087 140.603 55.1866 140.91C55.3686 141.217 55.6391 141.371 55.9991 141.371ZM59.8962 141.837C59.3762 141.837 58.9779 141.637 58.7003 141.235C58.4231 140.833 58.2846 140.251 58.2846 139.49C58.2846 138.725 58.4231 138.144 58.7003 137.746C58.9779 137.349 59.3762 137.15 59.8962 137.15C60.4208 137.15 60.8196 137.349 61.0926 137.746C61.3698 138.144 61.5083 138.723 61.5083 139.484C61.5083 140.249 61.3698 140.833 61.0926 141.235C60.815 141.637 60.4162 141.837 59.8962 141.837ZM59.8962 141.371C60.2602 141.371 60.5312 141.217 60.7086 140.91C60.8866 140.603 60.9755 140.128 60.9755 139.484C60.9755 138.835 60.8866 138.362 60.7086 138.064C60.5312 137.761 60.2602 137.61 59.8962 137.61C59.5367 137.61 59.2658 137.761 59.0837 138.064C58.9063 138.367 58.8174 138.84 58.8174 139.484C58.8174 140.128 58.9063 140.603 59.0837 140.91C59.2658 141.217 59.5367 141.371 59.8962 141.371Z" fill="black"/>
<path d="M137.213 141.259V137.226H137.993L140.04 139.76H139.874V137.226H140.855V141.259H140.075L138.039 138.724H138.205V141.259H137.213ZM143.663 141.322C143.193 141.322 142.795 141.236 142.47 141.064C142.149 140.893 141.905 140.653 141.736 140.344C141.572 140.035 141.489 139.674 141.489 139.262C141.489 138.835 141.579 138.465 141.759 138.153C141.942 137.836 142.205 137.591 142.545 137.42C142.885 137.248 143.294 137.163 143.772 137.163C144.066 137.163 144.327 137.197 144.552 137.266C144.782 137.334 144.978 137.433 145.143 137.563L144.816 138.37C144.697 138.29 144.585 138.228 144.477 138.187C144.374 138.141 144.267 138.109 144.156 138.089C144.049 138.07 143.925 138.061 143.784 138.061C143.386 138.061 143.088 138.164 142.889 138.37C142.694 138.572 142.596 138.87 142.596 139.262C142.596 139.651 142.686 139.945 142.866 140.143C143.046 140.342 143.331 140.441 143.721 140.441C143.839 140.441 143.967 140.429 144.105 140.406C144.246 140.383 144.389 140.349 144.535 140.303L144.345 140.681V139.72H143.508V138.987H145.212V141.007C144.994 141.11 144.749 141.188 144.477 141.242C144.21 141.295 143.938 141.322 143.663 141.322ZM145.9 141.259V137.226H146.68L148.727 139.76H148.561V137.226H149.542V141.259H148.762L146.726 138.724H146.892V141.259H145.9Z" fill="black"/>
</g>
<defs>
<filter id="filter0_d_1_1231" x="-11.8728" y="-11.9059" width="204.746" height="201.795" filterUnits="userSpaceOnUse" color-interpolation-filters="sRGB">
<feFlood flood-opacity="0" result="BackgroundImageFix"/>
<feColorMatrix in="SourceAlpha" type="matrix" values="0 0 0 0 0 0 0 0 0 0 0 0 0 0 0 0 0 0 127 0" result="hardAlpha"/>
<feOffset/>
<feGaussianBlur stdDeviation="12.5833"/>
<feColorMatrix type="matrix" values="0 0 0 0 0 0 0 0 0 0 0 0 0 0 0 0 0 0 0.06 0"/>
<feBlend mode="normal" in2="BackgroundImageFix" result="effect1_dropShadow_1_1231"/>
<feBlend mode="normal" in="SourceGraphic" in2="effect1_dropShadow_1_1231" result="shape"/>
</filter>
<filter id="filter1_d_1_1231" x="27.2467" y="19.1045" width="126.51" height="61.9107" filterUnits="userSpaceOnUse" color-interpolation-filters="sRGB">
<feFlood flood-opacity="0" result="BackgroundImageFix"/>
<feColorMatrix in="SourceAlpha" type="matrix" values="0 0 0 0 0 0 0 0 0 0 0 0 0 0 0 0 0 0 127 0" result="hardAlpha"/>
<feOffset/>
<feGaussianBlur stdDeviation="12.5833"/>
<feColorMatrix type="matrix" values="0 0 0 0 0 0 0 0 0 0 0 0 0 0 0 0 0 0 0.06 0"/>
<feBlend mode="normal" in2="BackgroundImageFix" result="effect1_dropShadow_1_1231"/>
<feBlend mode="normal" in="SourceGraphic" in2="effect1_dropShadow_1_1231" result="shape"/>
</filter>
<filter id="filter2_d_1_1231" x="27.0407" y="18.8979" width="126.922" height="62.324" filterUnits="userSpaceOnUse" color-interpolation-filters="sRGB">
<feFlood flood-opacity="0" result="BackgroundImageFix"/>
<feColorMatrix in="SourceAlpha" type="matrix" values="0 0 0 0 0 0 0 0 0 0 0 0 0 0 0 0 0 0 127 0" result="hardAlpha"/>
<feOffset/>
<feGaussianBlur stdDeviation="12.5833"/>
<feColorMatrix type="matrix" values="0 0 0 0 0 0 0 0 0 0 0 0 0 0 0 0 0 0 0.06 0"/>
<feBlend mode="normal" in2="BackgroundImageFix" result="effect1_dropShadow_1_1231"/>
<feBlend mode="normal" in="SourceGraphic" in2="effect1_dropShadow_1_1231" result="shape"/>
</filter>
<filter id="filter3_d_1_1231" x="27.981" y="75.8408" width="17.7726" height="17.7526" filterUnits="userSpaceOnUse" color-interpolation-filters="sRGB">
<feFlood flood-opacity="0" result="BackgroundImageFix"/>
<feColorMatrix in="SourceAlpha" type="matrix" values="0 0 0 0 0 0 0 0 0 0 0 0 0 0 0 0 0 0 127 0" result="hardAlpha"/>
<feOffset dy="0.805333"/>
<feGaussianBlur stdDeviation="2.416"/>
<feColorMatrix type="matrix" values="0 0 0 0 0 0 0 0 0 0 0 0 0 0 0 0 0 0 0.100825 0"/>
<feBlend mode="normal" in2="BackgroundImageFix" result="effect1_dropShadow_1_1231"/>
<feBlend mode="normal" in="SourceGraphic" in2="effect1_dropShadow_1_1231" result="shape"/>
</filter>
<filter id="filter4_d_1_1231" x="-3.20072" y="101.254" width="187.839" height="75.7993" filterUnits="userSpaceOnUse" color-interpolation-filters="sRGB">
<feFlood flood-opacity="0" result="BackgroundImageFix"/>
<feColorMatrix in="SourceAlpha" type="matrix" values="0 0 0 0 0 0 0 0 0 0 0 0 0 0 0 0 0 0 127 0" result="hardAlpha"/>
<feOffset/>
<feGaussianBlur stdDeviation="12.5833"/>
<feColorMatrix type="matrix" values="0 0 0 0 0 0 0 0 0 0 0 0 0 0 0 0 0 0 0.06 0"/>
<feBlend mode="normal" in2="BackgroundImageFix" result="effect1_dropShadow_1_1231"/>
<feBlend mode="normal" in="SourceGraphic" in2="effect1_dropShadow_1_1231" result="shape"/>
</filter>
<clipPath id="clip0_1_1231">
<rect width="181" height="178" fill="white"/>
</clipPath>
</defs>
</svg>
