<svg width="30" height="30" viewBox="0 0 30 30" fill="none" xmlns="http://www.w3.org/2000/svg">
<g clip-path="url(#clip0_4_1855)">
<path opacity="0.3" d="M15 30C23.2843 30 30 23.2843 30 15C30 6.71573 23.2843 0 15 0C6.71573 0 0 6.71573 0 15C0 23.2843 6.71573 30 15 30Z" fill="#FF4B55"/>
<mask id="mask0_4_1855" style="mask-type:alpha" maskUnits="userSpaceOnUse" x="6" y="7" width="18" height="16">
<path d="M20.0865 7.29736H9.91406C8.25721 7.29736 6.91406 8.64051 6.91406 10.2974V19.6997C6.91406 21.3565 8.25721 22.6997 9.91406 22.6997H20.0865C21.7433 22.6997 23.0865 21.3565 23.0865 19.6997V10.2974C23.0865 8.64051 21.7433 7.29736 20.0865 7.29736Z" fill="#E94D1E"/>
</mask>
<g mask="url(#mask0_4_1855)">
<path d="M-0.792969 7.26952V23.1048H30.8776V7.26952H-0.792969Z" fill="#012169"/>
<path fill-rule="evenodd" clip-rule="evenodd" d="M11.5026 15.187L-1.5 8.68573L-0.0836506 5.85303L15.0434 13.4166L30.1705 5.85303L31.5869 8.68573L18.5843 15.187L31.5869 21.6883L30.1705 24.521L15.0434 16.9574L-0.0836506 24.521L-1.5 21.6883L11.5026 15.187Z" fill="white"/>
<path fill-rule="evenodd" clip-rule="evenodd" d="M12.6812 15.1871L-1.26562 8.21366L-0.321397 6.3252L15.0418 14.0068L30.4049 6.3252L31.3491 8.21366L17.4023 15.1871L31.3491 22.1605L30.4049 24.0489L15.0418 16.3674L-0.321397 24.0489L-1.26562 22.1605L12.6812 15.1871Z" fill="#C8102E"/>
<path fill-rule="evenodd" clip-rule="evenodd" d="M17.6815 17.8264V23.1048H12.4031V17.8264H-0.792969V12.548H12.4031V7.26952H17.6815V12.548H30.8776V17.8264H17.6815Z" fill="white"/>
<path fill-rule="evenodd" clip-rule="evenodd" d="M16.6258 16.7707V23.1048H13.4588V16.7707H-0.792969V13.6036H13.4588V7.26952H16.6258V13.6036H30.8776V16.7707H16.6258Z" fill="#C8102E"/>
</g>
</g>
<defs>
<clipPath id="clip0_4_1855">
<rect width="30" height="30" fill="white"/>
</clipPath>
</defs>
</svg>
