<svg width="30" height="30" viewBox="0 0 30 30" fill="none" xmlns="http://www.w3.org/2000/svg">
<g clip-path="url(#clip0_4_1870)">
<path opacity="0.3" d="M15 30C23.2843 30 30 23.2843 30 15C30 6.71573 23.2843 0 15 0C6.71573 0 0 6.71573 0 15C0 23.2843 6.71573 30 15 30Z" fill="#FCD116"/>
<mask id="mask0_4_1870" style="mask-type:alpha" maskUnits="userSpaceOnUse" x="6" y="7" width="18" height="16">
<path d="M20.0865 7.29736H9.91406C8.25721 7.29736 6.91406 8.64051 6.91406 10.2974V19.6997C6.91406 21.3565 8.25721 22.6997 9.91406 22.6997H20.0865C21.7433 22.6997 23.0865 21.3565 23.0865 19.6997V10.2974C23.0865 8.64051 21.7433 7.29736 20.0865 7.29736Z" fill="#E94D1E"/>
</mask>
<g mask="url(#mask0_4_1870)">
<mask id="mask1_4_1870" style="mask-type:luminance" maskUnits="userSpaceOnUse" x="2" y="5" width="27" height="19">
<path d="M28.0312 5.89795H2.03125V23.2312H28.0312V5.89795Z" fill="white"/>
</mask>
<g mask="url(#mask1_4_1870)">
<path d="M2.03125 5.89795H28.0312V23.2313H2.03125V5.89795Z" fill="#006B3F"/>
<path d="M2.03125 5.89795H28.0312V17.4535H2.03125V5.89795Z" fill="#FCD116"/>
<path d="M2.03125 5.89795H28.0312V11.6757H2.03125V5.89795Z" fill="#CE1126"/>
<path d="M15.0299 11.6758L16.9071 17.4536L11.9922 13.8826H18.0675L13.1527 17.4536L15.0299 11.6758Z" fill="black"/>
</g>
</g>
</g>
<defs>
<clipPath id="clip0_4_1870">
<rect width="30" height="30" fill="white"/>
</clipPath>
</defs>
</svg>
