<svg width="170" height="174" viewBox="0 0 170 174" fill="none" xmlns="http://www.w3.org/2000/svg">
<g clip-path="url(#clip0_1_1335)">
<g filter="url(#filter0_d_1_1335)">
<path d="M105.124 134.069L51.9053 148.995C50.4789 149.394 49.0004 148.565 48.5998 147.14L24.231 60.4393C23.8306 59.0146 24.6609 57.5376 26.0871 57.1379L79.3065 42.2127C80.7325 41.8125 82.211 42.6422 82.6116 44.0665L106.978 130.76C107.389 132.19 106.551 133.669 105.124 134.069Z" fill="#F4E6FF"/>
<path d="M105.124 134.069L51.9053 148.995C50.4789 149.394 49.0004 148.565 48.5998 147.14L24.231 60.4393C23.8306 59.0146 24.6609 57.5376 26.0871 57.1379L79.3065 42.2127C80.7325 41.8125 82.211 42.6422 82.6116 44.0665L106.978 130.76C107.389 132.19 106.551 133.669 105.124 134.069Z" stroke="#DBDCE0" stroke-opacity="0.5" stroke-width="0.998344"/>
</g>
<g opacity="0.4">
<mask id="mask0_1_1335" style="mask-type:alpha" maskUnits="userSpaceOnUse" x="29" y="65" width="64" height="32">
<path d="M47.3442 93.3219L43.1701 94.4927L36.3467 89.6553L38.1055 95.9128L34.5158 96.9195L29.0922 77.623L32.6819 76.6164L35.9361 88.1944L39.0177 80.7874L43.3031 79.5854L39.6237 87.9629L47.3442 93.3219Z" fill="white"/>
<path d="M52.788 76.9255L56.3779 75.9188L60.252 89.7018L56.6622 90.7088L56.2285 89.1649C55.7181 90.6959 54.5166 91.7266 52.6245 92.2573C51.1033 92.6841 49.6998 92.5322 48.4138 91.8027C47.1464 91.0675 46.2625 89.8087 45.7613 88.0261L43.3828 79.5633L46.9722 78.5566L49.2268 86.5781C49.4852 87.4972 49.9346 88.1346 50.575 88.4902C51.21 88.8276 51.9453 88.8794 52.78 88.6452C53.7074 88.3848 54.3695 87.8921 54.7659 87.166C55.1623 86.4403 55.2004 85.5079 54.8803 84.3683L52.788 76.9255Z" fill="white"/>
<path d="M67.5495 66.8381L71.1389 65.831L76.5625 85.1275L72.9731 86.1342L72.5157 84.508C71.8353 86.146 70.5214 87.2384 68.5733 87.7847C66.6998 88.3102 64.8988 88.0615 63.1706 87.0396C61.4558 85.9941 60.3115 84.4509 59.7382 82.4113C59.165 80.3713 59.3403 78.4683 60.265 76.702C61.203 74.9125 62.6088 73.7551 64.4826 73.2296C66.4304 72.6833 68.1216 72.9327 69.5559 73.9774L67.5495 66.8381ZM65.2034 83.9118C66.1468 84.4205 67.1752 84.5187 68.2882 84.2065C69.4012 83.8943 70.2188 83.2786 70.741 82.3587C71.2578 81.421 71.3562 80.3823 71.036 79.2427C70.7158 78.1035 70.093 77.2766 69.1683 76.7629C68.2378 76.2307 67.2163 76.1206 66.1033 76.4328C64.9903 76.7451 64.1659 77.3729 63.6307 78.316C63.1085 79.2355 63.0075 80.265 63.3277 81.4046C63.6482 82.5438 64.2733 83.3795 65.2034 83.9118Z" fill="white"/>
<path d="M85.4326 67.7705L89.0224 66.7639L92.8962 80.5468L89.3068 81.5535L88.8498 79.9273C88.1507 81.5706 86.8273 82.6652 84.8796 83.2116C83.0244 83.7317 81.2326 83.4808 79.5044 82.4589C77.7895 81.413 76.6452 79.8702 76.0719 77.8306C75.4987 75.7905 75.6744 73.8876 76.5987 72.1213C77.5368 70.3318 78.9334 69.177 80.7885 68.6565C82.7363 68.1102 84.4366 68.3569 85.89 69.3967L85.4326 67.7705ZM81.5371 79.3311C82.4622 79.8451 83.4811 79.946 84.5941 79.6338C85.7074 79.3216 86.525 78.7055 87.0469 77.786C87.5824 76.8429 87.6899 75.8016 87.3697 74.662C87.0495 73.5224 86.4176 72.6985 85.4742 72.1898C84.5441 71.6579 83.5222 71.5479 82.4092 71.8601C81.2962 72.1719 80.4813 72.7971 79.9644 73.7353C79.4422 74.6548 79.3416 75.6843 79.6618 76.8239C79.9819 77.9631 80.6071 78.7988 81.5371 79.3311Z" fill="white"/>
</mask>
<g mask="url(#mask0_1_1335)">
<path d="M86.4074 57.535L20.261 76.0856L27.3737 101.392L93.5202 82.8411L86.4074 57.535Z" fill="white"/>
</g>
</g>
<path d="M33.5153 60.8094L35.0142 60.389L33.3145 64.4466L36.9395 67.0106L35.3662 67.4518L31.6894 65.0467L33.5153 60.8094Z" fill="#8369A0"/>
<path d="M31.337 61.4205L32.3844 61.1265L31.7576 65.0276L34.1757 67.7857L33.0389 68.1044L30.7763 65.2705L31.337 61.4205Z" fill="#8369A0"/>
<path d="M29.8661 61.8328L30.4621 61.6657L30.7849 65.2683L32.3279 68.304L31.7319 68.4711L30.2039 65.4312L29.8661 61.8328Z" fill="#8369A0"/>
<path d="M29.0114 62.0727L29.3455 61.979L31.2113 68.6169L30.8772 68.7106L29.0114 62.0727Z" fill="#8369A0"/>
<path d="M37.8205 66.7959C38.2319 66.6805 38.4717 66.2539 38.3562 65.843C38.2407 65.4321 37.8136 65.1925 37.4023 65.3078C36.9909 65.4232 36.7511 65.8498 36.8665 66.2607C36.982 66.6717 37.4091 66.9112 37.8205 66.7959Z" fill="#8369A0"/>
<path d="M99.8037 127.362C99.1702 127.54 98.5459 127.715 97.9215 127.89C97.8975 128.198 97.8735 128.506 97.8495 128.814C97.3368 128.958 96.8337 129.099 96.321 129.243C96.3252 129.222 96.329 129.201 96.3241 129.182C96.4521 128.172 96.5711 127.164 96.6995 126.154C96.8139 125.238 96.9217 124.334 97.0365 123.419C97.0601 123.181 97.1699 122.999 97.378 122.881C97.4378 122.844 97.503 122.825 97.559 122.81C97.9505 122.7 98.3419 122.59 98.7334 122.48C98.7521 122.475 98.7612 122.473 98.7799 122.467C99.7 124.238 100.62 126.009 101.549 127.777C101.102 127.902 100.654 128.028 100.198 128.156C100.082 127.887 99.9474 127.623 99.8037 127.362ZM99.2346 126.267C99.2346 126.267 99.232 126.257 99.2293 126.248C98.884 125.592 98.5504 124.942 98.2051 124.286C98.2051 124.286 98.2051 124.286 98.196 124.288C98.1403 125.057 98.0759 125.828 98.0229 126.607C98.0721 126.603 99.1904 126.289 99.2346 126.267Z" fill="#8369A0"/>
<path d="M87.9746 131.594C87.4619 131.738 86.9493 131.882 86.437 132.026C86.4221 132.01 86.4198 132 86.405 131.984C85.6834 130.74 84.9646 129.506 84.243 128.262C84.1466 128.098 84.0505 127.935 83.9541 127.771C83.85 127.579 83.6895 127.473 83.4795 127.442C83.2245 127.393 82.9772 127.372 82.7141 127.365C82.4694 127.354 82.2301 127.36 81.9815 127.37C81.9629 127.375 81.951 127.368 81.9324 127.374C81.9164 127.318 81.9221 127.266 81.9156 127.208C81.9343 127.202 81.953 127.197 81.9716 127.192C82.7732 126.967 83.5653 126.745 84.3665 126.52C84.469 126.492 84.5742 126.472 84.6806 126.492C84.9329 126.532 85.1132 126.672 85.2344 126.889C85.3941 127.206 85.5534 127.523 85.7154 127.849C85.9079 128.247 86.1092 128.643 86.3017 129.041C86.4465 129.341 86.5982 129.63 86.7431 129.931C86.748 129.95 86.7629 129.966 86.7678 129.984L86.7774 129.982C86.7774 129.982 86.7747 129.972 86.7839 129.97C86.7839 129.97 86.7816 129.96 86.788 129.949C86.9356 128.541 87.0762 127.146 87.2237 125.739C87.2237 125.739 87.2237 125.739 87.2302 125.727C87.7337 125.586 88.2369 125.445 88.7587 125.299C88.4926 127.392 88.2289 129.494 87.9746 131.594Z" fill="#8369A0"/>
<path d="M92.1716 130.186C92.1472 129.741 92.1187 129.317 92.0847 128.875C92.1057 128.879 92.127 128.883 92.1575 128.884C92.3489 128.921 92.5471 128.946 92.7464 128.94C93.0895 128.944 93.4356 128.888 93.7683 128.784C93.9334 128.728 94.0839 128.655 94.212 128.539C94.2764 128.481 94.3378 128.414 94.3874 128.339C94.4987 128.127 94.4426 127.892 94.2437 127.757C94.1693 127.708 94.0794 127.673 93.989 127.638C93.8324 127.581 93.6715 127.546 93.5042 127.523C93.3037 127.488 93.1005 127.445 92.9012 127.38C92.714 127.322 92.5307 127.243 92.3611 127.14C92.1411 127.001 91.9624 126.83 91.845 126.592C91.7581 126.425 91.7177 126.246 91.6959 126.061C91.6411 125.544 91.8069 125.096 92.1385 124.702C92.3496 124.452 92.6138 124.247 92.9031 124.096C93.1829 123.947 93.4825 123.833 93.7836 123.759C94.2055 123.65 94.6389 123.619 95.0788 123.646C95.0883 123.644 95.1001 123.65 95.1097 123.648C95.1097 123.648 95.1188 123.645 95.1215 123.654C95.1474 124.069 95.1737 124.483 95.2023 124.907C95.1809 124.903 95.1714 124.906 95.1623 124.908C94.8581 124.863 94.5482 124.87 94.2486 124.913C94.0386 124.952 93.8309 125.001 93.6365 125.095C93.5206 125.148 93.4192 125.216 93.335 125.31C93.2732 125.378 93.224 125.452 93.2103 125.546C93.1791 125.685 93.213 125.807 93.3281 125.895C93.3784 125.931 93.4287 125.967 93.4954 125.989C93.5976 126.03 93.6971 126.062 93.8061 126.092C93.9787 126.134 94.1487 126.167 94.3214 126.209C94.515 126.255 94.7091 126.301 94.8897 126.371C95.0342 126.42 95.1748 126.492 95.2995 126.577C95.5937 126.766 95.7893 127.032 95.8834 127.367C96.0797 128.066 95.9002 128.678 95.4032 129.199C95.184 129.421 94.9305 129.593 94.6599 129.739C94.3614 129.893 94.0405 130.003 93.7093 130.076C93.2846 130.175 92.8562 130.225 92.419 130.207C92.3272 130.203 92.254 130.193 92.1716 130.186Z" fill="#8369A0"/>
<path d="M90.8387 124.695C90.9691 126.697 91.0941 128.68 91.2126 130.676C90.7282 130.811 90.2433 130.947 89.7497 131.086C89.6216 129.093 89.4939 127.1 89.3754 125.105C89.8694 124.966 90.3539 124.831 90.8387 124.695Z" fill="#8369A0"/>
<path d="M58.8741 53.5615L59.3346 53.4325L59.8606 55.3027L59.4989 55.4043L58.3599 54.5785L58.6584 55.64L58.2033 55.7676L57.6773 53.8974L58.0337 53.7972L59.1711 54.6177L58.8741 53.5615Z" fill="#8369A0"/>
<path d="M61.6078 54.8127L61.3353 54.4726L60.5131 54.703L60.4579 55.1351L59.9688 55.2726L60.3096 53.1591L60.6946 53.0513L62.0893 54.6779L61.6078 54.8127ZM60.5676 54.2884L61.0727 54.1467L60.6542 53.6263L60.5676 54.2884Z" fill="#8369A0"/>
<path d="M62.1948 54.6482L61.6688 52.778L62.1583 52.6405L62.6839 54.5111L62.1948 54.6482Z" fill="#8369A0"/>
<path d="M64.6282 53.9655L64.1106 54.111L63.6963 53.5555C63.649 53.493 63.5739 53.4763 63.4718 53.5052L63.2945 53.5547L63.4992 54.2823L63.0178 54.4175L62.4922 52.5469L63.3532 52.3055C63.577 52.2426 63.7591 52.2445 63.8994 52.3112C64.0393 52.3759 64.1346 52.4981 64.1853 52.6786C64.2207 52.8046 64.2177 52.9238 64.1761 53.0354C64.1357 53.145 64.0603 53.236 63.9497 53.3087C64.0046 53.3045 64.0584 53.316 64.111 53.343C64.1632 53.3696 64.2108 53.4119 64.2531 53.4702L64.6282 53.9655ZM63.4931 53.1024C63.5972 53.073 63.668 53.0361 63.7062 52.9916C63.7435 52.9451 63.7527 52.8876 63.7336 52.8195C63.7134 52.7475 63.6757 52.7026 63.6196 52.6843C63.5659 52.6653 63.4859 52.6706 63.3803 52.7003L63.0731 52.7863L63.1863 53.1884L63.4931 53.1024Z" fill="#8369A0"/>
<path d="M66.26 53.5082L65.9874 53.1678L65.1653 53.3986L65.11 53.8307L64.621 53.9678L64.9617 51.8547L65.3467 51.7465L66.7414 53.3731L66.26 53.5082ZM65.2202 52.9836L65.7248 52.8419L65.3063 52.3218L65.2202 52.9836Z" fill="#8369A0"/>
<path d="M68.4311 50.8815L68.9232 50.7437L68.6057 52.8503L68.218 52.9588L66.8493 51.3251L67.3566 51.1827L68.2432 52.2887L68.4311 50.8815Z" fill="#8369A0"/>
<path d="M69.5552 52.5838L69.0295 50.7136L69.5186 50.5765L70.0446 52.4467L69.5552 52.5838Z" fill="#8369A0"/>
<path d="M71.9889 51.9015L71.4713 52.0466L71.057 51.4911C71.0093 51.429 70.9346 51.4122 70.8321 51.4408L70.6552 51.4903L70.8599 52.2179L70.3785 52.3531L69.8529 50.4829L70.7139 50.2411C70.9377 50.1786 71.1198 50.1802 71.2601 50.2468C71.4 50.3115 71.4953 50.4341 71.546 50.6146C71.5814 50.7406 71.5784 50.8594 71.5368 50.9713C71.4964 51.0806 71.421 51.172 71.3104 51.2443C71.3653 51.2402 71.4191 51.2516 71.4717 51.2786C71.5239 51.3053 71.5715 51.3479 71.6138 51.4058L71.9889 51.9015ZM70.8538 51.038C70.9578 51.009 71.0287 50.9721 71.0669 50.9272C71.1042 50.8807 71.1134 50.8236 71.0943 50.7551C71.0741 50.6835 71.036 50.6382 70.9803 50.6199C70.9266 50.6013 70.8466 50.6066 70.741 50.6363L70.4337 50.7223L70.5466 51.124L70.8538 51.038Z" fill="#8369A0"/>
<path d="M72.6014 51.7298L72.1879 50.2586L71.6363 50.4132L71.5239 50.0141L73.1213 49.566L73.2338 49.9654L72.6822 50.12L73.0958 51.5912L72.6014 51.7298Z" fill="#8369A0"/>
<path d="M74.6651 51.1766C74.3944 51.2523 74.1707 51.2413 73.9935 51.1438C73.8158 51.0444 73.6897 50.8613 73.615 50.5952L73.3108 49.5131L73.7869 49.3794L74.096 50.4802C74.1341 50.615 74.1924 50.7101 74.2717 50.7653C74.3525 50.8202 74.4486 50.832 74.5595 50.8008C74.6689 50.7703 74.7428 50.7105 74.7817 50.6222C74.8198 50.5323 74.8206 50.4208 74.7829 50.2875L74.4737 49.1868L74.9551 49.052L75.2593 50.1341C75.3329 50.3968 75.3184 50.618 75.2155 50.7981C75.1141 50.9759 74.9304 51.1019 74.6651 51.1766Z" fill="#8369A0"/>
<path d="M77.2006 50.4398L76.928 50.0998L76.1059 50.3301L76.0506 50.7623L75.5616 50.8994L75.9023 48.7862L76.2873 48.6781L77.682 50.305L77.2006 50.4398ZM76.1608 49.9151L76.6654 49.7739L76.2469 49.2534L76.1608 49.9151Z" fill="#8369A0"/>
<path d="M77.7876 50.2753L77.2616 48.4051L77.751 48.2677L78.1642 49.7389L78.9475 49.5192L79.0595 49.9186L77.7876 50.2753Z" fill="#8369A0"/>
<path d="M92.6389 136.701L78.3414 140.711L78.5682 141.517L92.8657 137.508L92.6389 136.701Z" fill="#00CAF5"/>
<path d="M106.778 132.736C106.449 133.365 105.862 133.863 105.128 134.069L92.8661 137.507L92.6397 136.701L106.778 132.736Z" fill="#48D38A"/>
<path d="M78.3407 140.711L63.9147 144.757L64.1411 145.563L78.5674 141.517L78.3407 140.711Z" fill="#FFC700"/>
<path d="M49.7768 148.721C50.3859 149.087 51.1464 149.208 51.8805 149.002L64.1418 145.563L63.9154 144.756L49.7768 148.721Z" fill="#F7685B"/>
<g filter="url(#filter1_d_1_1335)">
<path d="M135.794 140.543L72.4619 137.628C70.7646 137.55 69.4542 136.114 69.5323 134.419L74.2904 31.243C74.3685 29.5478 75.8059 28.2386 77.5028 28.3167L140.835 31.231C142.532 31.3091 143.843 32.7446 143.765 34.4399L139.007 137.607C138.937 139.312 137.491 140.621 135.794 140.543Z" fill="#40196D" stroke="#DBDCE0" stroke-opacity="0.5" stroke-width="1.14496"/>
<path d="M139.969 41.8442C140.006 41.2433 139.926 40.4392 139.737 39.6393C139.564 38.9208 139.326 38.2263 138.978 37.5719C138.845 37.332 138.603 37.2939 138.422 37.3305C138.176 37.3822 138.01 37.6713 138.098 37.9092C138.154 38.0646 138.219 38.2115 138.284 38.3584C138.724 39.359 138.982 40.3958 138.986 41.4931C138.997 42.7979 138.769 44.0551 138.184 45.2244C138.045 45.5058 137.879 45.7769 137.74 46.0674C137.591 46.3571 137.764 46.6979 138.077 46.7481C138.229 46.7733 138.374 46.7618 138.47 46.6225C138.556 46.5094 138.642 46.4055 138.711 46.2829C139.482 44.9872 139.924 43.5868 139.969 41.8442ZM137.941 41.9039C137.926 41.6424 137.929 41.3728 137.905 41.1108C137.832 40.1632 137.549 39.2688 137.119 38.4308C137.02 38.2374 136.852 38.1757 136.654 38.1844C136.392 38.1993 136.127 38.4658 136.248 38.7773C136.296 38.9056 136.344 39.0335 136.393 39.1527C136.695 39.8232 136.879 40.515 136.935 41.2551C137.001 42.1663 136.879 43.0511 136.525 43.8979C136.364 44.2775 136.157 44.6457 135.978 45.0241C135.938 45.1029 135.898 45.1913 135.904 45.2724C135.912 45.4795 136.022 45.6284 136.207 45.7091C136.402 45.7898 136.566 45.7346 136.699 45.5876C136.794 45.4841 136.89 45.3626 136.958 45.24C137.564 44.2067 137.886 43.0972 137.941 41.9039ZM135.858 41.9698C135.927 41.0469 135.732 40.2104 135.327 39.4272C135.286 39.3354 135.227 39.252 135.158 39.1858C135.03 39.0449 134.762 38.9966 134.614 39.0799C134.374 39.2124 134.293 39.3887 134.372 39.6263C134.419 39.7813 134.493 39.9374 134.558 40.0844C135.005 41.139 135.028 42.1925 134.575 43.2419C134.464 43.4973 134.327 43.7429 134.198 43.9976C134.158 44.0768 134.118 44.1652 134.124 44.2371C134.133 44.4355 134.252 44.5847 134.428 44.6647C134.605 44.745 134.795 44.7089 134.927 44.571C134.984 44.5105 135.042 44.4324 135.09 44.3628C135.565 43.6199 135.854 42.8242 135.858 41.9698ZM132.95 41.773C132.959 42.1602 132.844 42.5055 132.622 42.8192C132.565 42.8973 132.516 42.9852 132.476 43.0732C132.395 43.2674 132.457 43.4772 132.639 43.6295C132.787 43.7528 132.993 43.7623 133.152 43.6439C133.264 43.559 133.367 43.465 133.444 43.3515C133.927 42.6452 134.062 41.8693 133.884 41.0335C133.803 40.6524 133.648 40.2945 133.401 39.9953C133.248 39.8083 133.023 39.7889 132.82 39.9054C132.607 40.0398 132.524 40.2698 132.622 40.4898C132.655 40.5633 132.687 40.646 132.729 40.7107C132.911 41.0431 132.985 41.3972 132.95 41.773Z" fill="#CACACA"/>
<path d="M139.968 41.8442C139.924 43.5864 139.481 44.9872 138.71 46.2916C138.641 46.4142 138.555 46.5182 138.469 46.6312C138.373 46.7618 138.228 46.782 138.076 46.7569C137.755 46.6971 137.591 46.3571 137.739 46.0761C137.886 45.7951 138.043 45.5237 138.183 45.2332C138.768 44.0551 138.997 42.8067 138.985 41.5019C138.972 40.4042 138.714 39.367 138.283 38.3672C138.218 38.2202 138.162 38.0648 138.097 37.9179C138.009 37.68 138.175 37.3909 138.42 37.3393C138.602 37.3027 138.844 37.3408 138.977 37.5807C139.325 38.2351 139.563 38.9296 139.737 39.648C139.934 40.4396 140.005 41.2433 139.968 41.8442Z" fill="#CACACA"/>
<path d="M137.94 41.9035C137.885 43.088 137.573 44.2067 136.976 45.2316C136.908 45.3542 136.812 45.4757 136.717 45.5793C136.584 45.7262 136.411 45.781 136.225 45.7007C136.031 45.6196 135.93 45.462 135.921 45.264C135.916 45.1829 135.956 45.0946 135.996 45.0154C136.175 44.6369 136.381 44.2779 136.543 43.8895C136.888 43.042 137.009 42.1663 136.953 41.2464C136.897 40.5066 136.713 39.8148 136.411 39.1443C136.353 39.0247 136.314 38.8881 136.266 38.7689C136.145 38.4666 136.409 38.1909 136.671 38.1761C136.879 38.1677 137.038 38.229 137.137 38.4224C137.575 39.2696 137.859 40.1552 137.923 41.1025C137.92 41.372 137.925 41.642 137.94 41.9035Z" fill="#CACACA"/>
<path d="M135.857 41.9694C135.854 42.8147 135.565 43.6199 135.099 44.3628C135.05 44.4416 135.002 44.5112 134.936 44.571C134.804 44.7089 134.613 44.7542 134.436 44.6651C134.251 44.5844 134.141 44.4355 134.132 44.2375C134.127 44.156 134.176 44.0684 134.206 43.998C134.326 43.7425 134.472 43.4977 134.583 43.2418C135.037 42.1925 135.013 41.1394 134.567 40.0847C134.502 39.9286 134.436 39.7816 134.381 39.6263C134.302 39.38 134.382 39.2128 134.622 39.0799C134.779 38.9973 135.038 39.0361 135.166 39.1858C135.235 39.2612 135.285 39.3442 135.335 39.4276C135.731 40.2191 135.927 41.0465 135.857 41.9694Z" fill="#CACACA"/>
<path d="M132.95 41.773C132.995 41.3972 132.912 41.0427 132.72 40.7191C132.678 40.6452 132.645 40.5721 132.613 40.4986C132.524 40.2785 132.598 40.0482 132.811 39.9142C133.015 39.7885 133.238 39.8167 133.392 40.0036C133.648 40.3033 133.794 40.6608 133.875 41.0423C134.062 41.878 133.918 42.654 133.435 43.3603C133.358 43.4734 133.254 43.5765 133.143 43.6523C132.975 43.7707 132.778 43.7616 132.63 43.6378C132.448 43.4855 132.386 43.267 132.467 43.0816C132.507 42.9936 132.556 42.9061 132.613 42.8276C132.844 42.5055 132.95 42.1598 132.95 41.773Z" fill="#CACACA"/>
<g opacity="0.13">
<mask id="mask1_1_1335" style="mask-type:alpha" maskUnits="userSpaceOnUse" x="72" y="51" width="71" height="27">
<path d="M87.587 75.3683L82.6196 75.1394L76.9361 67.4157L76.593 74.8623L72.3209 74.6658L73.3802 51.7024L77.6519 51.8992L77.0165 65.6772L83.045 58.7221L88.1446 58.9567L81.1148 66.7532L87.587 75.3683Z" fill="#DFE3FF"/>
<path d="M99.4321 59.476L103.704 59.6729L102.948 76.0749L98.6758 75.8785L98.7605 74.0414C97.652 75.5244 95.9722 76.2143 93.7203 76.1107C91.9102 76.0273 90.4366 75.3568 89.2999 74.0992C88.1854 72.8424 87.6769 71.1534 87.7749 69.0319L88.2391 58.9612L92.5112 59.1577L92.071 68.7037C92.0203 69.7972 92.2795 70.6531 92.8486 71.2711C93.4184 71.8669 94.1998 72.1879 95.1935 72.2336C96.2974 72.2842 97.1958 71.9861 97.8895 71.3385C98.5832 70.6908 98.961 69.6895 99.0235 68.3333L99.4321 59.476Z" fill="#DFE3FF"/>
<path d="M119.145 53.8083L123.417 54.0051L122.358 76.9681L118.086 76.7717L118.175 74.836C116.843 76.3746 115.018 77.0908 112.7 76.9841C110.47 76.8813 108.599 75.9626 107.086 74.2272C105.596 72.4712 104.908 70.3794 105.02 67.9518C105.131 65.5241 106.009 63.5153 107.653 61.9257C109.321 60.3148 111.269 59.5605 113.499 59.6633C115.817 59.7699 117.568 60.6502 118.753 62.3049L119.145 53.8083ZM110.428 71.554C111.272 72.4476 112.356 72.9247 113.681 72.9856C115.005 73.0465 116.118 72.6703 117.018 71.857C117.919 71.0221 118.402 69.9263 118.464 68.5705C118.527 67.2146 118.147 66.0903 117.325 65.1978C116.505 64.2833 115.432 63.7956 114.107 63.7346C112.783 63.6737 111.659 64.0605 110.736 64.8944C109.835 65.7076 109.354 66.7924 109.291 68.1482C109.229 69.5044 109.608 70.6394 110.428 71.554Z" fill="#DFE3FF"/>
<path d="M138.28 61.2636L142.551 61.4604L141.795 77.8625L137.524 77.666L137.613 75.7307C136.258 77.2682 134.422 77.9836 132.104 77.877C129.897 77.7753 128.037 76.857 126.524 75.1215C125.034 73.3655 124.345 71.2737 124.457 68.8461C124.569 66.4189 125.447 64.4101 127.091 62.8201C128.758 61.2091 130.696 60.4545 132.903 60.5562C135.221 60.6628 136.984 61.5438 138.191 63.1993L138.28 61.2636ZM129.866 72.4483C130.688 73.3408 131.761 73.8175 133.085 73.8784C134.41 73.9393 135.522 73.5631 136.423 72.7499C137.346 71.9157 137.839 70.8207 137.902 69.4648C137.964 68.109 137.573 66.9843 136.73 66.0907C135.909 65.1761 134.837 64.6888 133.512 64.6275C132.187 64.5666 131.075 64.9538 130.173 65.7891C129.273 66.6024 128.791 67.6867 128.729 69.043C128.666 70.3988 129.045 71.5338 129.866 72.4483Z" fill="#DFE3FF"/>
</mask>
<g mask="url(#mask1_1_1335)">
<path d="M143.036 50.4712L64.3198 46.849L62.931 76.9638L141.647 80.5859L143.036 50.4712Z" fill="#DFE3FF"/>
</g>
</g>
<mask id="mask2_1_1335" style="mask-type:luminance" maskUnits="userSpaceOnUse" x="77" y="31" width="32" height="10">
<path d="M108.537 33.2934L77.7445 31.8764L77.4275 38.7501L108.22 40.1671L108.537 33.2934Z" fill="white"/>
</mask>
<g mask="url(#mask2_1_1335)">
<path d="M95.8952 34.8454L95.6799 39.5159L94.3248 39.4535L94.3565 38.7716C94.1975 39.0107 93.9951 39.1889 93.7497 39.3069C93.5042 39.4249 93.2305 39.4771 92.9294 39.4634C92.3458 39.4363 91.917 39.2536 91.6433 38.9143C91.3693 38.5755 91.2477 38.0771 91.2782 37.4197L91.4063 34.6389L92.7983 34.7029L92.6687 37.5114C92.6424 38.0767 92.8722 38.3706 93.3578 38.3931C93.6464 38.406 93.8846 38.3185 94.0718 38.13C94.2589 37.9417 94.3599 37.6877 94.3748 37.3682L94.4941 34.7809L95.8952 34.8454ZM101.303 32.9603L100.989 39.7604L99.6158 39.6971L99.6474 39.0057C99.4954 39.2387 99.2869 39.4173 99.0227 39.5403C98.7582 39.6636 98.4632 39.7181 98.1377 39.7029C97.7382 39.6846 97.3864 39.5669 97.0826 39.3465C96.7784 39.126 96.5493 38.826 96.3911 38.4464C96.2333 38.0665 96.1666 37.6385 96.1887 37.1591C96.2109 36.6798 96.3164 36.2628 96.5082 35.9052C96.7003 35.5476 96.956 35.276 97.2758 35.0906C97.5952 34.9051 97.9562 34.8232 98.3618 34.8419C98.6751 34.8563 98.9579 34.937 99.2099 35.078C99.4618 35.222 99.6532 35.4125 99.7839 35.6525L99.9108 32.8963L101.303 32.9603ZM99.4008 38.3447C99.5964 38.1167 99.7039 37.7828 99.7244 37.3403C99.7446 36.9039 99.6676 36.5648 99.4912 36.3196C99.3147 36.0743 99.0589 35.9456 98.7212 35.93C98.377 35.9142 98.1041 36.0186 97.9029 36.2434C97.7016 36.4681 97.5911 36.7956 97.5712 37.2258C97.551 37.6683 97.6303 38.0137 97.8098 38.2652C97.989 38.5168 98.2508 38.649 98.595 38.6646C98.9392 38.6775 99.2057 38.5728 99.4008 38.3447ZM106.517 35.3342L106.301 40.0048L104.928 39.9416L104.96 39.2502C104.808 39.4832 104.599 39.6617 104.335 39.7847C104.07 39.9081 103.775 39.9625 103.45 39.9473C103.044 39.9286 102.693 39.814 102.391 39.6031C102.09 39.3922 101.86 39.1013 101.702 38.7278C101.544 38.3539 101.477 37.929 101.499 37.4497C101.521 36.9703 101.627 36.5471 101.819 36.1803C102.012 35.8135 102.268 35.5358 102.591 35.3444C102.914 35.153 103.275 35.0679 103.674 35.0863C104 35.1013 104.289 35.1854 104.54 35.3387C104.792 35.4919 104.983 35.6916 105.113 35.9378L105.143 35.271L106.517 35.3342ZM104.713 38.5922C104.908 38.3672 105.016 38.0333 105.036 37.5909C105.057 37.1484 104.98 36.8062 104.807 36.5611C104.633 36.316 104.375 36.1871 104.03 36.1712C103.686 36.1554 103.413 36.266 103.212 36.503C103.01 36.7401 102.899 37.0768 102.879 37.5131C102.858 37.9495 102.935 38.2857 103.112 38.5245C103.289 38.7636 103.551 38.8896 103.901 38.906C104.249 38.922 104.518 38.8172 104.713 38.5922ZM90.9081 39.364L89.1814 39.2848L87.4231 37.0822L87.3255 39.1991L85.9182 39.1344L86.235 32.267L87.6422 32.3317L87.4501 36.5014L89.3163 34.5581L91.006 34.6358L88.8951 36.8112L90.9081 39.364Z" fill="#CACACA"/>
<path d="M82.0565 38.957L79.4989 35.7231L80.8303 38.9006L79.8073 38.8534L78.448 35.6131L78.9287 38.813L78.2986 38.7841L77.8183 35.578L77.672 38.7552L77.4261 38.7437L77.7429 31.8763L77.9887 31.8877L77.8305 35.3137L78.6245 31.9169L79.2515 31.9458L78.4538 35.3578L80.1488 31.987L81.1597 32.0336L79.4741 35.3925L82.4068 32.091L83.9955 32.1641L80.9592 35.5778L83.691 39.0323L82.0565 38.957Z" fill="#CACACA"/>
<path d="M107.466 40.0524C107.887 40.0714 108.244 39.7463 108.263 39.3252C108.283 38.9044 107.957 38.5477 107.536 38.5283C107.116 38.5088 106.759 38.8344 106.739 39.2551C106.72 39.6758 107.046 40.033 107.466 40.0524Z" fill="#CACACA"/>
</g>
<path d="M121.25 138.912L104.236 138.129L104.192 139.088L121.206 139.871L121.25 138.912Z" fill="#00CAF5"/>
<path d="M138.077 139.686C137.491 140.252 136.672 140.583 135.799 140.543L121.207 139.871L121.252 138.912L138.077 139.686Z" fill="#48D38A"/>
<path d="M104.235 138.129L87.0678 137.339L87.0236 138.298L104.191 139.088L104.235 138.129Z" fill="#FFC700"/>
<path d="M70.2432 136.565C70.7745 137.182 71.5589 137.587 72.4326 137.627L87.024 138.298L87.0686 137.339L70.2432 136.565Z" fill="#F7685B"/>
<path d="M133.702 131.161C132.841 131.122 131.993 131.083 131.144 131.044C130.988 131.416 130.831 131.79 130.674 132.163C129.978 132.131 129.293 132.099 128.597 132.067C128.611 132.042 128.625 132.018 128.626 131.993C129.202 130.789 129.765 129.585 130.34 128.383C130.86 127.291 131.367 126.211 131.887 125.12C132.015 124.834 132.226 124.654 132.533 124.592C132.623 124.571 132.712 124.574 132.788 124.578C133.32 124.603 133.851 124.627 134.383 124.651C134.409 124.653 134.421 124.653 134.447 124.654C134.861 127.234 135.275 129.814 135.702 132.394C135.094 132.366 134.486 132.338 133.865 132.31C133.832 131.928 133.774 131.545 133.702 131.161ZM133.446 129.565C133.446 129.565 133.447 129.552 133.447 129.54C133.288 128.581 133.142 127.637 132.983 126.678C132.983 126.678 132.983 126.678 132.97 126.678C132.584 127.611 132.186 128.543 131.8 129.489C131.862 129.505 133.382 129.575 133.446 129.565Z" fill="#CACACA"/>
<path d="M117.25 131.557C116.553 131.525 115.857 131.493 115.161 131.461C115.149 131.435 115.149 131.423 115.138 131.397C114.753 129.554 114.368 127.723 113.984 125.88C113.932 125.637 113.879 125.394 113.827 125.151C113.776 124.869 113.621 124.672 113.373 124.546C113.076 124.381 112.777 124.253 112.453 124.137C112.153 124.021 111.853 123.931 111.54 123.841C111.514 123.84 111.502 123.827 111.477 123.826C111.48 123.749 111.509 123.687 111.525 123.612C111.55 123.613 111.576 123.614 111.601 123.616C112.69 123.666 113.767 123.715 114.856 123.765C114.995 123.772 115.133 123.791 115.257 123.86C115.555 124.013 115.721 124.262 115.782 124.581C115.85 125.041 115.918 125.5 115.985 125.972C116.06 126.546 116.147 127.121 116.222 127.695C116.279 128.128 116.348 128.55 116.404 128.983C116.403 129.009 116.415 129.035 116.413 129.06L116.426 129.06C116.426 129.06 116.427 129.048 116.439 129.048C116.439 129.048 116.44 129.036 116.453 129.023C117.216 127.335 117.966 125.658 118.729 123.969C118.729 123.969 118.729 123.969 118.743 123.957C119.427 123.989 120.11 124.02 120.819 124.052C119.626 126.546 118.432 129.051 117.25 131.557Z" fill="#CACACA"/>
<path d="M123.05 131.533C123.203 130.97 123.342 130.431 123.482 129.867C123.507 129.881 123.532 129.895 123.569 129.909C123.792 130.034 124.028 130.146 124.278 130.221C124.703 130.367 125.156 130.438 125.613 130.447C125.842 130.445 126.058 130.417 126.266 130.325C126.369 130.279 126.474 130.22 126.566 130.148C126.791 129.93 126.819 129.615 126.627 129.365C126.555 129.273 126.458 129.193 126.36 129.112C126.188 128.977 126.003 128.867 125.805 128.77C125.569 128.645 125.334 128.507 125.114 128.345C124.905 128.196 124.709 128.022 124.541 127.824C124.325 127.561 124.173 127.275 124.125 126.931C124.086 126.688 124.11 126.448 124.159 126.209C124.304 125.544 124.694 125.055 125.269 124.701C125.634 124.477 126.047 124.331 126.469 124.262C126.878 124.192 127.298 124.174 127.703 124.205C128.272 124.244 128.824 124.383 129.36 124.598C129.373 124.598 129.384 124.612 129.397 124.612C129.397 124.612 129.41 124.613 129.409 124.626C129.271 125.152 129.133 125.678 128.993 126.216C128.969 126.203 128.956 126.202 128.943 126.201C128.584 126.02 128.196 125.901 127.805 125.832C127.528 125.794 127.25 125.769 126.969 125.806C126.803 125.824 126.649 125.868 126.506 125.95C126.401 126.008 126.309 126.08 126.253 126.192C126.157 126.352 126.15 126.516 126.256 126.674C126.304 126.739 126.352 126.805 126.425 126.859C126.535 126.953 126.646 127.034 126.769 127.115C126.966 127.239 127.165 127.349 127.362 127.472C127.584 127.609 127.806 127.746 128.002 127.907C128.161 128.029 128.307 128.175 128.426 128.332C128.714 128.688 128.848 129.1 128.826 129.555C128.783 130.504 128.307 131.192 127.474 131.635C127.11 131.822 126.725 131.93 126.328 132.001C125.893 132.07 125.449 132.074 125.007 132.029C124.438 131.977 123.885 131.863 123.349 131.661C123.237 131.618 123.15 131.576 123.05 131.533Z" fill="#CACACA"/>
<path d="M123.656 124.158C122.993 126.701 122.331 129.218 121.656 131.748C120.998 131.718 120.339 131.687 119.668 131.656C120.331 129.126 120.993 126.596 121.668 124.067C122.339 124.097 122.998 124.128 123.656 124.158Z" fill="#CACACA"/>
<path d="M126.026 135.836C126.215 135.866 126.434 135.889 126.705 135.902C127.27 135.928 127.725 135.802 128.013 135.543C128.293 135.289 128.461 134.908 128.483 134.435C128.505 133.966 128.369 133.623 128.117 133.374C127.874 133.13 127.497 132.983 126.958 132.958C126.66 132.944 126.388 132.958 126.158 132.986L126.026 135.836ZM126.52 133.274C126.62 133.257 126.767 133.247 126.961 133.256C127.754 133.292 128.122 133.745 128.086 134.429C128.05 135.213 127.598 135.641 126.793 135.604C126.646 135.597 126.508 135.586 126.414 135.569L126.52 133.274Z" fill="#9484A6"/>
<path d="M130.621 135.081C130.632 135.038 130.639 134.983 130.642 134.905C130.66 134.522 130.51 133.92 129.826 133.888C129.218 133.86 128.825 134.334 128.796 134.962C128.767 135.591 129.13 136.035 129.773 136.064C130.104 136.079 130.34 136.017 130.477 135.963L130.42 135.688C130.279 135.742 130.109 135.782 129.838 135.77C129.454 135.752 129.141 135.526 129.156 135.013L130.621 135.081ZM129.173 134.743C129.215 134.481 129.395 134.14 129.783 134.158C130.209 134.178 130.295 134.557 130.28 134.793L129.173 134.743Z" fill="#9484A6"/>
<path d="M131.084 135.538C131.075 135.723 131.057 135.934 131.041 136.075L131.365 136.09L131.402 135.751L131.411 135.751C131.558 136.03 131.793 136.157 132.095 136.171C132.561 136.193 133.052 135.844 133.086 135.099C133.115 134.471 132.773 134.024 132.252 134C131.915 133.984 131.667 134.12 131.523 134.346L131.514 134.346L131.575 133.037L131.2 133.02L131.084 135.538ZM131.489 134.888C131.492 134.828 131.503 134.777 131.518 134.73C131.609 134.449 131.859 134.279 132.113 134.291C132.522 134.31 132.721 134.677 132.702 135.095C132.68 135.573 132.432 135.884 132.032 135.866C131.756 135.854 131.54 135.663 131.483 135.397C131.472 135.353 131.47 135.305 131.472 135.258L131.489 134.888Z" fill="#9484A6"/>
<path d="M133.892 136.206L133.988 134.123L133.609 134.105L133.513 136.189L133.892 136.206ZM133.836 133.292C133.694 133.286 133.594 133.389 133.588 133.518C133.582 133.647 133.668 133.754 133.806 133.761C133.957 133.768 134.052 133.669 134.058 133.539C134.064 133.406 133.974 133.298 133.836 133.292Z" fill="#9484A6"/>
<path d="M134.723 133.768L134.705 134.156L134.382 134.141L134.368 134.429L134.691 134.444L134.639 135.581C134.628 135.826 134.662 136.013 134.76 136.134C134.846 136.237 134.986 136.304 135.162 136.312C135.309 136.319 135.426 136.298 135.501 136.276L135.497 135.987C135.44 136.001 135.379 136.007 135.276 136.003C135.065 135.993 134.998 135.843 135.01 135.585L135.062 134.461L135.605 134.486L135.618 134.198L135.075 134.173L135.098 133.674L134.723 133.768Z" fill="#9484A6"/>
</g>
</g>
<defs>
<filter id="filter0_d_1_1335" x="23.6311" y="41.6128" width="115.898" height="134.937" filterUnits="userSpaceOnUse" color-interpolation-filters="sRGB">
<feFlood flood-opacity="0" result="BackgroundImageFix"/>
<feColorMatrix in="SourceAlpha" type="matrix" values="0 0 0 0 0 0 0 0 0 0 0 0 0 0 0 0 0 0 127 0" result="hardAlpha"/>
<feOffset dx="19.9669" dy="14.9752"/>
<feGaussianBlur stdDeviation="5.99007"/>
<feColorMatrix type="matrix" values="0 0 0 0 0.25098 0 0 0 0 0.0980392 0 0 0 0 0.427451 0 0 0 0.1 0"/>
<feBlend mode="normal" in2="BackgroundImageFix" result="effect1_dropShadow_1_1335"/>
<feBlend mode="normal" in="SourceGraphic" in2="effect1_dropShadow_1_1335" result="shape"/>
</filter>
<filter id="filter1_d_1_1335" x="68.9565" y="27.7409" width="112.023" height="144.291" filterUnits="userSpaceOnUse" color-interpolation-filters="sRGB">
<feFlood flood-opacity="0" result="BackgroundImageFix"/>
<feColorMatrix in="SourceAlpha" type="matrix" values="0 0 0 0 0 0 0 0 0 0 0 0 0 0 0 0 0 0 127 0" result="hardAlpha"/>
<feOffset dx="22.8992" dy="17.1744"/>
<feGaussianBlur stdDeviation="6.86977"/>
<feComposite in2="hardAlpha" operator="out"/>
<feColorMatrix type="matrix" values="0 0 0 0 0.25098 0 0 0 0 0.0980392 0 0 0 0 0.427451 0 0 0 0.1 0"/>
<feBlend mode="normal" in2="BackgroundImageFix" result="effect1_dropShadow_1_1335"/>
<feBlend mode="normal" in="SourceGraphic" in2="effect1_dropShadow_1_1335" result="shape"/>
</filter>
<clipPath id="clip0_1_1335">
<rect width="170" height="174" fill="white"/>
</clipPath>
</defs>
</svg>
