<svg width="151" height="161" viewBox="0 0 151 161" fill="none" xmlns="http://www.w3.org/2000/svg">
<g clip-path="url(#clip0_1_1409)">
<path d="M75.5 150.664C117.197 150.664 151 116.937 151 75.3321C151 33.7273 117.197 0 75.5 0C33.8025 0 0 33.7273 0 75.3321C0 116.937 33.8025 150.664 75.5 150.664Z" fill="#DBF8FF"/>
<g filter="url(#filter0_d_1_1409)">
<path d="M131.079 27.4296H19.5224C17.322 27.4296 15.5383 29.2094 15.5383 31.4049V146.848C15.5383 149.043 17.322 150.823 19.5224 150.823H131.079C133.28 150.823 135.063 149.043 135.063 146.848V31.4049C135.063 29.2094 133.28 27.4296 131.079 27.4296Z" fill="white"/>
</g>
<path d="M112.752 78.7111H37.8496C36.5294 78.7111 35.4591 79.779 35.4591 81.0963C35.4591 82.4136 36.5294 83.4815 37.8496 83.4815H112.752C114.072 83.4815 115.142 82.4136 115.142 81.0963C115.142 79.779 114.072 78.7111 112.752 78.7111Z" fill="#F4F4F4"/>
<path d="M26.8117 98.6413C26.473 98.6413 26.1702 98.5976 25.9033 98.5101C25.6363 98.4227 25.4032 98.2975 25.204 98.1345L25.3833 97.7409C25.5228 97.8443 25.6622 97.9317 25.8017 98.0033C25.9451 98.0709 26.0985 98.1225 26.2618 98.1583C26.4252 98.1901 26.6085 98.206 26.8117 98.206C27.1662 98.206 27.4292 98.1404 27.6005 98.0092C27.7718 97.8781 27.8575 97.7031 27.8575 97.4845C27.8575 97.2977 27.7977 97.1546 27.6782 97.0552C27.5587 96.9558 27.3495 96.8763 27.0507 96.8167L26.4232 96.6914C26.0367 96.6119 25.7479 96.4827 25.5566 96.3038C25.3694 96.1249 25.2758 95.8825 25.2758 95.5764C25.2758 95.3259 25.3395 95.1073 25.467 94.9204C25.5985 94.7336 25.7817 94.5885 26.0168 94.4851C26.2519 94.3818 26.5248 94.3301 26.8356 94.3301C27.1344 94.3301 27.4073 94.3758 27.6543 94.4672C27.9013 94.5547 28.1125 94.6839 28.2878 94.8548L28.1145 95.2365C27.9272 95.0695 27.73 94.9502 27.5228 94.8787C27.3196 94.8032 27.0886 94.7654 26.8296 94.7654C26.5029 94.7654 26.2439 94.8369 26.0527 94.9801C25.8654 95.1192 25.7718 95.31 25.7718 95.5525C25.7718 95.7473 25.8315 95.9003 25.9511 96.0117C26.0706 96.119 26.2678 96.2005 26.5427 96.2561L27.1762 96.3814C27.5826 96.4648 27.8814 96.5901 28.0726 96.757C28.2639 96.924 28.3595 97.1585 28.3595 97.4606C28.3595 97.6912 28.2958 97.896 28.1683 98.0748C28.0448 98.2537 27.8675 98.3929 27.6364 98.4922C27.4053 98.5916 27.1304 98.6413 26.8117 98.6413ZM29.1068 98.5877V94.1989H29.5909V96.2561H29.5132C29.5969 96.0216 29.7363 95.8447 29.9315 95.7254C30.1307 95.6022 30.3598 95.5406 30.6188 95.5406C30.9774 95.5406 31.2443 95.638 31.4196 95.8328C31.5949 96.0236 31.6826 96.3138 31.6826 96.7034V98.5877H31.1985V96.7332C31.1985 96.4549 31.1427 96.2522 31.0312 96.1249C30.9236 95.9977 30.7483 95.9341 30.5053 95.9341C30.2264 95.9341 30.0033 96.0196 29.8359 96.1905C29.6726 96.3615 29.5909 96.5861 29.5909 96.8644V98.5877H29.1068ZM33.75 98.6413C33.4831 98.6413 33.25 98.5797 33.0508 98.4565C32.8516 98.3293 32.6962 98.1504 32.5846 97.9198C32.4771 97.6892 32.4233 97.4129 32.4233 97.0909C32.4233 96.765 32.4771 96.4867 32.5846 96.2561C32.6962 96.0256 32.8516 95.8487 33.0508 95.7254C33.25 95.6022 33.4831 95.5406 33.75 95.5406C34.0209 95.5406 34.254 95.6101 34.4492 95.7493C34.6484 95.8844 34.7799 96.0693 34.8437 96.3038H34.7719L34.8377 95.5942H35.3038C35.2919 95.7095 35.2799 95.8268 35.268 95.9461C35.26 96.0613 35.256 96.1746 35.256 96.286V98.5877H34.7719V97.884H34.8377C34.7739 98.1186 34.6425 98.3034 34.4432 98.4386C34.244 98.5737 34.013 98.6413 33.75 98.6413ZM33.8456 98.2478C34.1325 98.2478 34.3596 98.1504 34.5269 97.9556C34.6943 97.7568 34.7779 97.4686 34.7779 97.0909C34.7779 96.7093 34.6943 96.4211 34.5269 96.2263C34.3596 96.0276 34.1325 95.9282 33.8456 95.9282C33.5627 95.9282 33.3356 96.0276 33.1643 96.2263C32.997 96.4211 32.9133 96.7093 32.9133 97.0909C32.9133 97.4686 32.997 97.7568 33.1643 97.9556C33.3356 98.1504 33.5627 98.2478 33.8456 98.2478ZM36.18 98.5877V96.3158C36.18 96.1965 36.176 96.0753 36.168 95.952C36.164 95.8288 36.1561 95.7095 36.1441 95.5942H36.6103L36.67 96.3217L36.5864 96.3277C36.6262 96.1488 36.6959 96.0017 36.7955 95.8864C36.8951 95.7711 37.0127 95.6857 37.1481 95.63C37.2836 95.5704 37.425 95.5406 37.5725 95.5406C37.6322 95.5406 37.684 95.5426 37.7278 95.5465C37.7756 95.5505 37.8195 95.5605 37.8593 95.5764L37.8533 96.0057C37.7936 95.9858 37.7378 95.9739 37.686 95.9699C37.6382 95.962 37.5824 95.958 37.5187 95.958C37.3434 95.958 37.19 95.9997 37.0585 96.0832C36.931 96.1667 36.8334 96.274 36.7657 96.4052C36.7019 96.5364 36.67 96.6755 36.67 96.8226V98.5877H36.18ZM39.6607 98.6413C39.1905 98.6413 38.82 98.5062 38.5491 98.2358C38.2782 97.9615 38.1427 97.5819 38.1427 97.0969C38.1427 96.7829 38.2025 96.5106 38.322 96.28C38.4415 96.0454 38.6089 95.8646 38.824 95.7374C39.0391 95.6062 39.2862 95.5406 39.5651 95.5406C39.84 95.5406 40.0712 95.5982 40.2585 95.7135C40.4457 95.8288 40.5891 95.9938 40.6888 96.2084C40.7884 96.4191 40.8382 96.6696 40.8382 96.9598V97.1387H38.5132V96.8345H40.5214L40.4198 96.9121C40.4198 96.594 40.3481 96.3456 40.2047 96.1667C40.0612 95.9878 39.8481 95.8984 39.5651 95.8984C39.2662 95.8984 39.0332 96.0037 38.8658 96.2144C38.6985 96.4211 38.6148 96.7014 38.6148 97.0552V97.1088C38.6148 97.4825 38.7065 97.7668 38.8897 97.9615C39.077 98.1524 39.338 98.2478 39.6726 98.2478C39.8521 98.2478 40.0194 98.2219 40.1748 98.1702C40.3342 98.1146 40.4856 98.0251 40.629 97.9019L40.7963 98.2418C40.6648 98.369 40.4975 98.4684 40.2943 98.54C40.0951 98.6075 39.884 98.6413 39.6607 98.6413ZM43.0175 99.9412L42.9039 99.5417C43.0912 99.498 43.2466 99.4463 43.3701 99.3867C43.4976 99.331 43.6032 99.2555 43.6868 99.1601C43.7705 99.0647 43.8422 98.9454 43.902 98.8023L44.0574 98.4505L44.0454 98.6532L42.7366 95.5942H43.2625L44.3442 98.2239H44.1888L45.2586 95.5942H45.7666L44.3801 98.8381C44.3004 99.0289 44.2128 99.1879 44.1171 99.3151C44.0215 99.4463 43.9179 99.5517 43.8064 99.6312C43.6988 99.7147 43.5793 99.7802 43.4478 99.8279C43.3163 99.8756 43.1729 99.9134 43.0175 99.9412ZM47.5021 98.6413C47.2152 98.6413 46.9642 98.5797 46.7491 98.4565C46.5379 98.3293 46.3746 98.1504 46.259 97.9198C46.1435 97.6853 46.0857 97.409 46.0857 97.0909C46.0857 96.7689 46.1435 96.4927 46.259 96.2621C46.3746 96.0315 46.5379 95.8546 46.7491 95.7314C46.9642 95.6042 47.2152 95.5406 47.5021 95.5406C47.7929 95.5406 48.0439 95.6042 48.2551 95.7314C48.4702 95.8546 48.6356 96.0315 48.7511 96.2621C48.8706 96.4927 48.9304 96.7689 48.9304 97.0909C48.9304 97.409 48.8706 97.6853 48.7511 97.9198C48.6356 98.1504 48.4702 98.3293 48.2551 98.4565C48.0439 98.5797 47.7929 98.6413 47.5021 98.6413ZM47.5021 98.2478C47.7889 98.2478 48.016 98.1504 48.1834 97.9556C48.3507 97.7568 48.4344 97.4686 48.4344 97.0909C48.4344 96.7093 48.3487 96.4211 48.1774 96.2263C48.0101 96.0276 47.785 95.9282 47.5021 95.9282C47.2192 95.9282 46.9941 96.0276 46.8268 96.2263C46.6594 96.4211 46.5758 96.7093 46.5758 97.0909C46.5758 97.4686 46.6594 97.7568 46.8268 97.9556C46.9941 98.1504 47.2192 98.2478 47.5021 98.2478ZM50.7428 98.6413C50.3882 98.6413 50.1193 98.5439 49.936 98.3491C49.7567 98.1543 49.6671 97.8562 49.6671 97.4547V95.5942H50.1512V97.4428C50.1512 97.7171 50.2069 97.9198 50.3185 98.051C50.43 98.1782 50.6034 98.2418 50.8384 98.2418C51.1014 98.2418 51.3125 98.1563 51.4719 97.9854C51.6313 97.8145 51.711 97.5859 51.711 97.2996V95.5942H52.195V98.5877H51.7229V97.9138H51.8006C51.7169 98.1444 51.5815 98.3233 51.3942 98.4505C51.2109 98.5777 50.9938 98.6413 50.7428 98.6413ZM53.1225 98.5877V96.3158C53.1225 96.1965 53.1186 96.0753 53.1106 95.952C53.1066 95.8288 53.0986 95.7095 53.0867 95.5942H53.5528L53.6126 96.3217L53.5289 96.3277C53.5688 96.1488 53.6385 96.0017 53.7381 95.8864C53.8377 95.7711 53.9552 95.6857 54.0907 95.63C54.2262 95.5704 54.3676 95.5406 54.515 95.5406C54.5748 95.5406 54.6266 95.5426 54.6704 95.5465C54.7182 95.5505 54.762 95.5605 54.8019 95.5764L54.7959 96.0057C54.7361 95.9858 54.6804 95.9739 54.6286 95.9699C54.5808 95.962 54.525 95.958 54.4612 95.958C54.2859 95.958 54.1325 95.9997 54.0011 96.0832C53.8736 96.1667 53.7759 96.274 53.7082 96.4052C53.6445 96.5364 53.6126 96.6755 53.6126 96.8226V98.5877H53.1225ZM56.8637 98.5877V96.286C56.8637 96.1746 56.8577 96.0613 56.8458 95.9461C56.8378 95.8268 56.8278 95.7095 56.8159 95.5942H57.282L57.3418 96.2502H57.2701C57.3577 96.0196 57.4972 95.8447 57.6884 95.7254C57.8836 95.6022 58.1087 95.5406 58.3637 95.5406C58.7183 95.5406 58.9852 95.636 59.1645 95.8268C59.3478 96.0136 59.4394 96.3098 59.4394 96.7153V98.5877H58.9554V96.7451C58.9554 96.4629 58.8976 96.2581 58.7821 96.1309C58.6705 95.9997 58.4952 95.9341 58.2561 95.9341C57.9773 95.9341 57.7561 96.0196 57.5928 96.1905C57.4294 96.3615 57.3478 96.5901 57.3478 96.8763V98.5877H56.8637ZM61.6981 98.6413C61.2279 98.6413 60.8574 98.5062 60.5865 98.2358C60.3156 97.9615 60.1801 97.5819 60.1801 97.0969C60.1801 96.7829 60.2399 96.5106 60.3594 96.28C60.4789 96.0454 60.6462 95.8646 60.8614 95.7374C61.0765 95.6062 61.3236 95.5406 61.6024 95.5406C61.8774 95.5406 62.1084 95.5982 62.2957 95.7135C62.483 95.8288 62.6264 95.9938 62.726 96.2084C62.8256 96.4191 62.8754 96.6696 62.8754 96.9598V97.1387H60.5506V96.8345H62.5587L62.4571 96.9121C62.4571 96.594 62.3853 96.3456 62.2419 96.1667C62.0985 95.9878 61.8853 95.8984 61.6024 95.8984C61.3036 95.8984 61.0706 96.0037 60.9032 96.2144C60.7359 96.4211 60.6522 96.7014 60.6522 97.0552V97.1088C60.6522 97.4825 60.7439 97.7668 60.9271 97.9615C61.1144 98.1524 61.3754 98.2478 61.71 98.2478C61.8893 98.2478 62.0566 98.2219 62.212 98.1702C62.3714 98.1146 62.5228 98.0251 62.6662 97.9019L62.8336 98.2418C62.7021 98.369 62.5347 98.4684 62.3316 98.54C62.1323 98.6075 61.9212 98.6413 61.6981 98.6413ZM64.3818 98.5877L63.2702 95.5942H63.7842L64.7105 98.2299H64.5551L65.5113 95.5942H65.9297L66.8679 98.2299H66.7185L67.6508 95.5942H68.1409L67.0233 98.5877H66.5572L65.589 95.9103H65.8281L64.8539 98.5877H64.3818ZM72.0489 98.6413C71.4792 98.6413 71.0549 98.4962 70.776 98.206C70.5011 97.9158 70.3636 97.4885 70.3636 96.924V94.3838H70.8537V96.9001C70.8537 97.3334 70.9493 97.6594 71.1406 97.8781C71.3318 98.0967 71.6346 98.206 72.0489 98.206C72.4394 98.206 72.7362 98.0967 72.9394 97.8781C73.1426 97.6594 73.2442 97.3334 73.2442 96.9001V94.3838H73.7342V96.924C73.7342 97.4885 73.5908 97.9158 73.304 98.206C73.0211 98.4962 72.6027 98.6413 72.0489 98.6413ZM75.6972 98.6413C75.4582 98.6413 75.2351 98.6095 75.0279 98.5459C74.8207 98.4783 74.6494 98.3849 74.5139 98.2657L74.6813 97.9258C74.8287 98.041 74.9881 98.1265 75.1594 98.1822C75.3347 98.2378 75.516 98.2657 75.7032 98.2657C75.9423 98.2657 76.1216 98.2239 76.2411 98.1404C76.3646 98.053 76.4263 97.9337 76.4263 97.7827C76.4263 97.6674 76.3865 97.5759 76.3068 97.5084C76.2311 97.4368 76.1056 97.3811 75.9303 97.3414L75.3745 97.2281C75.1195 97.1724 74.9283 97.079 74.8008 96.9478C74.6733 96.8127 74.6096 96.6417 74.6096 96.435C74.6096 96.2601 74.6554 96.1071 74.747 95.9759C74.8387 95.8407 74.9721 95.7354 75.1474 95.6598C75.3227 95.5803 75.5279 95.5406 75.763 95.5406C75.9821 95.5406 76.1833 95.5744 76.3666 95.6419C76.5538 95.7056 76.7092 95.799 76.8327 95.9222L76.6594 96.2561C76.5399 96.1408 76.4024 96.0554 76.2471 95.9997C76.0957 95.9401 75.9383 95.9103 75.7749 95.9103C75.5399 95.9103 75.3626 95.958 75.243 96.0534C75.1275 96.1448 75.0697 96.2661 75.0697 96.4171C75.0697 96.5324 75.1056 96.6278 75.1773 96.7034C75.253 96.7749 75.3685 96.8286 75.5239 96.8644L76.0797 96.9777C76.3506 97.0373 76.5518 97.1307 76.6833 97.2579C76.8188 97.3811 76.8865 97.5481 76.8865 97.7588C76.8865 97.9377 76.8367 98.0947 76.7371 98.2299C76.6375 98.3611 76.4981 98.4624 76.3188 98.534C76.1435 98.6055 75.9363 98.6413 75.6972 98.6413ZM78.9965 98.6413C78.5264 98.6413 78.1559 98.5062 77.8849 98.2358C77.614 97.9615 77.4786 97.5819 77.4786 97.0969C77.4786 96.7829 77.5383 96.5106 77.6579 96.28C77.7774 96.0454 77.9447 95.8646 78.1599 95.7374C78.375 95.6062 78.622 95.5406 78.9009 95.5406C79.1758 95.5406 79.4069 95.5982 79.5942 95.7135C79.7814 95.8288 79.9249 95.9938 80.0245 96.2084C80.1241 96.4191 80.1739 96.6696 80.1739 96.9598V97.1387H77.8491V96.8345H79.8571L79.7555 96.9121C79.7555 96.594 79.6838 96.3456 79.5404 96.1667C79.3969 95.9878 79.1838 95.8984 78.9009 95.8984C78.6021 95.8984 78.369 96.0037 78.2017 96.2144C78.0344 96.4211 77.9507 96.7014 77.9507 97.0552V97.1088C77.9507 97.4825 78.0423 97.7668 78.2256 97.9615C78.4129 98.1524 78.6738 98.2478 79.0085 98.2478C79.1878 98.2478 79.3551 98.2219 79.5105 98.1702C79.6699 98.1146 79.8213 98.0251 79.9647 97.9019L80.132 98.2418C80.0005 98.369 79.8332 98.4684 79.63 98.54C79.4308 98.6075 79.2196 98.6413 78.9965 98.6413ZM80.9026 98.5877V96.3158C80.9026 96.1965 80.8986 96.0753 80.8906 95.952C80.8866 95.8288 80.8787 95.7095 80.8667 95.5942H81.3329L81.3926 96.3217L81.3089 96.3277C81.3488 96.1488 81.4185 96.0017 81.5181 95.8864C81.6177 95.7711 81.7353 95.6857 81.8707 95.63C82.0062 95.5704 82.1476 95.5406 82.295 95.5406C82.3548 95.5406 82.4066 95.5426 82.4504 95.5465C82.4982 95.5505 82.542 95.5605 82.5819 95.5764L82.5759 96.0057C82.5162 95.9858 82.4604 95.9739 82.4086 95.9699C82.3608 95.962 82.305 95.958 82.2412 95.958C82.0659 95.958 81.9126 95.9997 81.7811 96.0832C81.6536 96.1667 81.556 96.274 81.4882 96.4052C81.4245 96.5364 81.3926 96.6755 81.3926 96.8226V98.5877H80.9026ZM83.0855 98.5877V96.286C83.0855 96.1746 83.0795 96.0613 83.0676 95.9461C83.0596 95.8268 83.0496 95.7095 83.0377 95.5942H83.5038L83.5636 96.2502H83.4919C83.5795 96.0196 83.719 95.8447 83.9102 95.7254C84.1054 95.6022 84.3305 95.5406 84.5855 95.5406C84.9401 95.5406 85.2071 95.636 85.3863 95.8268C85.5696 96.0136 85.6612 96.3098 85.6612 96.7153V98.5877H85.1772V96.7451C85.1772 96.4629 85.1194 96.2581 85.0039 96.1309C84.8923 95.9997 84.717 95.9341 84.4779 95.9341C84.1991 95.9341 83.9779 96.0196 83.8146 96.1905C83.6512 96.3615 83.5696 96.5901 83.5696 96.8763V98.5877H83.0855ZM87.729 98.6413C87.4621 98.6413 87.229 98.5797 87.0298 98.4565C86.8306 98.3293 86.6752 98.1504 86.5637 97.9198C86.4561 97.6892 86.4023 97.4129 86.4023 97.0909C86.4023 96.765 86.4561 96.4867 86.5637 96.2561C86.6752 96.0256 86.8306 95.8487 87.0298 95.7254C87.229 95.6022 87.4621 95.5406 87.729 95.5406C88 95.5406 88.233 95.6101 88.4283 95.7493C88.6275 95.8844 88.7589 96.0693 88.8227 96.3038H88.751L88.8167 95.5942H89.2829C89.2709 95.7095 89.259 95.8268 89.247 95.9461C89.239 96.0613 89.235 96.1746 89.235 96.286V98.5877H88.751V97.884H88.8167C88.753 98.1186 88.6215 98.3034 88.4223 98.4386C88.2231 98.5737 87.992 98.6413 87.729 98.6413ZM87.8247 98.2478C88.1115 98.2478 88.3386 98.1504 88.506 97.9556C88.6733 97.7568 88.757 97.4686 88.757 97.0909C88.757 96.7093 88.6733 96.4211 88.506 96.2263C88.3386 96.0276 88.1115 95.9282 87.8247 95.9282C87.5418 95.9282 87.3147 96.0276 87.1434 96.2263C86.976 96.4211 86.8924 96.7093 86.8924 97.0909C86.8924 97.4686 86.976 97.7568 87.1434 97.9556C87.3147 98.1504 87.5418 98.2478 87.8247 98.2478ZM90.1709 98.5877V96.286C90.1709 96.1746 90.165 96.0613 90.153 95.9461C90.145 95.8268 90.1351 95.7095 90.1231 95.5942H90.5893L90.649 96.2502H90.5773C90.657 96.0236 90.7825 95.8487 90.9538 95.7254C91.1291 95.6022 91.3403 95.5406 91.5873 95.5406C91.8383 95.5406 92.0415 95.6002 92.1969 95.7195C92.3563 95.8387 92.4638 96.0236 92.5196 96.274H92.43C92.5057 96.0474 92.6391 95.8685 92.8304 95.7374C93.0216 95.6062 93.2447 95.5406 93.4997 95.5406C93.8304 95.5406 94.0794 95.636 94.2467 95.8268C94.4141 96.0136 94.4977 96.3098 94.4977 96.7153V98.5877H94.0137V96.7451C94.0137 96.4629 93.9639 96.2581 93.8643 96.1309C93.7647 95.9997 93.6053 95.9341 93.3862 95.9341C93.1352 95.9341 92.9359 96.0216 92.7885 96.1965C92.6451 96.3674 92.5734 96.598 92.5734 96.8882V98.5877H92.0893V96.7451C92.0893 96.4629 92.0395 96.2581 91.9399 96.1309C91.8403 95.9997 91.6809 95.9341 91.4618 95.9341C91.2108 95.9341 91.0136 96.0216 90.8702 96.1965C90.7267 96.3674 90.655 96.598 90.655 96.8882V98.5877H90.1709ZM96.7504 98.6413C96.2803 98.6413 95.9097 98.5062 95.6388 98.2358C95.3679 97.9615 95.2324 97.5819 95.2324 97.0969C95.2324 96.7829 95.2922 96.5106 95.4117 96.28C95.5312 96.0454 95.6986 95.8646 95.9137 95.7374C96.1289 95.6062 96.3759 95.5406 96.6548 95.5406C96.9297 95.5406 97.1608 95.5982 97.348 95.7135C97.5353 95.8288 97.6787 95.9938 97.7783 96.2084C97.8779 96.4191 97.9277 96.6696 97.9277 96.9598V97.1387H95.6029V96.8345H97.611L97.5094 96.9121C97.5094 96.594 97.4377 96.3456 97.2942 96.1667C97.1508 95.9878 96.9376 95.8984 96.6548 95.8984C96.356 95.8984 96.1229 96.0037 95.9555 96.2144C95.7882 96.4211 95.7045 96.7014 95.7045 97.0552V97.1088C95.7045 97.4825 95.7962 97.7668 95.9795 97.9615C96.1667 98.1524 96.4277 98.2478 96.7623 98.2478C96.9416 98.2478 97.109 98.2219 97.2643 98.1702C97.4237 98.1146 97.5751 98.0251 97.7185 97.9019L97.8859 98.2418C97.7544 98.369 97.5871 98.4684 97.3839 98.54C97.1847 98.6075 96.9735 98.6413 96.7504 98.6413ZM101.027 98.5877L99.9158 95.5942H100.43L101.356 98.2299H101.201L102.157 95.5942H102.575L103.514 98.2299H103.364L104.296 95.5942H104.786L103.669 98.5877H103.203L102.235 95.9103H102.474L101.5 98.5877H101.027ZM105.421 98.5877V95.5942H105.905V98.5877H105.421ZM105.361 94.9145V94.3718H105.959V94.9145H105.361ZM107.908 98.6413C107.614 98.6413 107.389 98.5578 107.233 98.3909C107.078 98.2199 107 97.9635 107 97.6217V95.9699H106.414V95.5942H107V94.7773L107.484 94.6402V95.5942H108.345V95.9699H107.484V97.568C107.484 97.8065 107.524 97.9774 107.604 98.0808C107.687 98.1802 107.811 98.2299 107.974 98.2299C108.05 98.2299 108.118 98.2239 108.177 98.212C108.237 98.1961 108.291 98.1782 108.339 98.1583V98.5638C108.283 98.5877 108.215 98.6055 108.136 98.6175C108.06 98.6334 107.984 98.6413 107.908 98.6413ZM108.934 98.5877V94.1989H109.418V96.2561H109.34C109.424 96.0216 109.563 95.8447 109.759 95.7254C109.958 95.6022 110.187 95.5406 110.446 95.5406C110.805 95.5406 111.071 95.638 111.247 95.8328C111.422 96.0236 111.51 96.3138 111.51 96.7034V98.5877H111.026V96.7332C111.026 96.4549 110.97 96.2522 110.858 96.1249C110.751 95.9977 110.575 95.9341 110.332 95.9341C110.054 95.9341 109.83 96.0196 109.663 96.1905C109.5 96.3615 109.418 96.5861 109.418 96.8644V98.5877H108.934ZM113.875 99.9412L113.761 99.5417C113.948 99.498 114.104 99.4463 114.227 99.3867C114.355 99.331 114.46 99.2555 114.544 99.1601C114.628 99.0647 114.699 98.9454 114.759 98.8023L114.915 98.4505L114.903 98.6532L113.594 95.5942H114.12L115.201 98.2239H115.046L116.116 95.5942H116.624L115.237 98.8381C115.158 99.0289 115.07 99.1879 114.974 99.3151C114.879 99.4463 114.775 99.5517 114.664 99.6312C114.556 99.7147 114.437 99.7802 114.305 99.8279C114.174 99.8756 114.03 99.9134 113.875 99.9412ZM118.359 98.6413C118.072 98.6413 117.821 98.5797 117.606 98.4565C117.395 98.3293 117.232 98.1504 117.116 97.9198C117.001 97.6853 116.943 97.409 116.943 97.0909C116.943 96.7689 117.001 96.4927 117.116 96.2621C117.232 96.0315 117.395 95.8546 117.606 95.7314C117.821 95.6042 118.072 95.5406 118.359 95.5406C118.65 95.5406 118.901 95.6042 119.112 95.7314C119.327 95.8546 119.493 96.0315 119.608 96.2621C119.728 96.4927 119.788 96.7689 119.788 97.0909C119.788 97.409 119.728 97.6853 119.608 97.9198C119.493 98.1504 119.327 98.3293 119.112 98.4565C118.901 98.5797 118.65 98.6413 118.359 98.6413ZM118.359 98.2478C118.646 98.2478 118.873 98.1504 119.041 97.9556C119.208 97.7568 119.292 97.4686 119.292 97.0909C119.292 96.7093 119.206 96.4211 119.035 96.2263C118.867 96.0276 118.642 95.9282 118.359 95.9282C118.076 95.9282 117.851 96.0276 117.684 96.2263C117.517 96.4211 117.433 96.7093 117.433 97.0909C117.433 97.4686 117.517 97.7568 117.684 97.9556C117.851 98.1504 118.076 98.2478 118.359 98.2478ZM121.6 98.6413C121.245 98.6413 120.977 98.5439 120.793 98.3491C120.614 98.1543 120.524 97.8562 120.524 97.4547V95.5942H121.008V97.4428C121.008 97.7171 121.064 97.9198 121.176 98.051C121.287 98.1782 121.461 98.2418 121.696 98.2418C121.959 98.2418 122.17 98.1563 122.329 97.9854C122.489 97.8145 122.568 97.5859 122.568 97.2996V95.5942H123.052V98.5877H122.58V97.9138H122.658C122.574 98.1444 122.439 98.3233 122.251 98.4505C122.068 98.5777 121.851 98.6413 121.6 98.6413ZM123.979 98.5877V96.3158C123.979 96.1965 123.975 96.0753 123.967 95.952C123.963 95.8288 123.955 95.7095 123.944 95.5942H124.41L124.469 96.3217L124.386 96.3277C124.426 96.1488 124.495 96.0017 124.595 95.8864C124.695 95.7711 124.812 95.6857 124.948 95.63C125.083 95.5704 125.224 95.5406 125.372 95.5406C125.432 95.5406 125.483 95.5426 125.527 95.5465C125.575 95.5505 125.619 95.5605 125.659 95.5764L125.653 96.0057C125.593 95.9858 125.537 95.9739 125.485 95.9699C125.438 95.962 125.382 95.958 125.318 95.958C125.143 95.958 124.989 95.9997 124.858 96.0832C124.73 96.1667 124.633 96.274 124.565 96.4052C124.501 96.5364 124.469 96.6755 124.469 96.8226V98.5877H123.979ZM65.8054 106.538V103.921H65.2197V103.545H65.9368L65.8054 103.67V103.169C65.8054 102.831 65.891 102.573 66.0623 102.394C66.2336 102.215 66.4787 102.126 66.7974 102.126C66.8771 102.126 66.9588 102.134 67.0424 102.15C67.1301 102.161 67.2018 102.179 67.2576 102.203V102.603C67.2098 102.583 67.15 102.567 67.0783 102.555C67.0106 102.539 66.9408 102.531 66.8691 102.531C66.7456 102.531 66.64 102.557 66.5524 102.609C66.4647 102.656 66.399 102.73 66.3552 102.829C66.3113 102.929 66.2894 103.056 66.2894 103.211V103.646L66.2117 103.545H67.1261V103.921H66.2894V106.538H65.8054ZM67.6576 106.538V104.266C67.6576 104.147 67.6536 104.026 67.6456 103.903C67.6417 103.779 67.6337 103.66 67.6217 103.545H68.0879L68.1476 104.272L68.064 104.278C68.1038 104.099 68.1735 103.952 68.2731 103.837C68.3727 103.722 68.4903 103.636 68.6257 103.581C68.7612 103.521 68.9026 103.491 69.0501 103.491C69.1098 103.491 69.1616 103.493 69.2054 103.497C69.2533 103.501 69.2971 103.511 69.3369 103.527L69.3309 103.956C69.2712 103.936 69.2154 103.925 69.1636 103.921C69.1158 103.913 69.06 103.909 68.9963 103.909C68.821 103.909 68.6676 103.95 68.5361 104.034C68.4086 104.117 68.311 104.225 68.2433 104.356C68.1795 104.487 68.1476 104.626 68.1476 104.773V106.538H67.6576ZM69.8405 106.538V103.545H70.3246V106.538H69.8405ZM69.7808 102.865V102.322H70.3784V102.865H69.7808ZM72.5972 106.592C72.127 106.592 71.7565 106.457 71.4856 106.186C71.2147 105.912 71.0792 105.533 71.0792 105.048C71.0792 104.733 71.139 104.461 71.2585 104.231C71.378 103.996 71.5453 103.815 71.7605 103.688C71.9756 103.557 72.2227 103.491 72.5015 103.491C72.7764 103.491 73.0075 103.549 73.1948 103.664C73.382 103.779 73.5255 103.944 73.6251 104.159C73.7247 104.37 73.7745 104.62 73.7745 104.91V105.089H71.4497V104.785H73.4577L73.3561 104.863C73.3561 104.545 73.2844 104.296 73.141 104.117C72.9976 103.938 72.7844 103.849 72.5015 103.849C72.2027 103.849 71.9697 103.954 71.8023 104.165C71.635 104.372 71.5513 104.652 71.5513 105.006V105.059C71.5513 105.433 71.643 105.717 71.8262 105.912C72.0135 106.103 72.2744 106.198 72.6091 106.198C72.7884 106.198 72.9557 106.173 73.1111 106.121C73.2705 106.065 73.4219 105.976 73.5653 105.853L73.7326 106.192C73.6012 106.32 73.4338 106.419 73.2306 106.491C73.0314 106.558 72.8203 106.592 72.5972 106.592ZM74.5151 106.538V104.237C74.5151 104.125 74.5092 104.012 74.4972 103.897C74.4892 103.777 74.4793 103.66 74.4673 103.545H74.9335L74.9932 104.201H74.9215C75.0092 103.97 75.1486 103.795 75.3399 103.676C75.5351 103.553 75.7602 103.491 76.0152 103.491C76.3698 103.491 76.6367 103.587 76.816 103.777C76.9993 103.964 77.0909 104.26 77.0909 104.666V106.538H76.6068V104.696C76.6068 104.413 76.5491 104.209 76.4335 104.082C76.322 103.95 76.1467 103.885 75.9076 103.885C75.6287 103.885 75.4076 103.97 75.2442 104.141C75.0809 104.312 74.9992 104.541 74.9992 104.827V106.538H74.5151ZM79.1523 106.592C78.8894 106.592 78.6583 106.53 78.4591 106.407C78.2599 106.28 78.1045 106.101 77.9929 105.87C77.8854 105.64 77.8316 105.364 77.8316 105.042C77.8316 104.716 77.8854 104.437 77.9929 104.207C78.1045 103.976 78.2599 103.799 78.4591 103.676C78.6583 103.553 78.8894 103.491 79.1523 103.491C79.4232 103.491 79.6563 103.559 79.8515 103.694C80.0507 103.829 80.1842 104.012 80.2519 104.243H80.1802V102.15H80.6643V106.538H80.1862V105.823H80.2519C80.1882 106.061 80.0567 106.25 79.8575 106.389C79.6583 106.524 79.4232 106.592 79.1523 106.592ZM79.2539 106.198C79.5368 106.198 79.7639 106.101 79.9352 105.906C80.1065 105.707 80.1922 105.419 80.1922 105.042C80.1922 104.66 80.1065 104.372 79.9352 104.177C79.7639 103.978 79.5368 103.879 79.2539 103.879C78.971 103.879 78.7439 103.978 78.5726 104.177C78.4053 104.372 78.3216 104.66 78.3216 105.042C78.3216 105.419 78.4053 105.707 78.5726 105.906C78.7439 106.101 78.971 106.198 79.2539 106.198ZM82.5982 106.592C82.3592 106.592 82.1361 106.56 81.9289 106.497C81.7217 106.429 81.5504 106.336 81.4149 106.216L81.5823 105.876C81.7297 105.992 81.889 106.077 82.0604 106.133C82.2357 106.188 82.4169 106.216 82.6042 106.216C82.8432 106.216 83.0225 106.175 83.1421 106.091C83.2656 106.004 83.3273 105.884 83.3273 105.733C83.3273 105.618 83.2875 105.527 83.2078 105.459C83.1321 105.387 83.0066 105.332 82.8313 105.292L82.2755 105.179C82.0205 105.123 81.8293 105.03 81.7018 104.898C81.5743 104.763 81.5105 104.592 81.5105 104.386C81.5105 104.211 81.5564 104.058 81.648 103.926C81.7396 103.791 81.8731 103.686 82.0484 103.61C82.2237 103.531 82.4289 103.491 82.664 103.491C82.8831 103.491 83.0843 103.525 83.2676 103.593C83.4548 103.656 83.6102 103.75 83.7337 103.873L83.5604 104.207C83.4409 104.091 83.3034 104.006 83.148 103.95C82.9966 103.891 82.8393 103.861 82.6759 103.861C82.4409 103.861 82.2635 103.909 82.144 104.004C82.0285 104.095 81.9707 104.217 81.9707 104.368C81.9707 104.483 82.0066 104.578 82.0783 104.654C82.154 104.726 82.2695 104.779 82.4249 104.815L82.9807 104.928C83.2516 104.988 83.4528 105.081 83.5843 105.209C83.7198 105.332 83.7875 105.499 83.7875 105.709C83.7875 105.888 83.7377 106.045 83.6381 106.18C83.5385 106.312 83.399 106.413 83.2198 106.485C83.0444 106.556 82.8373 106.592 82.5982 106.592ZM84.4405 106.538V105.93H85.0501V106.538H84.4405Z" fill="#100F0D"/>
<path d="M75.5187 65.5926C82.1197 65.5926 87.4712 60.2534 87.4712 53.6667C87.4712 47.08 82.1197 41.7408 75.5187 41.7408C68.9174 41.7408 63.5662 47.08 63.5662 53.6667C63.5662 60.2534 68.9174 65.5926 75.5187 65.5926Z" fill="#FFC83E"/>
<path opacity="0.3" d="M76.714 66.3877C83.315 66.3877 88.6665 61.0484 88.6665 54.4617C88.6665 47.875 83.315 42.5358 76.714 42.5358C70.1126 42.5358 64.7615 47.875 64.7615 54.4617C64.7615 61.0484 70.1126 66.3877 76.714 66.3877Z" fill="#FFC83E"/>
<path d="M74.4115 59.5366C74.284 59.5366 74.1366 59.5247 73.9693 59.5008C73.794 59.477 73.6426 59.4372 73.5151 59.3816V58.4036C73.6187 58.4354 73.7342 58.4633 73.8617 58.4871C73.9812 58.5189 74.0968 58.5348 74.2083 58.5348C74.5191 58.5348 74.7542 58.4354 74.9135 58.2367C75.0809 58.0459 75.1645 57.7278 75.1645 57.2826V50.8903H76.3717V57.3661C76.3717 58.0816 76.2124 58.6223 75.8936 58.988C75.5749 59.3537 75.0809 59.5366 74.4115 59.5366ZM75.0569 49.6381V48.3859H76.4673V49.6381H75.0569Z" fill="white"/>
<path fill-rule="evenodd" clip-rule="evenodd" d="M83.8667 49.2938C85.9572 49.2938 87.6517 47.6031 87.6517 45.5173C87.6517 43.4315 85.9572 41.7408 83.8667 41.7408C81.7763 41.7408 80.0818 43.4315 80.0818 45.5173C80.0818 47.6031 81.7763 49.2938 83.8667 49.2938Z" fill="white"/>
<mask id="mask0_1_1409" style="mask-type:luminance" maskUnits="userSpaceOnUse" x="80" y="42" width="7" height="7">
<path d="M86.8939 42.4961H80.838V48.5385H86.8939V42.4961Z" fill="white"/>
</mask>
<g mask="url(#mask0_1_1409)">
<path d="M83.866 48.5385C85.5383 48.5385 86.894 47.1859 86.894 45.5173C86.894 43.8487 85.5383 42.4961 83.866 42.4961C82.1937 42.4961 80.838 43.8487 80.838 45.5173C80.838 47.1859 82.1937 48.5385 83.866 48.5385Z" fill="#40196D"/>
<path d="M84.0648 44.304H84.6055L83.6564 45.499L84.627 46.6944H84.0596L83.0568 45.5475L84.0648 44.304Z" fill="white"/>
<path d="M83.2795 44.304H83.6572L83.0815 45.5475L83.6305 46.6944H83.2205L82.7305 45.5368L83.2795 44.304Z" fill="white"/>
<path d="M82.7492 44.304H82.9644L82.7337 45.5368L82.9644 46.6944H82.7492L82.5241 45.5368L82.7492 44.304Z" fill="white"/>
<path d="M82.4412 44.304H82.5615V46.6944H82.4412V44.304Z" fill="white"/>
<path d="M84.9413 46.7051C85.0896 46.7051 85.2099 46.5852 85.2099 46.4372C85.2099 46.2892 85.0896 46.1693 84.9413 46.1693C84.793 46.1693 84.6728 46.2892 84.6728 46.4372C84.6728 46.5852 84.793 46.7051 84.9413 46.7051Z" fill="white"/>
</g>
<path d="M98.2193 58.0395C97.6293 58.0395 97.0902 57.9465 96.6022 57.76C96.1145 57.58 95.693 57.3152 95.3376 56.967C94.9882 56.6243 94.7172 56.2156 94.5244 55.741C94.3376 55.2659 94.2443 54.7404 94.2443 54.1632C94.2443 53.5502 94.3407 52.9945 94.5332 52.4955C94.732 51.9911 95.0153 51.5614 95.3826 51.2068C95.7499 50.8462 96.1866 50.5695 96.6926 50.3775C97.2046 50.1851 97.7707 50.0889 98.391 50.0889C99.1257 50.0889 99.7644 50.23 100.306 50.5127C100.854 50.789 101.279 51.1797 101.58 51.6846C101.881 52.1891 102.032 52.7873 102.032 53.4782C102.032 53.995 101.956 54.4458 101.806 54.8302C101.656 55.2091 101.445 55.5005 101.174 55.7048C100.903 55.9091 100.586 56.0113 100.225 56.0113C99.8516 56.0113 99.5564 55.9123 99.3397 55.714C99.1289 55.5156 99.0086 55.2361 98.9783 54.8756L99.3126 54.7042C99.168 55.1431 98.954 55.4703 98.6711 55.6869C98.3942 55.9032 98.0811 56.0113 97.7317 56.0113C97.2376 56.0113 96.8552 55.8579 96.5842 55.5514C96.3133 55.2453 96.1774 54.8275 96.1774 54.2987C96.1774 53.8539 96.2591 53.4631 96.4217 53.1268C96.5902 52.7842 96.8189 52.5166 97.1081 52.3246C97.4034 52.1262 97.7404 52.0269 98.1201 52.0269C98.4452 52.0269 98.7074 52.1052 98.9062 52.2614C99.111 52.4176 99.2524 52.6518 99.3305 52.9646H99.15L99.3126 52.1171H100.297L99.9269 54.1994C99.909 54.3075 99.8939 54.4069 99.8819 54.4967C99.8696 54.581 99.8636 54.6561 99.8636 54.7221C99.8636 54.9026 99.8999 55.0346 99.972 55.1189C100.044 55.1972 100.153 55.2361 100.297 55.2361C100.472 55.2361 100.629 55.1638 100.767 55.0199C100.905 54.8756 101.014 54.6712 101.092 54.4069C101.171 54.1362 101.21 53.8269 101.21 53.4782C101.21 52.9253 101.096 52.4566 100.866 52.0722C100.644 51.6874 100.321 51.396 99.8999 51.1976C99.4843 50.9933 98.9815 50.8911 98.391 50.8911C97.7404 50.8911 97.1715 51.0263 96.6834 51.297C96.1958 51.5614 95.8193 51.9398 95.5543 52.4327C95.2894 52.9193 95.1567 53.4961 95.1567 54.1632C95.1567 54.7945 95.2802 55.3411 95.5272 55.8038C95.7802 56.2665 96.1356 56.6211 96.5934 56.8676C97.0571 57.1141 97.599 57.2373 98.2193 57.2373C98.6592 57.2373 99.0596 57.1773 99.421 57.0568C99.7883 56.9427 100.114 56.7746 100.397 56.5524L100.785 57.2552C100.496 57.5017 100.129 57.6941 99.6831 57.832C99.2433 57.9703 98.7556 58.0395 98.2193 58.0395ZM97.9484 55.1821C98.1592 55.1821 98.3428 55.122 98.4994 55.0016C98.662 54.8756 98.7887 54.6983 98.8791 54.4697C98.9691 54.2355 99.0146 53.968 99.0146 53.6675C99.0146 53.4031 98.9572 53.2047 98.8429 53.0728C98.7285 52.9344 98.5508 52.8653 98.3098 52.8653C98.099 52.8653 97.9094 52.9253 97.7404 53.0457C97.5779 53.1598 97.4484 53.3252 97.352 53.5415C97.2619 53.7517 97.2165 54.001 97.2165 54.2896C97.2165 54.5782 97.2799 54.8004 97.4062 54.9567C97.5329 55.1069 97.7133 55.1821 97.9484 55.1821Z" fill="#1DCBEF"/>
<path d="M54.1755 58.0395C53.5855 58.0395 53.0464 57.9465 52.5583 57.76C52.0707 57.58 51.6491 57.3152 51.2938 56.967C50.9443 56.6243 50.6734 56.2156 50.4806 55.741C50.2937 55.2659 50.2005 54.7404 50.2005 54.1632C50.2005 53.5502 50.2969 52.9945 50.4898 52.4955C50.6882 51.9911 50.9714 51.5614 51.3388 51.2068C51.7061 50.8462 52.1428 50.5695 52.6488 50.3775C53.1607 50.1851 53.7269 50.0889 54.3472 50.0889C55.0819 50.0889 55.7206 50.23 56.2624 50.5127C56.8106 50.789 57.2353 51.1797 57.5365 51.6846C57.8378 52.1891 57.988 52.7873 57.988 53.4782C57.988 53.995 57.9131 54.4458 57.7625 54.8302C57.6118 55.2091 57.4011 55.5005 57.1298 55.7048C56.8588 55.9091 56.5425 56.0113 56.1811 56.0113C55.8078 56.0113 55.5126 55.9123 55.2959 55.714C55.0851 55.5156 54.9648 55.2361 54.9345 54.8756L55.2688 54.7042C55.1241 55.1431 54.9106 55.4703 54.6273 55.6869C54.3504 55.9032 54.0373 56.0113 53.6878 56.0113C53.1938 56.0113 52.8113 55.8579 52.5404 55.5514C52.2695 55.2453 52.134 54.8275 52.134 54.2987C52.134 53.8539 52.2153 53.4631 52.3778 53.1268C52.5464 52.7842 52.7755 52.5166 53.0643 52.3246C53.3595 52.1262 53.697 52.0269 54.0763 52.0269C54.4014 52.0269 54.6636 52.1052 54.8624 52.2614C55.0672 52.4176 55.2086 52.6518 55.2867 52.9646H55.1062L55.2688 52.1171H56.2536L55.8831 54.1994C55.8652 54.3075 55.85 54.4069 55.8381 54.4967C55.8257 54.581 55.8198 54.6561 55.8198 54.7221C55.8198 54.9026 55.856 55.0346 55.9281 55.1189C56.0007 55.1972 56.109 55.2361 56.2536 55.2361C56.4282 55.2361 56.5847 55.1638 56.7234 55.0199C56.862 54.8756 56.9704 54.6712 57.0485 54.4069C57.127 54.1362 57.166 53.8269 57.166 53.4782C57.166 52.9253 57.0517 52.4566 56.8226 52.0722C56.5999 51.6874 56.2776 51.396 55.856 51.1976C55.4405 50.9933 54.9377 50.8911 54.3472 50.8911C53.697 50.8911 53.1277 51.0263 52.6396 51.297C52.1519 51.5614 51.7754 51.9398 51.5105 52.4327C51.2455 52.9193 51.1129 53.4961 51.1129 54.1632C51.1129 54.7945 51.2364 55.3411 51.4834 55.8038C51.7364 56.2665 52.0918 56.6211 52.5496 56.8676C53.0133 57.1141 53.5552 57.2373 54.1755 57.2373C54.6154 57.2373 55.0158 57.1773 55.3771 57.0568C55.7445 56.9427 56.07 56.7746 56.3529 56.5524L56.7413 57.2552C56.4525 57.5017 56.0847 57.6941 55.6393 57.832C55.1994 57.9703 54.7118 58.0395 54.1755 58.0395ZM53.9046 55.1821C54.1153 55.1821 54.299 55.122 54.4556 55.0016C54.6181 54.8756 54.7448 54.6983 54.8353 54.4697C54.9253 54.2355 54.9707 53.968 54.9707 53.6675C54.9707 53.4031 54.9134 53.2047 54.799 53.0728C54.6847 52.9344 54.507 52.8653 54.2659 52.8653C54.0552 52.8653 53.8655 52.9253 53.697 53.0457C53.5341 53.1598 53.4046 53.3252 53.3082 53.5415C53.2181 53.7517 53.1727 54.001 53.1727 54.2896C53.1727 54.5782 53.236 54.8004 53.3627 54.9567C53.489 55.1069 53.6695 55.1821 53.9046 55.1821Z" fill="#48D38A"/>
<path d="M41.7569 58.0395C41.8147 58.0395 41.8641 58.02 41.9043 57.9811C41.9449 57.9449 41.97 57.8976 41.98 57.8392C42.033 57.4699 42.0912 57.1566 42.1541 56.899C42.2175 56.6438 42.2995 56.4351 42.4003 56.2725C42.5039 56.1071 42.639 55.9759 42.8055 55.8789C42.9744 55.7792 43.1892 55.7016 43.449 55.6456C43.7091 55.5895 44.0283 55.541 44.4068 55.4997C44.4701 55.4925 44.5219 55.4695 44.5621 55.4305C44.6024 55.3892 44.6227 55.3383 44.6227 55.2775C44.6227 55.2218 44.6024 55.1729 44.5621 55.132C44.5219 55.0906 44.4713 55.0664 44.4107 55.0588C44.0322 55.0151 43.7127 54.9654 43.4529 54.9094C43.1928 54.8537 42.9796 54.777 42.8131 54.68C42.6465 54.5806 42.5115 54.4494 42.4079 54.2864C42.3071 54.1215 42.2238 53.9124 42.1581 53.6599C42.0947 53.4047 42.0358 53.0903 41.98 52.7162C41.97 52.6601 41.9449 52.614 41.9043 52.5774C41.8641 52.5389 41.8147 52.5194 41.7569 52.5194C41.6963 52.5194 41.6457 52.5389 41.6051 52.5774C41.5648 52.614 41.5397 52.6601 41.5294 52.7162C41.4764 53.0903 41.4186 53.4047 41.3553 53.6599C41.2923 53.9147 41.2091 54.125 41.1055 54.29C41.0047 54.453 40.8696 54.5842 40.7003 54.6836C40.5337 54.781 40.3206 54.8573 40.0604 54.9133C39.8007 54.969 39.4814 55.0175 39.1028 55.0588C39.0371 55.0664 38.9841 55.0906 38.9437 55.132C38.9059 55.1705 38.887 55.2194 38.887 55.2775C38.887 55.3359 38.9059 55.3856 38.9437 55.4269C38.9841 55.4683 39.0359 55.4925 39.099 55.4997C39.4776 55.5486 39.7956 55.603 40.0529 55.6639C40.313 55.7219 40.5262 55.7998 40.6927 55.8968C40.8596 55.9942 40.9931 56.123 41.0943 56.2832C41.1975 56.4434 41.2808 56.6501 41.3441 56.9026C41.4099 57.1578 41.4716 57.4699 41.5294 57.8392C41.5397 57.8976 41.5648 57.9449 41.6051 57.9811C41.6457 58.02 41.6963 58.0395 41.7569 58.0395ZM39.2542 54.2137C39.2921 54.2137 39.3236 54.2025 39.3489 54.1807C39.3766 54.1564 39.393 54.1274 39.3981 54.0932C39.4283 53.865 39.4599 53.6877 39.4927 53.5613C39.5255 53.4325 39.576 53.3367 39.6442 53.2735C39.7148 53.2079 39.8196 53.157 39.9584 53.1205C40.0971 53.0839 40.2903 53.0441 40.5377 53.0004C40.621 52.9857 40.6624 52.9396 40.6624 52.8617C40.6624 52.8255 40.6501 52.7949 40.6246 52.7706C40.6019 52.7464 40.5728 52.7317 40.5377 52.7269C40.2903 52.6955 40.0959 52.6637 39.9544 52.6323C39.8158 52.5981 39.7123 52.5484 39.6442 52.4828C39.576 52.4149 39.5255 52.3151 39.4927 52.1839C39.4599 52.0527 39.4283 51.8718 39.3981 51.6413C39.388 51.5562 39.34 51.5136 39.2542 51.5136C39.1709 51.5136 39.1242 51.5574 39.1141 51.6448C39.0864 51.8706 39.0561 52.0467 39.0233 52.1732C38.993 52.2996 38.9425 52.3954 38.8718 52.461C38.8011 52.5242 38.6951 52.5739 38.5538 52.6104C38.4125 52.6442 38.2194 52.6832 37.9746 52.7269C37.8912 52.7416 37.8496 52.7865 37.8496 52.8617C37.8496 52.9396 37.8976 52.9857 37.9935 53.0004C38.2332 53.0366 38.4225 53.072 38.5614 53.1058C38.7002 53.1399 38.8037 53.1896 38.8718 53.2552C38.9425 53.3208 38.993 53.4194 39.0233 53.5506C39.0561 53.679 39.0864 53.8579 39.1141 54.0861C39.1242 54.1711 39.1709 54.2137 39.2542 54.2137ZM40.9959 51.7903C41.0437 51.7903 41.074 51.7637 41.0867 51.7104C41.1194 51.5284 41.1497 51.396 41.1776 51.3133C41.2079 51.2282 41.2672 51.1686 41.3553 51.1348C41.4437 51.1006 41.5915 51.064 41.7983 51.0255C41.8513 51.0155 41.878 50.9865 41.878 50.938C41.878 50.8891 41.8501 50.8601 41.7947 50.8506C41.5899 50.8164 41.4437 50.7838 41.3553 50.752C41.2672 50.7182 41.2079 50.6598 41.1776 50.5771C41.1497 50.492 41.1194 50.356 41.0867 50.1692C41.0764 50.1155 41.0461 50.0889 40.9959 50.0889C40.9429 50.0889 40.911 50.1155 40.9011 50.1692C40.8684 50.3537 40.8365 50.4872 40.8063 50.5699C40.7788 50.6526 40.7206 50.7106 40.6322 50.7448C40.5441 50.7786 40.3975 50.814 40.1931 50.8506C40.1377 50.8601 40.1098 50.8891 40.1098 50.938C40.1098 50.9865 40.1377 51.0155 40.1931 51.0255C40.4003 51.0617 40.5465 51.097 40.6322 51.1308C40.7206 51.165 40.7788 51.2246 40.8063 51.3097C40.8365 51.392 40.8684 51.5256 40.9011 51.7104C40.911 51.7637 40.9429 51.7903 40.9959 51.7903Z" fill="#FFC83E"/>
<path d="M111.523 52.581L109.545 54.0984L107.61 53.3152L112.789 51.3177L110.787 56.4856L110.002 54.5547L111.523 52.581Z" fill="#F7685B"/>
<path d="M125.272 118.464H25.13C24.4535 118.464 23.905 119.011 23.905 119.686V134.048C23.905 134.723 24.4535 135.27 25.13 135.27H125.272C125.949 135.27 126.497 134.723 126.497 134.048V119.686C126.497 119.011 125.949 118.464 125.272 118.464Z" fill="#F9F9F9"/>
<path d="M104.602 128.837C104.343 128.837 104.12 128.787 103.931 128.686C103.745 128.585 103.6 128.443 103.496 128.259C103.396 128.075 103.345 127.86 103.345 127.613C103.345 127.367 103.396 127.153 103.496 126.971C103.6 126.788 103.745 126.645 103.931 126.545C104.12 126.444 104.343 126.393 104.602 126.393C104.765 126.393 104.915 126.416 105.049 126.461C105.184 126.503 105.298 126.565 105.39 126.645L105.204 127.133C105.101 127.059 105.006 127.008 104.918 126.978C104.833 126.947 104.735 126.931 104.625 126.931C104.423 126.931 104.267 126.99 104.157 127.109C104.049 127.226 103.995 127.394 103.995 127.613C103.995 127.835 104.049 128.006 104.157 128.124C104.267 128.241 104.423 128.299 104.625 128.299C104.735 128.299 104.833 128.285 104.918 128.255C105.006 128.224 105.101 128.172 105.204 128.098L105.39 128.585C105.298 128.666 105.184 128.728 105.049 128.773C104.915 128.816 104.765 128.837 104.602 128.837ZM105.572 127.613C105.572 127.367 105.62 127.153 105.717 126.971C105.814 126.788 105.952 126.645 106.131 126.545C106.311 126.444 106.523 126.393 106.768 126.393C107.015 126.393 107.228 126.444 107.408 126.545C107.588 126.645 107.726 126.788 107.822 126.971C107.921 127.153 107.971 127.367 107.971 127.613C107.971 127.858 107.921 128.072 107.822 128.255C107.726 128.439 107.588 128.583 107.408 128.686C107.228 128.787 107.015 128.837 106.768 128.837C106.523 128.837 106.311 128.787 106.131 128.686C105.954 128.583 105.816 128.439 105.717 128.255C105.62 128.072 105.572 127.858 105.572 127.613ZM106.222 127.613C106.222 127.835 106.267 128.009 106.357 128.135C106.447 128.258 106.584 128.319 106.768 128.319C106.952 128.319 107.09 128.258 107.183 128.135C107.275 128.009 107.32 127.835 107.32 127.613C107.32 127.392 107.275 127.219 107.183 127.096C107.09 126.973 106.952 126.911 106.768 126.911C106.584 126.911 106.447 126.973 106.357 127.096C106.267 127.217 106.222 127.39 106.222 127.613ZM108.344 128.8V126.43H109.509C109.783 126.43 109.99 126.498 110.129 126.632C110.268 126.764 110.338 126.945 110.338 127.173C110.338 127.4 110.268 127.58 110.129 127.714C109.99 127.849 109.783 127.916 109.509 127.916H108.967V128.8H108.344ZM108.967 127.439H109.428C109.534 127.439 109.612 127.416 109.664 127.372C109.716 127.324 109.742 127.258 109.742 127.173C109.742 127.088 109.716 127.022 109.664 126.975C109.612 126.928 109.534 126.904 109.428 126.904H108.967V127.439ZM111.219 128.8V127.667L111.344 128.01L110.279 126.43H110.997L111.6 127.382H111.479L112.081 126.43H112.775L111.718 128.01L111.842 127.667V128.8H111.219Z" fill="#48D38A"/>
<path d="M118.992 124.728H117.138C116.546 124.728 116.066 125.207 116.066 125.798V127.326C116.066 127.916 116.546 128.395 117.138 128.395H118.992C119.584 128.395 120.064 127.916 120.064 127.326V125.798C120.064 125.207 119.584 124.728 118.992 124.728Z" stroke="#48D38A" stroke-width="0.768657"/>
<path d="M117.999 125.645H116.145C115.553 125.645 115.073 126.124 115.073 126.715V128.243C115.073 128.833 115.553 129.312 116.145 129.312H117.999C118.591 129.312 119.071 128.833 119.071 128.243V126.715C119.071 126.124 118.591 125.645 117.999 125.645Z" fill="#48D38A" stroke="#48D38A" stroke-width="0.768657"/>
<path d="M32.2846 131.94C31.9845 131.94 31.7104 131.893 31.4623 131.798C31.2143 131.706 30.9999 131.572 30.8192 131.395C30.6416 131.221 30.5038 131.013 30.4058 130.771C30.3109 130.53 30.2634 130.263 30.2634 129.969C30.2634 129.657 30.3124 129.375 30.4104 129.121C30.5114 128.865 30.6554 128.646 30.8422 128.466C31.029 128.282 31.251 128.142 31.5083 128.044C31.7686 127.947 32.0564 127.898 32.3719 127.898C32.7455 127.898 33.0701 127.97 33.3457 128.113C33.6244 128.253 33.8403 128.452 33.9935 128.709C34.1466 128.965 34.2231 129.269 34.2231 129.621C34.2231 129.884 34.1849 130.113 34.1083 130.309C34.0317 130.501 33.9245 130.649 33.7867 130.753C33.6489 130.857 33.4882 130.909 33.3044 130.909C33.1145 130.909 32.9645 130.858 32.8542 130.758C32.747 130.657 32.6858 130.515 32.6705 130.331L32.8404 130.244C32.7669 130.467 32.6582 130.634 32.5143 130.744C32.3734 130.854 32.2142 130.909 32.0365 130.909C31.7854 130.909 31.5909 130.831 31.4531 130.675C31.3153 130.519 31.2464 130.307 31.2464 130.038C31.2464 129.812 31.2878 129.613 31.3704 129.442C31.4562 129.268 31.5726 129.132 31.7196 129.034C31.8696 128.934 32.0411 128.883 32.2341 128.883C32.3994 128.883 32.5327 128.923 32.6337 129.002C32.7379 129.082 32.8098 129.201 32.8496 129.36H32.7577L32.8404 128.929H33.3411L33.1528 129.988C33.1436 130.043 33.136 130.093 33.1298 130.139C33.1237 130.182 33.1207 130.22 33.1207 130.253C33.1207 130.345 33.139 130.412 33.1758 130.455C33.2125 130.495 33.2676 130.515 33.3411 130.515C33.4299 130.515 33.5096 130.478 33.58 130.405C33.6505 130.331 33.7056 130.228 33.7454 130.093C33.7852 129.956 33.8051 129.798 33.8051 129.621C33.8051 129.34 33.7469 129.101 33.6305 128.906C33.5172 128.711 33.3534 128.562 33.139 128.461C32.9277 128.358 32.672 128.305 32.3719 128.305C32.0411 128.305 31.7517 128.374 31.5037 128.512C31.2556 128.646 31.0642 128.839 30.9294 129.089C30.7947 129.337 30.7273 129.63 30.7273 129.969C30.7273 130.29 30.7901 130.568 30.9157 130.804C31.0443 131.039 31.225 131.219 31.4577 131.344C31.6935 131.47 31.9692 131.532 32.2846 131.532C32.5082 131.532 32.7118 131.502 32.8955 131.441C33.0824 131.383 33.2477 131.297 33.3917 131.184L33.5892 131.541C33.4422 131.667 33.2554 131.764 33.0288 131.835C32.8052 131.905 32.5572 131.94 32.2846 131.94ZM32.1468 130.487C32.254 130.487 32.3474 130.457 32.427 130.396C32.5097 130.331 32.574 130.241 32.6199 130.125C32.6659 130.006 32.6888 129.87 32.6888 129.717C32.6888 129.583 32.6598 129.482 32.6016 129.415C32.5434 129.345 32.453 129.309 32.3305 129.309C32.2233 129.309 32.1269 129.34 32.0411 129.401C31.9584 129.459 31.8926 129.543 31.8436 129.653C31.7977 129.76 31.7747 129.887 31.7747 130.034C31.7747 130.18 31.8068 130.293 31.8712 130.373C31.9355 130.449 32.0274 130.487 32.1468 130.487Z" fill="#CACACA"/>
<path d="M34.5443 132.202C34.4769 132.202 34.408 132.197 34.3376 132.188C34.2641 132.179 34.1983 132.162 34.1401 132.137V131.601C34.1829 131.613 34.2274 131.624 34.2733 131.633C34.3162 131.642 34.359 131.647 34.4019 131.647C34.4999 131.647 34.5795 131.616 34.6408 131.555C34.7051 131.497 34.7373 131.395 34.7373 131.248V128.856H35.4309V131.28C35.4309 131.583 35.359 131.812 35.215 131.968C35.0741 132.124 34.8506 132.202 34.5443 132.202ZM34.7051 128.475V127.829H35.4539V128.475H34.7051ZM36.8982 131.23C36.6961 131.23 36.5185 131.181 36.3653 131.083C36.2122 130.985 36.0928 130.846 36.007 130.666C35.9213 130.486 35.8784 130.269 35.8784 130.015C35.8784 129.764 35.9213 129.549 36.007 129.369C36.0928 129.189 36.2122 129.051 36.3653 128.956C36.5185 128.858 36.6961 128.81 36.8982 128.81C37.085 128.81 37.2519 128.856 37.3989 128.947C37.549 129.036 37.647 129.157 37.6929 129.309H37.6424L37.6975 128.856H38.3636C38.3544 128.956 38.3452 129.059 38.336 129.163C38.3299 129.264 38.3268 129.363 38.3268 129.461V131.179H37.6378L37.6332 130.744H37.6883C37.6393 130.891 37.5413 131.008 37.3943 131.097C37.2473 131.186 37.0819 131.23 36.8982 131.23ZM37.1095 130.707C37.2688 130.707 37.3974 130.651 37.4954 130.538C37.5934 130.425 37.6424 130.251 37.6424 130.015C37.6424 129.78 37.5934 129.607 37.4954 129.497C37.3974 129.387 37.2688 129.332 37.1095 129.332C36.9503 129.332 36.8216 129.387 36.7236 129.497C36.6256 129.607 36.5766 129.78 36.5766 130.015C36.5766 130.251 36.6241 130.425 36.719 130.538C36.817 130.651 36.9472 130.707 37.1095 130.707ZM38.8957 131.179V129.461C38.8957 129.363 38.8926 129.264 38.8865 129.163C38.8804 129.059 38.8712 128.956 38.859 128.856H39.525L39.5756 129.287H39.5205C39.597 129.134 39.7057 129.016 39.8465 128.934C39.9875 128.851 40.1513 128.81 40.3381 128.81C40.6106 128.81 40.8142 128.889 40.9489 129.048C41.0868 129.204 41.1557 129.447 41.1557 129.777V131.179H40.462V129.809C40.462 129.641 40.4314 129.522 40.3704 129.452C40.309 129.381 40.217 129.346 40.0947 129.346C39.9417 129.346 39.819 129.395 39.7272 129.492C39.6353 129.588 39.5893 129.716 39.5893 129.878V131.179H38.8957ZM42.8844 131.23C42.48 131.23 42.1645 131.121 41.9382 130.905C41.7115 130.687 41.5979 130.392 41.5979 130.02C41.5979 129.778 41.6457 129.568 41.7406 129.387C41.8386 129.207 41.9732 129.066 42.1445 128.965C42.3195 128.862 42.523 128.81 42.7557 128.81C42.9852 128.81 43.1768 128.858 43.3298 128.956C43.486 129.054 43.6024 129.192 43.6789 129.369C43.7585 129.543 43.7984 129.746 43.7984 129.979V130.139H42.1677V129.795H43.2932L43.2151 129.859C43.2151 129.667 43.1753 129.522 43.0956 129.424C43.0191 129.323 42.9071 129.273 42.7601 129.273C42.5979 129.273 42.4724 129.332 42.3836 129.452C42.2979 129.57 42.2549 129.742 42.2549 129.965V130.038C42.2549 130.264 42.3103 130.432 42.4203 130.542C42.5338 130.652 42.696 130.707 42.9071 130.707C43.033 130.707 43.1506 130.692 43.2609 130.661C43.3745 130.628 43.4816 130.576 43.5824 130.505L43.7757 130.964C43.6589 131.05 43.5243 131.115 43.3713 131.161C43.2211 131.207 43.0589 131.23 42.8844 131.23Z" fill="#121212"/>
<path d="M30.8915 125.006V123.893L30.969 124.115L29.9685 122.636H30.3727L31.1172 123.769H31.033L31.7775 122.636H32.1683L31.1711 124.115L31.2419 123.893V125.006H30.8915ZM32.8121 125.036C32.6437 125.036 32.4977 125.001 32.3742 124.932C32.2507 124.86 32.1553 124.76 32.0879 124.63C32.0205 124.497 31.9868 124.34 31.9868 124.159C31.9868 123.977 32.0205 123.822 32.0879 123.692C32.1553 123.559 32.2507 123.458 32.3742 123.389C32.4977 123.317 32.6437 123.281 32.8121 123.281C32.9806 123.281 33.1266 123.317 33.2501 123.389C33.3758 123.458 33.4724 123.559 33.5398 123.692C33.6094 123.822 33.6442 123.977 33.6442 124.159C33.6442 124.34 33.6094 124.497 33.5398 124.63C33.4724 124.76 33.3758 124.86 33.2501 124.932C33.1266 125.001 32.9806 125.036 32.8121 125.036ZM32.8121 124.771C32.9604 124.771 33.0783 124.719 33.1658 124.616C33.2535 124.513 33.2972 124.36 33.2972 124.159C33.2972 123.957 33.2535 123.806 33.1658 123.705C33.0783 123.602 32.9604 123.55 32.8121 123.55C32.6661 123.55 32.5494 123.602 32.4618 123.705C32.3742 123.806 32.3304 123.957 32.3304 124.159C32.3304 124.36 32.3731 124.513 32.4584 124.616C32.546 124.719 32.6639 124.771 32.8121 124.771ZM34.6449 125.036C34.4405 125.036 34.2867 124.981 34.1834 124.871C34.0823 124.76 34.0318 124.588 34.0318 124.357V123.312H34.372V124.35C34.372 124.492 34.4012 124.596 34.4596 124.663C34.518 124.73 34.6067 124.764 34.7258 124.764C34.8605 124.764 34.9694 124.719 35.0525 124.63C35.1356 124.54 35.1772 124.421 35.1772 124.273V123.312H35.5174V125.006H35.1872V124.643H35.231C35.1839 124.768 35.1086 124.866 35.0053 124.935C34.9021 125.002 34.7819 125.036 34.6449 125.036ZM36.009 125.006V123.732C36.009 123.662 36.0068 123.593 36.0023 123.524C36 123.452 35.9956 123.381 35.9888 123.312H36.3189L36.356 123.749H36.3021C36.3245 123.643 36.3627 123.556 36.4166 123.487C36.4705 123.417 36.5356 123.365 36.612 123.332C36.6906 123.298 36.7726 123.281 36.8579 123.281C36.8939 123.281 36.9242 123.284 36.9489 123.288C36.9736 123.291 36.9983 123.295 37.023 123.302L37.0196 123.604C36.9814 123.588 36.9478 123.58 36.9186 123.577C36.8916 123.573 36.8579 123.57 36.8175 123.57C36.7187 123.57 36.6345 123.593 36.5649 123.638C36.4952 123.68 36.4425 123.739 36.4065 123.813C36.3706 123.887 36.3526 123.966 36.3526 124.051V125.006H36.009ZM38.7867 125.036C38.5823 125.036 38.4285 124.981 38.3252 124.871C38.2241 124.76 38.1736 124.588 38.1736 124.357V123.312H38.5138V124.35C38.5138 124.492 38.543 124.596 38.6014 124.663C38.6598 124.73 38.7485 124.764 38.8675 124.764C39.0023 124.764 39.1112 124.719 39.1943 124.63C39.2774 124.54 39.3189 124.421 39.3189 124.273V123.312H39.6592V125.006H39.3291V124.643H39.3729C39.3257 124.768 39.2505 124.866 39.1472 124.935C39.0438 125.002 38.9237 125.036 38.7867 125.036ZM40.7401 125.036C40.5987 125.036 40.4684 125.018 40.3497 124.982C40.2306 124.946 40.1318 124.896 40.0533 124.831L40.1577 124.599C40.2405 124.662 40.3326 124.709 40.4338 124.74C40.535 124.772 40.6381 124.787 40.7437 124.787C40.8672 124.787 40.9605 124.766 41.0234 124.723C41.0864 124.679 41.1174 124.618 41.1174 124.542C41.1174 124.484 41.0975 124.437 41.0569 124.401C41.0186 124.365 40.9549 124.338 40.8648 124.32L40.5417 124.256C40.3979 124.225 40.2887 124.171 40.2146 124.095C40.1405 124.019 40.1035 123.921 40.1035 123.803C40.1035 123.702 40.1306 123.612 40.1844 123.534C40.2405 123.455 40.3194 123.394 40.4202 123.349C40.5238 123.304 40.6437 123.281 40.7808 123.281C40.9067 123.281 41.0234 123.299 41.131 123.335C41.239 123.371 41.3286 123.423 41.4007 123.49L41.2927 123.715C41.223 123.657 41.1445 123.612 41.0569 123.581C40.9692 123.547 40.8808 123.53 40.7907 123.53C40.6652 123.53 40.572 123.554 40.5115 123.601C40.4505 123.648 40.4202 123.71 40.4202 123.786C40.4202 123.844 40.4381 123.892 40.4744 123.93C40.5122 123.966 40.572 123.994 40.6529 124.014L40.976 124.078C41.129 124.11 41.2433 124.161 41.3198 124.233C41.3959 124.304 41.4342 124.401 41.4342 124.522C41.4342 124.627 41.4051 124.719 41.3465 124.797C41.2884 124.876 41.2075 124.935 41.1043 124.975C41.0007 125.016 40.8796 125.036 40.7401 125.036ZM42.6203 125.036C42.3462 125.036 42.1306 124.959 41.9732 124.804C41.8163 124.649 41.7378 124.436 41.7378 124.162C41.7378 123.985 41.7712 123.83 41.8386 123.698C41.9083 123.566 42.0039 123.464 42.125 123.392C42.2486 123.318 42.3912 123.281 42.5529 123.281C42.7123 123.281 42.8458 123.315 42.9537 123.382C43.0617 123.45 43.1434 123.545 43.1996 123.668C43.2557 123.789 43.284 123.933 43.284 124.098V124.206H42.0039V124.011H43.0514L42.994 124.055C42.994 123.887 42.9561 123.757 42.8796 123.665C42.8055 123.57 42.6976 123.524 42.5561 123.524C42.3992 123.524 42.2776 123.578 42.1924 123.688C42.1071 123.796 42.0645 123.945 42.0645 124.135V124.169C42.0645 124.368 42.1127 124.519 42.2091 124.619C42.3079 124.72 42.4474 124.771 42.627 124.771C42.7259 124.771 42.8179 124.757 42.9031 124.73C42.9908 124.701 43.0741 124.654 43.1526 124.589L43.2637 124.821C43.1852 124.89 43.0896 124.944 42.9773 124.982C42.8649 125.018 42.7462 125.036 42.6203 125.036ZM43.6677 125.006V123.732C43.6677 123.662 43.6653 123.593 43.6609 123.524C43.6585 123.452 43.6542 123.381 43.6474 123.312H43.9773L44.0143 123.749H43.9605C43.9833 123.643 44.0211 123.556 44.0753 123.487C44.1291 123.417 44.194 123.365 44.2705 123.332C44.349 123.298 44.4311 123.281 44.5163 123.281C44.5526 123.281 44.5829 123.284 44.6076 123.288C44.6323 123.291 44.657 123.295 44.6817 123.302L44.6781 123.604C44.6398 123.588 44.6064 123.58 44.5773 123.577C44.5502 123.573 44.5163 123.57 44.4761 123.57C44.3773 123.57 44.2928 123.593 44.2235 123.638C44.1538 123.68 44.1012 123.739 44.0649 123.813C44.0291 123.887 44.0111 123.966 44.0111 124.051V125.006H43.6677ZM44.9442 125.006V123.718C44.9442 123.654 44.9407 123.587 44.9339 123.52C44.9295 123.451 44.9239 123.381 44.9171 123.312H45.2474L45.2777 123.668H45.2371C45.2889 123.543 45.3686 123.447 45.4765 123.382C45.5841 123.315 45.7088 123.281 45.8502 123.281C46.0502 123.281 46.2008 123.336 46.3016 123.446C46.4048 123.556 46.4566 123.726 46.4566 123.957V125.006H46.1164V123.977C46.1164 123.827 46.0861 123.72 46.0255 123.655C45.967 123.587 45.8773 123.554 45.7558 123.554C45.6124 123.554 45.4976 123.599 45.4124 123.688C45.3271 123.776 45.2845 123.894 45.2845 124.044V125.006H44.9442ZM47.5913 125.036C47.4407 125.036 47.3092 125.001 47.1969 124.932C47.0849 124.862 46.9973 124.761 46.9343 124.63C46.8738 124.497 46.8435 124.34 46.8435 124.159C46.8435 123.975 46.8738 123.818 46.9343 123.688C46.9973 123.558 47.0849 123.458 47.1969 123.389C47.3092 123.317 47.4407 123.281 47.5913 123.281C47.7395 123.281 47.8686 123.318 47.9786 123.392C48.0885 123.466 48.1615 123.567 48.1977 123.695H48.1607L48.1941 123.312H48.5244C48.5176 123.381 48.5109 123.451 48.5041 123.52C48.4997 123.587 48.4973 123.654 48.4973 123.718V125.006H48.1571V124.63H48.1941C48.1583 124.755 48.0842 124.855 47.9718 124.928C47.8618 125 47.7347 125.036 47.5913 125.036ZM47.6754 124.771C47.8212 124.771 47.9383 124.719 48.0256 124.616C48.1156 124.513 48.1607 124.36 48.1607 124.159C48.1607 123.957 48.1156 123.806 48.0256 123.705C47.9383 123.602 47.8212 123.55 47.6754 123.55C47.5272 123.55 47.408 123.602 47.3184 123.705C47.2308 123.806 47.1869 123.957 47.1869 124.159C47.1869 124.36 47.2308 124.513 47.3184 124.616C47.4061 124.719 47.5248 124.771 47.6754 124.771ZM48.9937 125.006V123.718C48.9937 123.654 48.9906 123.587 48.9838 123.52C48.9794 123.451 48.9734 123.381 48.9671 123.312H49.2969L49.3272 123.668H49.287C49.334 123.545 49.4061 123.45 49.5025 123.382C49.6013 123.315 49.7193 123.281 49.8563 123.281C49.9954 123.281 50.1089 123.315 50.1966 123.382C50.2862 123.447 50.348 123.548 50.3818 123.685H50.3276C50.3727 123.562 50.4492 123.464 50.5567 123.392C50.6647 123.318 50.7894 123.281 50.9309 123.281C51.1193 123.281 51.2611 123.336 51.3552 123.446C51.4496 123.556 51.4966 123.726 51.4966 123.957V125.006H51.1564V123.974C51.1564 123.826 51.1309 123.72 51.0791 123.655C51.0297 123.587 50.9488 123.554 50.8364 123.554C50.7061 123.554 50.603 123.599 50.5265 123.688C50.4504 123.778 50.4121 123.899 50.4121 124.051V125.006H50.0719V123.974C50.0719 123.826 50.046 123.72 49.9942 123.655C49.9448 123.587 49.8639 123.554 49.7519 123.554C49.6217 123.554 49.5193 123.599 49.4452 123.688C49.371 123.778 49.334 123.899 49.334 124.051V125.006H48.9937ZM52.7691 125.036C52.495 125.036 52.2795 124.959 52.1221 124.804C51.9651 124.649 51.8867 124.436 51.8867 124.162C51.8867 123.985 51.9201 123.83 51.9875 123.698C52.0572 123.566 52.1528 123.464 52.2739 123.392C52.3974 123.318 52.5401 123.281 52.7018 123.281C52.8612 123.281 52.9946 123.315 53.1026 123.382C53.2106 123.45 53.2923 123.545 53.3484 123.668C53.4046 123.789 53.4329 123.933 53.4329 124.098V124.206H52.1528V124.011H53.2002L53.1429 124.055C53.1429 123.887 53.105 123.757 53.0285 123.665C52.9544 123.57 52.8464 123.524 52.705 123.524C52.548 123.524 52.4265 123.578 52.3412 123.688C52.256 123.796 52.2134 123.945 52.2134 124.135V124.169C52.2134 124.368 52.2616 124.519 52.358 124.619C52.4568 124.72 52.5962 124.771 52.7759 124.771C52.8747 124.771 52.9668 124.757 53.052 124.73C53.1397 124.701 53.2229 124.654 53.3014 124.589L53.4126 124.821C53.3341 124.89 53.2385 124.944 53.1261 124.982C53.0138 125.018 52.895 125.036 52.7691 125.036Z" fill="#121212"/>
</g>
<defs>
<filter id="filter0_d_1_1409" x="-9.46173" y="2.42963" width="169.525" height="173.394" filterUnits="userSpaceOnUse" color-interpolation-filters="sRGB">
<feFlood flood-opacity="0" result="BackgroundImageFix"/>
<feColorMatrix in="SourceAlpha" type="matrix" values="0 0 0 0 0 0 0 0 0 0 0 0 0 0 0 0 0 0 127 0" result="hardAlpha"/>
<feOffset/>
<feGaussianBlur stdDeviation="12.5"/>
<feColorMatrix type="matrix" values="0 0 0 0 0 0 0 0 0 0 0 0 0 0 0 0 0 0 0.06 0"/>
<feBlend mode="normal" in2="BackgroundImageFix" result="effect1_dropShadow_1_1409"/>
<feBlend mode="normal" in="SourceGraphic" in2="effect1_dropShadow_1_1409" result="shape"/>
</filter>
<clipPath id="clip0_1_1409">
<rect width="151" height="161" fill="white"/>
</clipPath>
</defs>
</svg>
