<svg width="139" height="161" viewBox="0 0 139 161" fill="none" xmlns="http://www.w3.org/2000/svg">
<g clip-path="url(#clip0_1_1440)">
<path d="M69.5 139.313C107.884 139.313 139 108.127 139 69.6564C139 31.1862 107.884 0 69.5 0C31.1162 0 0 31.1862 0 69.6564C0 108.127 31.1162 139.313 69.5 139.313Z" fill="#FEE8F0"/>
<g filter="url(#filter0_d_1_1440)">
<path d="M120.662 31.9795H17.971C15.9454 31.9795 14.3034 33.6252 14.3034 35.6553V148.135C14.3034 150.165 15.9454 151.81 17.971 151.81H120.662C122.688 151.81 124.33 150.165 124.33 148.135V35.6553C124.33 33.6252 122.688 31.9795 120.662 31.9795Z" fill="white"/>
</g>
<path d="M118.022 120.86H22.0786C21.4305 120.86 20.905 121.387 20.905 122.037V134.387C20.905 135.037 21.4305 135.563 22.0786 135.563H118.022C118.67 135.563 119.195 135.037 119.195 134.387V122.037C119.195 121.387 118.67 120.86 118.022 120.86Z" fill="#F9F9F9"/>
<path d="M99.0483 128.559C98.8158 128.559 98.6177 128.512 98.4542 128.417C98.291 128.322 98.1648 128.187 98.0768 128.013C97.9906 127.835 97.9477 127.627 97.9477 127.388C97.9477 127.149 97.9906 126.942 98.0768 126.767C98.1648 126.592 98.291 126.458 98.4542 126.363C98.6177 126.268 98.8158 126.22 99.0483 126.22C99.2097 126.22 99.3538 126.244 99.4807 126.292C99.6076 126.339 99.7184 126.408 99.813 126.499L99.6967 126.767C99.5937 126.679 99.4925 126.615 99.3934 126.576C99.2966 126.538 99.1837 126.518 99.0546 126.518C98.8092 126.518 98.6222 126.593 98.4931 126.744C98.364 126.896 98.2994 127.11 98.2994 127.388C98.2994 127.666 98.364 127.882 98.4931 128.035C98.6222 128.186 98.8092 128.261 99.0546 128.261C99.1837 128.261 99.2966 128.242 99.3934 128.203C99.4925 128.164 99.5937 128.1 99.6967 128.009L99.813 128.278C99.7184 128.368 99.6076 128.438 99.4807 128.488C99.3538 128.535 99.2097 128.559 99.0483 128.559ZM100.088 127.388C100.088 127.149 100.13 126.942 100.213 126.767C100.297 126.592 100.419 126.458 100.578 126.363C100.74 126.268 100.931 126.22 101.153 126.22C101.372 126.22 101.562 126.268 101.721 126.363C101.88 126.458 102.003 126.592 102.089 126.767C102.177 126.942 102.221 127.148 102.221 127.385C102.221 127.624 102.177 127.833 102.089 128.009C102.003 128.184 101.879 128.32 101.718 128.417C101.558 128.512 101.37 128.559 101.153 128.559C100.931 128.559 100.741 128.512 100.581 128.417C100.422 128.32 100.3 128.184 100.213 128.009C100.13 127.833 100.088 127.625 100.088 127.388ZM100.439 127.388C100.439 127.664 100.5 127.88 100.62 128.035C100.741 128.191 100.918 128.268 101.153 128.268C101.381 128.268 101.557 128.191 101.682 128.038C101.807 127.883 101.869 127.666 101.869 127.388C101.869 127.11 101.807 126.894 101.682 126.741C101.559 126.588 101.383 126.511 101.153 126.511C100.918 126.511 100.741 126.588 100.62 126.741C100.5 126.894 100.439 127.11 100.439 127.388ZM102.68 128.53V126.25H103.645C103.888 126.25 104.075 126.309 104.204 126.428C104.335 126.544 104.4 126.706 104.4 126.913C104.4 127.12 104.335 127.283 104.204 127.401C104.075 127.52 103.888 127.579 103.645 127.579H103.016V128.53H102.68ZM103.016 127.311H103.61C103.763 127.311 103.878 127.276 103.955 127.207C104.033 127.138 104.071 127.04 104.071 126.913C104.071 126.787 104.033 126.69 103.955 126.622C103.878 126.553 103.763 126.518 103.61 126.518H103.016V127.311ZM105.35 128.53V127.459L105.425 127.673L104.466 126.25H104.853L105.567 127.34H105.486L106.199 126.25H106.573L105.618 127.673L105.686 127.459V128.53H105.35Z" fill="#40196D"/>
<path d="M111.95 126.006H110.483C109.916 126.006 109.456 126.467 109.456 127.036V128.506C109.456 129.074 109.916 129.535 110.483 129.535H111.95C112.517 129.535 112.977 129.074 112.977 128.506V127.036C112.977 126.467 112.517 126.006 111.95 126.006Z" fill="#DFE3FF" stroke="#40196D" stroke-width="0.8"/>
<path d="M111.07 126.889H109.603C109.036 126.889 108.576 127.349 108.576 127.918V129.388C108.576 129.957 109.036 130.417 109.603 130.417H111.07C111.637 130.417 112.097 129.957 112.097 129.388V127.918C112.097 127.349 111.637 126.889 111.07 126.889Z" fill="#40196D" stroke="#40196D" stroke-width="0.8"/>
<path d="M27.4277 130.205V129.85H28.2557V127.035H28.4751L27.5075 127.64V127.225L28.3704 126.681H28.6697V129.85H29.4478V130.205H27.4277ZM30.2139 130.205V129.895L31.4609 128.59C31.6239 128.42 31.7452 128.259 31.825 128.105C31.9082 127.949 31.9497 127.787 31.9497 127.62C31.9497 127.417 31.8865 127.264 31.7602 127.16C31.6338 127.054 31.4509 127 31.2115 127C31.0253 127 30.8524 127.034 30.6928 127.1C30.5365 127.164 30.3852 127.265 30.2389 127.405L30.0892 127.08C30.2223 126.947 30.3919 126.84 30.598 126.76C30.8042 126.677 31.022 126.635 31.2514 126.635C31.6072 126.635 31.8815 126.719 32.0744 126.885C32.2673 127.049 32.3637 127.282 32.3637 127.585C32.3637 127.809 32.3088 128.022 32.1991 128.225C32.0927 128.425 31.9364 128.632 31.7303 128.845L30.6279 129.965V129.85H32.5133V130.205H30.2139ZM34.2522 130.25C34.0161 130.25 33.7899 130.213 33.5738 130.14C33.3577 130.066 33.1764 129.962 33.0301 129.825L33.1848 129.505C33.3477 129.638 33.5156 129.735 33.6885 129.795C33.8615 129.855 34.0477 129.885 34.2472 129.885C34.5099 129.885 34.7094 129.83 34.8457 129.72C34.982 129.606 35.0502 129.441 35.0502 129.225C35.0502 129.018 34.9804 128.862 34.8407 128.755C34.7011 128.645 34.4966 128.59 34.2272 128.59H33.6985V128.245H34.1923C34.4251 128.245 34.6096 128.185 34.746 128.065C34.8823 127.945 34.9505 127.782 34.9505 127.575C34.9505 127.388 34.8873 127.247 34.7609 127.15C34.6379 127.05 34.46 127 34.2272 127C33.8482 127 33.5206 127.135 33.2446 127.405L33.09 127.08C33.2263 126.94 33.3976 126.832 33.6037 126.756C33.8099 126.675 34.0261 126.635 34.2522 126.635C34.598 126.635 34.869 126.715 35.0652 126.875C35.2614 127.035 35.3595 127.257 35.3595 127.54C35.3595 127.757 35.298 127.944 35.1749 128.1C35.0519 128.253 34.8856 128.359 34.6761 128.415V128.36C34.9255 128.4 35.1184 128.5 35.2547 128.66C35.3911 128.817 35.4592 129.015 35.4592 129.255C35.4592 129.562 35.3511 129.805 35.135 129.985C34.9222 130.162 34.6279 130.25 34.2522 130.25ZM37.6917 130.205V129.44H36.0159V129.14L37.7567 126.681H38.0959V129.105H38.6347V129.44H38.0959V130.205H37.6917ZM37.6917 129.105V127.17H37.8014L36.3551 129.21V129.105H37.6917ZM40.3184 130.25C40.1655 130.25 40.0159 130.233 39.8695 130.2C39.7232 130.166 39.5853 130.118 39.4555 130.055C39.3293 129.991 39.2178 129.915 39.1214 129.825L39.2761 129.505C39.439 129.635 39.6051 129.731 39.7749 129.795C39.9443 129.855 40.1255 129.885 40.3184 129.885C40.5711 129.885 40.7692 129.816 40.9122 129.68C41.0549 129.543 41.1264 129.363 41.1264 129.14C41.1264 128.91 41.0586 128.722 40.9221 128.575C40.7857 128.428 40.5961 128.355 40.3533 128.355C40.1805 128.355 40.0258 128.39 39.8897 128.46C39.7533 128.527 39.6352 128.632 39.5354 128.775H39.2361V126.681H41.3211V127.03H39.6352V128.435H39.5255C39.6154 128.295 39.7382 128.188 39.8945 128.115C40.054 128.038 40.2337 128 40.4332 128C40.6595 128 40.8539 128.047 41.0167 128.14C41.1832 128.234 41.3112 128.363 41.4007 128.53C41.4906 128.697 41.5357 128.892 41.5357 129.115C41.5357 129.338 41.4858 129.537 41.3861 129.71C41.2896 129.88 41.1499 130.013 40.9669 130.11C40.7875 130.203 40.5711 130.25 40.3184 130.25ZM43.3592 130.25C42.9334 130.25 42.6044 130.1 42.3715 129.8C42.1419 129.497 42.0275 129.073 42.0275 128.53C42.0275 128.124 42.0855 127.78 42.2021 127.5C42.3184 127.217 42.4845 127.002 42.7009 126.855C42.9169 126.709 43.178 126.635 43.4839 126.635C43.6669 126.635 43.8514 126.674 44.0373 126.75C44.2236 126.824 44.3766 126.927 44.4965 127.06L44.3469 127.38C44.2203 127.25 44.0824 127.155 43.9328 127.095C43.7832 127.032 43.6317 127 43.4788 127C43.1395 127 42.8788 127.122 42.6957 127.365C42.516 127.605 42.4265 127.967 42.4265 128.45V128.915H42.3814C42.4049 128.725 42.4614 128.562 42.5512 128.425C42.6444 128.285 42.7654 128.178 42.9151 128.105C43.0647 128.032 43.2312 127.995 43.4138 127.995C43.6269 127.995 43.8147 128.042 43.9776 128.135C44.1408 128.228 44.2688 128.36 44.3615 128.53C44.4547 128.697 44.5013 128.888 44.5013 129.105C44.5013 129.325 44.4532 129.522 44.3568 129.695C44.2603 129.868 44.1257 130.005 43.9526 130.105C43.7799 130.202 43.5818 130.25 43.3592 130.25ZM43.3291 129.9C43.4821 129.9 43.617 129.868 43.7333 129.805C43.8529 129.738 43.9445 129.647 44.0076 129.53C44.074 129.41 44.1074 129.273 44.1074 129.12C44.1074 128.967 44.074 128.832 44.0076 128.715C43.9445 128.599 43.8529 128.507 43.7333 128.44C43.617 128.374 43.4821 128.34 43.3291 128.34C43.1762 128.34 43.0416 128.374 42.9253 128.44C42.8087 128.507 42.7174 128.599 42.651 128.715C42.5875 128.832 42.556 128.967 42.556 129.12C42.556 129.273 42.5875 129.41 42.651 129.53C42.7174 129.647 42.8087 129.738 42.9253 129.805C43.0416 129.868 43.1762 129.9 43.3291 129.9Z" fill="black"/>
<path d="M21.2407 118.361V115.666H22.3354C22.6176 115.666 22.835 115.734 22.9876 115.872C23.1402 116.007 23.2164 116.196 23.2164 116.438C23.2164 116.675 23.1402 116.864 22.9876 117.004C22.835 117.141 22.6176 117.21 22.3354 117.21H21.5572V118.361H21.2407ZM21.5572 116.946H22.3048C22.5006 116.946 22.6481 116.902 22.7473 116.812C22.849 116.723 22.8999 116.599 22.8999 116.438C22.8999 116.275 22.849 116.149 22.7473 116.059C22.6481 115.97 22.5006 115.926 22.3048 115.926H21.5572V116.946ZM24.3262 118.395C24.1558 118.395 24.0071 118.356 23.8799 118.277C23.7528 118.195 23.6536 118.08 23.5824 117.932C23.5138 117.785 23.4794 117.608 23.4794 117.401C23.4794 117.192 23.5138 117.014 23.5824 116.866C23.6536 116.718 23.7528 116.605 23.8799 116.526C24.0071 116.447 24.1558 116.407 24.3262 116.407C24.4991 116.407 24.6479 116.452 24.7725 116.541C24.8996 116.628 24.9835 116.746 25.0242 116.897H24.9784L25.0204 116.442H25.3179C25.3103 116.515 25.3027 116.591 25.295 116.667C25.2899 116.741 25.2874 116.814 25.2874 116.885V118.361H24.9784V117.91H25.0204C24.9797 118.06 24.8958 118.178 24.7687 118.265C24.6415 118.352 24.494 118.395 24.3262 118.395ZM24.3872 118.143C24.5703 118.143 24.7153 118.08 24.8221 117.956C24.9289 117.828 24.9823 117.643 24.9823 117.401C24.9823 117.157 24.9289 116.972 24.8221 116.847C24.7153 116.719 24.5703 116.656 24.3872 116.656C24.2067 116.656 24.0617 116.719 23.9524 116.847C23.8456 116.972 23.7922 117.157 23.7922 117.401C23.7922 117.643 23.8456 117.828 23.9524 117.956C24.0617 118.08 24.2067 118.143 24.3872 118.143ZM25.7898 119.229L25.7174 118.972C25.8369 118.944 25.936 118.911 26.0149 118.873C26.0962 118.837 26.1636 118.789 26.217 118.728C26.2704 118.667 26.3162 118.59 26.3544 118.498L26.4535 118.273L26.4459 118.403L25.6106 116.442H25.9462L26.6366 118.128H26.5374L27.2202 116.442H27.5444L26.6595 118.521C26.6086 118.644 26.5527 118.746 26.4917 118.827C26.4306 118.911 26.3645 118.979 26.2933 119.03C26.2247 119.083 26.1484 119.125 26.0645 119.156C25.9806 119.186 25.889 119.211 25.7898 119.229ZM28.9213 118.361V115.666H29.2379V118.361H28.9213ZM29.9084 118.361V115.666H30.8009C31.0984 115.666 31.3502 115.718 31.5562 115.822C31.7621 115.924 31.9185 116.076 32.0253 116.277C32.1321 116.476 32.1855 116.721 32.1855 117.011C32.1855 117.299 32.1321 117.544 32.0253 117.745C31.9185 117.946 31.7621 118.099 31.5562 118.204C31.3502 118.309 31.0984 118.361 30.8009 118.361H29.9084ZM30.225 118.089H30.778C31.1442 118.089 31.4163 118 31.5943 117.822C31.7723 117.641 31.8613 117.37 31.8613 117.011C31.8613 116.649 31.7723 116.379 31.5943 116.201C31.4163 116.023 31.1442 115.933 30.778 115.933H30.225V118.089Z" fill="black"/>
<path d="M58.2344 153.322C57.9175 153.322 57.6402 153.256 57.4026 153.123C57.1679 152.988 56.9874 152.8 56.8612 152.559C56.7351 152.315 56.672 152.031 56.672 151.708C56.672 151.387 56.7351 151.106 56.8612 150.865C56.9874 150.621 57.1679 150.433 57.4026 150.3C57.6402 150.168 57.9175 150.102 58.2344 150.102C58.4427 150.102 58.6407 150.134 58.8285 150.199C59.0192 150.261 59.1747 150.349 59.295 150.464L59.0794 150.958C58.9385 150.852 58.8006 150.775 58.6657 150.728C58.5336 150.678 58.3943 150.653 58.2476 150.653C57.9659 150.653 57.7503 150.743 57.6006 150.922C57.451 151.102 57.3762 151.364 57.3762 151.708C57.3762 152.055 57.451 152.319 57.6006 152.502C57.7503 152.681 57.9659 152.771 58.2476 152.771C58.3943 152.771 58.5336 152.747 58.6657 152.7C58.8006 152.65 58.9385 152.572 59.0794 152.466L59.295 152.96C59.1747 153.075 59.0192 153.165 58.8285 153.229C58.6407 153.291 58.4427 153.322 58.2344 153.322Z" fill="white"/>
<path d="M60.7555 153.318C60.5178 153.318 60.3095 153.271 60.1305 153.176C59.9545 153.082 59.818 152.947 59.7212 152.771C59.6273 152.594 59.5804 152.388 59.5804 152.153C59.5804 151.918 59.6273 151.712 59.7212 151.536C59.818 151.359 59.9545 151.224 60.1305 151.13C60.3095 151.036 60.5178 150.989 60.7555 150.989C60.9902 150.989 61.1956 151.036 61.3716 151.13C61.5477 151.224 61.6826 151.359 61.7765 151.536C61.8733 151.712 61.9217 151.918 61.9217 152.153C61.9217 152.388 61.8733 152.594 61.7765 152.771C61.6826 152.947 61.5477 153.082 61.3716 153.176C61.1956 153.271 60.9902 153.318 60.7555 153.318ZM60.7555 152.81C60.9198 152.81 61.0445 152.756 61.1296 152.647C61.2176 152.538 61.2616 152.374 61.2616 152.153C61.2616 151.935 61.2176 151.772 61.1296 151.663C61.0445 151.552 60.9198 151.496 60.7555 151.496C60.5882 151.496 60.4606 151.552 60.3726 151.663C60.2846 151.772 60.2405 151.935 60.2405 152.153C60.2405 152.591 60.4122 152.81 60.7555 152.81Z" fill="white"/>
<path d="M63.7108 150.989C63.9015 150.989 64.0716 151.039 64.2213 151.139C64.3709 151.236 64.4868 151.374 64.569 151.553C64.654 151.733 64.6966 151.937 64.6966 152.166C64.6966 152.396 64.6555 152.599 64.5734 152.775C64.4912 152.949 64.3753 153.082 64.2257 153.176C64.076 153.271 63.9044 153.318 63.7108 153.318C63.5552 153.318 63.4159 153.285 63.2927 153.221C63.1694 153.156 63.0755 153.066 63.011 152.951V154.235H62.3464V151.686C62.3464 151.447 62.3347 151.234 62.3112 151.046H62.9362L62.9802 151.416C63.0389 151.284 63.1327 151.18 63.2618 151.103C63.3939 151.027 63.5435 150.989 63.7108 150.989ZM63.5215 152.81C63.6858 152.81 63.812 152.756 63.9 152.647C63.988 152.535 64.032 152.375 64.032 152.166C64.032 151.958 63.9866 151.794 63.8956 151.677C63.8076 151.559 63.6829 151.5 63.5215 151.5C63.3572 151.5 63.2296 151.558 63.1386 151.672C63.0506 151.784 63.0066 151.946 63.0066 152.158C63.0066 152.369 63.0506 152.531 63.1386 152.643C63.2296 152.754 63.3572 152.81 63.5215 152.81Z" fill="white"/>
<path d="M67.2804 151.046L66.2506 153.401C66.1244 153.687 65.9645 153.895 65.7708 154.028C65.5801 154.163 65.3454 154.25 65.0667 154.288L64.9126 153.776C65.118 153.732 65.2721 153.676 65.3747 153.609C65.4804 153.541 65.5625 153.443 65.6212 153.313L65.6872 153.168L64.7674 151.046H65.4628L66.0349 152.497L66.6246 151.046H67.2804Z" fill="white"/>
<path d="M68.7815 150.142H70.203C70.5493 150.142 70.8177 150.226 71.0084 150.393C71.2021 150.561 71.2989 150.789 71.2989 151.077C71.2989 151.362 71.2021 151.59 71.0084 151.761C70.8148 151.928 70.5463 152.012 70.203 152.012H69.4681V153.282H68.7815V150.142ZM70.115 151.487C70.473 151.487 70.6519 151.352 70.6519 151.081C70.6519 150.808 70.473 150.671 70.115 150.671H69.4681V151.487H70.115Z" fill="white"/>
<path d="M73.8571 151.046V153.282H73.2013V152.951C73.1338 153.066 73.0385 153.156 72.9152 153.221C72.792 153.285 72.6526 153.318 72.4971 153.318C72.3035 153.318 72.1318 153.271 71.9822 153.176C71.8355 153.082 71.7196 152.949 71.6345 152.775C71.5524 152.599 71.5113 152.396 71.5113 152.166C71.5113 151.937 71.5524 151.733 71.6345 151.553C71.7196 151.374 71.837 151.236 71.9866 151.139C72.1362 151.039 72.3064 150.989 72.4971 150.989C72.6526 150.989 72.792 151.022 72.9152 151.09C73.0385 151.158 73.1338 151.249 73.2013 151.364V151.046H73.8571ZM72.6908 152.81C72.8551 152.81 72.9812 152.754 73.0693 152.643C73.1573 152.531 73.2013 152.369 73.2013 152.158C73.2013 151.946 73.1573 151.784 73.0693 151.672C72.9812 151.558 72.8551 151.5 72.6908 151.5C72.5265 151.5 72.3988 151.559 72.3079 151.677C72.2169 151.794 72.1715 151.958 72.1715 152.166C72.1715 152.375 72.2155 152.535 72.3035 152.647C72.3944 152.756 72.5235 152.81 72.6908 152.81Z" fill="white"/>
<path d="M76.5941 151.046L75.5643 153.401C75.4381 153.687 75.2782 153.895 75.0846 154.028C74.8938 154.163 74.6591 154.25 74.3804 154.288L74.2263 153.776C74.4317 153.732 74.5858 153.676 74.6885 153.609C74.7941 153.541 74.8762 153.443 74.9349 153.313L75.0009 153.168L74.0811 151.046H74.7765L75.3486 152.497L75.9384 151.046H76.5941Z" fill="white"/>
<path d="M78.0953 150.142H78.7818V153.282H78.0953V150.142Z" fill="white"/>
<path d="M79.4105 150.142H80.6208C80.964 150.142 81.2589 150.203 81.5054 150.327C81.7518 150.45 81.9396 150.63 82.0687 150.865C82.2007 151.1 82.2667 151.381 82.2667 151.708C82.2667 152.037 82.2022 152.319 82.0731 152.554C81.944 152.79 81.7562 152.971 81.5098 153.097C81.2633 153.221 80.967 153.282 80.6208 153.282H79.4105V150.142ZM80.5767 152.727C81.2457 152.727 81.5802 152.387 81.5802 151.708C81.5802 151.034 81.2457 150.697 80.5767 150.697H80.097V152.727H80.5767Z" fill="white"/>
<path d="M78.2332 72.7191H61.9214C59.7667 72.7191 58.0041 70.958 58.0041 68.8043V52.5103C58.0041 50.3566 59.7667 48.5955 61.9214 48.5955H78.2258C80.3809 48.5955 82.1431 50.3566 82.1431 52.5103V68.8043C82.1505 70.958 80.3879 72.7191 78.2332 72.7191Z" fill="#F4E6FF"/>
<path d="M45.815 81.4597L44.0839 84.024V85.6472H43.1685V84.0181L41.4433 81.4597H42.4819L43.6204 83.2477L44.7705 81.4597H45.815Z" fill="black"/>
<path d="M46.81 85.6943C46.4931 85.6943 46.2151 85.6318 45.9767 85.5061C45.742 85.3807 45.5601 85.2002 45.431 84.965C45.3056 84.7297 45.2432 84.4555 45.2432 84.1416C45.2432 83.8281 45.3056 83.5535 45.431 83.3182C45.5601 83.083 45.742 82.9029 45.9767 82.7772C46.2151 82.6518 46.4931 82.589 46.81 82.589C47.1228 82.589 47.3968 82.6518 47.6315 82.7772C47.8663 82.9029 48.046 83.083 48.1714 83.3182C48.3005 83.5535 48.365 83.8281 48.365 84.1416C48.365 84.4555 48.3005 84.7297 48.1714 84.965C48.046 85.2002 47.8663 85.3807 47.6315 85.5061C47.3968 85.6318 47.1228 85.6943 46.81 85.6943ZM46.81 85.0179C47.029 85.0179 47.1951 84.9455 47.3088 84.8003C47.4261 84.6555 47.4848 84.4357 47.4848 84.1416C47.4848 83.8516 47.4261 83.634 47.3088 83.4888C47.1951 83.3399 47.029 83.2653 46.81 83.2653C46.587 83.2653 46.4168 83.3399 46.2995 83.4888C46.1821 83.634 46.1234 83.8516 46.1234 84.1416C46.1234 84.7261 46.3523 85.0179 46.81 85.0179Z" fill="black"/>
<path d="M51.7714 82.6654V85.6472H50.9088V85.212C50.815 85.369 50.6917 85.4884 50.5391 85.5708C50.3866 85.6531 50.2146 85.6943 50.0228 85.6943C49.6512 85.6943 49.3732 85.5906 49.1895 85.3826C49.0058 85.1749 48.9137 84.8613 48.9137 84.4416V82.6654H49.7998V84.4592C49.7998 84.8202 49.9542 85.0003 50.2634 85.0003C50.4471 85.0003 50.596 84.9378 50.7093 84.8121C50.8227 84.6867 50.8795 84.5221 50.8795 84.318V82.6654H51.7714Z" fill="black"/>
<path d="M54.221 82.5948C54.3461 82.5948 54.4517 82.6147 54.5379 82.6536L54.532 83.4653C54.3872 83.3987 54.2427 83.3653 54.0978 83.3653C53.8631 83.3653 53.683 83.43 53.5579 83.5594C53.4365 83.6851 53.376 83.8615 53.376 84.0887V85.6472H52.4899V83.5182C52.4899 83.2006 52.4742 82.9165 52.443 82.6654H53.2763L53.3349 83.1771C53.4094 82.9889 53.5245 82.8459 53.6812 82.7478C53.8414 82.6459 54.0215 82.5948 54.221 82.5948Z" fill="black"/>
<path d="M56.606 81.4597H58.5014C58.9628 81.4597 59.3207 81.5715 59.5753 81.795C59.8335 82.0185 59.9626 82.3225 59.9626 82.7066C59.9626 83.087 59.8335 83.391 59.5753 83.6182C59.3171 83.8417 58.9591 83.9534 58.5014 83.9534H57.5214V85.6472H56.606V81.4597ZM58.384 83.2535C58.8612 83.2535 59.1 83.0734 59.1 82.7125C59.1 82.3478 58.8612 82.1655 58.384 82.1655H57.5214V83.2535H58.384Z" fill="black"/>
<path d="M63.3733 82.6654V85.6472H62.499V85.2061C62.4092 85.359 62.2819 85.4789 62.1176 85.5649C61.9533 85.6513 61.7673 85.6943 61.5601 85.6943C61.3019 85.6943 61.0731 85.6318 60.8736 85.5061C60.6781 85.3807 60.5233 85.2025 60.41 84.9709C60.3003 84.7356 60.2457 84.4651 60.2457 84.1593C60.2457 83.8534 60.3003 83.5811 60.41 83.3418C60.5233 83.1028 60.6799 82.9183 60.8794 82.7889C61.0789 82.6559 61.306 82.589 61.5601 82.589C61.7673 82.589 61.9533 82.6342 62.1176 82.7242C62.2819 82.8147 62.4092 82.936 62.499 83.0889V82.6654H63.3733ZM61.8183 85.0179C62.0373 85.0179 62.2056 84.9437 62.323 84.7944C62.4403 84.6456 62.499 84.4298 62.499 84.1475C62.499 83.8652 62.4403 83.6498 62.323 83.5006C62.2056 83.3476 62.0373 83.2712 61.8183 83.2712C61.5994 83.2712 61.4292 83.3498 61.3078 83.5064C61.1864 83.6634 61.1259 83.881 61.1259 84.1593C61.1259 84.4379 61.1846 84.6515 61.3019 84.8003C61.4233 84.9455 61.5953 85.0179 61.8183 85.0179Z" fill="black"/>
<path d="M67.0225 82.6654L65.6494 85.806C65.4811 86.1865 65.268 86.4647 65.0098 86.6412C64.7556 86.8216 64.4424 86.9374 64.0709 86.9882L63.8655 86.3059C64.1395 86.2471 64.3449 86.1729 64.4817 86.0824C64.6225 85.9924 64.7322 85.8612 64.8103 85.6884L64.8983 85.4943L63.6719 82.6654H64.599L65.3619 84.6004L66.1482 82.6654H67.0225Z" fill="black"/>
<path d="M69.0239 85.6472V81.4597H69.9393V85.6472H69.0239Z" fill="black"/>
<path d="M70.7774 81.4597H72.3911C72.8488 81.4597 73.242 81.5421 73.5706 81.7068C73.8992 81.8714 74.1497 82.1107 74.3217 82.4243C74.4978 82.7382 74.5858 83.1124 74.5858 83.5476C74.5858 83.9869 74.5 84.3633 74.3276 84.6768C74.1556 84.9907 73.9051 85.2319 73.5765 85.4002C73.2479 85.5649 72.8529 85.6472 72.3911 85.6472H70.7774V81.4597ZM72.3324 84.9062C73.2244 84.9062 73.6704 84.4533 73.6704 83.5476C73.6704 82.65 73.2244 82.2008 72.3324 82.2008H71.6928V84.9062H72.3324Z" fill="black"/>
<path d="M76.8963 85.6472V82.6654H77.7824V85.6472H76.8963ZM76.867 81.2657H77.8118V82.1008H76.867V81.2657Z" fill="black"/>
<path d="M79.6452 85.6943C79.0818 85.6943 78.6377 85.573 78.3131 85.3296L78.5478 84.7121C78.7041 84.8261 78.8783 84.9143 79.0701 84.9768C79.2615 85.0356 79.4574 85.065 79.6569 85.065C79.8095 85.065 79.9268 85.0415 80.009 84.9944C80.0911 84.9474 80.1322 84.879 80.1322 84.7886C80.1322 84.7143 80.1029 84.6555 80.0442 84.6121C79.9855 84.5691 79.8817 84.532 79.7332 84.5004L79.2461 84.3886C78.9604 84.3261 78.7492 84.2262 78.6124 84.0887C78.4792 83.9516 78.4129 83.7693 78.4129 83.5417C78.4129 83.3576 78.4657 83.1929 78.5713 83.0477C78.6806 82.9029 78.8313 82.7911 79.0231 82.7125C79.2146 82.6301 79.4357 82.589 79.6862 82.589C79.8975 82.589 80.1047 82.6224 80.3083 82.6889C80.5114 82.7518 80.6933 82.8419 80.854 82.9595L80.6075 83.5535C80.455 83.4476 80.2984 83.3675 80.1381 83.3124C79.9815 83.2576 79.8289 83.23 79.6804 83.23C79.5355 83.23 79.4222 83.2557 79.34 83.3065C79.2579 83.3576 79.2168 83.4281 79.2168 83.5182C79.2168 83.5851 79.2403 83.6399 79.2872 83.6829C79.3378 83.7222 79.4258 83.7557 79.5513 83.7829L80.0501 83.8946C80.3552 83.9652 80.576 84.071 80.7132 84.2122C80.85 84.3533 80.9185 84.5415 80.9185 84.7768C80.9185 85.0591 80.8048 85.2826 80.5782 85.4473C80.3512 85.6119 80.0402 85.6943 79.6452 85.6943Z" fill="black"/>
<path d="M84.8395 82.5948C84.9645 82.5948 85.0702 82.6147 85.156 82.6536L85.1505 83.4653C85.0056 83.3987 84.8608 83.3653 84.7163 83.3653C84.4815 83.3653 84.3015 83.43 84.1764 83.5594C84.055 83.6851 83.9945 83.8615 83.9945 84.0887V85.6472H83.1084V83.5182C83.1084 83.2006 83.0926 82.9165 83.0615 82.6654H83.8944L83.9534 83.1771C84.0275 82.9889 84.143 82.8459 84.2996 82.7478C84.4599 82.6459 84.64 82.5948 84.8395 82.5948Z" fill="black"/>
<path d="M88.1278 84.2298H86.1679C86.1833 84.5085 86.2559 84.7121 86.385 84.8415C86.5141 84.9672 86.7056 85.0297 86.9601 85.0297C87.1127 85.0297 87.2652 85.0043 87.4178 84.9532C87.5704 84.9025 87.7112 84.8279 87.8403 84.7297L88.075 85.3296C87.9342 85.4436 87.7581 85.5336 87.5469 85.6002C87.3393 85.663 87.1303 85.6943 86.919 85.6943C86.418 85.6943 86.0249 85.5572 85.7395 85.2826C85.4538 85.0043 85.3112 84.6261 85.3112 84.1475C85.3112 83.8457 85.3717 83.577 85.4931 83.3418C85.6181 83.1028 85.7923 82.9183 86.0153 82.7889C86.2383 82.6559 86.4906 82.589 86.7723 82.589C87.1908 82.589 87.5212 82.7264 87.764 83.0006C88.0064 83.2712 88.1278 83.638 88.1278 84.1004V84.2298ZM86.7958 83.2124C86.6274 83.2124 86.4906 83.2616 86.385 83.3594C86.2831 83.4576 86.2167 83.6005 86.1855 83.7887H87.365C87.318 83.4046 87.1281 83.2124 86.7958 83.2124Z" fill="black"/>
<path d="M91.6652 82.6654V85.6472H90.7908V85.2061C90.7006 85.359 90.5737 85.4789 90.4094 85.5649C90.2451 85.6513 90.0591 85.6943 89.8519 85.6943C89.5937 85.6943 89.3649 85.6318 89.1654 85.5061C88.9695 85.3807 88.8151 85.2025 88.7018 84.9709C88.5921 84.7356 88.5375 84.4651 88.5375 84.1593C88.5375 83.8534 88.5921 83.5811 88.7018 83.3418C88.8151 83.1028 88.9717 82.9183 89.1712 82.7889C89.3707 82.6559 89.5974 82.589 89.8519 82.589C90.0591 82.589 90.2451 82.6342 90.4094 82.7242C90.5737 82.8147 90.7006 82.936 90.7908 83.0889V82.6654H91.6652ZM90.1101 85.0179C90.3291 85.0179 90.4974 84.9437 90.6148 84.7944C90.7321 84.6456 90.7908 84.4298 90.7908 84.1475C90.7908 83.8652 90.7321 83.6498 90.6148 83.5006C90.4974 83.3476 90.3291 83.2712 90.1101 83.2712C89.8908 83.2712 89.7206 83.3498 89.5996 83.5064C89.4782 83.6634 89.4177 83.881 89.4177 84.1593C89.4177 84.4379 89.4764 84.6515 89.5937 84.8003C89.7148 84.9455 89.8871 85.0179 90.1101 85.0179Z" fill="black"/>
<path d="M95.3613 81.3186V85.6472H94.487V85.2061C94.3968 85.359 94.2699 85.4789 94.1056 85.5649C93.9413 85.6513 93.7553 85.6943 93.5481 85.6943C93.2936 85.6943 93.0669 85.6296 92.8674 85.5002C92.6679 85.3671 92.5113 85.1826 92.398 84.9474C92.2883 84.7084 92.2336 84.4357 92.2336 84.1299C92.2336 83.824 92.2883 83.5557 92.398 83.3241C92.5113 83.0889 92.6657 82.9088 92.8615 82.783C93.061 82.6537 93.2899 82.589 93.5481 82.589C93.7476 82.589 93.9295 82.6323 94.0938 82.7183C94.2581 82.8007 94.385 82.9165 94.4752 83.0653V81.3186H95.3613ZM93.8063 85.0179C94.0252 85.0179 94.1936 84.9437 94.3109 84.7944C94.4283 84.6415 94.487 84.4239 94.487 84.1416C94.487 83.8634 94.4261 83.6498 94.3051 83.5006C94.1877 83.3476 94.0212 83.2712 93.8063 83.2712C93.587 83.2712 93.4168 83.3458 93.2958 83.4947C93.1744 83.6439 93.1139 83.8556 93.1139 84.1299C93.1139 84.4122 93.1744 84.632 93.2958 84.7886C93.4168 84.9415 93.587 85.0179 93.8063 85.0179Z" fill="black"/>
<path d="M99.0105 82.6654L97.6374 85.806C97.4691 86.1865 97.256 86.4647 96.9978 86.6412C96.7436 86.8216 96.4304 86.9374 96.0589 86.9882L95.8535 86.3059C96.1275 86.2471 96.3328 86.1729 96.4696 86.0824C96.6105 85.9924 96.7201 85.8612 96.7983 85.6884L96.8863 85.4943L95.6599 82.6654H96.587L97.3499 84.6004L98.1362 82.6654H99.0105Z" fill="black"/>
<path d="M98.9973 84.7003H99.9538V85.6472H98.9973V84.7003Z" fill="black"/>
<path d="M28.6069 94.4695V91.3289H28.9678V94.4695H28.6069Z" fill="black"/>
<path d="M30.1728 92.5331V93.7461C30.1728 93.9108 30.2066 94.0269 30.2741 94.0946C30.3415 94.1593 30.4369 94.1916 30.5601 94.1916C30.6423 94.1916 30.7215 94.1784 30.7978 94.1519V94.4563C30.7068 94.4857 30.6041 94.5004 30.4897 94.5004C30.2785 94.5004 30.1127 94.4416 29.9924 94.3239C29.875 94.2034 29.8164 94.0269 29.8164 93.7946V92.5331H29.385V92.2508H29.8164V91.6818L30.1728 91.5539V92.2508H30.8066V92.5331H30.1728Z" fill="black"/>
<path d="M35.394 92.2508H35.7461L34.9275 94.4695H34.5842L33.9505 92.736L33.3211 94.4695H32.9778L32.1592 92.2508H32.5333L33.1583 94.0416L33.8052 92.2508H34.1177L34.7559 94.0461L35.394 92.2508Z" fill="black"/>
<path d="M36.2089 94.4695V92.2508H36.5653V94.4695H36.2089ZM36.1736 91.3113H36.6094V91.7171H36.1736V91.3113Z" fill="black"/>
<path d="M37.2575 94.4695V91.223H37.614V94.4695H37.2575Z" fill="black"/>
<path d="M38.306 94.4695V91.223H38.6625V94.4695H38.306Z" fill="black"/>
<path d="M42.3554 93.3491H40.7314C40.7343 93.6314 40.7989 93.8446 40.925 93.9887C41.0541 94.1328 41.2404 94.2049 41.484 94.2049C41.7421 94.2049 41.9798 94.1181 42.1969 93.9446L42.3158 94.2049C42.2189 94.296 42.0942 94.3681 41.9417 94.421C41.792 94.4739 41.638 94.5004 41.4796 94.5004C41.1333 94.5004 40.8619 94.3989 40.6654 94.196C40.4688 93.9902 40.3705 93.7094 40.3705 93.3535C40.3705 93.1271 40.4145 92.9271 40.5025 92.7536C40.5905 92.5772 40.7138 92.4405 40.8722 92.3434C41.0306 92.2464 41.2111 92.1979 41.4135 92.1979C41.7069 92.1979 41.9373 92.2949 42.1045 92.489C42.2717 92.6801 42.3554 92.9448 42.3554 93.283V93.3491ZM41.4179 92.4758C41.2331 92.4758 41.082 92.5316 40.9646 92.6434C40.8502 92.7551 40.7768 92.9124 40.7446 93.1153H42.0341C42.0165 92.9066 41.9549 92.7478 41.8492 92.639C41.7465 92.5302 41.6028 92.4758 41.4179 92.4758Z" fill="black"/>
<path d="M43.9137 93.3271L44.8248 94.4695H44.3979L43.6981 93.5961L43.0071 94.4695H42.5714L43.4912 93.3271L42.6242 92.2508H43.0555L43.6981 93.0668L44.3406 92.2508H44.7763L43.9137 93.3271Z" fill="black"/>
<path d="M46.3263 92.1979C46.5199 92.1979 46.6916 92.2464 46.8412 92.3434C46.9908 92.4405 47.1067 92.5772 47.1889 92.7536C47.271 92.9271 47.3121 93.1286 47.3121 93.3579C47.3121 93.5873 47.271 93.7887 47.1889 93.9622C47.1067 94.1328 46.9908 94.2651 46.8412 94.3592C46.6945 94.4533 46.5229 94.5004 46.3263 94.5004C46.1532 94.5004 46.0021 94.4622 45.873 94.3857C45.7439 94.3092 45.6456 94.2004 45.5781 94.0593V95.4223H45.2216V92.8727C45.2216 92.6434 45.2099 92.4361 45.1864 92.2508H45.5253L45.5605 92.6787C45.6221 92.5257 45.7189 92.4081 45.851 92.3258C45.9859 92.2405 46.1444 92.1979 46.3263 92.1979ZM46.2603 94.2049C46.4774 94.2049 46.6446 94.1313 46.762 93.9843C46.8823 93.8373 46.9424 93.6285 46.9424 93.3579C46.9424 93.0874 46.8823 92.8772 46.762 92.7272C46.6417 92.5743 46.4744 92.4978 46.2603 92.4978C46.0402 92.4978 45.8715 92.5713 45.7541 92.7184C45.6368 92.8654 45.5781 93.0756 45.5781 93.3491C45.5781 93.6226 45.6368 93.8343 45.7541 93.9843C45.8715 94.1313 46.0402 94.2049 46.2603 94.2049Z" fill="black"/>
<path d="M47.8604 94.4695V92.2508H48.2169V94.4695H47.8604ZM47.8252 91.3113H48.2609V91.7171H47.8252V91.3113Z" fill="black"/>
<path d="M49.9391 92.1979C50.0125 92.1979 50.08 92.2067 50.1416 92.2243L50.1328 92.5507C50.0653 92.5272 49.9876 92.5155 49.8995 92.5155C49.6853 92.5155 49.5254 92.5831 49.4198 92.7184C49.3171 92.8507 49.2658 93.0124 49.2658 93.2036V94.4695H48.9093V92.8727C48.9093 92.6434 48.8976 92.4361 48.8741 92.2508H49.213L49.2482 92.661C49.3039 92.511 49.3934 92.3964 49.5166 92.317C49.6399 92.2376 49.7807 92.1979 49.9391 92.1979Z" fill="black"/>
<path d="M52.3135 93.3491H50.6895C50.6924 93.6314 50.757 93.8446 50.8831 93.9887C51.0122 94.1328 51.1986 94.2049 51.4421 94.2049C51.7003 94.2049 51.9379 94.1181 52.155 93.9446L52.2739 94.2049C52.1771 94.296 52.0524 94.3681 51.8998 94.421C51.7502 94.4739 51.5961 94.5004 51.4377 94.5004C51.0915 94.5004 50.8201 94.3989 50.6235 94.196C50.4269 93.9902 50.3286 93.7094 50.3286 93.3535C50.3286 93.1271 50.3726 92.9271 50.4606 92.7536C50.5487 92.5772 50.6719 92.4405 50.8303 92.3434C50.9888 92.2464 51.1692 92.1979 51.3717 92.1979C51.6651 92.1979 51.8954 92.2949 52.0626 92.489C52.2299 92.6801 52.3135 92.9448 52.3135 93.283V93.3491ZM51.3761 92.4758C51.1912 92.4758 51.0401 92.5316 50.9228 92.6434C50.8083 92.7551 50.735 92.9124 50.7027 93.1153H51.9922C51.9746 92.9066 51.913 92.7478 51.8074 92.639C51.7047 92.5302 51.5609 92.4758 51.3761 92.4758Z" fill="black"/>
<path d="M54.0021 94.4695V92.2508H54.3585V94.4695H54.0021ZM53.9669 91.3113H54.4026V91.7171H53.9669V91.3113Z" fill="black"/>
<path d="M56.1556 92.1979C56.6867 92.1979 56.9522 92.4905 56.9522 93.0756V94.4695H56.5957V93.0933C56.5957 92.8874 56.5546 92.7375 56.4725 92.6434C56.3903 92.5463 56.2612 92.4978 56.0852 92.4978C55.8798 92.4978 55.7155 92.561 55.5923 92.6875C55.4691 92.8139 55.4074 92.9845 55.4074 93.1992V94.4695H55.051V92.8727C55.051 92.6434 55.0392 92.4361 55.0157 92.2508H55.3546L55.3898 92.6478C55.4573 92.5037 55.5585 92.3934 55.6935 92.317C55.8285 92.2376 55.9825 92.1979 56.1556 92.1979Z" fill="black"/>
<path d="M60.0491 94.1651H60.7401V94.4695H58.9929V94.1651H59.6838V91.7788L59.0413 92.189V91.8406L59.8423 91.3289H60.0491V94.1651Z" fill="black"/>
<path d="M62.3887 94.5048C62.0307 94.5048 61.7578 94.3695 61.5701 94.099C61.3852 93.8255 61.2928 93.4256 61.2928 92.8992C61.2928 92.3728 61.3852 91.9744 61.5701 91.7038C61.7578 91.4304 62.0307 91.2936 62.3887 91.2936C62.7466 91.2936 63.018 91.4304 63.2028 91.7038C63.3906 91.9744 63.4845 92.3714 63.4845 92.8948C63.4845 93.4212 63.3906 93.8211 63.2028 94.0946C63.018 94.3681 62.7466 94.5048 62.3887 94.5048ZM62.3887 94.2004C62.638 94.2004 62.8214 94.0946 62.9388 93.8829C63.0591 93.6711 63.1192 93.3418 63.1192 92.8948C63.1192 92.4508 63.0605 92.1243 62.9432 91.9156C62.8258 91.7068 62.641 91.6024 62.3887 91.6024C62.1393 91.6024 61.9544 91.7068 61.8341 91.9156C61.7168 92.1243 61.6581 92.4508 61.6581 92.8948C61.6581 93.3388 61.7168 93.6682 61.8341 93.8829C61.9544 94.0946 62.1393 94.2004 62.3887 94.2004Z" fill="black"/>
<path d="M67.6541 92.1979C68.1441 92.1979 68.3891 92.4905 68.3891 93.0756V94.4695H68.0326V93.0933C68.0326 92.8845 67.996 92.7331 67.9226 92.639C67.8522 92.5449 67.7363 92.4978 67.5749 92.4978C67.3871 92.4978 67.2404 92.561 67.1348 92.6875C67.0292 92.8139 66.9764 92.986 66.9764 93.2036V94.4695H66.6199V93.0933C66.6199 92.8874 66.5832 92.7375 66.5099 92.6434C66.4365 92.5463 66.3192 92.4978 66.1578 92.4978C65.97 92.4978 65.8218 92.561 65.7133 92.6875C65.6077 92.8139 65.5548 92.986 65.5548 93.2036V94.4695H65.1984V92.8727C65.1984 92.6434 65.1866 92.4361 65.1631 92.2508H65.502L65.5372 92.639C65.5989 92.4978 65.6898 92.389 65.8101 92.3126C65.9333 92.2361 66.0756 92.1979 66.237 92.1979C66.413 92.1979 66.5568 92.2332 66.6683 92.3037C66.7798 92.3743 66.862 92.4831 66.9148 92.6301C66.9823 92.4978 67.0805 92.3934 67.2096 92.317C67.3417 92.2376 67.4898 92.1979 67.6541 92.1979Z" fill="black"/>
<path d="M69.0665 94.4695V92.2508H69.423V94.4695H69.0665ZM69.0313 91.3113H69.467V91.7171H69.0313V91.3113Z" fill="black"/>
<path d="M71.2197 92.1979C71.7508 92.1979 72.0163 92.4905 72.0163 93.0756V94.4695H71.6598V93.0933C71.6598 92.8874 71.6187 92.7375 71.5366 92.6434C71.4544 92.5463 71.3253 92.4978 71.1493 92.4978C70.9439 92.4978 70.7796 92.561 70.6564 92.6875C70.5331 92.8139 70.4715 92.9845 70.4715 93.1992V94.4695H70.115V92.8727C70.115 92.6434 70.1033 92.4361 70.0798 92.2508H70.4187L70.4539 92.6478C70.5214 92.5037 70.6226 92.3934 70.7576 92.317C70.8926 92.2376 71.0466 92.1979 71.2197 92.1979Z" fill="black"/>
<path d="M74.5421 92.2508V94.4695H74.1945V94.0858C74.124 94.221 74.0257 94.3239 73.8996 94.3945C73.7734 94.4651 73.6311 94.5004 73.4727 94.5004C73.2115 94.5004 73.0135 94.4269 72.8785 94.2798C72.7436 94.1328 72.6761 93.9152 72.6761 93.627V92.2508H73.0326V93.6182C73.0326 93.8182 73.0736 93.9652 73.1558 94.0593C73.238 94.1534 73.3627 94.2004 73.5299 94.2004C73.7265 94.2004 73.8849 94.1372 74.0052 94.0108C74.1255 93.8814 74.1856 93.7123 74.1856 93.5035V92.2508H74.5421Z" fill="black"/>
<path d="M75.7048 92.5331V93.7461C75.7048 93.9108 75.7385 94.0269 75.806 94.0946C75.8735 94.1593 75.9688 94.1916 76.0921 94.1916C76.1742 94.1916 76.2534 94.1784 76.3297 94.1519V94.4563C76.2388 94.4857 76.1361 94.5004 76.0217 94.5004C75.8104 94.5004 75.6446 94.4416 75.5243 94.3239C75.407 94.2034 75.3483 94.0269 75.3483 93.7946V92.5331H74.917V92.2508H75.3483V91.6818L75.7048 91.5539V92.2508H76.3385V92.5331H75.7048Z" fill="black"/>
<path d="M78.6212 93.3491H76.9972C77.0001 93.6314 77.0647 93.8446 77.1908 93.9887C77.3199 94.1328 77.5062 94.2049 77.7498 94.2049C78.008 94.2049 78.2456 94.1181 78.4627 93.9446L78.5816 94.2049C78.4844 94.296 78.36 94.3681 78.2075 94.421C78.0578 94.4739 77.9034 94.5004 77.745 94.5004C77.3988 94.5004 77.1277 94.3989 76.9312 94.196C76.7342 93.9902 76.6363 93.7094 76.6363 93.3535C76.6363 93.1271 76.6799 92.9271 76.7683 92.7536C76.8563 92.5772 76.9792 92.4405 77.1376 92.3434C77.2961 92.2464 77.4765 92.1979 77.679 92.1979C77.9724 92.1979 78.2031 92.2949 78.3703 92.489C78.5372 92.6801 78.6212 92.9448 78.6212 93.283V93.3491ZM77.6837 92.4758C77.4989 92.4758 77.3474 92.5316 77.2301 92.6434C77.1156 92.7551 77.0423 92.9124 77.01 93.1153H78.2999C78.2823 92.9066 78.2207 92.7478 78.1151 92.639C78.0124 92.5302 77.8686 92.4758 77.6837 92.4758Z" fill="black"/>
<path d="M79.9103 94.5004C79.5377 94.5004 79.2428 94.4048 79.0257 94.2137L79.1445 93.949C79.2648 94.0431 79.3866 94.1108 79.5098 94.1519C79.633 94.1931 79.7709 94.2137 79.9235 94.2137C80.0908 94.2137 80.2169 94.1857 80.302 94.1299C80.39 94.071 80.434 93.9872 80.434 93.8784C80.434 93.7902 80.4047 93.7196 80.346 93.6667C80.2873 93.6138 80.1905 93.5726 80.0555 93.5432L79.6815 93.455C79.4966 93.4138 79.3528 93.3403 79.2501 93.2344C79.1504 93.1286 79.1005 93.0021 79.1005 92.8551C79.1005 92.661 79.1783 92.5037 79.3338 92.3831C79.4893 92.2596 79.6947 92.1979 79.9499 92.1979C80.1054 92.1979 80.2521 92.2229 80.39 92.2729C80.5279 92.3228 80.6438 92.3949 80.7377 92.489L80.6189 92.7492C80.4106 92.5757 80.1876 92.489 79.9499 92.489C79.7915 92.489 79.6682 92.5199 79.5802 92.5816C79.4951 92.6404 79.4526 92.7242 79.4526 92.833C79.4526 92.9242 79.479 92.9962 79.5318 93.0492C79.5876 93.1021 79.6756 93.1433 79.7959 93.1727L80.17 93.2653C80.3754 93.3124 80.5279 93.3859 80.6277 93.4859C80.7274 93.5829 80.7773 93.7108 80.7773 93.8696C80.7773 94.0608 80.6996 94.2137 80.5441 94.3284C80.3886 94.443 80.1773 94.5004 79.9103 94.5004Z" fill="black"/>
<path d="M81.2622 94.0152H81.7155V94.4695H81.2622V94.0152Z" fill="black"/>
<path d="M85.9812 94.4695H85.5103L83.8951 92.9742V94.4695H83.5342V91.3289H83.8951V92.7713L85.4355 91.3289H85.8976L84.2604 92.8595L85.9812 94.4695Z" fill="black"/>
<path d="M88.111 93.3491H86.487C86.4899 93.6314 86.5545 93.8446 86.6806 93.9887C86.8097 94.1328 86.996 94.2049 87.2396 94.2049C87.4978 94.2049 87.7354 94.1181 87.9522 93.9446L88.0714 94.2049C87.9742 94.296 87.8498 94.3681 87.6973 94.421C87.5476 94.4739 87.3932 94.5004 87.2348 94.5004C86.8886 94.5004 86.6176 94.3989 86.421 94.196C86.224 93.9902 86.1261 93.7094 86.1261 93.3535C86.1261 93.1271 86.1701 92.9271 86.2581 92.7536C86.3462 92.5772 86.469 92.4405 86.6275 92.3434C86.7859 92.2464 86.9663 92.1979 87.1688 92.1979C87.4622 92.1979 87.6929 92.2949 87.8601 92.489C88.027 92.6801 88.111 92.9448 88.111 93.283V93.3491ZM87.1736 92.4758C86.9887 92.4758 86.8372 92.5316 86.7199 92.6434C86.6054 92.7551 86.5321 92.9124 86.4998 93.1153H87.7897C87.7721 92.9066 87.7105 92.7478 87.6049 92.639C87.5022 92.5302 87.3584 92.4758 87.1736 92.4758Z" fill="black"/>
<path d="M90.5048 93.3491H88.8808C88.8837 93.6314 88.9483 93.8446 89.0744 93.9887C89.2035 94.1328 89.3898 94.2049 89.6334 94.2049C89.8916 94.2049 90.1292 94.1181 90.3463 93.9446L90.4652 94.2049C90.3683 94.296 90.2436 94.3681 90.0911 94.421C89.9414 94.4739 89.7874 94.5004 89.629 94.5004C89.2827 94.5004 89.0113 94.3989 88.8148 94.196C88.6182 93.9902 88.5199 93.7094 88.5199 93.3535C88.5199 93.1271 88.5639 92.9271 88.6519 92.7536C88.74 92.5772 88.8632 92.4405 89.0216 92.3434C89.1801 92.2464 89.3605 92.1979 89.5629 92.1979C89.8563 92.1979 90.0867 92.2949 90.2539 92.489C90.4212 92.6801 90.5048 92.9448 90.5048 93.283V93.3491ZM89.5673 92.4758C89.3825 92.4758 89.2314 92.5316 89.114 92.6434C88.9996 92.7551 88.9263 92.9124 88.894 93.1153H90.1835C90.1659 92.9066 90.1043 92.7478 89.9987 92.639C89.896 92.5302 89.7522 92.4758 89.5673 92.4758Z" fill="black"/>
<path d="M92.1504 92.1979C92.344 92.1979 92.5157 92.2464 92.6653 92.3434C92.8149 92.4405 92.9308 92.5772 93.013 92.7536C93.0951 92.9271 93.1362 93.1286 93.1362 93.3579C93.1362 93.5873 93.0951 93.7887 93.013 93.9622C92.9308 94.1328 92.8149 94.2651 92.6653 94.3592C92.5186 94.4533 92.347 94.5004 92.1504 94.5004C91.9773 94.5004 91.8262 94.4622 91.6971 94.3857C91.568 94.3092 91.4697 94.2004 91.4022 94.0593V95.4223H91.0457V92.8727C91.0457 92.6434 91.034 92.4361 91.0105 92.2508H91.3494L91.3846 92.6787C91.4462 92.5257 91.543 92.4081 91.6751 92.3258C91.81 92.2405 91.9685 92.1979 92.1504 92.1979ZM92.0844 94.2049C92.3015 94.2049 92.4687 94.1313 92.5861 93.9843C92.7064 93.8373 92.7665 93.6285 92.7665 93.3579C92.7665 93.0874 92.7064 92.8772 92.5861 92.7272C92.4658 92.5743 92.2985 92.4978 92.0844 92.4978C91.8643 92.4978 91.6956 92.5713 91.5782 92.7184C91.4609 92.8654 91.4022 93.0756 91.4022 93.3491C91.4022 93.6226 91.4609 93.8343 91.5782 93.9843C91.6956 94.1313 91.8643 94.2049 92.0844 94.2049Z" fill="black"/>
<path d="M94.8321 94.4695V92.2508H95.1886V94.4695H94.8321ZM94.7969 91.3113H95.2326V91.7171H94.7969V91.3113Z" fill="black"/>
<path d="M96.3563 92.5331V93.7461C96.3563 93.9108 96.3901 94.0269 96.4575 94.0946C96.525 94.1593 96.6204 94.1916 96.7436 94.1916C96.8258 94.1916 96.905 94.1784 96.9813 94.1519V94.4563C96.8903 94.4857 96.7876 94.5004 96.6732 94.5004C96.462 94.5004 96.2962 94.4416 96.1759 94.3239C96.0585 94.2034 95.9998 94.0269 95.9998 93.7946V92.5331H95.5685V92.2508H95.9998V91.6818L96.3563 91.5539V92.2508H96.9901V92.5331H96.3563Z" fill="black"/>
<path d="M99.3153 94.5004C98.9427 94.5004 98.6478 94.4048 98.4307 94.2137L98.5496 93.949C98.6699 94.0431 98.7916 94.1108 98.9148 94.1519C99.0381 94.1931 99.176 94.2137 99.3285 94.2137C99.4958 94.2137 99.6219 94.1857 99.707 94.1299C99.7951 94.071 99.8391 93.9872 99.8391 93.8784C99.8391 93.7902 99.8097 93.7196 99.751 93.6667C99.6924 93.6138 99.5955 93.5726 99.4606 93.5432L99.0865 93.455C98.9016 93.4138 98.7579 93.3403 98.6552 93.2344C98.5554 93.1286 98.5055 93.0021 98.5055 92.8551C98.5055 92.661 98.5833 92.5037 98.7388 92.3831C98.8943 92.2596 99.0997 92.1979 99.355 92.1979C99.5105 92.1979 99.6572 92.2229 99.7951 92.2729C99.933 92.3228 100.049 92.3949 100.143 92.489L100.024 92.7492C99.8156 92.5757 99.5926 92.489 99.355 92.489C99.1965 92.489 99.0733 92.5199 98.9853 92.5816C98.9002 92.6404 98.8576 92.7242 98.8576 92.833C98.8576 92.9242 98.884 92.9962 98.9368 93.0492C98.9926 93.1021 99.0806 93.1433 99.2009 93.1727L99.575 93.2653C99.7804 93.3124 99.933 93.3859 100.033 93.4859C100.132 93.5829 100.182 93.7108 100.182 93.8696C100.182 94.0608 100.105 94.2137 99.9491 94.3284C99.7936 94.443 99.5823 94.5004 99.3153 94.5004Z" fill="black"/>
<path d="M102.7 92.2508V94.4695H102.348V94.0681C102.283 94.2063 102.185 94.3137 102.053 94.3901C101.924 94.4636 101.773 94.5004 101.6 94.5004C101.403 94.5004 101.23 94.4533 101.081 94.3592C100.934 94.2651 100.819 94.1328 100.737 93.9622C100.658 93.7887 100.618 93.5873 100.618 93.3579C100.618 93.1286 100.659 92.9271 100.742 92.7536C100.824 92.5772 100.938 92.4405 101.085 92.3434C101.235 92.2464 101.406 92.1979 101.6 92.1979C101.773 92.1979 101.924 92.2361 102.053 92.3126C102.182 92.389 102.281 92.4963 102.348 92.6345V92.2508H102.7ZM101.67 94.2049C101.887 94.2049 102.055 94.1313 102.172 93.9843C102.289 93.8343 102.348 93.6226 102.348 93.3491C102.348 93.0756 102.289 92.8654 102.172 92.7184C102.055 92.5713 101.887 92.4978 101.67 92.4978C101.453 92.4978 101.283 92.5743 101.16 92.7272C101.039 92.8772 100.979 93.0874 100.979 93.3579C100.979 93.6285 101.039 93.8373 101.16 93.9843C101.28 94.1313 101.45 94.2049 101.67 94.2049Z" fill="black"/>
<path d="M104.239 91.5142C104.121 91.5142 104.029 91.548 103.961 91.6156C103.897 91.6803 103.865 91.7935 103.865 91.9553V92.2508H104.406V92.5331H103.865V94.4695H103.508V92.5331H103.077V92.2508H103.508V91.9111C103.508 91.6788 103.565 91.5039 103.68 91.3862C103.797 91.2657 103.96 91.2054 104.168 91.2054C104.271 91.2054 104.371 91.2186 104.468 91.2451V91.5494C104.385 91.5259 104.309 91.5142 104.239 91.5142Z" fill="black"/>
<path d="M106.704 93.3491H105.08C105.083 93.6314 105.147 93.8446 105.273 93.9887C105.402 94.1328 105.589 94.2049 105.832 94.2049C106.09 94.2049 106.328 94.1181 106.545 93.9446L106.664 94.2049C106.567 94.296 106.442 94.3681 106.29 94.421C106.14 94.4739 105.986 94.5004 105.828 94.5004C105.482 94.5004 105.21 94.3989 105.014 94.196C104.817 93.9902 104.719 93.7094 104.719 93.3535C104.719 93.1271 104.763 92.9271 104.851 92.7536C104.939 92.5772 105.062 92.4405 105.22 92.3434C105.379 92.2464 105.559 92.1979 105.762 92.1979C106.055 92.1979 106.286 92.2949 106.453 92.489C106.62 92.6801 106.704 92.9448 106.704 93.283V93.3491ZM105.766 92.4758C105.581 92.4758 105.43 92.5316 105.313 92.6434C105.198 92.7551 105.125 92.9124 105.093 93.1153H106.382C106.365 92.9066 106.303 92.7478 106.197 92.639C106.095 92.5302 105.951 92.4758 105.766 92.4758Z" fill="black"/>
<path d="M108.867 92.5331V93.7461C108.867 93.9108 108.901 94.0269 108.969 94.0946C109.036 94.1593 109.132 94.1916 109.255 94.1916C109.337 94.1916 109.416 94.1784 109.492 94.1519V94.4563C109.401 94.4857 109.299 94.5004 109.184 94.5004C108.973 94.5004 108.807 94.4416 108.687 94.3239C108.57 94.2034 108.511 94.0269 108.511 93.7946V92.5331H108.08V92.2508H108.511V91.6818L108.867 91.5539V92.2508H109.501V92.5331H108.867Z" fill="black"/>
<path d="M109.931 94.4695V92.2508H110.287V94.4695H109.931ZM109.895 91.3113H110.331V91.7171H109.895V91.3113Z" fill="black"/>
<path d="M110.98 94.4695V91.223H111.336V94.4695H110.98Z" fill="black"/>
<path d="M112.028 94.4695V91.223H112.385V94.4695H112.028Z" fill="black"/>
<path d="M58.3521 97.838L57.3179 100.26C57.2093 100.513 57.0729 100.698 56.9086 100.815C56.7443 100.933 56.5418 101.014 56.3012 101.058L56.2264 100.78C56.4347 100.733 56.5917 100.67 56.6973 100.59C56.8059 100.514 56.8954 100.395 56.9658 100.233L57.0538 100.035L56.1164 97.838H56.4905L57.2387 99.6686L57.9956 97.838H58.3521Z" fill="black"/>
<path d="M59.6347 100.088C59.4264 100.088 59.243 100.041 59.0845 99.9464C58.9261 99.8523 58.8029 99.7186 58.7149 99.5451C58.6298 99.3716 58.5872 99.1687 58.5872 98.9363C58.5872 98.704 58.6298 98.5011 58.7149 98.3276C58.8029 98.1541 58.9261 98.0203 59.0845 97.9262C59.243 97.8321 59.4264 97.7851 59.6347 97.7851C59.843 97.7851 60.0264 97.8321 60.1848 97.9262C60.3432 98.0203 60.465 98.1541 60.5501 98.3276C60.6381 98.5011 60.6821 98.704 60.6821 98.9363C60.6821 99.1687 60.6381 99.3716 60.5501 99.5451C60.465 99.7186 60.3432 99.8523 60.1848 99.9464C60.0264 100.041 59.843 100.088 59.6347 100.088ZM59.6347 99.7921C59.8547 99.7921 60.0234 99.72 60.1408 99.5759C60.2582 99.4289 60.3168 99.2157 60.3168 98.9363C60.3168 98.6658 60.2567 98.457 60.1364 98.31C60.0161 98.16 59.8489 98.085 59.6347 98.085C59.4176 98.085 59.2488 98.16 59.1285 98.31C59.0083 98.457 58.9481 98.6658 58.9481 98.9363C58.9481 99.2157 59.0068 99.4289 59.1241 99.5759C59.2444 99.72 59.4146 99.7921 59.6347 99.7921Z" fill="black"/>
<path d="M63.0906 97.838V100.057H62.7429V99.673C62.6725 99.8082 62.5742 99.9112 62.448 99.9817C62.3219 100.052 62.1796 100.088 62.0211 100.088C61.76 100.088 61.562 100.014 61.427 99.867C61.292 99.72 61.2245 99.5024 61.2245 99.2142V97.838H61.581V99.2054C61.581 99.4054 61.6221 99.5524 61.7043 99.6465C61.7864 99.7406 61.9111 99.7876 62.0784 99.7876C62.2749 99.7876 62.4334 99.7244 62.5537 99.598C62.674 99.4686 62.7341 99.2995 62.7341 99.0907V97.838H63.0906Z" fill="black"/>
<path d="M64.1696 96.9161V97.2381C64.1696 97.3616 64.1491 97.4748 64.108 97.5778C64.0669 97.6807 63.998 97.7821 63.9012 97.8821L63.7339 97.7498C63.8483 97.6175 63.9129 97.491 63.9276 97.3704H63.7163V96.9161H64.1696Z" fill="black"/>
<path d="M66.398 97.8424H66.7545L65.7994 100.057H65.4606L64.5187 97.8424H64.8928L65.641 99.6686L66.398 97.8424Z" fill="black"/>
<path d="M68.9744 98.9363H67.3505C67.3534 99.2186 67.4179 99.4318 67.5441 99.5759C67.6732 99.72 67.8595 99.7921 68.103 99.7921C68.3612 99.7921 68.5989 99.7053 68.816 99.5318L68.9348 99.7921C68.838 99.8832 68.7133 99.9553 68.5607 100.008C68.4111 100.061 68.2571 100.088 68.0986 100.088C67.7524 100.088 67.481 99.9861 67.2844 99.7832C67.0879 99.5774 66.9896 99.2966 66.9896 98.9407C66.9896 98.7143 67.0336 98.5144 67.1216 98.3409C67.2096 98.1644 67.3328 98.0277 67.4913 97.9306C67.6497 97.8336 67.8302 97.7851 68.0326 97.7851C68.326 97.7851 68.5563 97.8821 68.7236 98.0762C68.8908 98.2673 68.9744 98.532 68.9744 98.8702V98.9363ZM68.037 98.063C67.8522 98.063 67.7011 98.1188 67.5837 98.2306C67.4693 98.3423 67.3959 98.4996 67.3637 98.7026H68.6532C68.6356 98.4938 68.5739 98.335 68.4683 98.2262C68.3656 98.1174 68.2219 98.063 68.037 98.063Z" fill="black"/>
<path d="M72.5158 97.838V100.057H72.1681V99.673C72.0977 99.8082 71.9994 99.9112 71.8733 99.9817C71.7471 100.052 71.6048 100.088 71.4464 100.088C71.1852 100.088 70.9872 100.014 70.8522 99.867C70.7173 99.72 70.6498 99.5024 70.6498 99.2142V97.838H71.0063V99.2054C71.0063 99.4054 71.0473 99.5524 71.1295 99.6465C71.2116 99.7406 71.3363 99.7876 71.5036 99.7876C71.7002 99.7876 71.8586 99.7244 71.9789 99.598C72.0992 99.4686 72.1593 99.2995 72.1593 99.0907V97.838H72.5158Z" fill="black"/>
<path d="M73.9513 100.088C73.5787 100.088 73.2838 99.992 73.0667 99.8009L73.1855 99.5362C73.3058 99.6303 73.4276 99.698 73.5508 99.7391C73.6741 99.7803 73.812 99.8009 73.9645 99.8009C74.1318 99.8009 74.2579 99.7729 74.343 99.7171C74.431 99.6583 74.475 99.5745 74.475 99.4657C74.475 99.3774 74.4457 99.3069 74.387 99.2539C74.3283 99.201 74.2315 99.1598 74.0966 99.1304L73.7225 99.0422C73.5376 99.001 73.3939 98.9275 73.2912 98.8217C73.1914 98.7158 73.1415 98.5893 73.1415 98.4423C73.1415 98.2482 73.2193 98.0909 73.3748 97.9703C73.5303 97.8468 73.7357 97.7851 73.9909 97.7851C74.1464 97.7851 74.2931 97.8101 74.431 97.8601C74.5689 97.9101 74.6848 97.9821 74.7787 98.0762L74.6599 98.3364C74.4516 98.1629 74.2286 98.0762 73.9909 98.0762C73.8325 98.0762 73.7093 98.1071 73.6212 98.1688C73.5362 98.2276 73.4936 98.3115 73.4936 98.4203C73.4936 98.5114 73.52 98.5835 73.5728 98.6364C73.6286 98.6893 73.7166 98.7305 73.8369 98.7599L74.211 98.8525C74.4164 98.8996 74.5689 98.9731 74.6687 99.0731C74.7685 99.1701 74.8183 99.298 74.8183 99.4568C74.8183 99.648 74.7406 99.8009 74.5851 99.9156C74.4296 100.03 74.2183 100.088 73.9513 100.088Z" fill="black"/>
<path d="M77.2393 98.9363H75.6153C75.6182 99.2186 75.6828 99.4318 75.8089 99.5759C75.938 99.72 76.1243 99.7921 76.3679 99.7921C76.6261 99.7921 76.8637 99.7053 77.0808 99.5318L77.1997 99.7921C77.1028 99.8832 76.9781 99.9553 76.8256 100.008C76.6759 100.061 76.5219 100.088 76.3635 100.088C76.0172 100.088 75.7458 99.9861 75.5493 99.7832C75.3527 99.5774 75.2544 99.2966 75.2544 98.9407C75.2544 98.7143 75.2984 98.5144 75.3864 98.3409C75.4744 98.1644 75.5977 98.0277 75.7561 97.9306C75.9146 97.8336 76.095 97.7851 76.2974 97.7851C76.5908 97.7851 76.8212 97.8821 76.9884 98.0762C77.1556 98.2673 77.2393 98.532 77.2393 98.8702V98.9363ZM76.3018 98.063C76.117 98.063 75.9659 98.1188 75.8485 98.2306C75.7341 98.3423 75.6608 98.4996 75.6285 98.7026H76.918C76.9004 98.4938 76.8388 98.335 76.7331 98.2262C76.6305 98.1174 76.4867 98.063 76.3018 98.063Z" fill="black"/>
<path d="M79.7299 96.8103V100.057H79.3778V99.6553C79.3133 99.7935 79.215 99.9009 79.0829 99.9773C78.9538 100.051 78.8027 100.088 78.6296 100.088C78.436 100.088 78.2643 100.039 78.1147 99.942C77.968 99.845 77.8536 99.7097 77.7714 99.5362C77.6893 99.3598 77.6482 99.1569 77.6482 98.9275C77.6482 98.6981 77.6878 98.4982 77.767 98.3276C77.8492 98.1541 77.9651 98.0203 78.1147 97.9262C78.2643 97.8321 78.436 97.7851 78.6296 97.7851C78.8027 97.7851 78.9538 97.8233 79.0829 97.8998C79.212 97.9733 79.3089 98.0777 79.3734 98.2129V96.8103H79.7299ZM78.7 99.7921C78.9172 99.7921 79.0844 99.7185 79.2018 99.5715C79.3191 99.4215 79.3778 99.2098 79.3778 98.9363C79.3778 98.6658 79.3191 98.457 79.2018 98.31C79.0844 98.16 78.9172 98.085 78.7 98.085C78.4829 98.085 78.3128 98.1585 78.1895 98.3056C78.0692 98.4526 78.0091 98.6599 78.0091 98.9275C78.0091 99.201 78.0692 99.4142 78.1895 99.5671C78.3128 99.7171 78.4829 99.7921 78.7 99.7921Z" fill="black"/>
<path d="M81.5666 100.057V97.838H81.9231V100.057H81.5666ZM81.5314 96.8985H81.9671V97.3043H81.5314V96.8985Z" fill="black"/>
<path d="M83.0908 98.1203V99.3333C83.0908 99.498 83.1246 99.6141 83.1921 99.6818C83.2595 99.7465 83.3549 99.7788 83.4781 99.7788C83.5603 99.7788 83.6395 99.7656 83.7158 99.7391V100.043C83.6248 100.073 83.5221 100.088 83.4077 100.088C83.1965 100.088 83.0307 100.029 82.9104 99.9112C82.793 99.7906 82.7343 99.6142 82.7343 99.3818V98.1203H82.303V97.838H82.7343V97.269L83.0908 97.1411V97.838H83.7246V98.1203H83.0908Z" fill="black"/>
<path d="M84.1526 99.6024H84.6059V100.057H84.1526V99.6024Z" fill="black"/>
<path d="M77.0687 71.5498H60.7643C58.6096 71.5498 56.847 69.7887 56.847 67.6351V51.334C56.847 49.1804 58.6096 47.4189 60.7643 47.4189H77.0687C79.2238 47.4189 80.986 49.1804 80.986 51.334V67.6281C80.9934 69.7887 79.2308 71.5498 77.0687 71.5498Z" fill="#40196D"/>
<path d="M66.6202 59.5777C66.3895 59.5777 66.1878 59.5704 65.9865 59.5777C65.8134 59.5847 65.6766 59.4406 65.6766 59.2965C65.6766 59.1377 65.8064 59.0153 65.9865 59.0153C66.1878 59.0153 66.3969 59.0153 66.6129 59.0153C66.4977 58.8062 66.3895 58.6187 66.2817 58.4239C66.2241 58.3232 66.2311 58.2221 66.296 58.1357C66.3679 58.042 66.4618 58.0059 66.577 58.0273C66.6848 58.049 66.757 58.1067 66.8073 58.2004C66.9081 58.3735 67.0017 58.5467 67.1099 58.7341C67.1891 58.6044 67.254 58.4816 67.3259 58.3592C67.3618 58.2941 67.3978 58.2294 67.4337 58.1644C67.5203 58.0203 67.686 57.9769 67.8155 58.049C67.9523 58.1283 67.9956 58.2871 67.909 58.4386C67.8228 58.597 67.7363 58.7485 67.6501 58.8999C67.6354 58.9286 67.6211 58.9576 67.5921 59.008C67.7077 59.008 67.8085 59.008 67.909 59.008C68.0245 59.008 68.1397 59.001 68.2475 59.008C68.406 59.0153 68.5142 59.1377 68.5142 59.2892C68.5068 59.4406 68.3917 59.5704 68.2406 59.5704C68.0605 59.5704 67.8877 59.5704 67.7077 59.5704C67.6714 59.5704 67.6354 59.5704 67.5709 59.5704C67.686 59.7725 67.7869 59.9527 67.8877 60.1328C67.9453 60.2265 67.9596 60.3276 67.902 60.4287C67.7939 60.6231 67.5419 60.6305 67.4194 60.443C67.3259 60.2916 67.2393 60.1328 67.1531 59.9813C67.1315 59.9453 67.1168 59.9166 67.0809 59.8663C67.0449 59.931 67.009 59.9887 66.98 60.0464C66.9008 60.1761 66.8289 60.3132 66.7497 60.443C66.6631 60.5797 66.5047 60.6231 66.3826 60.5511C66.2384 60.4717 66.1952 60.3132 66.2744 60.1688C66.3969 59.9743 66.5047 59.7869 66.6202 59.5777Z" fill="white"/>
<path d="M63.358 59.5777C63.1346 59.5777 62.9329 59.5704 62.7315 59.5777C62.5515 59.5921 62.4216 59.4336 62.4216 59.2965C62.4216 59.1377 62.5515 59.0153 62.7315 59.008C62.9329 59.008 63.1419 59.008 63.3653 59.008C63.2498 58.8135 63.1419 58.633 63.0484 58.4456C63.0121 58.3735 62.9978 58.2724 63.0194 58.1934C63.0411 58.085 63.1346 58.0273 63.2428 58.0129C63.3653 57.9986 63.4658 58.042 63.5307 58.15C63.6242 58.3015 63.7108 58.4599 63.7973 58.6113C63.819 58.6474 63.8333 58.6764 63.8619 58.7198C63.9701 58.5323 64.0709 58.3592 64.1718 58.1861C64.2726 58.0129 64.4311 57.9626 64.5679 58.042C64.7116 58.121 64.7406 58.2941 64.6541 58.4599C64.5536 58.633 64.4527 58.8062 64.3445 59.001C64.5679 59.001 64.7766 59.001 64.9783 59.001C65.187 59.001 65.3095 59.1668 65.2519 59.3612C65.2159 59.4766 65.1077 59.5634 64.9856 59.5634C64.7766 59.5634 64.5605 59.5634 64.3229 59.5634C64.3662 59.6424 64.4021 59.7075 64.438 59.7725C64.5103 59.8949 64.5822 60.0173 64.6471 60.1401C64.7263 60.2916 64.683 60.4573 64.5389 60.5367C64.4094 60.6088 64.251 60.5584 64.1644 60.414C64.0709 60.2625 63.9917 60.1041 63.8982 59.9526C63.8835 59.9236 63.8619 59.8949 63.8333 59.8516C63.7251 60.0464 63.6172 60.2338 63.5091 60.414C63.3939 60.6088 63.1562 60.6231 63.0337 60.443C62.9692 60.3493 62.9619 60.2482 63.0194 60.1544C63.106 60.003 63.1852 59.8589 63.2714 59.7075C63.3004 59.6858 63.322 59.6424 63.358 59.5777Z" fill="white"/>
<path d="M73.1378 59.0153C73.0227 58.8209 72.9218 58.6404 72.8209 58.4603C72.7274 58.2945 72.7634 58.1357 72.9145 58.0493C73.0513 57.9699 73.2097 58.0276 73.3032 58.1791C73.4041 58.3522 73.5049 58.5323 73.6201 58.7271C73.7356 58.5323 73.8365 58.3449 73.9443 58.1647C74.0525 57.9773 74.2755 57.9556 74.4053 58.114C74.4845 58.2077 74.4915 58.3162 74.427 58.4386C74.3404 58.5974 74.2539 58.7488 74.1677 58.8999C74.1534 58.9289 74.1387 58.9576 74.1101 59.0083C74.3331 59.0083 74.5421 59.0083 74.7508 59.0083C74.9742 59.0153 75.0967 59.2028 75.0101 59.3976C74.9599 59.5057 74.8733 59.5707 74.7508 59.5707C74.5421 59.5707 74.3261 59.5707 74.0954 59.5707C74.182 59.7222 74.2612 59.8589 74.3331 59.9887C74.362 60.0464 74.398 60.0971 74.427 60.1548C74.4988 60.2989 74.4556 60.4504 74.3188 60.5367C74.1963 60.6088 74.0309 60.5658 73.9516 60.436C73.8651 60.2916 73.7859 60.1475 73.6993 60.0034C73.678 59.96 73.6491 59.9166 73.6201 59.8663C73.5988 59.8949 73.5842 59.9166 73.5699 59.9383C73.4763 60.0971 73.3898 60.2629 73.2963 60.4213C73.2097 60.5728 73.0513 60.6235 72.9145 60.5514C72.7703 60.472 72.7274 60.3063 72.8136 60.1475C72.9145 59.9674 73.0227 59.7869 73.1378 59.5777C73.001 59.5777 72.8859 59.5777 72.7777 59.5777C72.6841 59.5777 72.5833 59.5777 72.4898 59.5777C72.3313 59.5777 72.2088 59.4623 72.2015 59.3112C72.1945 59.1741 72.3023 59.037 72.4608 59.0227C72.5976 59.0083 72.7344 59.0153 72.8785 59.0153C72.9434 59.0153 73.0296 59.0153 73.1378 59.0153Z" fill="white"/>
<path d="M70.3652 58.7341C70.4803 58.5323 70.5885 58.3449 70.6894 58.1644C70.7539 58.0563 70.8621 58.006 70.9773 58.0276C71.0998 58.0493 71.1933 58.1284 71.2006 58.2511C71.2076 58.3232 71.186 58.4026 71.15 58.4746C71.0565 58.6547 70.9556 58.8279 70.8405 59.0227C70.9124 59.0227 70.9699 59.0227 71.0275 59.0227C71.186 59.0227 71.3374 59.0227 71.4959 59.0227C71.6613 59.0297 71.7838 59.1524 71.7768 59.3109C71.7768 59.4623 71.647 59.5851 71.4816 59.5851C71.2725 59.5851 71.0638 59.5851 70.8331 59.5851C70.9197 59.7365 70.9989 59.8733 71.0781 60.0104C71.1067 60.0607 71.1357 60.1115 71.1647 60.1692C71.2366 60.3133 71.1933 60.4647 71.0565 60.5511C70.934 60.6231 70.7686 60.5871 70.682 60.4504C70.5885 60.2916 70.4946 60.1331 70.4084 59.967C70.3938 59.9383 70.3725 59.9093 70.3435 59.8663C70.2284 60.0607 70.1275 60.2482 70.0193 60.4287C69.9042 60.6161 69.6738 60.6305 69.5513 60.4573C69.4795 60.3636 69.4795 60.2629 69.537 60.1545C69.6232 59.996 69.7171 59.8372 69.8033 59.6788C69.818 59.6498 69.8392 59.6211 69.8609 59.5707C69.6955 59.5707 69.5513 59.5707 69.4002 59.5707C69.3353 59.5707 69.2634 59.5707 69.1985 59.5707C69.0474 59.5707 68.9249 59.448 68.9176 59.3039C68.9103 59.1668 69.0184 59.0297 69.1626 59.0153C69.2704 59.001 69.3856 59.008 69.4938 59.008C69.6089 59.008 69.7241 59.008 69.8609 59.008C69.7457 58.8062 69.6379 58.6187 69.537 58.4312C69.4435 58.2511 69.5297 58.0637 69.7241 58.0129C69.8392 57.9843 69.9617 58.042 70.034 58.1717C70.1491 58.3592 70.25 58.5393 70.3652 58.7341Z" fill="white"/>
</g>
<defs>
<filter id="filter0_d_1_1440" x="-10.6966" y="6.97945" width="160.026" height="169.831" filterUnits="userSpaceOnUse" color-interpolation-filters="sRGB">
<feFlood flood-opacity="0" result="BackgroundImageFix"/>
<feColorMatrix in="SourceAlpha" type="matrix" values="0 0 0 0 0 0 0 0 0 0 0 0 0 0 0 0 0 0 127 0" result="hardAlpha"/>
<feOffset/>
<feGaussianBlur stdDeviation="12.5"/>
<feColorMatrix type="matrix" values="0 0 0 0 0 0 0 0 0 0 0 0 0 0 0 0 0 0 0.06 0"/>
<feBlend mode="normal" in2="BackgroundImageFix" result="effect1_dropShadow_1_1440"/>
<feBlend mode="normal" in="SourceGraphic" in2="effect1_dropShadow_1_1440" result="shape"/>
</filter>
<clipPath id="clip0_1_1440">
<rect width="139" height="161" fill="white"/>
</clipPath>
</defs>
</svg>
