<svg width="153" height="163" viewBox="0 0 153 163" fill="none" xmlns="http://www.w3.org/2000/svg">
<g clip-path="url(#clip0_1_1647)">
<path d="M76.5 152.536C118.75 152.536 153 118.389 153 76.2679C153 34.1463 118.75 0 76.5 0C34.2502 0 0 34.1463 0 76.2679C0 118.389 34.2502 152.536 76.5 152.536Z" fill="#DBF8FF"/>
<g filter="url(#filter0_d_1_1647)">
<path d="M132.815 27.7704H19.781C17.5514 27.7704 15.744 29.5723 15.744 31.7951V148.672C15.744 150.895 17.5514 152.697 19.781 152.697H132.815C135.045 152.697 136.852 150.895 136.852 148.672V31.7951C136.852 29.5723 135.045 27.7704 132.815 27.7704Z" fill="white"/>
</g>
<path d="M26.9237 58.2667H28.1343V62.9373H26.9237V61.0481H25.0287V62.9373H23.818V58.2667H25.0287V60.0838H26.9237V58.2667Z" fill="black"/>
<path d="M30.5963 62.9896C30.2234 62.9896 29.8988 62.92 29.6225 62.78C29.3461 62.6399 29.1333 62.4387 28.9842 62.1762C28.8351 61.9138 28.7605 61.6055 28.7605 61.2514C28.7605 60.8972 28.8351 60.5889 28.9842 60.3265C29.1333 60.0641 29.3461 59.8629 29.6225 59.7232C29.8988 59.5831 30.2234 59.5131 30.5963 59.5131C30.9647 59.5131 31.285 59.5852 31.5569 59.7296C31.8333 59.8697 32.046 60.0705 32.1952 60.3329C32.3443 60.5909 32.4189 60.8972 32.4189 61.2514C32.4189 61.6055 32.3443 61.9138 32.1952 62.1762C32.046 62.4342 31.8333 62.6355 31.5569 62.78C31.285 62.92 30.9647 62.9896 30.5963 62.9896ZM30.5963 62.1042C31.0262 62.1042 31.2411 61.8201 31.2411 61.2514C31.2411 60.9628 31.1863 60.7507 31.0766 60.6151C30.9713 60.4754 30.8112 60.4054 30.5963 60.4054C30.3769 60.4054 30.2124 60.4754 30.1028 60.6151C29.9931 60.7507 29.9383 60.9628 29.9383 61.2514C29.9383 61.5444 29.9931 61.7609 30.1028 61.901C30.2124 62.0366 30.3769 62.1042 30.5963 62.1042Z" fill="black"/>
<path d="M37.3959 59.6049H38.5408L37.1459 62.9373H36.1655L35.4944 61.2844L34.8627 62.9373H33.8758L32.4808 59.6049H33.6915L34.435 61.5271L35.1588 59.6049H35.922L36.6656 61.5665L37.3959 59.6049Z" fill="black"/>
<path d="M42.4258 62.9896C42.0528 62.9896 41.7283 62.92 41.4521 62.78C41.1756 62.6399 40.9629 62.4387 40.8139 62.1762C40.6645 61.9138 40.5898 61.6055 40.5898 61.2514C40.5898 60.8972 40.6645 60.5889 40.8139 60.3265C40.9629 60.0641 41.1756 59.8629 41.4521 59.7232C41.7283 59.5831 42.0528 59.5131 42.4258 59.5131C42.7944 59.5131 43.1145 59.5852 43.3862 59.7296C43.6628 59.8697 43.8755 60.0705 44.0245 60.3329C44.1738 60.5909 44.2485 60.8972 44.2485 61.2514C44.2485 61.6055 44.1738 61.9138 44.0245 62.1762C43.8755 62.4342 43.6628 62.6355 43.3862 62.78C43.1145 62.92 42.7944 62.9896 42.4258 62.9896ZM42.4258 62.1042C42.8558 62.1042 43.0705 61.8201 43.0705 61.2514C43.0705 60.9628 43.0156 60.7507 42.9062 60.6151C42.8009 60.4754 42.6406 60.4054 42.4258 60.4054C42.2066 60.4054 42.0419 60.4754 41.9321 60.6151C41.8227 60.7507 41.7678 60.9628 41.7678 61.2514C41.7678 61.5444 41.8227 61.7609 41.9321 61.901C42.0419 62.0366 42.2066 62.1042 42.4258 62.1042Z" fill="black"/>
<path d="M46.7243 59.0342C46.5838 59.0342 46.4676 59.0756 46.3755 59.1589C46.2835 59.2374 46.2375 59.3602 46.2375 59.5264V59.6049H46.8886V60.4774H46.2375V62.9373H45.0466V60.4774H44.4346V59.6049H45.0466V59.5131C45.0466 59.0627 45.1628 58.7106 45.3954 58.457C45.6319 58.2035 45.9743 58.0767 46.4216 58.0767C46.6759 58.0767 46.8822 58.1073 47.04 58.1685V59.0801C46.9128 59.0495 46.8075 59.0342 46.7243 59.0342Z" fill="black"/>
<path d="M49.1921 62.0322C49.2712 62.0322 49.3766 62.0189 49.5082 61.9927V62.8914C49.3459 62.957 49.1396 62.9896 48.8897 62.9896C48.4376 62.9896 48.0932 62.8629 47.8567 62.6093C47.6242 62.3558 47.5079 62.0036 47.5079 61.5532V60.4774H46.8826V59.6049H47.5079V58.8506L48.6988 58.4699V59.6049H49.5013V60.4774H48.6988V61.5532C48.6988 61.7106 48.7448 61.8309 48.8368 61.9138C48.9333 61.9927 49.052 62.0322 49.1921 62.0322Z" fill="black"/>
<path d="M53.0413 61.389H50.9425C50.9643 61.6474 51.039 61.8329 51.1661 61.9468C51.2933 62.0603 51.4798 62.1175 51.7257 62.1175C51.892 62.1175 52.0587 62.0909 52.2254 62.0386C52.3922 61.9819 52.5435 61.9054 52.6796 61.8092L52.9824 62.596C52.8156 62.7188 52.6138 62.815 52.3768 62.885C52.1399 62.955 51.9033 62.9896 51.6663 62.9896C51.2848 62.9896 50.9534 62.92 50.6728 62.78C50.3919 62.6399 50.1771 62.4411 50.0277 62.1831C49.8788 61.9207 49.8041 61.6124 49.8041 61.2582C49.8041 60.9213 49.8743 60.6219 50.0148 60.3595C50.1593 60.0927 50.3567 59.885 50.607 59.7361C50.8614 59.5876 51.1508 59.5131 51.4754 59.5131C51.7915 59.5131 52.0676 59.5831 52.3046 59.7232C52.5415 59.8629 52.7236 60.0641 52.8508 60.3265C52.9779 60.5845 53.0413 60.8863 53.0413 61.2317V61.389ZM51.5085 60.3265C51.2146 60.3265 51.0301 60.4971 50.9558 60.838H52.0216C51.9776 60.4971 51.8068 60.3265 51.5085 60.3265Z" fill="black"/>
<path d="M55.8297 59.5131C56.2245 59.5131 56.5184 59.6335 56.7113 59.8737C56.9087 60.11 57.0072 60.4686 57.0072 60.9495V62.9373H55.8164V61.0022C55.8164 60.7966 55.7812 60.6501 55.711 60.5627C55.6411 60.471 55.5313 60.4251 55.382 60.4251C55.2023 60.4251 55.0574 60.4863 54.948 60.6086C54.8382 60.7266 54.7833 60.8839 54.7833 61.0807V62.9373H53.5924V60.5627C53.5924 60.2041 53.575 59.885 53.5399 59.6049H54.6586L54.7175 60.0971C54.8447 59.9087 55.0029 59.7647 55.1914 59.664C55.38 59.5634 55.5927 59.5131 55.8297 59.5131Z" fill="black"/>
<path d="M63.1269 58.1093V62.9373H61.9558V62.4845C61.8593 62.6423 61.7188 62.7667 61.5347 62.8584C61.3506 62.9462 61.1488 62.9896 60.9292 62.9896C60.6442 62.9896 60.3898 62.9176 60.1662 62.7735C59.9425 62.6246 59.7669 62.4189 59.6398 62.1565C59.517 61.8901 59.4557 61.5838 59.4557 61.2385C59.4557 60.8972 59.517 60.5953 59.6398 60.3329C59.7669 60.0705 59.9425 59.8697 60.1662 59.7296C60.3898 59.5852 60.6442 59.5131 60.9292 59.5131C61.1399 59.5131 61.3329 59.557 61.5085 59.6443C61.6881 59.7316 61.8306 59.85 61.936 59.9985V58.1093H63.1269ZM61.2977 62.1042C61.5085 62.1042 61.6708 62.0322 61.7846 61.8877C61.8988 61.7392 61.9558 61.5271 61.9558 61.2514C61.9558 60.9845 61.8964 60.7793 61.7781 60.6348C61.6643 60.4863 61.504 60.4118 61.2977 60.4118C61.083 60.4118 60.9183 60.4839 60.8044 60.6284C60.6902 60.7684 60.6333 60.9717 60.6333 61.2385C60.6333 61.5138 60.6902 61.7283 60.8044 61.8812C60.9227 62.0297 61.0874 62.1042 61.2977 62.1042Z" fill="black"/>
<path d="M65.5191 62.9896C65.1465 62.9896 64.8219 62.92 64.5454 62.78C64.2688 62.6399 64.0561 62.4387 63.9071 62.1762C63.7582 61.9138 63.6835 61.6055 63.6835 61.2514C63.6835 60.8972 63.7582 60.5889 63.9071 60.3265C64.0561 60.0641 64.2688 59.8629 64.5454 59.7232C64.8219 59.5831 65.1465 59.5131 65.5191 59.5131C65.8876 59.5131 66.2078 59.5852 66.4799 59.7296C66.756 59.8697 66.9687 60.0705 67.1181 60.3329C67.2671 60.5909 67.3417 60.8972 67.3417 61.2514C67.3417 61.6055 67.2671 61.9138 67.1181 62.1762C66.9687 62.4342 66.756 62.6355 66.4799 62.78C66.2078 62.92 65.8876 62.9896 65.5191 62.9896ZM65.5191 62.1042C65.949 62.1042 66.1642 61.8201 66.1642 61.2514C66.1642 60.9628 66.1093 60.7507 65.9995 60.6151C65.8941 60.4754 65.7342 60.4054 65.5191 60.4054C65.2999 60.4054 65.1352 60.4754 65.0258 60.6151C64.9159 60.7507 64.861 60.9628 64.861 61.2514C64.861 61.5444 64.9159 61.7609 65.0258 61.901C65.1352 62.0366 65.2999 62.1042 65.5191 62.1042Z" fill="black"/>
<path d="M73.2648 59.6049L71.732 63.0552C71.5302 63.506 71.2758 63.834 70.9686 64.0393C70.6659 64.2494 70.2908 64.3806 69.8435 64.4329L69.567 63.5277C69.8742 63.4666 70.1043 63.3877 70.2581 63.2915C70.4115 63.1953 70.5278 63.0621 70.6069 62.8914L70.6921 62.7079L69.3304 59.6049H70.5674L71.3174 61.5271L72.0937 59.6049H73.2648Z" fill="black"/>
<path d="M75.0996 62.9896C74.727 62.9896 74.4025 62.92 74.1259 62.78C73.8498 62.6399 73.6371 62.4387 73.4877 62.1762C73.3387 61.9138 73.264 61.6055 73.264 61.2514C73.264 60.8972 73.3387 60.5889 73.4877 60.3265C73.6371 60.0641 73.8498 59.8629 74.1259 59.7232C74.4025 59.5831 74.727 59.5131 75.0996 59.5131C75.4682 59.5131 75.7883 59.5852 76.0604 59.7296C76.337 59.8697 76.5497 60.0705 76.6987 60.3329C76.8476 60.5909 76.9223 60.8972 76.9223 61.2514C76.9223 61.6055 76.8476 61.9138 76.6987 62.1762C76.5497 62.4342 76.337 62.6355 76.0604 62.78C75.7883 62.92 75.4682 62.9896 75.0996 62.9896ZM75.0996 62.1042C75.5296 62.1042 75.7447 61.8201 75.7447 61.2514C75.7447 60.9628 75.6898 60.7507 75.58 60.6151C75.4747 60.4754 75.3148 60.4054 75.0996 60.4054C74.8804 60.4054 74.7161 60.4754 74.6063 60.6151C74.4965 60.7507 74.4416 60.9628 74.4416 61.2514C74.4416 61.5444 74.4965 61.7609 74.6063 61.901C74.7161 62.0366 74.8804 62.1042 75.0996 62.1042Z" fill="black"/>
<path d="M80.8449 59.6049V62.9373H79.6803V62.4914C79.4655 62.8238 79.1474 62.9896 78.7263 62.9896C78.3008 62.9896 77.9827 62.8717 77.772 62.6355C77.5661 62.3996 77.4628 62.0386 77.4628 61.5532V59.6049H78.6537V61.5858C78.6537 61.9138 78.7966 62.078 79.0816 62.078C79.2483 62.078 79.3819 62.0189 79.4829 61.901C79.5882 61.7826 79.6407 61.6253 79.6407 61.4285V59.6049H80.8449Z" fill="black"/>
<path d="M87.9524 59.6049H89.0972L87.7021 62.9373H86.7219L86.0506 61.2844L85.4192 62.9373H84.4322L83.037 59.6049H84.2477L84.9913 61.5271L85.7151 59.6049H86.4785L87.2221 61.5665L87.9524 59.6049Z" fill="black"/>
<path d="M92.8387 59.6049V62.9373H91.6676V62.4845C91.5711 62.6423 91.4306 62.7667 91.2465 62.8584C91.0621 62.9462 90.8606 62.9896 90.641 62.9896C90.356 62.9896 90.1017 62.92 89.878 62.78C89.654 62.6399 89.4788 62.4411 89.3516 62.1831C89.2285 61.9207 89.1671 61.6188 89.1671 61.2775C89.1671 60.9322 89.2309 60.6259 89.3581 60.3595C89.4852 60.0927 89.6608 59.885 89.8845 59.7361C90.1081 59.5876 90.3604 59.5131 90.641 59.5131C90.8606 59.5131 91.06 59.5614 91.2397 59.6576C91.4242 59.7494 91.5667 59.8737 91.6676 60.0315V59.6049H92.8387ZM91.0096 62.1042C91.2203 62.1042 91.3826 62.0322 91.4964 61.8877C91.6107 61.7436 91.6676 61.5359 91.6676 61.2647C91.6676 60.989 91.6107 60.7793 91.4964 60.6348C91.3826 60.4863 91.2203 60.4118 91.0096 60.4118C90.8033 60.4118 90.641 60.4883 90.5227 60.6412C90.4044 60.7901 90.3451 61.0022 90.3451 61.2775C90.3451 61.5444 90.402 61.75 90.5163 61.8945C90.6301 62.0342 90.7948 62.1042 91.0096 62.1042Z" fill="black"/>
<path d="M95.7837 59.5131C96.1785 59.5131 96.4724 59.6335 96.6653 59.8737C96.8627 60.11 96.9616 60.4686 96.9616 60.9495V62.9373H95.7707V61.0022C95.7707 60.7966 95.7356 60.6501 95.6654 60.5627C95.5951 60.471 95.4853 60.4251 95.3364 60.4251C95.1563 60.4251 95.0118 60.4863 94.902 60.6086C94.7922 60.7266 94.7377 60.8839 94.7377 61.0807V62.9373H93.5468V60.5627C93.5468 60.2041 93.529 59.885 93.4939 59.6049H94.6125L94.6719 60.0971C94.799 59.9087 94.9569 59.7647 95.1454 59.664C95.3339 59.5634 95.5467 59.5131 95.7837 59.5131Z" fill="black"/>
<path d="M99.6264 62.0322C99.7056 62.0322 99.8105 62.0189 99.9421 61.9927V62.8914C99.7798 62.957 99.574 62.9896 99.3237 62.9896C98.8719 62.9896 98.5276 62.8629 98.2906 62.6093C98.0585 62.3558 97.9422 62.0036 97.9422 61.5532V60.4774H97.3169V59.6049H97.9422V58.8506L99.1331 58.4699V59.6049H99.9357V60.4774H99.1331V61.5532C99.1331 61.7106 99.1791 61.8309 99.2712 61.9138C99.3677 61.9927 99.4859 62.0322 99.6264 62.0322Z" fill="black"/>
<path d="M104.272 62.0322C104.351 62.0322 104.456 62.0189 104.588 61.9927V62.8914C104.426 62.957 104.22 62.9896 103.969 62.9896C103.518 62.9896 103.173 62.8629 102.936 62.6093C102.704 62.3558 102.588 62.0036 102.588 61.5532V60.4774H101.963V59.6049H102.588V58.8506L103.779 58.4699V59.6049H104.581V60.4774H103.779V61.5532C103.779 61.7106 103.825 61.8309 103.917 61.9138C104.013 61.9927 104.132 62.0322 104.272 62.0322Z" fill="black"/>
<path d="M106.72 62.9896C106.347 62.9896 106.023 62.92 105.746 62.78C105.47 62.6399 105.257 62.4387 105.108 62.1762C104.959 61.9138 104.884 61.6055 104.884 61.2514C104.884 60.8972 104.959 60.5889 105.108 60.3265C105.257 60.0641 105.47 59.8629 105.746 59.7232C106.023 59.5831 106.347 59.5131 106.72 59.5131C107.088 59.5131 107.408 59.5852 107.681 59.7296C107.957 59.8697 108.17 60.0705 108.319 60.3329C108.468 60.5909 108.542 60.8972 108.542 61.2514C108.542 61.6055 108.468 61.9138 108.319 62.1762C108.17 62.4342 107.957 62.6355 107.681 62.78C107.408 62.92 107.088 62.9896 106.72 62.9896ZM106.72 62.1042C107.15 62.1042 107.365 61.8201 107.365 61.2514C107.365 60.9628 107.31 60.7507 107.2 60.6151C107.095 60.4754 106.935 60.4054 106.72 60.4054C106.501 60.4054 106.336 60.4754 106.226 60.6151C106.117 60.7507 106.062 60.9628 106.062 61.2514C106.062 61.5444 106.117 61.7609 106.226 61.901C106.336 62.0366 106.501 62.1042 106.72 62.1042Z" fill="black"/>
<path d="M112.36 62.9896C111.693 62.9896 111.167 62.8564 110.781 62.5896L111.084 61.7826C111.263 61.9054 111.468 62.0016 111.696 62.0716C111.924 62.1372 112.147 62.1698 112.367 62.1698C112.503 62.1698 112.608 62.1501 112.683 62.1106C112.757 62.0716 112.795 62.0169 112.795 61.9468C112.795 61.8857 112.766 61.8374 112.709 61.8024C112.656 61.7633 112.553 61.7283 112.4 61.6977L111.86 61.5729C111.518 61.5029 111.27 61.3934 111.116 61.2449C110.967 61.092 110.893 60.8819 110.893 60.6151C110.893 60.401 110.956 60.2106 111.084 60.0444C111.211 59.8781 111.386 59.7494 111.61 59.6576C111.838 59.5614 112.099 59.5131 112.393 59.5131C112.634 59.5131 112.871 59.5481 113.104 59.6182C113.336 59.6882 113.553 59.7864 113.755 59.9132L113.439 60.7004C113.264 60.5869 113.084 60.4992 112.899 60.438C112.715 60.3768 112.542 60.3462 112.38 60.3462C112.248 60.3462 112.145 60.368 112.071 60.4118C111.996 60.4513 111.959 60.51 111.959 60.5889C111.959 60.6372 111.981 60.6762 112.025 60.7068C112.068 60.7334 112.152 60.7616 112.275 60.7922L112.834 60.9169C113.189 60.9998 113.444 61.1226 113.597 61.2844C113.755 61.4417 113.834 61.6583 113.834 61.9336C113.834 62.2616 113.702 62.5196 113.439 62.7079C113.18 62.8959 112.821 62.9896 112.36 62.9896Z" fill="black"/>
<path d="M117.866 59.6049V62.9373H116.695V62.4845C116.599 62.6423 116.458 62.7667 116.274 62.8584C116.09 62.9462 115.888 62.9896 115.669 62.9896C115.383 62.9896 115.129 62.92 114.905 62.78C114.682 62.6399 114.506 62.4411 114.379 62.1831C114.256 61.9207 114.195 61.6188 114.195 61.2775C114.195 60.9322 114.258 60.6259 114.385 60.3595C114.513 60.0927 114.688 59.885 114.912 59.7361C115.136 59.5876 115.388 59.5131 115.669 59.5131C115.888 59.5131 116.087 59.5614 116.268 59.6576C116.452 59.7494 116.594 59.8737 116.695 60.0315V59.6049H117.866ZM116.037 62.1042C116.248 62.1042 116.41 62.0322 116.524 61.8877C116.638 61.7436 116.695 61.5359 116.695 61.2647C116.695 60.989 116.638 60.7793 116.524 60.6348C116.41 60.4863 116.248 60.4118 116.037 60.4118C115.831 60.4118 115.669 60.4883 115.55 60.6412C115.432 60.7901 115.373 61.0022 115.373 61.2775C115.373 61.5444 115.429 61.75 115.544 61.8945C115.658 62.0342 115.822 62.1042 116.037 62.1042Z" fill="black"/>
<path d="M120.857 59.6113H122.029L120.541 62.9373H119.561L118.094 59.6113H119.331L120.081 61.5271L120.857 59.6113Z" fill="black"/>
<path d="M125.265 61.389H123.166C123.188 61.6474 123.262 61.8329 123.389 61.9468C123.517 62.0603 123.703 62.1175 123.949 62.1175C124.116 62.1175 124.282 62.0909 124.449 62.0386C124.615 61.9819 124.767 61.9054 124.903 61.8092L125.206 62.596C125.039 62.7188 124.837 62.815 124.6 62.885C124.364 62.955 124.127 62.9896 123.89 62.9896C123.508 62.9896 123.177 62.92 122.896 62.78C122.615 62.6399 122.4 62.4411 122.251 62.1831C122.102 61.9207 122.027 61.6124 122.027 61.2582C122.027 60.9213 122.098 60.6219 122.238 60.3595C122.383 60.0927 122.58 59.885 122.83 59.7361C123.085 59.5876 123.374 59.5131 123.699 59.5131C124.015 59.5131 124.291 59.5831 124.528 59.7232C124.765 59.8629 124.947 60.0641 125.074 60.3265C125.201 60.5845 125.265 60.8863 125.265 61.2317V61.389ZM123.732 60.3265C123.438 60.3265 123.253 60.4971 123.179 60.838H124.245C124.201 60.4971 124.03 60.3265 123.732 60.3265Z" fill="black"/>
<path d="M125.982 58.4832C126.276 58.2997 126.622 58.2079 127.021 58.2079C127.32 58.2079 127.585 58.2578 127.818 58.3584C128.05 58.4546 128.23 58.5902 128.357 58.7653C128.488 58.9404 128.554 59.1392 128.554 59.3622C128.554 59.594 128.491 59.7928 128.364 59.959C128.241 60.1253 128.065 60.3048 127.837 60.4971C127.684 60.6284 127.57 60.7354 127.495 60.8183C127.421 60.9016 127.372 60.9914 127.35 61.0876L127.304 61.3564H126.607V60.9495C126.607 60.7443 126.644 60.5756 126.719 60.4444C126.798 60.3092 126.907 60.1627 127.048 60.0049C127.149 59.9003 127.223 59.8105 127.271 59.7361C127.32 59.6616 127.344 59.5767 127.344 59.4805C127.344 59.266 127.201 59.1589 126.916 59.1589C126.771 59.1589 126.618 59.1831 126.455 59.231C126.293 59.2748 126.135 59.3469 125.982 59.4475V58.4832ZM126.35 62.9373V61.717H127.587V62.9373H126.35Z" fill="black"/>
<path fill-rule="evenodd" clip-rule="evenodd" d="M35.734 143.951C40.7307 143.951 44.781 139.913 44.781 134.931C44.781 129.95 40.7307 125.912 35.734 125.912C30.7374 125.912 26.6868 129.95 26.6868 134.931C26.6868 139.913 30.7374 143.951 35.734 143.951Z" fill="#48D38A"/>
<path d="M56.0521 132.393H56.4994V137.063H55.9996V133.593L54.4797 137.063H54.0978L52.565 133.619L52.5715 137.063H52.0713V132.393H52.519L54.2952 136.421L56.0521 132.393Z" fill="black"/>
<path d="M58.9579 137.109C58.6466 137.109 58.3725 137.039 58.1356 136.899C57.8986 136.759 57.7145 136.56 57.5829 136.302C57.4557 136.044 57.392 135.742 57.392 135.397C57.392 135.051 57.4557 134.75 57.5829 134.492C57.7145 134.234 57.8986 134.035 58.1356 133.895C58.3725 133.755 58.6466 133.685 58.9579 133.685C59.2695 133.685 59.5437 133.755 59.7806 133.895C60.0172 134.035 60.1993 134.234 60.3264 134.492C60.458 134.75 60.5238 135.051 60.5238 135.397C60.5238 135.742 60.458 136.044 60.3264 136.302C60.1993 136.56 60.0172 136.759 59.7806 136.899C59.5437 137.039 59.2695 137.109 58.9579 137.109ZM58.9579 136.67C59.2869 136.67 59.5392 136.563 59.7148 136.348C59.89 136.13 59.978 135.812 59.978 135.397C59.978 134.995 59.888 134.684 59.708 134.465C59.5283 134.242 59.2784 134.131 58.9579 134.131C58.6333 134.131 58.381 134.242 58.2014 134.465C58.0213 134.684 57.9317 134.995 57.9317 135.397C57.9317 135.812 58.0193 136.13 58.1949 136.348C58.3746 136.563 58.6289 136.67 58.9579 136.67Z" fill="black"/>
<path d="M63.0061 133.685C63.8002 133.685 64.1974 134.12 64.1974 134.99V137.063H63.6641V135.017C63.6641 134.71 63.6028 134.487 63.4801 134.347C63.3573 134.203 63.1644 134.131 62.9012 134.131C62.5939 134.131 62.3485 134.225 62.164 134.413C61.9799 134.601 61.8879 134.855 61.8879 135.174V137.063H61.3546V134.689C61.3546 134.347 61.3372 134.039 61.3021 133.763H61.8088L61.8612 134.354C61.9622 134.14 62.1136 133.976 62.3154 133.862C62.5172 133.744 62.7474 133.685 63.0061 133.685Z" fill="black"/>
<path d="M65.9143 134.184V135.987C65.9143 136.232 65.9648 136.405 66.0657 136.505C66.1666 136.602 66.3091 136.65 66.4932 136.65C66.6159 136.65 66.7346 136.63 66.8485 136.591V137.044C66.7128 137.087 66.559 137.109 66.3878 137.109C66.0722 137.109 65.8243 137.022 65.6446 136.847C65.469 136.667 65.3814 136.405 65.3814 136.06V134.184H64.7363V133.763H65.3814V132.917L65.9143 132.727V133.763H66.8618V134.184H65.9143Z" fill="black"/>
<path d="M69.1557 133.685C69.9497 133.685 70.3466 134.12 70.3466 134.99V137.063H69.8137V135.017C69.8137 134.71 69.7523 134.487 69.6292 134.347C69.5065 134.203 69.3135 134.131 69.0503 134.131C68.7435 134.131 68.4976 134.225 68.3136 134.413C68.1291 134.601 68.037 134.855 68.037 135.174V137.063H67.5042V132.235H68.037V134.302C68.1424 134.1 68.2914 133.947 68.4843 133.842C68.6817 133.737 68.9058 133.685 69.1557 133.685Z" fill="black"/>
<path d="M71.3529 137.063V132.235H71.8858V137.063H71.3529Z" fill="black"/>
<path d="M75.829 133.763L74.2829 137.365C74.1206 137.741 73.9163 138.017 73.6709 138.191C73.425 138.366 73.1227 138.487 72.763 138.552L72.6512 138.139C72.9624 138.069 73.197 137.975 73.3552 137.857C73.5175 137.743 73.6511 137.566 73.7565 137.326L73.8881 137.03L72.4865 133.763H73.046L74.1642 136.486L75.2962 133.763H75.829Z" fill="black"/>
<path d="M57.9938 107.138H58.5271L56.8885 111.808H56.4279L55.0925 107.984L53.7502 111.808H53.2961L51.651 107.138H52.2037L53.533 111.04L54.8951 107.138L55.3093 107.144L56.6516 111.054L57.9938 107.138Z" fill="black"/>
<path d="M61.6635 110.142H59.2353C59.2397 110.562 59.3362 110.879 59.5251 111.093C59.7181 111.307 59.9966 111.414 60.3608 111.414C60.7467 111.414 61.1019 111.286 61.4265 111.028L61.6041 111.414C61.4592 111.55 61.2731 111.657 61.045 111.736C60.8214 111.815 60.5909 111.854 60.3539 111.854C59.8364 111.854 59.4306 111.703 59.1368 111.401C58.8429 111.095 58.6959 110.677 58.6959 110.149C58.6959 109.812 58.7617 109.514 58.8933 109.256C59.0249 108.994 59.209 108.791 59.446 108.646C59.683 108.502 59.9526 108.43 60.2554 108.43C60.6938 108.43 61.0382 108.574 61.2884 108.863C61.5383 109.147 61.6635 109.54 61.6635 110.044V110.142ZM60.2619 108.843C59.9857 108.843 59.7597 108.926 59.584 109.092C59.4133 109.258 59.3035 109.493 59.255 109.794H61.1831C61.1568 109.484 61.0648 109.247 60.9065 109.086C60.7531 108.924 60.5384 108.843 60.2619 108.843Z" fill="black"/>
<path d="M65.2422 110.142H62.8144C62.8188 110.562 62.9153 110.879 63.1038 111.093C63.2968 111.307 63.5753 111.414 63.9395 111.414C64.3258 111.414 64.681 111.286 65.0056 111.028L65.1832 111.414C65.0383 111.55 64.8518 111.657 64.6237 111.736C64.4001 111.815 64.17 111.854 63.933 111.854C63.4155 111.854 63.0097 111.703 62.7159 111.401C62.422 111.095 62.275 110.677 62.275 110.149C62.275 109.812 62.3408 109.514 62.4724 109.256C62.604 108.994 62.7881 108.791 63.0251 108.646C63.2621 108.502 63.5317 108.43 63.8345 108.43C64.2729 108.43 64.6173 108.574 64.8671 108.863C65.1174 109.147 65.2422 109.54 65.2422 110.044V110.142ZM63.841 108.843C63.5644 108.843 63.3388 108.926 63.1631 109.092C62.992 109.258 62.8826 109.493 62.8341 109.794H64.7622C64.7355 109.484 64.6435 109.247 64.4857 109.086C64.3322 108.924 64.1171 108.843 63.841 108.843Z" fill="black"/>
<path d="M68.9791 111.808H68.282L66.5844 110.221V111.808H66.0511V106.98H66.5844V110.024L68.1435 108.515H68.8213L67.1633 110.096L68.9791 111.808Z" fill="black"/>
<path d="M69.4377 111.808V106.98H69.9706V111.808H69.4377Z" fill="black"/>
<path d="M73.9135 108.508L72.3673 112.11C72.205 112.486 72.0012 112.761 71.7553 112.936C71.5099 113.111 71.2071 113.231 70.8474 113.297L70.7356 112.884C71.0472 112.814 71.2818 112.72 71.4396 112.602C71.6019 112.488 71.7355 112.311 71.8409 112.07L71.9725 111.775L70.5713 108.508H71.1304L72.249 111.231L73.3806 108.508H73.9135Z" fill="black"/>
<path fill-rule="evenodd" clip-rule="evenodd" d="M35.734 118.696C40.7307 118.696 44.781 114.657 44.781 109.676C44.781 104.695 40.7307 100.656 35.734 100.656C30.7374 100.656 26.6868 104.695 26.6868 109.676C26.6868 114.657 30.7374 118.696 35.734 118.696Z" fill="#F9F9F9"/>
<path fill-rule="evenodd" clip-rule="evenodd" d="M35.734 93.4404C40.7307 93.4404 44.781 89.4021 44.781 84.4207C44.781 79.4394 40.7307 75.401 35.734 75.401C30.7374 75.401 26.6868 79.4394 26.6868 84.4207C26.6868 89.4021 30.7374 93.4404 35.734 93.4404Z" fill="#F9F9F9"/>
<path d="M51.1056 81.8819H52.678C53.428 81.8819 54.0073 82.0856 54.4151 82.4921C54.8272 82.8946 55.0335 83.4673 55.0335 84.2106C55.0335 84.9584 54.8272 85.536 54.4151 85.9424C54.0073 86.3493 53.428 86.5526 52.678 86.5526H51.1056V81.8819ZM52.6453 86.0934C53.2504 86.0934 53.7046 85.936 54.0073 85.6213C54.3142 85.3062 54.4676 84.8361 54.4676 84.2106C54.4676 82.9646 53.8604 82.3412 52.6453 82.3412H51.6449V86.0934H52.6453Z" fill="black"/>
<path d="M58.8638 83.2532V86.5526H58.3374V85.9557C58.2409 86.1614 58.094 86.3208 57.8966 86.4347C57.7036 86.5437 57.4775 86.5985 57.2188 86.5985C56.9249 86.5985 56.6661 86.5284 56.4425 86.3888C56.2229 86.2487 56.0521 86.0519 55.929 85.7984C55.8107 85.5404 55.7513 85.2405 55.7513 84.8997C55.7513 84.5584 55.8127 84.2589 55.9358 84.0009C56.0586 83.7385 56.2297 83.5353 56.4489 83.3908C56.6726 83.2463 56.9293 83.1743 57.2188 83.1743C57.4775 83.1743 57.7036 83.231 57.8966 83.3449C58.0895 83.4584 58.2365 83.6182 58.3374 83.8239V83.2532H58.8638ZM57.3241 86.159C57.6487 86.159 57.8986 86.0499 58.0742 85.831C58.2494 85.608 58.3374 85.2933 58.3374 84.8864C58.3374 84.4799 58.2494 84.1672 58.0742 83.9482C57.8986 83.7297 57.6487 83.6202 57.3241 83.6202C56.9996 83.6202 56.7448 83.7341 56.5608 83.9615C56.3811 84.1845 56.2911 84.4972 56.2911 84.8997C56.2911 85.3017 56.3811 85.6124 56.5608 85.831C56.7408 86.0499 56.9951 86.159 57.3241 86.159Z" fill="black"/>
<path d="M59.894 86.5526V83.2531H60.4269V86.5526H59.894ZM59.8416 81.8558H60.4927V82.4595H59.8416V81.8558Z" fill="black"/>
<path d="M61.462 86.5526V81.7246H61.9949V86.5526H61.462Z" fill="black"/>
<path d="M65.9382 83.2532L64.392 86.8545C64.2297 87.2304 64.0255 87.506 63.78 87.6811C63.5342 87.8558 63.2318 87.9761 62.8721 88.0417L62.7599 87.6284C63.0715 87.5584 63.3061 87.4646 63.4639 87.3463C63.6262 87.2328 63.7602 87.0557 63.8656 86.815L63.9972 86.52L62.5956 83.2532H63.1547L64.2733 85.9755L65.4053 83.2532H65.9382Z" fill="black"/>
<path d="M65.8021 42.3067V38.3368H68.5816V39.1565H66.8368V39.8813H68.4697V40.6953H66.8368V42.3067H65.8021Z" fill="black"/>
<path d="M69.0123 42.3068V38.203H70.0248V42.3068H69.0123Z" fill="black"/>
<path d="M73.2518 40.9911H71.4679C71.4865 41.2104 71.5498 41.3682 71.658 41.4648C71.7662 41.5614 71.9245 41.6097 72.1332 41.6097C72.2749 41.6097 72.4166 41.5875 72.5583 41.5429C72.7 41.4946 72.8288 41.4294 72.9442 41.3477L73.2018 42.017C73.0601 42.1208 72.8885 42.2029 72.6871 42.2621C72.4856 42.3216 72.2846 42.3514 72.0831 42.3514C71.7586 42.3514 71.4772 42.2919 71.2386 42.1731C71 42.054 70.8171 41.885 70.6904 41.6656C70.5636 41.4426 70.5002 41.1806 70.5002 40.8796C70.5002 40.593 70.56 40.3387 70.6791 40.1155C70.8022 39.8888 70.9701 39.7122 71.1825 39.5858C71.3989 39.4594 71.6451 39.3962 71.9208 39.3962C72.1893 39.3962 72.4242 39.4557 72.6257 39.5747C72.8267 39.6936 72.9817 39.8646 73.0899 40.0876C73.1977 40.3069 73.2518 40.5632 73.2518 40.8571V40.9911ZM71.9487 40.0876C71.6988 40.0876 71.5426 40.2326 71.4792 40.5226H72.3851C72.348 40.2326 72.2022 40.0876 71.9487 40.0876Z" fill="black"/>
<path d="M75.588 40.8458L76.8015 42.3067H75.6159L75.0119 41.5485L74.408 42.3067H73.228L74.4415 40.8458L73.3007 39.4743H74.4863L75.0119 40.1545L75.5319 39.4743H76.7289L75.588 40.8458Z" fill="black"/>
<path d="M76.9046 42.3067V39.4743H77.917V42.3067H76.9046ZM76.8767 38.0859H77.9336V38.9947H76.8767V38.0859Z" fill="black"/>
<path d="M80.3948 39.3962C80.6406 39.3962 80.859 39.4576 81.0492 39.5802C81.2393 39.6992 81.3867 39.8702 81.4908 40.0932C81.599 40.3161 81.6531 40.5729 81.6531 40.8627C81.6531 41.1565 81.599 41.4165 81.4908 41.6435C81.3826 41.8665 81.2337 42.0411 81.0435 42.1675C80.8534 42.2903 80.637 42.3514 80.3948 42.3514C80.2046 42.3514 80.0311 42.3144 79.8744 42.2399C79.7178 42.1619 79.6007 42.056 79.5224 41.922V42.3068H78.5212V38.203H79.5333V39.8144C79.6153 39.688 79.7327 39.5877 79.8857 39.5133C80.0387 39.4353 80.2083 39.3962 80.3948 39.3962ZM80.0872 41.5988C80.266 41.5988 80.402 41.5356 80.4953 41.4092C80.5922 41.2829 80.6406 41.1006 80.6406 40.8627C80.6406 40.6361 80.5942 40.463 80.501 40.3443C80.4077 40.2214 80.2696 40.1601 80.0872 40.1601C79.9043 40.1601 79.7646 40.2214 79.6677 40.3443C79.5708 40.4667 79.5224 40.6433 79.5224 40.874C79.5224 41.1118 79.5708 41.2921 79.6677 41.4149C79.7646 41.5372 79.9043 41.5988 80.0872 41.5988Z" fill="black"/>
<path d="M82.1259 42.3068V38.203H83.1383V42.3068H82.1259Z" fill="black"/>
<path d="M86.3655 40.9911H84.5815C84.6001 41.2104 84.6635 41.3682 84.7717 41.4648C84.8799 41.5614 85.0381 41.6097 85.2468 41.6097C85.3885 41.6097 85.5302 41.5875 85.6719 41.5429C85.8136 41.4946 85.9424 41.4294 86.0579 41.3477L86.3154 42.017C86.1737 42.1208 86.0021 42.2029 85.8007 42.2621C85.5993 42.3216 85.3982 42.3514 85.1968 42.3514C84.8722 42.3514 84.5908 42.2919 84.3523 42.1731C84.1137 42.054 83.9308 41.885 83.804 41.6656C83.6773 41.4426 83.6139 41.1806 83.6139 40.8796C83.6139 40.593 83.6736 40.3387 83.7927 40.1155C83.9159 39.8888 84.0838 39.7122 84.2961 39.5858C84.5125 39.4594 84.7588 39.3962 85.0345 39.3962C85.303 39.3962 85.5379 39.4557 85.7393 39.5747C85.9404 39.6936 86.0954 39.8646 86.2036 40.0876C86.3114 40.3069 86.3655 40.5632 86.3655 40.8571V40.9911ZM85.0624 40.0876C84.8125 40.0876 84.6562 40.2326 84.5929 40.5226H85.4987C85.4616 40.2326 85.3159 40.0876 85.0624 40.0876Z" fill="black"/>
</g>
<defs>
<filter id="filter0_d_1_1647" x="-9.25598" y="2.77037" width="171.108" height="174.926" filterUnits="userSpaceOnUse" color-interpolation-filters="sRGB">
<feFlood flood-opacity="0" result="BackgroundImageFix"/>
<feColorMatrix in="SourceAlpha" type="matrix" values="0 0 0 0 0 0 0 0 0 0 0 0 0 0 0 0 0 0 127 0" result="hardAlpha"/>
<feOffset/>
<feGaussianBlur stdDeviation="12.5"/>
<feColorMatrix type="matrix" values="0 0 0 0 0 0 0 0 0 0 0 0 0 0 0 0 0 0 0.06 0"/>
<feBlend mode="normal" in2="BackgroundImageFix" result="effect1_dropShadow_1_1647"/>
<feBlend mode="normal" in="SourceGraphic" in2="effect1_dropShadow_1_1647" result="shape"/>
</filter>
<clipPath id="clip0_1_1647">
<rect width="153" height="163" fill="white"/>
</clipPath>
</defs>
</svg>
