<svg width="158" height="222" viewBox="0 0 158 222" fill="none" xmlns="http://www.w3.org/2000/svg">
<g clip-path="url(#clip0_1_1704)">
<path d="M79 157.562C122.63 157.562 158 122.29 158 78.7809C158 35.2714 122.63 0 79 0C35.3695 0 0 35.2714 0 78.7809C0 122.29 35.3695 157.562 79 157.562Z" fill="#DCFFEC"/>
<g filter="url(#filter0_d_1_1704)">
<path d="M137.156 28.6854H20.4274C18.125 28.6854 16.2585 30.5467 16.2585 32.8427V207.449C16.2585 209.745 18.125 211.607 20.4274 211.607H137.156C139.458 211.607 141.325 209.745 141.325 207.449V32.8427C141.325 30.5467 139.458 28.6854 137.156 28.6854Z" fill="white"/>
</g>
<path d="M28.6716 59.2806H29.8507V63.8304H28.6716V61.99H26.8262V63.8304H25.6471V59.2806H26.8262V61.0504H28.6716V59.2806Z" fill="black"/>
<path d="M32.2485 63.8815C31.8854 63.8815 31.5692 63.8134 31.3001 63.677C31.031 63.5407 30.8238 63.3444 30.6786 63.0892C30.5333 62.8335 30.4607 62.5329 30.4607 62.1879C30.4607 61.8428 30.5333 61.5427 30.6786 61.287C30.8238 61.0313 31.031 60.8355 31.3001 60.6991C31.5692 60.5628 31.8854 60.4946 32.2485 60.4946C32.6073 60.4946 32.9192 60.5649 33.184 60.7054C33.4532 60.8417 33.6604 61.038 33.8056 61.2932C33.9509 61.5447 34.0235 61.8428 34.0235 62.1879C34.0235 62.5329 33.9509 62.8335 33.8056 63.0892C33.6604 63.3403 33.4532 63.5365 33.184 63.677C32.9192 63.8134 32.6073 63.8815 32.2485 63.8815ZM32.2485 63.0185C32.6671 63.0185 32.8765 62.7416 32.8765 62.1879C32.8765 61.9068 32.8231 61.7002 32.7163 61.568C32.6137 61.4316 32.4578 61.3635 32.2485 61.3635C32.0349 61.3635 31.8747 61.4316 31.7679 61.568C31.6611 61.7002 31.6077 61.9068 31.6077 62.1879C31.6077 62.4735 31.6611 62.6842 31.7679 62.8206C31.8747 62.9528 32.0349 63.0185 32.2485 63.0185Z" fill="black"/>
<path d="M38.8706 60.584H39.9856L38.6271 63.8304H37.6723L37.0187 62.2199L36.4035 63.8304H35.4423L34.0839 60.584H35.2629L35.987 62.4564L36.6919 60.584H37.4352L38.1593 62.4946L38.8706 60.584Z" fill="black"/>
<path d="M42.1284 63.8304V59.1273H43.2882V63.8304H42.1284Z" fill="black"/>
<path d="M45.6211 63.8815C45.258 63.8815 44.942 63.8134 44.6727 63.677C44.4038 63.5407 44.1966 63.3444 44.0511 63.0892C43.906 62.8335 43.8335 62.5329 43.8335 62.1879C43.8335 61.8428 43.906 61.5427 44.0511 61.287C44.1966 61.0313 44.4038 60.8355 44.6727 60.6991C44.942 60.5628 45.258 60.4946 45.6211 60.4946C45.98 60.4946 46.2919 60.5649 46.5566 60.7054C46.8259 60.8417 47.0331 61.038 47.1782 61.2932C47.3237 61.5447 47.3962 61.8428 47.3962 62.1879C47.3962 62.5329 47.3237 62.8335 47.1782 63.0892C47.0331 63.3403 46.8259 63.5365 46.5566 63.677C46.2919 63.8134 45.98 63.8815 45.6211 63.8815ZM45.6211 63.0185C46.0397 63.0185 46.2494 62.7416 46.2494 62.1879C46.2494 61.9068 46.1956 61.7002 46.0889 61.568C45.9863 61.4316 45.8304 61.3635 45.6211 61.3635C45.4077 61.3635 45.2476 61.4316 45.1404 61.568C45.0337 61.7002 44.9804 61.9068 44.9804 62.1879C44.9804 62.4735 45.0337 62.6842 45.1404 62.8206C45.2476 62.9528 45.4077 63.0185 45.6211 63.0185Z" fill="black"/>
<path d="M50.1206 60.4946C50.5049 60.4946 50.7913 60.6118 50.9793 60.8459C51.1715 61.0762 51.2678 61.4254 51.2678 61.8939V63.8304H50.1076V61.9451C50.1076 61.7451 50.0734 61.6021 50.0051 61.5169C49.9371 61.4275 49.83 61.383 49.6849 61.383C49.5098 61.383 49.3689 61.4425 49.2618 61.5618C49.155 61.6769 49.1017 61.8303 49.1017 62.022V63.8304H47.9419V61.5169C47.9419 61.1677 47.9248 60.8567 47.8906 60.584H48.9799L49.0375 61.0633C49.1617 60.88 49.3155 60.7395 49.499 60.6418C49.6828 60.5436 49.89 60.4946 50.1206 60.4946Z" fill="black"/>
<path d="M55.4075 60.584V63.6259C55.4075 64.1584 55.247 64.5629 54.9268 64.8398C54.6062 65.1213 54.1364 65.2618 53.5169 65.2618C52.9871 65.2618 52.5281 65.1678 52.1391 64.9803L52.3121 64.1368C52.5043 64.222 52.7011 64.2881 52.9016 64.3351C53.1067 64.3862 53.2989 64.4116 53.4786 64.4116C53.7433 64.4116 53.9376 64.3542 54.0618 64.2391C54.1898 64.1285 54.254 63.9539 54.254 63.7153V63.2359C54.1473 63.3764 54.0018 63.4958 53.8183 63.5939C53.6386 63.692 53.4465 63.7406 53.2414 63.7406C52.9637 63.7406 52.714 63.6749 52.4918 63.5427C52.2738 63.4064 52.1028 63.2168 51.979 62.974C51.8552 62.7271 51.7931 62.4415 51.7931 62.1176C51.7931 61.7983 51.8552 61.5169 51.979 61.2741C52.1028 61.0271 52.2738 60.8355 52.4918 60.6991C52.714 60.5628 52.9637 60.4946 53.2414 60.4946C53.4594 60.4946 53.6578 60.5395 53.8375 60.6289C54.0168 60.7183 54.1556 60.8397 54.254 60.9931V60.584H55.4075ZM53.6003 62.878C53.8054 62.878 53.9655 62.8123 54.081 62.6801C54.196 62.5437 54.254 62.3562 54.254 62.1176C54.254 61.8877 54.196 61.7064 54.081 61.5747C53.9655 61.4383 53.8054 61.3701 53.6003 61.3701C53.3952 61.3701 53.233 61.4362 53.1134 61.568C52.9979 61.7002 52.9404 61.8836 52.9404 62.1176C52.9404 62.3521 53 62.5375 53.1196 62.6734C53.2393 62.8098 53.3994 62.878 53.6003 62.878Z" fill="black"/>
<path d="M61.3765 59.1273V63.8304H60.2359V63.3893C60.1417 63.5427 60.005 63.6641 59.8257 63.7535C59.646 63.8387 59.4497 63.8815 59.2362 63.8815C58.9586 63.8815 58.7106 63.8109 58.4929 63.6704C58.2749 63.5257 58.104 63.3253 57.9802 63.0696C57.8605 62.8098 57.8009 62.5117 57.8009 62.1754C57.8009 61.8428 57.8605 61.5489 57.9802 61.2932C58.104 61.038 58.2749 60.8417 58.4929 60.7054C58.7106 60.5648 58.9586 60.4946 59.2362 60.4946C59.4413 60.4946 59.629 60.537 59.7999 60.6222C59.975 60.7074 60.1138 60.8226 60.2163 60.9673V59.1273H61.3765ZM59.5948 63.0185C59.7999 63.0185 59.9579 62.9482 60.0692 62.8077C60.1801 62.663 60.2359 62.4564 60.2359 62.1879C60.2359 61.928 60.178 61.7281 60.0625 61.5871C59.9516 61.4425 59.7957 61.3701 59.5948 61.3701C59.3855 61.3701 59.2254 61.4404 59.1145 61.5809C59.0032 61.7173 58.9478 61.9151 58.9478 62.1754C58.9478 62.4435 59.0032 62.6522 59.1145 62.8015C59.2296 62.9462 59.3901 63.0185 59.5948 63.0185Z" fill="black"/>
<path d="M63.7061 63.8815C63.343 63.8815 63.027 63.8134 62.7576 63.677C62.4888 63.5407 62.2816 63.3444 62.1361 63.0892C61.991 62.8335 61.9185 62.5329 61.9185 62.1879C61.9185 61.8428 61.991 61.5427 62.1361 61.287C62.2816 61.0313 62.4888 60.8355 62.7576 60.6991C63.027 60.5628 63.343 60.4946 63.7061 60.4946C64.065 60.4946 64.3768 60.5649 64.6416 60.7054C64.9109 60.8417 65.1181 61.038 65.2631 61.2932C65.4086 61.5447 65.4812 61.8428 65.4812 62.1879C65.4812 62.5329 65.4086 62.8335 65.2631 63.0892C65.1181 63.3403 64.9109 63.5365 64.6416 63.677C64.3768 63.8134 64.065 63.8815 63.7061 63.8815ZM63.7061 63.0185C64.1246 63.0185 64.3339 62.7416 64.3339 62.1879C64.3339 61.9068 64.2805 61.7002 64.1738 61.568C64.0713 61.4316 63.9153 61.3635 63.7061 61.3635C63.4926 61.3635 63.3321 61.4316 63.2254 61.568C63.1187 61.7002 63.0653 61.9068 63.0653 62.1879C63.0653 62.4735 63.1187 62.6842 63.2254 62.8206C63.3321 62.9528 63.4926 63.0185 63.7061 63.0185Z" fill="black"/>
<path d="M71.2496 60.584L69.7563 63.9451C69.56 64.3841 69.3124 64.7034 69.013 64.9038C68.7183 65.1083 68.3531 65.236 67.9175 65.2871L67.6481 64.4053C67.9475 64.3459 68.1718 64.269 68.321 64.1754C68.4707 64.0815 68.5836 63.9518 68.6608 63.7855L68.7441 63.6067L67.4176 60.584H68.6224L69.3528 62.4564L70.109 60.584H71.2496Z" fill="black"/>
<path d="M73.0364 63.8815C72.6733 63.8815 72.3573 63.8134 72.088 63.677C71.8187 63.5407 71.6115 63.3444 71.4664 63.0892C71.3214 62.8335 71.2484 62.5329 71.2484 62.1879C71.2484 61.8428 71.3214 61.5427 71.4664 61.287C71.6115 61.0313 71.8187 60.8355 72.088 60.6991C72.3573 60.5628 72.6733 60.4946 73.0364 60.4946C73.3954 60.4946 73.7072 60.5649 73.9719 60.7054C74.2412 60.8417 74.4484 61.038 74.5935 61.2932C74.7386 61.5447 74.8115 61.8428 74.8115 62.1879C74.8115 62.5329 74.7386 62.8335 74.5935 63.0892C74.4484 63.3403 74.2412 63.5365 73.9719 63.677C73.7072 63.8134 73.3954 63.8815 73.0364 63.8815ZM73.0364 63.0185C73.455 63.0185 73.6643 62.7416 73.6643 62.1879C73.6643 61.9068 73.6109 61.7002 73.5042 61.568C73.4016 61.4316 73.2457 61.3635 73.0364 61.3635C72.823 61.3635 72.6625 61.4316 72.5558 61.568C72.449 61.7002 72.3957 61.9068 72.3957 62.1879C72.3957 62.4735 72.449 62.6842 72.5558 62.8206C72.6625 62.9528 72.823 63.0185 73.0364 63.0185Z" fill="black"/>
<path d="M78.6314 60.584V63.8304H77.4975V63.3955C77.2882 63.7194 76.9785 63.8815 76.5682 63.8815C76.1539 63.8815 75.8441 63.7664 75.639 63.5365C75.4381 63.3062 75.338 62.9549 75.338 62.4818V60.584H76.4978V62.5138C76.4978 62.8335 76.6366 62.9931 76.9143 62.9931C77.0764 62.9931 77.2069 62.9357 77.3053 62.8206C77.4074 62.7054 77.4587 62.552 77.4587 62.3604V60.584H78.6314Z" fill="black"/>
<path d="M85.5534 60.584H86.6682L85.31 63.8304H84.3549L83.7012 62.2199L83.0863 63.8304H82.1249L80.7667 60.584H81.9457L82.6698 62.4564L83.3748 60.584H84.1181L84.8418 62.4946L85.5534 60.584Z" fill="black"/>
<path d="M90.3122 60.584V63.8304H89.1716V63.3893C89.0774 63.5427 88.9406 63.6641 88.7614 63.7535C88.5821 63.8387 88.3854 63.8815 88.1719 63.8815C87.8943 63.8815 87.6466 63.8134 87.4286 63.677C87.2106 63.5407 87.0397 63.3469 86.9158 63.0954C86.7962 62.8397 86.7366 62.5458 86.7366 62.2136C86.7366 61.8769 86.7983 61.5788 86.9225 61.319C87.0463 61.0592 87.2172 60.8567 87.4349 60.712C87.6529 60.5669 87.8984 60.4946 88.1719 60.4946C88.3854 60.4946 88.58 60.5416 88.7551 60.6351C88.9344 60.7245 89.0732 60.8459 89.1716 60.9993V60.584H90.3122ZM88.5309 63.0185C88.736 63.0185 88.894 62.9482 89.0048 62.8077C89.1162 62.6672 89.1716 62.4647 89.1716 62.2008C89.1716 61.9322 89.1162 61.7281 89.0048 61.5871C88.894 61.4425 88.736 61.3701 88.5309 61.3701C88.3299 61.3701 88.1719 61.4445 88.0564 61.5938C87.9414 61.7385 87.8834 61.9451 87.8834 62.2136C87.8834 62.4735 87.9389 62.6734 88.0502 62.8144C88.1611 62.9507 88.3216 63.0185 88.5309 63.0185Z" fill="black"/>
<path d="M93.1804 60.4946C93.5648 60.4946 93.8508 60.6118 94.0388 60.8459C94.231 61.0762 94.3273 61.4254 94.3273 61.8939V63.8304H93.1675V61.9451C93.1675 61.7451 93.1333 61.6021 93.0649 61.5169C92.9966 61.4275 92.8898 61.383 92.7444 61.383C92.5693 61.383 92.4284 61.4425 92.3216 61.5618C92.2149 61.6769 92.1615 61.8303 92.1615 62.022V63.8304H91.0014V61.5169C91.0014 61.1677 90.9843 60.8567 90.9501 60.584H92.0398L92.0974 61.0633C92.2212 60.88 92.375 60.7395 92.5588 60.6418C92.7423 60.5436 92.9495 60.4946 93.1804 60.4946Z" fill="black"/>
<path d="M96.9227 62.9482C96.9994 62.9482 97.102 62.9358 97.23 62.91V63.7855C97.072 63.8495 96.8715 63.8815 96.6276 63.8815C96.1878 63.8815 95.8526 63.7577 95.6216 63.5107C95.3953 63.2638 95.2823 62.9208 95.2823 62.4818V61.4341H94.6732V60.584H95.2823V59.8494L96.4421 59.4785V60.584H97.2237V61.4341H96.4421V62.4818C96.4421 62.6352 96.4867 62.7524 96.5763 62.8335C96.6705 62.91 96.786 62.9482 96.9227 62.9482Z" fill="black"/>
<path d="M101.447 62.9482C101.524 62.9482 101.627 62.9358 101.755 62.91V63.7855C101.597 63.8495 101.396 63.8815 101.152 63.8815C100.712 63.8815 100.377 63.7577 100.146 63.5107C99.9198 63.2638 99.8064 62.9208 99.8064 62.4818V61.4341H99.1978V60.584H99.8064V59.8494L100.966 59.4785V60.584H101.748V61.4341H100.966V62.4818C100.966 62.6352 101.011 62.7524 101.101 62.8335C101.195 62.91 101.31 62.9482 101.447 62.9482Z" fill="black"/>
<path d="M103.831 63.8815C103.467 63.8815 103.151 63.8134 102.883 63.677C102.613 63.5407 102.406 63.3444 102.261 63.0892C102.116 62.8335 102.043 62.5329 102.043 62.1879C102.043 61.8428 102.116 61.5427 102.261 61.287C102.406 61.0313 102.613 60.8355 102.883 60.6991C103.151 60.5628 103.467 60.4946 103.831 60.4946C104.19 60.4946 104.501 60.5649 104.766 60.7054C105.035 60.8417 105.243 61.038 105.388 61.2932C105.533 61.5447 105.606 61.8428 105.606 62.1879C105.606 62.5329 105.533 62.8335 105.388 63.0892C105.243 63.3403 105.035 63.5365 104.766 63.677C104.501 63.8134 104.19 63.8815 103.831 63.8815ZM103.831 63.0185C104.25 63.0185 104.459 62.7416 104.459 62.1879C104.459 61.9068 104.405 61.7002 104.299 61.568C104.196 61.4316 104.04 61.3635 103.831 61.3635C103.617 61.3635 103.457 61.4316 103.35 61.568C103.243 61.7002 103.19 61.9068 103.19 62.1879C103.19 62.4735 103.243 62.6842 103.35 62.8206C103.457 62.9528 103.617 63.0185 103.831 63.0185Z" fill="black"/>
<path d="M109.324 63.8815C108.674 63.8815 108.162 63.7514 107.786 63.4916L108.08 62.7054C108.256 62.8248 108.454 62.9187 108.677 62.9869C108.899 63.0505 109.116 63.0825 109.33 63.0825C109.462 63.0825 109.565 63.0634 109.638 63.0251C109.71 62.9869 109.747 62.9337 109.747 62.8655C109.747 62.8056 109.719 62.7587 109.663 62.7246C109.612 62.6863 109.512 62.6522 109.362 62.6227L108.837 62.5009C108.504 62.4327 108.262 62.3263 108.112 62.1816C107.967 62.0324 107.895 61.8278 107.895 61.568C107.895 61.3593 107.957 61.1739 108.08 61.0122C108.205 60.8505 108.376 60.7245 108.593 60.6351C108.815 60.5416 109.07 60.4946 109.356 60.4946C109.591 60.4946 109.821 60.5287 110.048 60.5969C110.274 60.665 110.486 60.7607 110.682 60.8845L110.375 61.6512C110.204 61.5406 110.028 61.4553 109.849 61.3955C109.67 61.336 109.501 61.3061 109.343 61.3061C109.215 61.3061 109.114 61.3273 109.042 61.3701C108.969 61.4084 108.933 61.4657 108.933 61.5427C108.933 61.5896 108.954 61.6279 108.997 61.6574C109.04 61.6832 109.121 61.711 109.241 61.7405L109.785 61.8619C110.131 61.943 110.379 62.0623 110.528 62.2199C110.682 62.3733 110.759 62.5841 110.759 62.8526C110.759 63.1719 110.631 63.4234 110.375 63.6068C110.123 63.7897 109.772 63.8815 109.324 63.8815Z" fill="black"/>
<path d="M114.686 60.584V63.8304H113.545V63.3893C113.451 63.5427 113.315 63.6641 113.135 63.7535C112.956 63.8387 112.759 63.8815 112.546 63.8815C112.268 63.8815 112.02 63.8134 111.802 63.677C111.585 63.5407 111.414 63.3469 111.29 63.0954C111.17 62.8397 111.11 62.5458 111.11 62.2136C111.11 61.8769 111.172 61.5788 111.296 61.319C111.42 61.0592 111.591 60.8567 111.809 60.712C112.027 60.5669 112.273 60.4946 112.546 60.4946C112.759 60.4946 112.954 60.5416 113.129 60.6351C113.308 60.7245 113.447 60.8459 113.545 60.9993V60.584H114.686ZM112.905 63.0185C113.11 63.0185 113.268 62.9482 113.379 62.8077C113.49 62.6672 113.545 62.4647 113.545 62.2008C113.545 61.9322 113.49 61.7281 113.379 61.5871C113.268 61.4425 113.11 61.3701 112.905 61.3701C112.704 61.3701 112.546 61.4445 112.431 61.5938C112.315 61.7385 112.258 61.9451 112.258 62.2136C112.258 62.4735 112.313 62.6734 112.424 62.8144C112.535 62.9507 112.695 63.0185 112.905 63.0185Z" fill="black"/>
<path d="M117.599 60.5906H118.74L117.291 63.8304H116.337L114.908 60.5906H116.113L116.843 62.4564L117.599 60.5906Z" fill="black"/>
<path d="M121.891 62.3221H119.847C119.869 62.5737 119.941 62.7545 120.065 62.8655C120.189 62.9761 120.371 63.0314 120.61 63.0314C120.772 63.0314 120.935 63.006 121.097 62.9549C121.259 62.8996 121.406 62.8248 121.539 62.7312L121.834 63.4978C121.671 63.6171 121.475 63.7111 121.244 63.7793C121.013 63.8475 120.783 63.8815 120.552 63.8815C120.18 63.8815 119.858 63.8134 119.584 63.677C119.311 63.5407 119.102 63.3469 118.956 63.0954C118.811 62.8397 118.738 62.5396 118.738 62.1945C118.738 61.8665 118.807 61.5747 118.944 61.319C119.084 61.0592 119.277 60.8567 119.52 60.712C119.768 60.5669 120.05 60.4946 120.366 60.4946C120.674 60.4946 120.943 60.5628 121.173 60.6991C121.404 60.8355 121.582 61.0313 121.705 61.287C121.829 61.5385 121.891 61.8324 121.891 62.1687V62.3221ZM120.398 61.287C120.112 61.287 119.933 61.4533 119.86 61.7854H120.898C120.855 61.4533 120.689 61.287 120.398 61.287Z" fill="black"/>
<path d="M27.4862 68.016C27.3495 68.016 27.2363 68.0563 27.1466 68.1374C27.0568 68.2138 27.012 68.3332 27.012 68.4949V68.5718H27.6464V69.4215H27.012V71.8178H25.8522V69.4215H25.2562V68.5718H25.8522V68.4824C25.8522 68.0434 25.9654 67.7004 26.1918 67.4535C26.4225 67.2065 26.7557 67.0826 27.1914 67.0826C27.4392 67.0826 27.64 67.1126 27.7938 67.1724V68.0604C27.6699 68.0305 27.5674 68.016 27.4862 68.016Z" fill="black"/>
<path d="M29.7892 71.869C29.426 71.869 29.1099 71.8008 28.8408 71.6644C28.5716 71.5281 28.3645 71.3323 28.2192 71.0766C28.074 70.8209 28.0013 70.5207 28.0013 70.1757C28.0013 69.8306 28.074 69.5301 28.2192 69.2748C28.3645 69.0191 28.5716 68.8229 28.8408 68.687C29.1099 68.5506 29.426 68.4824 29.7892 68.4824C30.148 68.4824 30.4598 68.5527 30.7247 68.6932C30.9938 68.8296 31.201 69.0254 31.3463 69.281C31.4915 69.5326 31.5641 69.8306 31.5641 70.1757C31.5641 70.5207 31.4915 70.8209 31.3463 71.0766C31.201 71.3281 30.9938 71.5239 30.7247 71.6644C30.4598 71.8008 30.148 71.869 29.7892 71.869ZM29.7892 71.0063C30.2078 71.0063 30.4171 70.7294 30.4171 70.1757C30.4171 69.8947 30.3637 69.688 30.2569 69.5558C30.1544 69.4195 29.9985 69.3513 29.7892 69.3513C29.5755 69.3513 29.4153 69.4195 29.3085 69.5558C29.2018 69.688 29.1484 69.8947 29.1484 70.1757C29.1484 70.4609 29.2018 70.6721 29.3085 70.8084C29.4153 70.9402 29.5755 71.0063 29.7892 71.0063Z" fill="black"/>
<path d="M34.1668 68.4949C34.3249 68.4949 34.4466 68.5186 34.5321 68.5652V69.6199C34.3483 69.5346 34.1711 69.4918 34.0002 69.4918C33.5132 69.4918 33.2697 69.7242 33.2697 70.1886V71.8178H32.1098V69.5047C32.1098 69.1555 32.0928 68.8445 32.0586 68.5718H33.1479L33.2184 69.1148C33.2953 68.9148 33.4192 68.7614 33.5901 68.655C33.7609 68.5481 33.9532 68.4949 34.1668 68.4949Z" fill="black"/>
<path d="M35.0875 67.4788C35.3738 67.3001 35.7112 67.2107 36.1 67.2107C36.3905 67.2107 36.6489 67.2597 36.8753 67.3574C37.1018 67.4514 37.2769 67.5832 37.4008 67.7536C37.5289 67.9241 37.5931 68.1178 37.5931 68.3352C37.5931 68.561 37.5311 68.7547 37.4072 68.9168C37.2876 69.0786 37.1167 69.2532 36.8946 69.4407C36.7451 69.5687 36.634 69.6731 36.5613 69.7537C36.4887 69.8348 36.4417 69.9221 36.4204 70.016L36.3755 70.2779H35.6963V69.8818C35.6963 69.6814 35.7326 69.5176 35.8052 69.3895C35.8821 69.2577 35.9889 69.1147 36.1256 68.9613C36.2239 68.8595 36.2965 68.7718 36.3435 68.6994C36.3905 68.6271 36.414 68.5439 36.414 68.4504C36.414 68.2417 36.2751 68.1374 35.9975 68.1374C35.8565 68.1374 35.707 68.1606 35.5489 68.2076C35.3908 68.25 35.2371 68.3203 35.0875 68.4184V67.4788ZM35.4464 71.8178V70.6292H36.6511V71.8178H35.4464Z" fill="black"/>
<path fill-rule="evenodd" clip-rule="evenodd" d="M24.5963 125.559V139.618H130.327V125.559H24.5963Z" fill="white"/>
<path fill-rule="evenodd" clip-rule="evenodd" d="M29.1075 139.234V139.394H130.327V139.234H29.1075Z" fill="#C7C7CC"/>
<path d="M120.177 133.855H120.932V134.186H119.024V133.855H119.778V131.262L119.076 131.708V131.33L119.951 130.773H120.177V133.855Z" fill="black"/>
<path d="M122.876 132.043C123.091 132.043 123.278 132.09 123.438 132.183C123.602 132.272 123.727 132.398 123.813 132.561C123.9 132.724 123.943 132.913 123.943 133.127C123.943 133.341 123.895 133.531 123.799 133.697C123.706 133.863 123.571 133.993 123.395 134.085C123.222 134.175 123.019 134.219 122.785 134.219C122.576 134.219 122.372 134.183 122.169 134.109C121.968 134.033 121.798 133.929 121.66 133.798L121.809 133.496C122.127 133.758 122.452 133.889 122.785 133.889C123.025 133.889 123.213 133.822 123.347 133.688C123.485 133.55 123.554 133.365 123.554 133.131C123.554 132.905 123.486 132.723 123.352 132.585C123.217 132.445 123.038 132.374 122.814 132.374C122.487 132.374 122.226 132.507 122.03 132.772H121.756V130.773H123.808V131.099H122.15V132.317C122.34 132.134 122.581 132.043 122.876 132.043Z" fill="black"/>
<path d="M125.263 132.82C125.003 132.82 124.801 132.732 124.657 132.556C124.513 132.381 124.441 132.12 124.441 131.775C124.441 131.433 124.513 131.175 124.657 130.999C124.801 130.823 125.003 130.735 125.263 130.735C125.522 130.735 125.724 130.823 125.868 130.999C126.016 131.175 126.089 131.433 126.089 131.775C126.089 132.12 126.016 132.381 125.868 132.556C125.724 132.732 125.522 132.82 125.263 132.82ZM125.628 134.186H125.248L127.228 130.773H127.608L125.628 134.186ZM125.263 132.542C125.423 132.542 125.54 132.481 125.614 132.36C125.69 132.236 125.729 132.041 125.729 131.775C125.729 131.513 125.69 131.321 125.614 131.2C125.54 131.076 125.423 131.013 125.263 131.013C125.106 131.013 124.989 131.076 124.912 131.2C124.835 131.321 124.797 131.513 124.797 131.775C124.797 132.041 124.835 132.236 124.912 132.36C124.989 132.481 125.106 132.542 125.263 132.542ZM127.594 134.219C127.334 134.219 127.132 134.132 126.988 133.956C126.844 133.78 126.772 133.52 126.772 133.175C126.772 132.83 126.844 132.571 126.988 132.398C127.132 132.223 127.334 132.134 127.594 132.134C127.853 132.134 128.055 132.223 128.199 132.398C128.346 132.571 128.42 132.83 128.42 133.175C128.42 133.52 128.346 133.78 128.199 133.956C128.055 134.132 127.853 134.219 127.594 134.219ZM127.594 133.942C127.757 133.942 127.875 133.881 127.949 133.759C128.026 133.638 128.065 133.443 128.065 133.175C128.065 132.913 128.026 132.721 127.949 132.6C127.872 132.475 127.754 132.413 127.594 132.413C127.433 132.413 127.315 132.475 127.238 132.6C127.164 132.721 127.127 132.913 127.127 133.175C127.127 133.44 127.164 133.635 127.238 133.759C127.315 133.881 127.433 133.942 127.594 133.942Z" fill="black"/>
<g opacity="0.3">
<path d="M33.0534 130.773H33.3802V134.186H33.0149V131.651L31.9047 134.186H31.626L30.5062 131.67L30.511 134.186H30.1458V130.773H30.4725L31.7702 133.716L33.0534 130.773Z" fill="black"/>
<path d="M35.1758 134.219C34.9483 134.219 34.7481 134.168 34.5751 134.066C34.4021 133.964 34.2675 133.819 34.1713 133.63C34.0784 133.442 34.032 133.221 34.032 132.968C34.032 132.716 34.0784 132.496 34.1713 132.307C34.2675 132.119 34.4021 131.973 34.5751 131.871C34.7481 131.769 34.9483 131.717 35.1758 131.717C35.4033 131.717 35.6035 131.769 35.7765 131.871C35.9495 131.973 36.0825 132.119 36.1754 132.307C36.2715 132.496 36.3196 132.716 36.3196 132.968C36.3196 133.221 36.2715 133.442 36.1754 133.63C36.0825 133.819 35.9495 133.964 35.7765 134.066C35.6035 134.168 35.4033 134.219 35.1758 134.219ZM35.1758 133.898C35.4161 133.898 35.6003 133.82 35.7285 133.664C35.8567 133.504 35.9207 133.272 35.9207 132.968C35.9207 132.674 35.855 132.448 35.7237 132.288C35.5923 132.125 35.4097 132.043 35.1758 132.043C34.9387 132.043 34.7545 132.125 34.6231 132.288C34.4918 132.448 34.4261 132.674 34.4261 132.968C34.4261 133.272 34.4901 133.504 34.6183 133.664C34.7497 133.82 34.9355 133.898 35.1758 133.898Z" fill="black"/>
<path d="M38.1328 131.717C38.7127 131.717 39.0027 132.036 39.0027 132.671V134.186H38.6134V132.691C38.6134 132.467 38.5685 132.304 38.4788 132.202C38.3891 132.096 38.2482 132.043 38.0559 132.043C37.8316 132.043 37.6522 132.112 37.5176 132.25C37.3831 132.387 37.3158 132.572 37.3158 132.805V134.186H36.9265V132.451C36.9265 132.202 36.9137 131.976 36.8881 131.775H37.2581L37.2966 132.206C37.3703 132.05 37.4808 131.93 37.6282 131.847C37.7756 131.761 37.9438 131.717 38.1328 131.717Z" fill="black"/>
<path d="M40.2569 132.082V133.4C40.2569 133.579 40.2937 133.705 40.3674 133.778C40.4411 133.849 40.5452 133.884 40.6798 133.884C40.7695 133.884 40.856 133.87 40.9393 133.841V134.172C40.84 134.204 40.7279 134.219 40.6029 134.219C40.3722 134.219 40.1912 134.155 40.0598 134.028C39.9316 133.897 39.8676 133.705 39.8676 133.453V132.082H39.3966V131.775H39.8676V131.157L40.2569 131.018V131.775H40.9489V132.082H40.2569Z" fill="black"/>
<path d="M42.6242 131.718C43.2041 131.718 43.4943 132.036 43.4943 132.671V134.186H43.1049V132.691C43.1049 132.467 43.0599 132.304 42.9702 132.202C42.8806 132.096 42.7397 132.043 42.5475 132.043C42.3232 132.043 42.1436 132.112 42.0089 132.25C41.8747 132.387 41.8071 132.572 41.8071 132.805V134.186H41.418V130.659H41.8071V132.168C41.8843 132.021 41.9931 131.909 42.134 131.833C42.2782 131.756 42.4416 131.718 42.6242 131.718Z" fill="black"/>
<path d="M46.8761 133.855H47.6306V134.186H45.7225V133.855H46.4771V131.262L45.7755 131.708V131.33L46.6501 130.773H46.8761V133.855Z" fill="black"/>
<path d="M50.5892 133.855V134.186H48.3881V133.889L49.5849 132.566C49.745 132.387 49.8617 132.226 49.9355 132.082C50.0093 131.938 50.046 131.794 50.046 131.651C50.046 131.462 49.9918 131.318 49.8826 131.219C49.7738 131.117 49.6183 131.066 49.4165 131.066C49.0897 131.066 48.7662 131.197 48.4456 131.459L48.2968 131.157C48.4314 131.029 48.6011 130.927 48.8062 130.85C49.0113 130.773 49.2181 130.735 49.4261 130.735C49.74 130.735 49.9885 130.817 50.1711 130.98C50.3537 131.139 50.445 131.357 50.445 131.631C50.445 131.826 50.3999 132.015 50.3103 132.197C50.224 132.376 50.0781 132.577 49.873 132.801L48.8975 133.855H50.5892Z" fill="black"/>
</g>
<path fill-rule="evenodd" clip-rule="evenodd" d="M24.5963 139.618V153.676H130.327V139.618H24.5963Z" fill="white"/>
<path fill-rule="evenodd" clip-rule="evenodd" d="M29.1075 153.292V153.452H130.327V153.292H29.1075Z" fill="#C7C7CC"/>
<path d="M113.301 147.914H114.056V148.244H112.148V147.914H112.903V145.321L112.201 145.766V145.388L113.076 144.832H113.301V147.914Z" fill="black"/>
<path d="M117.139 147.176V147.502H116.62V148.244H116.226V147.502H114.65V147.204L116.298 144.832H116.62V147.176H117.139ZM115.058 147.176H116.226V145.498L115.058 147.176Z" fill="black"/>
<path d="M117.604 147.751H118.099V148.244H117.604V147.751Z" fill="black"/>
<path d="M118.721 144.832H120.98V145.124L119.374 148.244H118.952L120.547 145.163H118.721V144.832Z" fill="black"/>
<path d="M122.876 146.102C123.091 146.102 123.278 146.148 123.438 146.241C123.602 146.33 123.727 146.456 123.813 146.619C123.9 146.782 123.943 146.971 123.943 147.185C123.943 147.399 123.895 147.589 123.799 147.756C123.706 147.921 123.571 148.051 123.395 148.143C123.222 148.233 123.019 148.278 122.785 148.278C122.576 148.278 122.371 148.241 122.169 148.168C121.968 148.091 121.798 147.987 121.66 147.856L121.809 147.554C122.126 147.816 122.451 147.947 122.785 147.947C123.025 147.947 123.213 147.88 123.347 147.746C123.485 147.608 123.554 147.423 123.554 147.19C123.554 146.963 123.486 146.781 123.352 146.643C123.217 146.503 123.038 146.433 122.814 146.433C122.487 146.433 122.226 146.565 122.03 146.831H121.756V144.832H123.808V145.158H122.15V146.375C122.339 146.193 122.581 146.102 122.876 146.102Z" fill="black"/>
<path d="M125.263 146.878C125.003 146.878 124.801 146.791 124.657 146.615C124.513 146.439 124.441 146.179 124.441 145.834C124.441 145.491 124.513 145.233 124.657 145.057C124.801 144.881 125.003 144.793 125.263 144.793C125.522 144.793 125.724 144.881 125.868 145.057C126.016 145.233 126.089 145.491 126.089 145.834C126.089 146.179 126.016 146.439 125.868 146.615C125.724 146.791 125.522 146.878 125.263 146.878ZM125.628 148.244H125.248L127.228 144.832H127.608L125.628 148.244ZM125.263 146.6C125.423 146.6 125.54 146.54 125.613 146.418C125.69 146.293 125.729 146.099 125.729 145.834C125.729 145.572 125.69 145.38 125.613 145.258C125.54 145.134 125.423 145.072 125.263 145.072C125.106 145.072 124.989 145.134 124.912 145.258C124.835 145.38 124.797 145.572 124.797 145.834C124.797 146.099 124.835 146.293 124.912 146.418C124.989 146.54 125.106 146.6 125.263 146.6ZM127.594 148.278C127.334 148.278 127.132 148.19 126.988 148.014C126.844 147.838 126.772 147.578 126.772 147.233C126.772 146.888 126.844 146.629 126.988 146.456C127.132 146.281 127.334 146.193 127.594 146.193C127.853 146.193 128.055 146.281 128.199 146.456C128.346 146.629 128.42 146.888 128.42 147.233C128.42 147.578 128.346 147.838 128.199 148.014C128.055 148.19 127.853 148.278 127.594 148.278ZM127.594 148C127.757 148 127.875 147.939 127.949 147.817C128.026 147.696 128.065 147.502 128.065 147.233C128.065 146.971 128.026 146.779 127.949 146.658C127.872 146.533 127.754 146.471 127.594 146.471C127.433 146.471 127.315 146.533 127.238 146.658C127.164 146.779 127.128 146.971 127.128 147.233C127.128 147.498 127.164 147.693 127.238 147.817C127.315 147.939 127.433 148 127.594 148Z" fill="black"/>
<g opacity="0.3">
<path d="M33.0534 144.832H33.3802V148.244H33.0149V145.709L31.9047 148.244H31.626L30.5062 145.728L30.511 148.244H30.1458V144.832H30.4725L31.7702 147.775L33.0534 144.832Z" fill="black"/>
<path d="M35.1758 148.278C34.9483 148.278 34.7481 148.227 34.5751 148.124C34.4021 148.022 34.2675 147.877 34.1713 147.688C34.0784 147.5 34.032 147.279 34.032 147.027C34.032 146.774 34.0784 146.554 34.1713 146.365C34.2675 146.177 34.4021 146.032 34.5751 145.929C34.7481 145.827 34.9483 145.776 35.1758 145.776C35.4033 145.776 35.6035 145.827 35.7765 145.929C35.9495 146.032 36.0825 146.177 36.1754 146.365C36.2715 146.554 36.3196 146.774 36.3196 147.027C36.3196 147.279 36.2715 147.5 36.1754 147.688C36.0825 147.877 35.9495 148.022 35.7765 148.124C35.6035 148.227 35.4033 148.278 35.1758 148.278ZM35.1758 147.957C35.4161 147.957 35.6003 147.878 35.7285 147.722C35.8567 147.562 35.9207 147.33 35.9207 147.027C35.9207 146.733 35.855 146.506 35.7237 146.346C35.5923 146.183 35.4097 146.102 35.1758 146.102C34.9387 146.102 34.7545 146.183 34.6231 146.346C34.4918 146.506 34.4261 146.733 34.4261 147.027C34.4261 147.33 34.4901 147.562 34.6183 147.722C34.7497 147.878 34.9355 147.957 35.1758 147.957Z" fill="black"/>
<path d="M38.1328 145.776C38.7127 145.776 39.0027 146.094 39.0027 146.73V148.244H38.6134V146.749C38.6134 146.525 38.5685 146.362 38.4788 146.26C38.3891 146.155 38.2482 146.102 38.0559 146.102C37.8316 146.102 37.6522 146.17 37.5176 146.308C37.3831 146.445 37.3158 146.631 37.3158 146.864V148.244H36.9265V146.509C36.9265 146.26 36.9137 146.035 36.8881 145.834H37.2581L37.2966 146.265C37.3703 146.108 37.4808 145.988 37.6282 145.906C37.7756 145.819 37.9438 145.776 38.1328 145.776Z" fill="black"/>
<path d="M40.2569 146.14V147.458C40.2569 147.637 40.2937 147.763 40.3674 147.837C40.4411 147.907 40.5452 147.942 40.6798 147.942C40.7695 147.942 40.856 147.928 40.9393 147.899V148.23C40.84 148.262 40.7279 148.278 40.6029 148.278C40.3722 148.278 40.1912 148.214 40.0598 148.086C39.9316 147.955 39.8676 147.763 39.8676 147.511V146.14H39.3966V145.834H39.8676V145.215L40.2569 145.076V145.834H40.9489V146.14H40.2569Z" fill="black"/>
<path d="M42.6242 145.776C43.2041 145.776 43.4943 146.094 43.4943 146.73V148.244H43.1049V146.749C43.1049 146.525 43.0599 146.362 42.9702 146.26C42.8806 146.155 42.7397 146.102 42.5475 146.102C42.3232 146.102 42.1436 146.17 42.0089 146.308C41.8747 146.445 41.8071 146.631 41.8071 146.864V148.244H41.418V144.717H41.8071V146.227C41.8843 146.079 41.9931 145.967 42.134 145.891C42.2782 145.814 42.4416 145.776 42.6242 145.776Z" fill="black"/>
<path d="M46.8761 147.914H47.6306V148.244H45.7225V147.914H46.4771V145.321L45.7755 145.766V145.388L46.6501 144.832H46.8761V147.914Z" fill="black"/>
<path d="M49.758 147.914H50.5122V148.244H48.6045V147.914H49.3591V145.321L48.6574 145.766V145.388L49.5321 144.832H49.758V147.914Z" fill="black"/>
</g>
<path fill-rule="evenodd" clip-rule="evenodd" d="M24.5963 170.226V184.285H130.327V170.226H24.5963Z" fill="white"/>
<path fill-rule="evenodd" clip-rule="evenodd" d="M29.1075 183.901V184.061H130.327V183.901H29.1075Z" fill="#C7C7CC"/>
<path d="M114.727 175.441H116.985V175.733L115.38 178.853H114.958L116.553 175.771H114.727V175.441Z" fill="black"/>
<path d="M117.604 178.359H118.099V178.853H117.604V178.359Z" fill="black"/>
<path d="M118.721 175.441H120.98V175.733L119.375 178.853H118.951L120.547 175.771H118.721V175.441Z" fill="black"/>
<path d="M122.876 176.711C123.091 176.711 123.278 176.757 123.438 176.85C123.602 176.939 123.727 177.065 123.813 177.228C123.9 177.391 123.943 177.58 123.943 177.794C123.943 178.008 123.895 178.198 123.799 178.364C123.706 178.53 123.571 178.66 123.395 178.752C123.222 178.842 123.019 178.887 122.785 178.887C122.577 178.887 122.372 178.85 122.17 178.776C121.968 178.7 121.798 178.596 121.66 178.465L121.809 178.163C122.126 178.425 122.452 178.556 122.785 178.556C123.025 178.556 123.212 178.489 123.347 178.355C123.485 178.217 123.554 178.032 123.554 177.799C123.554 177.572 123.486 177.39 123.352 177.252C123.217 177.111 123.038 177.041 122.814 177.041C122.487 177.041 122.226 177.174 122.03 177.439H121.756V175.441H123.809V175.767H122.15V176.984C122.34 176.802 122.581 176.711 122.876 176.711Z" fill="black"/>
<path d="M125.263 177.487C125.003 177.487 124.801 177.399 124.657 177.223C124.513 177.048 124.441 176.787 124.441 176.442C124.441 176.1 124.513 175.841 124.657 175.666C124.801 175.49 125.003 175.402 125.263 175.402C125.522 175.402 125.724 175.49 125.868 175.666C126.016 175.841 126.089 176.1 126.089 176.442C126.089 176.787 126.016 177.048 125.868 177.223C125.724 177.399 125.522 177.487 125.263 177.487ZM125.628 178.853H125.249L127.228 175.441H127.608L125.628 178.853ZM125.263 177.209C125.423 177.209 125.54 177.149 125.614 177.027C125.69 176.902 125.729 176.707 125.729 176.442C125.729 176.18 125.69 175.989 125.614 175.867C125.54 175.743 125.423 175.68 125.263 175.68C125.106 175.68 124.989 175.743 124.912 175.867C124.835 175.989 124.797 176.18 124.797 176.442C124.797 176.707 124.835 176.902 124.912 177.027C124.989 177.149 125.106 177.209 125.263 177.209ZM127.594 178.887C127.334 178.887 127.132 178.799 126.988 178.623C126.844 178.447 126.772 178.187 126.772 177.842C126.772 177.497 126.844 177.238 126.988 177.065C127.132 176.89 127.334 176.802 127.594 176.802C127.853 176.802 128.055 176.89 128.199 177.065C128.346 177.238 128.42 177.497 128.42 177.842C128.42 178.187 128.346 178.447 128.199 178.623C128.055 178.799 127.853 178.887 127.594 178.887ZM127.594 178.609C127.757 178.609 127.876 178.548 127.949 178.426C128.026 178.305 128.065 178.11 128.065 177.842C128.065 177.58 128.026 177.388 127.949 177.267C127.872 177.142 127.754 177.08 127.594 177.08C127.433 177.08 127.315 177.142 127.238 177.267C127.164 177.388 127.127 177.58 127.127 177.842C127.127 178.107 127.164 178.302 127.238 178.426C127.315 178.548 127.433 178.609 127.594 178.609Z" fill="black"/>
<g opacity="0.3">
<path d="M33.0534 175.441H33.3802V178.853H33.0149V176.318L31.9047 178.853H31.626L30.5062 176.337L30.511 178.853H30.1458V175.441H30.4725L31.7702 178.383L33.0534 175.441Z" fill="black"/>
<path d="M35.1758 178.886C34.9483 178.886 34.7481 178.835 34.5751 178.733C34.4021 178.631 34.2675 178.486 34.1713 178.297C34.0784 178.108 34.032 177.888 34.032 177.636C34.032 177.383 34.0784 177.163 34.1713 176.974C34.2675 176.786 34.4021 176.64 34.5751 176.538C34.7481 176.436 34.9483 176.385 35.1758 176.385C35.4033 176.385 35.6035 176.436 35.7765 176.538C35.9495 176.64 36.0825 176.786 36.1754 176.974C36.2715 177.163 36.3196 177.383 36.3196 177.636C36.3196 177.888 36.2715 178.108 36.1754 178.297C36.0825 178.486 35.9495 178.631 35.7765 178.733C35.6035 178.835 35.4033 178.886 35.1758 178.886ZM35.1758 178.565C35.4161 178.565 35.6003 178.487 35.7285 178.33C35.8567 178.171 35.9207 177.939 35.9207 177.636C35.9207 177.342 35.855 177.115 35.7237 176.955C35.5923 176.792 35.4097 176.711 35.1758 176.711C34.9387 176.711 34.7545 176.792 34.6231 176.955C34.4918 177.115 34.4261 177.342 34.4261 177.636C34.4261 177.939 34.4901 178.171 34.6183 178.33C34.7497 178.487 34.9355 178.565 35.1758 178.565Z" fill="black"/>
<path d="M38.1328 176.385C38.7127 176.385 39.0027 176.702 39.0027 177.339V178.853H38.6134V177.358C38.6134 177.134 38.5685 176.971 38.4788 176.869C38.3891 176.763 38.2482 176.711 38.0559 176.711C37.8316 176.711 37.6522 176.779 37.5176 176.917C37.3831 177.054 37.3158 177.24 37.3158 177.473V178.853H36.9265V177.118C36.9265 176.869 36.9137 176.643 36.8881 176.442H37.2581L37.2966 176.874C37.3703 176.717 37.4808 176.597 37.6282 176.514C37.7756 176.428 37.9438 176.385 38.1328 176.385Z" fill="black"/>
<path d="M40.2569 176.749V178.067C40.2569 178.246 40.2937 178.372 40.3674 178.446C40.4411 178.516 40.5452 178.551 40.6798 178.551C40.7695 178.551 40.856 178.537 40.9393 178.508V178.838C40.84 178.871 40.7279 178.886 40.6029 178.886C40.3722 178.886 40.1912 178.823 40.0598 178.695C39.9316 178.564 39.8676 178.372 39.8676 178.12V176.749H39.3966V176.442H39.8676V175.824L40.2569 175.685V176.442H40.9489V176.749H40.2569Z" fill="black"/>
<path d="M42.6242 176.385C43.2041 176.385 43.4943 176.702 43.4943 177.339V178.853H43.1049V177.358C43.1049 177.134 43.0599 176.971 42.9702 176.869C42.8806 176.763 42.7397 176.711 42.5475 176.711C42.3232 176.711 42.1436 176.779 42.0089 176.917C41.8747 177.054 41.8071 177.24 41.8071 177.473V178.853H41.418V175.326H41.8071V176.835C41.8843 176.688 41.9931 176.576 42.134 176.5C42.2782 176.423 42.4416 176.385 42.6242 176.385Z" fill="black"/>
<path d="M47.7077 178.522V178.853H45.5066V178.556L46.703 177.233C46.8631 177.054 46.9803 176.893 47.0541 176.749C47.1274 176.605 47.1645 176.461 47.1645 176.317C47.1645 176.129 47.1099 175.985 47.0011 175.886C46.8923 175.784 46.7368 175.733 46.535 175.733C46.2082 175.733 45.8843 175.864 45.5641 176.126L45.4153 175.824C45.5495 175.696 45.7196 175.594 45.9247 175.517C46.1294 175.441 46.3362 175.402 46.5446 175.402C46.8585 175.402 47.1066 175.484 47.2896 175.646C47.4722 175.807 47.5635 176.024 47.5635 176.298C47.5635 176.493 47.5185 176.682 47.4288 176.864C47.3421 177.043 47.1966 177.244 46.9915 177.468L46.016 178.522H47.7077Z" fill="black"/>
</g>
<path fill-rule="evenodd" clip-rule="evenodd" d="M24.5963 184.285V198.343H130.327V184.285H24.5963Z" fill="white"/>
<path fill-rule="evenodd" clip-rule="evenodd" d="M29.1075 197.959V198.119H130.327V197.959H29.1075Z" fill="#C7C7CC"/>
<path d="M121.602 189.499H123.862V189.791L122.256 192.911H121.833L123.429 189.83H121.602V189.499Z" fill="black"/>
<path d="M125.263 191.545C125.003 191.545 124.802 191.458 124.657 191.282C124.513 191.106 124.441 190.846 124.441 190.501C124.441 190.159 124.513 189.9 124.657 189.724C124.802 189.549 125.003 189.46 125.263 189.46C125.522 189.46 125.724 189.549 125.868 189.724C126.016 189.9 126.089 190.159 126.089 190.501C126.089 190.846 126.016 191.106 125.868 191.282C125.724 191.458 125.522 191.545 125.263 191.545ZM125.628 192.911H125.249L127.228 189.499H127.608L125.628 192.911ZM125.263 191.268C125.423 191.268 125.54 191.207 125.614 191.085C125.69 190.961 125.729 190.766 125.729 190.501C125.729 190.239 125.69 190.047 125.614 189.926C125.54 189.801 125.423 189.739 125.263 189.739C125.106 189.739 124.989 189.801 124.912 189.926C124.835 190.047 124.797 190.239 124.797 190.501C124.797 190.766 124.835 190.961 124.912 191.085C124.989 191.207 125.106 191.268 125.263 191.268ZM127.594 192.945C127.334 192.945 127.132 192.857 126.988 192.681C126.844 192.506 126.772 192.245 126.772 191.9C126.772 191.555 126.844 191.296 126.988 191.124C127.132 190.948 127.334 190.86 127.594 190.86C127.853 190.86 128.055 190.948 128.199 191.124C128.347 191.296 128.42 191.555 128.42 191.9C128.42 192.245 128.347 192.506 128.199 192.681C128.055 192.857 127.853 192.945 127.594 192.945ZM127.594 192.667C127.757 192.667 127.876 192.606 127.95 192.485C128.026 192.363 128.065 192.168 128.065 191.9C128.065 191.638 128.026 191.446 127.95 191.325C127.872 191.2 127.754 191.138 127.594 191.138C127.433 191.138 127.315 191.2 127.238 191.325C127.165 191.446 127.127 191.638 127.127 191.9C127.127 192.165 127.165 192.36 127.238 192.485C127.315 192.606 127.433 192.667 127.594 192.667Z" fill="black"/>
<g opacity="0.3">
<path d="M33.0534 189.499H33.3802V192.911H33.0149V190.376L31.9047 192.911H31.626L30.5062 190.395L30.511 192.911H30.1458V189.499H30.4725L31.7702 192.442L33.0534 189.499Z" fill="black"/>
<path d="M35.1758 192.945C34.9483 192.945 34.7481 192.894 34.5751 192.792C34.4021 192.689 34.2675 192.544 34.1713 192.356C34.0784 192.167 34.032 191.946 34.032 191.694C34.032 191.442 34.0784 191.221 34.1713 191.033C34.2675 190.844 34.4021 190.699 34.5751 190.597C34.7481 190.494 34.9483 190.443 35.1758 190.443C35.4033 190.443 35.6035 190.494 35.7765 190.597C35.9495 190.699 36.0825 190.844 36.1754 191.033C36.2715 191.221 36.3196 191.442 36.3196 191.694C36.3196 191.946 36.2715 192.167 36.1754 192.356C36.0825 192.544 35.9495 192.689 35.7765 192.792C35.6035 192.894 35.4033 192.945 35.1758 192.945ZM35.1758 192.624C35.4161 192.624 35.6003 192.546 35.7285 192.389C35.8567 192.229 35.9207 191.998 35.9207 191.694C35.9207 191.4 35.855 191.173 35.7237 191.014C35.5923 190.851 35.4097 190.769 35.1758 190.769C34.9387 190.769 34.7545 190.851 34.6231 191.014C34.4918 191.173 34.4261 191.4 34.4261 191.694C34.4261 191.998 34.4901 192.229 34.6183 192.389C34.7497 192.546 34.9355 192.624 35.1758 192.624Z" fill="black"/>
<path d="M38.1328 190.443C38.7127 190.443 39.0027 190.761 39.0027 191.397V192.911H38.6134V191.416C38.6134 191.192 38.5685 191.029 38.4788 190.927C38.3891 190.822 38.2482 190.769 38.0559 190.769C37.8316 190.769 37.6522 190.838 37.5176 190.975C37.3831 191.113 37.3158 191.298 37.3158 191.531V192.911H36.9265V191.177C36.9265 190.927 36.9137 190.702 36.8881 190.501H37.2581L37.2966 190.932C37.3703 190.775 37.4808 190.656 37.6282 190.572C37.7756 190.486 37.9438 190.443 38.1328 190.443Z" fill="black"/>
<path d="M40.2569 190.807V192.126C40.2569 192.304 40.2937 192.43 40.3674 192.504C40.4411 192.574 40.5452 192.61 40.6798 192.61C40.7695 192.61 40.856 192.595 40.9393 192.566V192.897C40.84 192.929 40.7279 192.945 40.6029 192.945C40.3722 192.945 40.1912 192.881 40.0598 192.753C39.9316 192.622 39.8676 192.43 39.8676 192.178V190.807H39.3966V190.501H39.8676V189.882L40.2569 189.744V190.501H40.9489V190.807H40.2569Z" fill="black"/>
<path d="M42.6242 190.443C43.2041 190.443 43.4943 190.761 43.4943 191.397V192.911H43.1049V191.416C43.1049 191.192 43.0599 191.029 42.9702 190.927C42.8806 190.822 42.7397 190.769 42.5475 190.769C42.3232 190.769 42.1436 190.838 42.0089 190.975C41.8747 191.113 41.8071 191.298 41.8071 191.531V192.911H41.418V189.384H41.8071V190.894C41.8843 190.747 41.9931 190.635 42.134 190.558C42.2782 190.481 42.4416 190.443 42.6242 190.443Z" fill="black"/>
<path d="M46.8761 192.581H47.6306V192.911H45.7225V192.581H46.4771V189.988L45.7755 190.434V190.055L46.6501 189.499H46.8761V192.581Z" fill="black"/>
</g>
<path d="M72.261 42.4552V38.5878H74.9678V39.3863H73.2686V40.0924H74.859V40.8854H73.2686V42.4552H72.261Z" fill="black"/>
<path d="M75.3872 42.4552V39.6959H76.3731V42.4552H75.3872ZM75.3601 38.3434H76.3894V39.2288H75.3601V38.3434Z" fill="black"/>
<path d="M78.7703 41.0321L79.9521 42.4552H78.7974L78.2091 41.7165L77.6209 42.4552H76.4716L77.6534 41.0321L76.5424 39.6959H77.6972L78.2091 40.3586L78.7157 39.6959H79.8813L78.7703 41.0321Z" fill="black"/>
<path d="M82.5535 41.1733H80.8159C80.8343 41.3869 80.896 41.5408 81.001 41.635C81.1065 41.7289 81.2608 41.7763 81.4642 41.7763C81.6022 41.7763 81.7402 41.7543 81.8782 41.711C82.0162 41.6641 82.1412 41.6005 82.2538 41.5209L82.5043 42.1725C82.3663 42.2739 82.1996 42.3538 82.0032 42.4116C81.8073 42.4698 81.6114 42.4984 81.415 42.4984C81.0994 42.4984 80.8251 42.4407 80.5925 42.3247C80.3603 42.2091 80.1823 42.044 80.0589 41.8304C79.9355 41.6134 79.8738 41.358 79.8738 41.0647C79.8738 40.7858 79.9317 40.5378 80.048 40.3205C80.1677 40.0996 80.3311 39.9276 80.5383 39.8045C80.7488 39.6814 80.9885 39.6198 81.257 39.6198C81.5188 39.6198 81.7473 39.6778 81.9436 39.7937C82.1396 39.9095 82.2901 40.0761 82.3955 40.2934C82.501 40.507 82.5535 40.7569 82.5535 41.0429V41.1733ZM81.2845 40.2934C81.0411 40.2934 80.8885 40.4346 80.8268 40.717H81.7093C81.6731 40.4346 81.5313 40.2934 81.2845 40.2934Z" fill="black"/>
<path d="M85.9237 38.4575V42.4552H84.954V42.0802C84.8744 42.2108 84.7581 42.3139 84.6055 42.3899C84.4529 42.4623 84.2861 42.4984 84.1044 42.4984C83.8684 42.4984 83.6579 42.439 83.4728 42.3193C83.2873 42.1962 83.1422 42.0262 83.0367 41.8087C82.935 41.588 82.8842 41.3344 82.8842 41.0484C82.8842 40.7659 82.935 40.5161 83.0367 40.2988C83.1422 40.0815 83.2873 39.915 83.4728 39.7991C83.6579 39.6796 83.8684 39.6198 84.1044 39.6198C84.2786 39.6198 84.4383 39.6561 84.5838 39.7285C84.7326 39.8009 84.8506 39.8987 84.9377 40.0218V38.4575H85.9237ZM84.4095 41.7655C84.5838 41.7655 84.718 41.7056 84.8127 41.5859C84.9069 41.463 84.954 41.2873 84.954 41.0592C84.954 40.8383 84.9052 40.6681 84.8072 40.5487C84.7126 40.4255 84.58 40.364 84.4095 40.364C84.2315 40.364 84.0952 40.4237 84.001 40.5432C83.9064 40.6591 83.8593 40.8275 83.8593 41.0484C83.8593 41.2765 83.9064 41.4539 84.001 41.5805C84.099 41.7036 84.2353 41.7655 84.4095 41.7655Z" fill="black"/>
<g filter="url(#filter1_d_1_1704)">
<path d="M25.5767 87.4738C25.5767 86.7679 26.1504 86.1954 26.8582 86.1954H131.288C131.996 86.1954 132.57 86.7679 132.57 87.4738V104.727C132.57 105.433 131.996 106.005 131.288 106.005H26.8582C26.1504 106.005 25.5767 105.433 25.5767 104.727V87.4738Z" fill="white"/>
</g>
<path d="M65.0197 98.2155H66.0261V98.6566H63.4818V98.2155H64.4882V94.7583L63.5523 95.3528V94.8481L64.7187 94.1068H65.0197V98.2155Z" fill="black"/>
<path d="M69.9707 98.2155V98.6566H67.0358V98.2604L68.6316 96.4964C68.8451 96.2578 69.001 96.0429 69.0994 95.8512C69.1974 95.6596 69.2465 95.4679 69.2465 95.2758C69.2465 95.0247 69.174 94.8331 69.0289 94.7009C68.8834 94.5645 68.6762 94.4963 68.4074 94.4963C67.9713 94.4963 67.5398 94.6709 67.1129 95.0206L66.9141 94.6177C67.0937 94.4473 67.3201 94.3109 67.5932 94.2087C67.8666 94.1068 68.1422 94.0557 68.4199 94.0557C68.8388 94.0557 69.1698 94.1642 69.4133 94.3812C69.6568 94.5944 69.7785 94.8842 69.7785 95.2505C69.7785 95.5103 69.7189 95.7618 69.5992 96.0046C69.4837 96.2432 69.2895 96.5114 69.016 96.8095L67.7153 98.2155H69.9707Z" fill="black"/>
<path d="M76.4579 94.1068H76.8935V98.6566H76.4066V95.2758L74.9262 98.6566H74.5548L73.0615 95.3016L73.0681 98.6566H72.5808V94.1068H73.0169L74.747 98.0301L76.4579 94.1068Z" fill="black"/>
<path d="M79.2877 98.701C78.9846 98.701 78.7174 98.6329 78.4868 98.4965C78.2559 98.3601 78.0766 98.1664 77.9486 97.9153C77.8244 97.6638 77.7627 97.3699 77.7627 97.0331C77.7627 96.6968 77.8244 96.4029 77.9486 96.1514C78.0766 95.9003 78.2559 95.7061 78.4868 95.5698C78.7174 95.4338 78.9846 95.3656 79.2877 95.3656C79.5912 95.3656 79.858 95.4338 80.0889 95.5698C80.3195 95.7061 80.4966 95.9003 80.6205 96.1514C80.7489 96.4029 80.8126 96.6968 80.8126 97.0331C80.8126 97.3699 80.7489 97.6638 80.6205 97.9153C80.4966 98.1664 80.3195 98.3601 80.0889 98.4965C79.858 98.6329 79.5912 98.701 79.2877 98.701ZM79.2877 98.2728C79.6083 98.2728 79.8538 98.1685 80.0247 97.9598C80.1956 97.7469 80.2811 97.438 80.2811 97.0331C80.2811 96.6415 80.1936 96.3389 80.0181 96.126C79.843 95.9086 79.5995 95.8001 79.2877 95.8001C78.9717 95.8001 78.7261 95.9086 78.551 96.126C78.3755 96.3389 78.288 96.6415 78.288 97.0331C78.288 97.438 78.3734 97.7469 78.5444 97.9598C78.7194 98.1685 78.9675 98.2728 79.2877 98.2728Z" fill="black"/>
<path d="M83.2302 95.3656C84.0035 95.3656 84.3904 95.7893 84.3904 96.6369V98.6566H83.8709V96.6627C83.8709 96.3646 83.8113 96.1472 83.6917 96.0108C83.572 95.8703 83.384 95.8001 83.1276 95.8001C82.8287 95.8001 82.5894 95.8915 82.4102 96.0749C82.2309 96.2578 82.1409 96.5051 82.1409 96.8161V98.6566H81.6218V96.343C81.6218 96.0108 81.6047 95.7107 81.5706 95.4421H82.0642L82.1154 96.0171C82.2138 95.8084 82.361 95.6487 82.5573 95.5382C82.7541 95.423 82.9784 95.3656 83.2302 95.3656Z" fill="black"/>
<path d="M86.0624 95.8512V97.6085C86.0624 97.8471 86.1116 98.0151 86.2096 98.1132C86.308 98.2071 86.4468 98.2537 86.6261 98.2537C86.7457 98.2537 86.8612 98.2346 86.9721 98.1963V98.637C86.8399 98.6798 86.6903 98.701 86.5235 98.701C86.2163 98.701 85.9749 98.6158 85.7998 98.4454C85.6289 98.2708 85.5434 98.0151 85.5434 97.6788V95.8512H84.9152V95.4421H85.5434V94.6177L86.0624 94.4323V95.4421H86.985V95.8512H86.0624Z" fill="black"/>
<path d="M89.2191 95.3656C89.992 95.3656 90.3789 95.7893 90.3789 96.6369V98.6566H89.8599V96.6627C89.8599 96.3646 89.7998 96.1472 89.6802 96.0109C89.5605 95.8703 89.3725 95.8001 89.1166 95.8001C88.8172 95.8001 88.5779 95.8915 88.3987 96.0749C88.2194 96.2578 88.1298 96.5052 88.1298 96.8161V98.6566H87.6104V93.9534H88.1298V95.966C88.2319 95.7701 88.3774 95.6209 88.5654 95.5186C88.7576 95.4168 88.9752 95.3656 89.2191 95.3656Z" fill="black"/>
<path d="M92.4483 98.701C91.906 98.701 91.4766 98.5626 91.1602 98.2857L91.3332 97.9024C91.5087 98.0388 91.6858 98.1365 91.8651 98.1963C92.0448 98.2558 92.2453 98.2857 92.4675 98.2857C92.711 98.2857 92.8948 98.2454 93.0186 98.1643C93.1466 98.0791 93.2108 97.9577 93.2108 97.8001C93.2108 97.6721 93.1683 97.5702 93.0828 97.4933C92.9974 97.4168 92.8565 97.357 92.6597 97.3146L92.1152 97.1865C91.8459 97.1271 91.6367 97.0207 91.487 96.8672C91.3419 96.7138 91.2694 96.5305 91.2694 96.3177C91.2694 96.0366 91.3824 95.8084 91.6087 95.6338C91.8351 95.455 92.1344 95.3656 92.5059 95.3656C92.7322 95.3656 92.9461 95.4018 93.1466 95.4741C93.3476 95.5465 93.5164 95.6508 93.6531 95.7872L93.4801 96.1642C93.1766 95.9127 92.8519 95.7872 92.5059 95.7872C92.2753 95.7872 92.0961 95.8321 91.9677 95.9215C91.8438 96.0067 91.7817 96.1281 91.7817 96.2856C91.7817 96.4178 91.8205 96.5222 91.8972 96.5987C91.9785 96.6756 92.1065 96.735 92.2816 96.7779L92.8264 96.9117C93.1254 96.9799 93.3476 97.0863 93.4926 97.2314C93.6381 97.3719 93.7107 97.5574 93.7107 97.7873C93.7107 98.0641 93.5973 98.2857 93.3709 98.452C93.1445 98.6179 92.8369 98.701 92.4483 98.701Z" fill="black"/>
<path d="M123.678 95.0135L124.142 95.4974L121.848 97.8891L119.553 95.4974L120.018 95.0135L121.848 96.9205L123.678 95.0135Z" fill="black"/>
<path d="M78.7307 161.106H79.2256V161.6H78.7307V161.106Z" fill="black"/>
<path d="M78.7307 163.023H79.2256V163.517H78.7307V163.023Z" fill="black"/>
<path d="M78.7307 164.94H79.2256V165.434H78.7307V164.94Z" fill="black"/>
<path d="M78.7307 166.857H79.2256V167.351H78.7307V166.857Z" fill="black"/>
<path d="M54.6989 123.578V121.076H56.3764V121.434H55.1428V122.127H56.3026V122.485H55.1428V123.22H56.3764V123.578H54.6989Z" fill="black"/>
<path d="M57.4153 123.606C57.0935 123.606 56.8371 123.531 56.647 123.381L56.7704 123.072C56.9605 123.212 57.1777 123.283 57.4224 123.283C57.5279 123.283 57.6092 123.265 57.6654 123.23C57.7242 123.195 57.7534 123.146 57.7534 123.082C57.7534 123.029 57.7334 122.986 57.6938 122.956C57.6538 122.923 57.5854 122.895 57.4891 122.872L57.1931 122.805C56.8688 122.734 56.7066 122.569 56.7066 122.309C56.7066 122.201 56.7374 122.107 56.7983 122.025C56.8596 121.94 56.9455 121.875 57.0555 121.828C57.166 121.781 57.294 121.757 57.4399 121.757C57.5666 121.757 57.6888 121.777 57.8063 121.817C57.9239 121.855 58.0273 121.91 58.1165 121.982L57.986 122.281C57.8076 122.15 57.6242 122.084 57.4361 122.084C57.3353 122.084 57.2565 122.103 57.2002 122.141C57.1439 122.178 57.1156 122.23 57.1156 122.295C57.1156 122.347 57.1322 122.388 57.1647 122.418C57.2002 122.449 57.259 122.475 57.3411 122.496L57.6442 122.562C57.8205 122.602 57.9485 122.664 58.0285 122.749C58.1107 122.83 58.1519 122.939 58.1519 123.072C58.1519 123.236 58.0861 123.366 57.9543 123.462C57.823 123.558 57.6429 123.606 57.4153 123.606Z" fill="black"/>
<path d="M59.072 122.134V122.928C59.072 123.136 59.1696 123.241 59.3647 123.241C59.4185 123.241 59.4773 123.231 59.5406 123.213V123.56C59.4631 123.589 59.3693 123.603 59.2588 123.603C59.0566 123.603 58.9015 123.546 58.7936 123.434C58.6856 123.321 58.6314 123.16 58.6314 122.949V122.134H58.2896V121.803H58.6314V121.371L59.072 121.223V121.803H59.5444V122.134H59.072Z" fill="black"/>
<path d="M59.847 123.578V121.803H60.2838V123.578H59.847ZM59.8186 120.998H60.3084V121.431H59.8186V120.998Z" fill="black"/>
<path d="M62.8665 121.757C63.0687 121.757 63.2188 121.819 63.3176 121.94C63.4164 122.06 63.4656 122.243 63.4656 122.489V123.578H63.025V122.502C63.025 122.362 63.0016 122.261 62.9545 122.2C62.9099 122.137 62.8349 122.105 62.729 122.105C62.6068 122.105 62.5105 122.149 62.4401 122.236C62.3721 122.32 62.3379 122.437 62.3379 122.587V123.578H61.8973V122.502C61.8973 122.364 61.8727 122.264 61.8235 122.2C61.7764 122.137 61.7009 122.105 61.5975 122.105C61.4754 122.105 61.3791 122.149 61.3086 122.236C61.2382 122.32 61.2032 122.437 61.2032 122.587V123.578H60.7658V122.306C60.7658 122.118 60.7567 121.951 60.7379 121.803H61.1502L61.1819 122.084C61.2336 121.979 61.3074 121.898 61.4037 121.842C61.5025 121.786 61.6155 121.757 61.7422 121.757C62.0148 121.757 62.192 121.87 62.2746 122.095C62.3308 121.989 62.4109 121.908 62.5143 121.849C62.6197 121.788 62.7373 121.757 62.8665 121.757Z" fill="black"/>
<path d="M65.638 121.803V123.578H65.2044V123.294C65.1506 123.392 65.0731 123.469 64.9718 123.526C64.8709 123.579 64.7559 123.606 64.6266 123.606C64.4715 123.606 64.334 123.569 64.2143 123.494C64.0943 123.419 64.0017 123.312 63.9358 123.174C63.87 123.036 63.837 122.875 63.837 122.692C63.837 122.509 63.87 122.348 63.9358 122.207C64.0038 122.064 64.098 121.955 64.2177 121.877C64.3377 121.797 64.474 121.757 64.6266 121.757C64.7559 121.757 64.8709 121.786 64.9718 121.842C65.0731 121.896 65.1506 121.972 65.2044 122.07V121.803H65.638ZM64.7463 123.262C64.8922 123.262 65.0047 123.211 65.0848 123.111C65.1648 123.01 65.2044 122.868 65.2044 122.685C65.2044 122.498 65.1648 122.354 65.0848 122.253C65.0047 122.152 64.8909 122.102 64.7429 122.102C64.5974 122.102 64.4832 122.154 64.4011 122.26C64.321 122.363 64.281 122.507 64.281 122.692C64.281 122.875 64.321 123.016 64.4011 123.114C64.4832 123.213 64.5983 123.262 64.7463 123.262Z" fill="black"/>
<path d="M66.6781 122.134V122.928C66.6781 123.136 66.7756 123.241 66.9707 123.241C67.0249 123.241 67.0837 123.231 67.1471 123.213V123.56C67.0695 123.589 66.9753 123.603 66.8648 123.603C66.6631 123.603 66.508 123.546 66.4 123.434C66.2916 123.321 66.2378 123.16 66.2378 122.949V122.134H65.896V121.803H66.2378V121.371L66.6781 121.223V121.803H67.1504V122.134H66.6781Z" fill="black"/>
<path d="M69.011 122.714H67.7845C67.7941 122.903 67.8408 123.044 67.9255 123.135C68.0126 123.224 68.1406 123.269 68.3098 123.269C68.5049 123.269 68.6859 123.205 68.8526 123.079L68.9793 123.381C68.8947 123.449 68.7901 123.504 68.6658 123.546C68.5437 123.586 68.4191 123.606 68.2923 123.606C68.0009 123.606 67.7716 123.524 67.6049 123.36C67.4381 123.196 67.3547 122.971 67.3547 122.685C67.3547 122.505 67.391 122.344 67.464 122.204C67.5369 122.063 67.6391 121.955 67.7704 121.877C67.9021 121.797 68.0514 121.757 68.2181 121.757C68.4624 121.757 68.655 121.837 68.7959 121.996C68.9393 122.154 69.011 122.37 69.011 122.647V122.714ZM68.2285 122.074C68.1114 122.074 68.0147 122.109 67.9396 122.179C67.8667 122.247 67.82 122.347 67.7987 122.478H68.6271C68.6129 122.344 68.5716 122.244 68.5037 122.176C68.4378 122.108 68.3461 122.074 68.2285 122.074Z" fill="black"/>
<path d="M71.0862 120.991V123.578H70.6527V123.294C70.5989 123.392 70.5213 123.469 70.42 123.526C70.3192 123.579 70.2041 123.606 70.0749 123.606C69.9223 123.606 69.786 123.568 69.6659 123.49C69.5462 123.413 69.452 123.304 69.3841 123.163C69.3182 123.02 69.2853 122.857 69.2853 122.675C69.2853 122.492 69.3182 122.332 69.3841 122.193C69.4499 122.055 69.5425 121.949 69.6626 121.873C69.7822 121.796 69.9198 121.757 70.0749 121.757C70.2016 121.757 70.3146 121.784 70.4134 121.839C70.5143 121.89 70.5918 121.964 70.646 122.06V120.991H71.0862ZM70.1912 123.262C70.3367 123.262 70.4496 123.211 70.5297 123.111C70.6118 123.01 70.6527 122.867 70.6527 122.682C70.6527 122.497 70.6131 122.354 70.533 122.253C70.453 122.152 70.3404 122.102 70.1945 122.102C70.0465 122.102 69.9315 122.152 69.8493 122.253C69.7693 122.352 69.7293 122.492 69.7293 122.675C69.7293 122.86 69.7693 123.004 69.8493 123.107C69.9315 123.21 70.0457 123.262 70.1912 123.262Z" fill="black"/>
<path d="M73.4921 121.761C73.56 121.761 73.6188 121.77 73.668 121.789L73.6647 122.19C73.5896 122.159 73.5121 122.144 73.432 122.144C73.2815 122.144 73.1665 122.187 73.0864 122.274C73.0089 122.361 72.9701 122.476 72.9701 122.618V123.578H72.5332V122.306C72.5332 122.118 72.5241 121.951 72.5049 121.803H72.9176L72.9526 122.116C72.9972 122.001 73.0677 121.913 73.164 121.852C73.2603 121.792 73.3699 121.761 73.4921 121.761Z" fill="black"/>
<path d="M75.4369 122.714H74.2104C74.2195 122.903 74.2667 123.044 74.3513 123.135C74.4384 123.224 74.5664 123.269 74.7352 123.269C74.9303 123.269 75.1113 123.205 75.278 123.079L75.4052 123.381C75.3205 123.449 75.2159 123.504 75.0913 123.546C74.9691 123.586 74.8449 123.606 74.7177 123.606C74.4263 123.606 74.1975 123.524 74.0307 123.36C73.8639 123.196 73.7802 122.971 73.7802 122.685C73.7802 122.505 73.8168 122.344 73.8898 122.204C73.9623 122.063 74.0645 121.955 74.1962 121.877C74.3279 121.797 74.4772 121.757 74.6439 121.757C74.8882 121.757 75.0808 121.837 75.2217 121.996C75.3652 122.154 75.4369 122.37 75.4369 122.647V122.714ZM74.6544 122.074C74.5368 122.074 74.4405 122.109 74.3655 122.179C74.2925 122.247 74.2454 122.347 74.2246 122.478H75.0525C75.0387 122.344 74.9975 122.244 74.9291 122.176C74.8636 122.108 74.7719 122.074 74.6544 122.074Z" fill="black"/>
<path d="M76.3461 122.134V122.928C76.3461 123.136 76.4436 123.241 76.6387 123.241C76.6925 123.241 76.7513 123.231 76.8147 123.213V123.56C76.7371 123.589 76.6433 123.603 76.5329 123.603C76.3307 123.603 76.1756 123.546 76.0676 123.434C75.9596 123.321 75.9054 123.16 75.9054 122.949V122.134H75.5636V121.803H75.9054V121.371L76.3461 121.223V121.803H76.8184V122.134H76.3461Z" fill="black"/>
<path d="M78.7424 121.803V123.578H78.3126V123.304C78.2559 123.402 78.1809 123.477 78.0871 123.529C77.9928 123.58 77.8849 123.606 77.7627 123.606C77.3279 123.606 77.1107 123.363 77.1107 122.875V121.803H77.5476V122.879C77.5476 123.008 77.5735 123.102 77.6252 123.163C77.6793 123.224 77.7615 123.255 77.872 123.255C78.0012 123.255 78.1046 123.212 78.1821 123.128C78.2597 123.044 78.2984 122.931 78.2984 122.791V121.803H78.7424Z" fill="black"/>
<path d="M80.1794 121.761C80.2473 121.761 80.3061 121.77 80.3553 121.789L80.352 122.19C80.2769 122.159 80.1994 122.144 80.1194 122.144C79.9689 122.144 79.8538 122.187 79.7742 122.274C79.6966 122.361 79.6579 122.476 79.6579 122.618V123.578H79.2206V122.306C79.2206 122.118 79.2114 121.951 79.1926 121.803H79.6049L79.6399 122.116C79.6846 122.001 79.755 121.913 79.8517 121.852C79.948 121.792 80.0572 121.761 80.1794 121.761Z" fill="black"/>
<path d="M81.6193 121.757C82.0445 121.757 82.2571 122.001 82.2571 122.489V123.578H81.8165V122.509C81.8165 122.369 81.7898 122.267 81.7356 122.204C81.6814 122.138 81.5981 122.105 81.4855 122.105C81.3517 122.105 81.2433 122.149 81.1612 122.236C81.079 122.32 81.0378 122.432 81.0378 122.573V123.578H80.6009V122.306C80.6009 122.118 80.5913 121.951 80.5725 121.803H80.9848L81.0165 122.095C81.0778 121.987 81.1599 121.904 81.2633 121.846C81.3692 121.787 81.4876 121.757 81.6193 121.757Z" fill="black"/>
<path d="M83.3765 123.606C83.0546 123.606 82.7983 123.531 82.6082 123.381L82.7316 123.072C82.9217 123.212 83.1389 123.283 83.3836 123.283C83.489 123.283 83.5703 123.265 83.6266 123.23C83.6854 123.195 83.7146 123.146 83.7146 123.082C83.7146 123.029 83.6946 122.986 83.655 122.956C83.6149 122.923 83.5466 122.895 83.4503 122.872L83.1543 122.805C82.8299 122.734 82.6678 122.569 82.6678 122.309C82.6678 122.201 82.6986 122.107 82.7595 122.025C82.8208 121.94 82.9066 121.875 83.0167 121.828C83.1272 121.781 83.2552 121.757 83.4011 121.757C83.5278 121.757 83.65 121.777 83.7675 121.817C83.8851 121.855 83.9885 121.91 84.0777 121.982L83.9472 122.281C83.7688 122.15 83.5853 122.084 83.3973 122.084C83.2964 122.084 83.2176 122.103 83.1614 122.141C83.1051 122.178 83.0767 122.23 83.0767 122.295C83.0767 122.347 83.0934 122.388 83.1259 122.418C83.1614 122.449 83.2201 122.475 83.3023 122.496L83.6053 122.562C83.7817 122.602 83.9097 122.664 83.9897 122.749C84.0718 122.83 84.1131 122.939 84.1131 123.072C84.1131 123.236 84.0472 123.366 83.9155 123.462C83.7842 123.558 83.6041 123.606 83.3765 123.606Z" fill="black"/>
<path d="M86.4723 121.757C86.6249 121.757 86.7599 121.797 86.8775 121.877C86.9972 121.955 87.0901 122.064 87.156 122.207C87.2239 122.348 87.2581 122.509 87.2581 122.692C87.2581 122.875 87.2252 123.036 87.1593 123.174C87.0935 123.312 87.0009 123.419 86.8808 123.494C86.7637 123.569 86.6274 123.606 86.4723 123.606C86.3431 123.606 86.2276 123.579 86.1267 123.526C86.0258 123.469 85.9483 123.392 85.8941 123.294V124.337H85.4572V122.306C85.4572 122.118 85.4476 121.951 85.4288 121.803H85.8411L85.8766 122.109C85.9237 121.999 86 121.913 86.1054 121.852C86.2113 121.789 86.3335 121.757 86.4723 121.757ZM86.3522 123.262C86.5002 123.262 86.6145 123.213 86.6941 123.114C86.7741 123.016 86.8141 122.875 86.8141 122.692C86.8141 122.507 86.7741 122.363 86.6941 122.26C86.6145 122.154 86.5015 122.102 86.356 122.102C86.2055 122.102 86.0904 122.152 86.0104 122.253C85.9308 122.354 85.8907 122.498 85.8907 122.685C85.8907 122.87 85.9308 123.013 86.0104 123.114C86.0904 123.213 86.2042 123.262 86.3522 123.262Z" fill="black"/>
<path d="M89.2004 122.714H87.9739C87.9835 122.903 88.0302 123.044 88.1148 123.135C88.2019 123.224 88.3299 123.269 88.4992 123.269C88.6938 123.269 88.8748 123.205 89.0419 123.079L89.1687 123.381C89.084 123.449 88.9794 123.504 88.8552 123.546C88.7326 123.586 88.6084 123.606 88.4812 123.606C88.1902 123.606 87.961 123.524 87.7942 123.36C87.6274 123.196 87.5441 122.971 87.5441 122.685C87.5441 122.505 87.5803 122.344 87.6533 122.204C87.7258 122.063 87.8284 121.955 87.9597 121.877C88.0914 121.797 88.2407 121.757 88.4074 121.757C88.6517 121.757 88.8443 121.837 88.9852 121.996C89.1287 122.154 89.2004 122.37 89.2004 122.647V122.714ZM88.4179 122.074C88.3003 122.074 88.204 122.109 88.129 122.179C88.056 122.247 88.0093 122.347 87.9881 122.478H88.8164C88.8022 122.344 88.761 122.244 88.693 122.176C88.6271 122.108 88.5354 122.074 88.4179 122.074Z" fill="black"/>
<path d="M90.5319 121.761C90.6003 121.761 90.6591 121.77 90.7083 121.789L90.7049 122.19C90.6295 122.159 90.5519 122.144 90.4723 122.144C90.3218 122.144 90.2068 122.187 90.1267 122.274C90.0492 122.361 90.0104 122.476 90.0104 122.618V123.578H89.5735V122.306C89.5735 122.118 89.5639 121.951 89.5452 121.803H89.9575L89.9929 122.116C90.0375 122.001 90.108 121.913 90.2043 121.852C90.3006 121.792 90.4098 121.761 90.5319 121.761Z" fill="black"/>
<path d="M93.6231 121.803V123.578H93.1895V123.294C93.1353 123.392 93.0578 123.469 92.9569 123.526C92.856 123.579 92.7405 123.606 92.6113 123.606C92.4562 123.606 92.3191 123.569 92.199 123.494C92.0794 123.419 91.9864 123.312 91.9205 123.174C91.8551 123.036 91.8221 122.875 91.8221 122.692C91.8221 122.509 91.8551 122.348 91.9205 122.207C91.9889 122.064 92.0827 121.955 92.2028 121.877C92.3224 121.797 92.4587 121.757 92.6113 121.757C92.7405 121.757 92.856 121.786 92.9569 121.842C93.0578 121.896 93.1353 121.972 93.1895 122.07V121.803H93.6231ZM92.7314 123.262C92.8769 123.262 92.9898 123.211 93.0695 123.111C93.1495 123.01 93.1895 122.868 93.1895 122.685C93.1895 122.498 93.1495 122.354 93.0695 122.253C92.9898 122.152 92.8756 122.102 92.7276 122.102C92.5821 122.102 92.4683 122.154 92.3858 122.26C92.3061 122.363 92.2661 122.507 92.2661 122.692C92.2661 122.875 92.3061 123.016 92.3858 123.114C92.4683 123.213 92.5834 123.262 92.7314 123.262Z" fill="black"/>
<path d="M95.1214 121.757C95.5466 121.757 95.7592 122.001 95.7592 122.489V123.578H95.3186V122.509C95.3186 122.369 95.2915 122.267 95.2377 122.204C95.1835 122.138 95.1001 122.105 94.9876 122.105C94.8533 122.105 94.7454 122.149 94.6632 122.236C94.5811 122.32 94.5398 122.432 94.5398 122.573V123.578H94.1029V122.306C94.1029 122.118 94.0933 121.951 94.0746 121.803H94.4869L94.5186 122.095C94.5799 121.987 94.662 121.904 94.7654 121.846C94.8713 121.787 94.9897 121.757 95.1214 121.757Z" fill="black"/>
<path d="M97.245 121.757C97.6703 121.757 97.8829 122.001 97.8829 122.489V123.578H97.4422V122.509C97.4422 122.369 97.4151 122.267 97.3614 122.204C97.3072 122.138 97.2238 122.105 97.1108 122.105C96.977 122.105 96.869 122.149 96.7869 122.236C96.7043 122.32 96.6635 122.432 96.6635 122.573V123.578H96.2262V122.306C96.2262 122.118 96.217 121.951 96.1982 121.803H96.6105L96.6422 122.095C96.7035 121.987 96.7856 121.904 96.889 121.846C96.9945 121.787 97.1133 121.757 97.245 121.757Z" fill="black"/>
<path d="M99.971 121.803V123.578H99.5412V123.304C99.485 123.402 99.4095 123.477 99.3157 123.529C99.2215 123.58 99.1135 123.606 98.9914 123.606C98.5566 123.606 98.3394 123.363 98.3394 122.875V121.803H98.7763V122.879C98.7763 123.008 98.8021 123.102 98.8538 123.163C98.908 123.224 98.9901 123.255 99.1006 123.255C99.2298 123.255 99.3332 123.212 99.4108 123.128C99.4883 123.044 99.5271 122.931 99.5271 122.791V121.803H99.971Z" fill="black"/>
<path d="M102.55 121.757C102.752 121.757 102.902 121.819 103.001 121.94C103.1 122.06 103.149 122.243 103.149 122.489V123.578H102.708V122.502C102.708 122.362 102.685 122.261 102.638 122.2C102.593 122.137 102.518 122.105 102.412 122.105C102.29 122.105 102.194 122.149 102.123 122.236C102.055 122.32 102.021 122.437 102.021 122.587V123.578H101.581V122.502C101.581 122.364 101.556 122.264 101.507 122.2C101.46 122.137 101.385 122.105 101.281 122.105C101.159 122.105 101.062 122.149 100.992 122.236C100.922 122.32 100.887 122.437 100.887 122.587V123.578H100.449V122.306C100.449 122.118 100.44 121.951 100.421 121.803H100.834L100.865 122.084C100.917 121.979 100.991 121.898 101.087 121.842C101.186 121.786 101.299 121.757 101.426 121.757C101.698 121.757 101.875 121.87 101.958 122.095C102.014 121.989 102.094 121.908 102.198 121.849C102.303 121.788 102.421 121.757 102.55 121.757Z" fill="black"/>
</g>
<defs>
<filter id="filter0_d_1_1704" x="-8.74146" y="3.68539" width="175.066" height="232.921" filterUnits="userSpaceOnUse" color-interpolation-filters="sRGB">
<feFlood flood-opacity="0" result="BackgroundImageFix"/>
<feColorMatrix in="SourceAlpha" type="matrix" values="0 0 0 0 0 0 0 0 0 0 0 0 0 0 0 0 0 0 127 0" result="hardAlpha"/>
<feOffset/>
<feGaussianBlur stdDeviation="12.5"/>
<feColorMatrix type="matrix" values="0 0 0 0 0 0 0 0 0 0 0 0 0 0 0 0 0 0 0.06 0"/>
<feBlend mode="normal" in2="BackgroundImageFix" result="effect1_dropShadow_1_1704"/>
<feBlend mode="normal" in="SourceGraphic" in2="effect1_dropShadow_1_1704" result="shape"/>
</filter>
<filter id="filter1_d_1_1704" x="0.57666" y="61.1954" width="156.993" height="69.8095" filterUnits="userSpaceOnUse" color-interpolation-filters="sRGB">
<feFlood flood-opacity="0" result="BackgroundImageFix"/>
<feColorMatrix in="SourceAlpha" type="matrix" values="0 0 0 0 0 0 0 0 0 0 0 0 0 0 0 0 0 0 127 0" result="hardAlpha"/>
<feOffset/>
<feGaussianBlur stdDeviation="12.5"/>
<feColorMatrix type="matrix" values="0 0 0 0 0 0 0 0 0 0 0 0 0 0 0 0 0 0 0.06 0"/>
<feBlend mode="normal" in2="BackgroundImageFix" result="effect1_dropShadow_1_1704"/>
<feBlend mode="normal" in="SourceGraphic" in2="effect1_dropShadow_1_1704" result="shape"/>
</filter>
<clipPath id="clip0_1_1704">
<rect width="158" height="222" fill="white"/>
</clipPath>
</defs>
</svg>
