<svg width="255" height="195" viewBox="0 0 255 195" fill="none" xmlns="http://www.w3.org/2000/svg">
<mask id="mask0_1_168" style="mask-type:luminance" maskUnits="userSpaceOnUse" x="0" y="0" width="255" height="195">
<path d="M255 0H0V195H255V0Z" fill="white"/>
</mask>
<g mask="url(#mask0_1_168)">
<g opacity="0.8">
<path d="M121.574 2.07616C72.7536 2.07616 32.4384 38.7145 26.7501 85.947L2.61603 97.4794L26.7501 109.012C32.4384 156.3 72.7536 192.883 121.574 192.883C174.316 192.883 217.116 150.175 217.116 97.4242C217.116 44.6738 174.371 2.07616 121.574 2.07616Z" fill="#DCFFEB"/>
</g>
<mask id="mask1_1_168" style="mask-type:alpha" maskUnits="userSpaceOnUse" x="2" y="2" width="216" height="191">
<path d="M121.574 2.07616C72.7536 2.07616 32.4384 38.7145 26.7501 85.947L2.61603 97.4794L26.7501 109.012C32.4384 156.3 72.7536 192.883 121.574 192.883C174.316 192.883 217.116 150.175 217.116 97.4242C217.116 44.6738 174.371 2.07616 121.574 2.07616Z" fill="#DCFFEB"/>
</mask>
<g mask="url(#mask1_1_168)">
<mask id="mask2_1_168" style="mask-type:luminance" maskUnits="userSpaceOnUse" x="0" y="15" width="255" height="196">
<path d="M0 15.6H255V210.6H0V15.6Z" fill="white"/>
</mask>
<g mask="url(#mask2_1_168)">
<path d="M118.376 148.153C81.8151 148.153 50.3684 169.424 36.4052 200.429H200.328C186.365 169.424 154.918 148.153 118.376 148.153Z" fill="#3C0077"/>
<path d="M109.547 120.58L106.027 151.023C106.027 151.023 119.641 187.244 140.002 151.023L135.996 120.58H109.547Z" fill="#A376D3"/>
<path d="M134.868 115.926C136.152 118.971 136.463 125.214 136.95 128.103C136.95 128.103 122.519 129.073 119.31 124.419C118.027 122.499 117.716 119.766 118.669 117.536C121.411 112.552 132.632 110.633 134.868 115.926Z" fill="#511B7B"/>
<path d="M145.117 61.5949C143.989 50.3679 134.693 41.4094 123.161 41.4094C111.629 41.4094 102.158 50.2321 101.205 61.5949H101.049V100.705H101.205C101.205 101.19 101.049 101.83 101.049 102.314C101.049 114.647 110.987 124.594 123.316 124.594C135.665 124.594 145.584 114.666 145.584 102.314C145.584 101.675 145.428 101.19 145.428 100.705H145.584V61.5949H145.117Z" fill="#A376D3"/>
<path d="M103.305 76.021C103.149 73.4615 101.068 71.542 98.5014 71.542C95.9344 71.542 93.8537 73.4615 93.698 76.021V84.6694V84.9989C93.698 87.7326 95.9345 89.9627 98.6573 89.9627C101.38 89.9627 103.616 87.7134 103.616 84.9989V84.6694L103.305 76.021Z" fill="#A376D3"/>
<path d="M152.974 76.021C152.818 73.4615 150.737 71.542 148.17 71.542C145.603 71.542 143.522 73.4615 143.367 76.021V84.6694V84.9989C143.367 87.7326 145.603 89.9627 148.326 89.9627C151.048 89.9627 153.285 87.7134 153.285 84.9989V84.6694L152.974 76.021Z" fill="#A376D3"/>
<path d="M123.161 84.8243C122.889 84.8243 122.675 84.611 122.675 84.3397V69.7583C122.675 69.4866 122.889 69.2733 123.161 69.2733C123.433 69.2733 123.647 69.4866 123.647 69.7583V84.3397C123.647 84.611 123.433 84.8243 123.161 84.8243Z" fill="#3C0077"/>
<path d="M128.625 74.1016C128.081 74.1016 127.653 73.6753 127.653 73.1324V72.0074C127.653 71.4841 128.081 71.0383 128.625 71.0383C129.17 71.0383 129.598 71.4645 129.598 72.0074V73.1324C129.598 73.6753 129.151 74.1016 128.625 74.1016Z" fill="#3C0077"/>
<path d="M117.56 74.1016C117.015 74.1016 116.587 73.6753 116.587 73.1324V72.0074C116.587 71.4841 117.015 71.0383 117.56 71.0383C118.104 71.0383 118.532 71.4645 118.532 72.0074V73.1324C118.532 73.6753 118.104 74.1016 117.56 74.1016Z" fill="#3C0077"/>
<path d="M124.93 29.8528C120.127 24.4041 114.196 21.6895 111.473 23.9388C109.236 25.7033 109.703 30.0274 112.114 34.8362C110.676 34.3514 109.236 33.8666 107.622 33.5564C100.563 32.1216 94.3199 33.7115 93.6784 37.0855C93.192 39.645 95.9147 42.379 100.252 44.1435C100.096 44.1435 99.9403 44.2986 99.9403 44.2986C89.6917 48.3125 82.3211 54.4008 83.585 57.7554C84.8685 61.1296 94.3198 60.4895 104.744 56.4758C110.344 54.2267 114.993 51.5117 117.89 48.9521C116.451 51.5117 115.965 53.9162 117.248 55.0408C119.018 56.8054 123.18 55.1958 126.7 51.6671C128.781 49.5921 130.065 47.343 130.551 45.4234C131.834 45.5784 132.787 45.7529 133.429 45.7529C137.279 46.2375 140.002 49.7667 140.002 49.7667C138.719 42.0494 128.781 33.0716 124.93 29.8528Z" fill="#461070"/>
<path d="M139.847 50.0576H129.753C129.481 50.0576 129.267 49.8442 129.267 49.573C129.267 49.3014 129.481 49.088 129.753 49.088H139.847C140.119 49.088 140.333 49.3014 140.333 49.573C140.333 49.8442 140.1 50.0576 139.847 50.0576Z" fill="#3C0077"/>
<path d="M141.597 52.4616H133.098C132.826 52.4616 132.612 52.2487 132.612 51.9771C132.612 51.7058 132.826 51.4925 133.098 51.4925H141.597C141.869 51.4925 142.083 51.7058 142.083 51.9771C142.083 52.2487 141.869 52.4616 141.597 52.4616Z" fill="#3C0077"/>
<path d="M142.881 54.8662H135.996C135.724 54.8662 135.51 54.6528 135.51 54.3816C135.51 54.11 135.724 53.8966 135.996 53.8966H142.881C143.153 53.8966 143.367 54.11 143.367 54.3816C143.367 54.6528 143.153 54.8662 142.881 54.8662Z" fill="#3C0077"/>
<path d="M144.009 57.2708H140.8C140.527 57.2708 140.313 57.0575 140.313 56.7862C140.313 56.5146 140.527 56.3013 140.8 56.3013H144.009C144.281 56.3013 144.494 56.5146 144.494 56.7862C144.494 57.0575 144.281 57.2708 144.009 57.2708Z" fill="#3C0077"/>
<path d="M113.864 96.5359H132.126C132.126 96.5359 133.079 105.998 122.985 105.669C112.911 105.514 113.864 96.5359 113.864 96.5359Z" fill="white"/>
<path d="M152.635 91.2768H145.235V70.9712H152.635C156.17 70.9712 159.042 73.8404 159.042 77.3717V84.9315C159.042 88.4077 156.17 91.2768 152.635 91.2768Z" fill="#5F36A8"/>
<path d="M133.747 105H125.463C125.242 105 125.021 104.779 125.021 104.558C125.021 104.337 125.242 104.117 125.463 104.117H129.605H133.747C140.153 104.117 145.344 94.3717 145.344 87.9706V83.3357C145.344 83.115 145.565 82.8944 145.786 82.8944C146.007 82.8944 146.228 83.115 146.228 83.3357V87.9706C146.228 94.8681 140.65 105 133.747 105Z" fill="#5F36A8"/>
<path d="M124.912 108.571H118.396C117.015 108.571 115.855 107.467 115.855 106.033V103.053C115.855 101.673 116.96 100.515 118.396 100.515H124.912C126.293 100.515 127.453 101.618 127.453 103.053V106.033C127.398 107.412 126.293 108.571 124.912 108.571Z" fill="#5F36A8"/>
<path d="M148.55 70.9712H147.666V91.277H148.55V70.9712Z" fill="#9C79CD"/>
</g>
</g>
<path d="M157.5 25.9223C155.987 25.9223 154.76 27.1469 154.76 28.6574V63.1038C154.76 64.6139 155.987 65.8388 157.5 65.8388H183.976C184.119 70.5318 179.989 73.6588 177.858 74.6517C184.264 74.6517 189.716 69.8922 192.963 65.8388H249.642C251.155 65.8388 252.382 64.6139 252.382 63.1033V28.6574C252.382 27.1469 251.155 25.9223 249.642 25.9223H157.5Z" fill="#1DCAEE"/>
<path d="M193.614 39.1672H196.639V50.8516H193.614V46.1252H188.88V50.8516H185.856V39.1672H188.88V43.713H193.614V39.1672Z" fill="white"/>
<path d="M206.291 46.9787H201.047C201.102 47.6242 201.289 48.0891 201.606 48.3737C201.924 48.6581 202.39 48.8003 203.004 48.8003C203.42 48.8003 203.836 48.7346 204.253 48.6034C204.669 48.4611 205.047 48.2697 205.387 48.029L206.143 49.9982C205.727 50.3045 205.223 50.5453 204.631 50.7203C204.039 50.8954 203.447 50.9828 202.856 50.9828C201.902 50.9828 201.075 50.8078 200.373 50.4577C199.672 50.1076 199.135 49.6099 198.763 48.9644C198.39 48.3079 198.204 47.5366 198.204 46.6504C198.204 45.808 198.379 45.0587 198.73 44.4023C199.091 43.7349 199.585 43.2152 200.209 42.8433C200.845 42.4713 201.568 42.2853 202.379 42.2853C203.168 42.2853 203.858 42.4604 204.45 42.8105C205.042 43.1605 205.497 43.6638 205.815 44.3202C206.132 44.9656 206.291 45.7206 206.291 46.5848V46.9787ZM202.461 44.3202C201.727 44.3202 201.267 44.7468 201.08 45.6002H203.743C203.634 44.7468 203.206 44.3202 202.461 44.3202Z" fill="white"/>
<path d="M207.667 38.7734H210.643V50.8515H207.667V38.7734Z" fill="white"/>
<path d="M212.419 38.7734H215.394V50.8515H212.419V38.7734Z" fill="white"/>
<path d="M221.379 50.9828C220.448 50.9828 219.636 50.8078 218.946 50.4577C218.256 50.1076 217.724 49.6043 217.352 48.9479C216.979 48.2916 216.793 47.5202 216.793 46.6341C216.793 45.7479 216.979 44.9766 217.352 44.3202C217.724 43.6637 218.256 43.1605 218.946 42.8104C219.636 42.4604 220.448 42.2853 221.379 42.2853C222.3 42.2853 223.099 42.4658 223.779 42.8268C224.469 43.1769 225.001 43.6802 225.373 44.3366C225.746 44.982 225.932 45.7479 225.932 46.6341C225.932 47.5202 225.746 48.2916 225.373 48.9479C225.001 49.5935 224.469 50.0967 223.779 50.4577C223.099 50.8078 222.3 50.9828 221.379 50.9828ZM221.379 48.7675C222.453 48.7675 222.99 48.0563 222.99 46.6341C222.99 45.912 222.853 45.3814 222.579 45.0422C222.316 44.6921 221.916 44.5171 221.379 44.5171C220.831 44.5171 220.42 44.6921 220.146 45.0422C219.872 45.3814 219.735 45.912 219.735 46.6341C219.735 47.3671 219.872 47.9086 220.146 48.2587C220.42 48.5979 220.831 48.7675 221.379 48.7675Z" fill="white"/>
</g>
</svg>
