<svg width="131" height="140" viewBox="0 0 131 140" fill="none" xmlns="http://www.w3.org/2000/svg">
<g clip-path="url(#clip0_1_848)">
<path d="M65.5 131.012C101.675 131.012 131 101.684 131 65.5062C131 29.3281 101.675 0 65.5 0C29.3253 0 0 29.3281 0 65.5062C0 101.684 29.3253 131.012 65.5 131.012Z" fill="#DFE3FF"/>
<g filter="url(#filter0_d_1_848)">
<path d="M30.0712 24.0712C30.0712 17.8408 35.1215 12.7901 41.3514 12.7901H89.6299C95.8595 12.7901 100.91 17.8408 100.91 24.0712V128.76C100.91 130.006 99.8998 131.016 98.654 131.016H32.3272C31.0813 131.016 30.0712 130.006 30.0712 128.76V24.0712Z" fill="white"/>
</g>
<path opacity="0.5" d="M35.2601 32.1937C35.2601 29.7015 37.28 27.6813 39.7721 27.6813H91.886C94.3777 27.6813 96.3977 29.7015 96.3977 32.1937V111.387C96.3977 113.879 94.3777 115.9 91.886 115.9H39.7721C37.28 115.9 35.2601 113.879 35.2601 111.387V32.1937Z" fill="#BEBEBE"/>
<path d="M44.5096 35.9164C44.5096 34.982 45.3084 34.2243 46.2938 34.2243H85.3643C86.3494 34.2243 87.1482 34.982 87.1482 35.9164V36.5932C87.1482 37.5279 86.3494 38.2853 85.3643 38.2853H46.2938C45.3084 38.2853 44.5096 37.5279 44.5096 36.5932V35.9164Z" fill="white"/>
<path opacity="0.5" d="M38.1929 49.7923C38.1929 46.0541 41.2232 43.0236 44.961 43.0236H86.6971C90.4349 43.0236 93.4652 46.0541 93.4652 49.7923V105.521C93.4652 109.259 90.4349 112.29 86.6971 112.29H44.961C41.2232 112.29 38.1929 109.259 38.1929 105.521V49.7923Z" fill="#BEBEBE"/>
<path opacity="0.5" d="M49.0217 106.875C49.0217 106.251 49.5267 105.746 50.1499 105.746H81.734C82.3568 105.746 82.8618 106.251 82.8618 106.875V108.228C82.8618 108.851 82.3568 109.356 81.734 109.356H50.1499C49.5267 109.356 49.0217 108.851 49.0217 108.228V106.875Z" fill="#979797"/>
<path opacity="0.3" d="M38.1929 94.014H93.4652V97.1728H38.1929V94.014Z" fill="#979797"/>
<path opacity="0.5" d="M39.9979 88.5993H55.5644V89.7272H39.9979V88.5993Z" fill="#979797"/>
<path d="M45.1863 48.664H86.6971V80.7022H45.1863V48.664Z" fill="white"/>
<path d="M69.0795 63.9606H67.9364V65.081H69.0795V65.7841H67.9364V68.7759H67.1062L64.1945 62.3992V68.7759H63.3158V65.7841H62.1849V65.081H63.3158V63.9606H62.1849V63.2575H63.3158V60.2895H64.1461L67.0581 66.7496V60.2895H67.9364V63.2575H69.0795V63.9606Z" fill="#BEBEBE"/>
<path d="M60.9475 63.9606H59.8044V65.081H60.9475V65.7841H59.8044V68.7759H58.9742L56.0625 62.3992V68.7759H55.1842V65.7841H54.0532V65.081H55.1842V63.9606H54.0532V63.2575H55.1842V60.2895H56.0144L58.9261 66.7496V60.2895H59.8044V63.2575H60.9475V63.9606Z" fill="#BEBEBE"/>
<path d="M77.2115 63.9606H76.0685V65.081H77.2115V65.7841H76.0685V68.7759H75.2382L72.3265 62.3992V68.7759H71.4482V65.7841H70.3173V65.081H71.4482V63.9606H70.3173V63.2575H71.4482V60.2895H72.2785L75.1902 66.7496V60.2895H76.0685V63.2575H77.2115V63.9606Z" fill="#BEBEBE"/>
<path d="M41.3514 52.7254H44.5096V54.5302H41.3514V52.7254Z" fill="white"/>
<path d="M87.3739 52.7254H90.5324V54.5302H87.3739V52.7254Z" fill="white"/>
<path d="M41.3514 65.3599H44.5096V67.1651H41.3514V65.3599Z" fill="white"/>
<path d="M87.3739 65.3599H90.5324V67.1651H87.3739V65.3599Z" fill="white"/>
<path d="M41.3514 59.0427H44.5096V60.8478H41.3514V59.0427Z" fill="white"/>
<path d="M87.3739 59.0427H90.5324V60.8478H87.3739V59.0427Z" fill="white"/>
<path d="M41.3514 71.6776H44.5096V73.4824H41.3514V71.6776Z" fill="white"/>
<path d="M87.3739 71.6776H90.5324V73.4824H87.3739V71.6776Z" fill="white"/>
<g filter="url(#filter1_d_1_848)">
<path d="M40.4894 115.72H20.3336C19.7934 115.72 19.3562 115.283 19.3562 114.742V81.8665C19.3562 81.3262 19.7934 80.8889 20.3336 80.8889H40.4894C41.0296 80.8889 41.4669 81.3262 41.4669 81.8665V114.739C41.4696 115.283 41.0296 115.72 40.4894 115.72Z" fill="#40196D" stroke="#DBDCE0" stroke-opacity="0.5" stroke-width="0.401411"/>
<path d="M40.3694 84.2762C40.3725 84.0847 40.3352 83.8303 40.2637 83.5786C40.198 83.3525 40.1123 83.1351 39.992 82.9322C39.9463 82.8579 39.8693 82.8492 39.8119 82.8638C39.7348 82.8838 39.6861 82.9778 39.7175 83.0525C39.7376 83.1009 39.7604 83.1469 39.7835 83.1925C39.9377 83.5043 40.0352 83.8303 40.0521 84.1791C40.0749 84.5935 40.0207 84.9966 39.852 85.3772C39.8119 85.4684 39.7635 85.5573 39.7234 85.6517C39.6805 85.746 39.7407 85.8518 39.8406 85.8632C39.8893 85.8687 39.9349 85.8632 39.9636 85.8176C39.9892 85.7802 40.0151 85.746 40.0352 85.7059C40.2609 85.2828 40.3808 84.831 40.3694 84.2762ZM39.7262 84.3249C39.7175 84.242 39.7148 84.1563 39.7034 84.0733C39.666 83.7729 39.5634 83.4925 39.4147 83.2326C39.3802 83.1724 39.3259 83.1552 39.263 83.161C39.1801 83.1697 39.1002 83.2582 39.1431 83.3553C39.16 83.3954 39.1773 83.4355 39.1946 83.4728C39.3003 83.6813 39.3688 83.8987 39.3975 84.1331C39.4317 84.4221 39.4061 84.7052 39.3059 84.9797C39.2602 85.1027 39.2001 85.2227 39.1486 85.3457C39.1372 85.3713 39.1258 85.4 39.1285 85.4256C39.1344 85.4916 39.1714 85.5372 39.2316 85.5601C39.2945 85.5829 39.346 85.5628 39.3861 85.5144C39.4147 85.4799 39.4431 85.4401 39.4631 85.4C39.6405 85.0626 39.7262 84.7052 39.7262 84.3249ZM39.0656 84.3761C39.0743 84.0816 39 83.8185 38.86 83.5755C38.8455 83.5472 38.8258 83.5212 38.8026 83.5012C38.7597 83.4583 38.674 83.4469 38.6284 83.4756C38.5541 83.5212 38.5313 83.5786 38.5596 83.6529C38.5769 83.7013 38.6025 83.7501 38.6253 83.7957C38.7826 84.1248 38.8057 84.4591 38.6768 84.7996C38.6453 84.8825 38.6056 84.9624 38.5683 85.0453C38.5568 85.0713 38.5454 85.0996 38.5482 85.1224C38.5541 85.1853 38.5938 85.2313 38.6512 85.2541C38.7082 85.2769 38.7684 85.2628 38.8085 85.2168C38.8258 85.1971 38.8427 85.1712 38.8572 85.1484C38.9972 84.9053 39.077 84.6478 39.0656 84.3761ZM38.1393 84.3564C38.148 84.4791 38.1165 84.5908 38.0508 84.6938C38.0335 84.7194 38.0194 84.7481 38.008 84.7767C37.9851 84.8397 38.008 84.9053 38.0678 84.951C38.1165 84.9883 38.1822 84.9883 38.2309 84.9482C38.2651 84.9195 38.2966 84.8881 38.3194 84.8511C38.4625 84.6195 38.4939 84.3706 38.4252 84.1075C38.3937 83.9872 38.3394 83.8759 38.2565 83.7843C38.2053 83.7273 38.1338 83.7241 38.0709 83.7642C38.0049 83.8102 37.982 83.8845 38.0166 83.953C38.028 83.9758 38.0394 84.0017 38.0536 84.0218C38.1165 84.1248 38.1452 84.2361 38.1393 84.3564Z" fill="#CACACA"/>
<path d="M40.3698 84.2762C40.3812 84.831 40.2612 85.2828 40.0352 85.7087C40.0151 85.7488 39.9896 85.783 39.9636 85.8203C39.9353 85.8632 39.8893 85.8718 39.8409 85.866C39.7379 85.8518 39.6806 85.746 39.7234 85.6544C39.7666 85.5628 39.8122 85.4743 39.8523 85.38C40.021 84.9969 40.0753 84.5963 40.0525 84.1818C40.0324 83.833 39.9353 83.5071 39.7836 83.1953C39.7607 83.1496 39.7407 83.1009 39.7179 83.0553C39.6864 82.9809 39.7352 82.8866 39.8122 82.8665C39.8693 82.8523 39.9467 82.8606 39.9923 82.935C40.1123 83.1382 40.1983 83.3553 40.264 83.5814C40.3383 83.8303 40.3725 84.0847 40.3698 84.2762Z" fill="#CACACA"/>
<path d="M39.7262 84.3246C39.7262 84.7021 39.6432 85.0626 39.469 85.3969C39.449 85.437 39.4203 85.4771 39.3916 85.5113C39.3519 85.56 39.2976 85.5801 39.2375 85.5573C39.1745 85.5345 39.1403 85.4857 39.1345 85.4228C39.1317 85.3969 39.1431 85.3685 39.1545 85.3426C39.206 85.2199 39.2661 85.1024 39.3118 84.9765C39.4089 84.7021 39.4348 84.4221 39.4034 84.1303C39.3747 83.896 39.3059 83.6785 39.2001 83.4697C39.1801 83.4327 39.1659 83.3899 39.1486 83.3525C39.1058 83.2582 39.186 83.1666 39.2689 83.1583C39.3346 83.1524 39.3861 83.1697 39.4203 83.2295C39.572 83.4925 39.6747 83.7701 39.7093 84.0702C39.712 84.1559 39.7176 84.242 39.7262 84.3246Z" fill="#CACACA"/>
<path d="M39.066 84.3761C39.0774 84.645 38.9972 84.9053 38.86 85.1483C38.8459 85.1739 38.8313 85.1967 38.8113 85.2168C38.7715 85.2628 38.7114 85.2797 38.654 85.2541C38.5942 85.2313 38.5569 85.1853 38.5514 85.1224C38.5482 85.0968 38.5628 85.0681 38.5714 85.0453C38.6056 84.9624 38.6485 84.8822 38.6799 84.7996C38.8085 84.4591 38.7857 84.1244 38.6284 83.7957C38.6056 83.747 38.5828 83.7013 38.5628 83.6529C38.5341 83.5755 38.5569 83.5212 38.6312 83.4756C38.6799 83.4469 38.7629 83.4556 38.8058 83.5012C38.8286 83.524 38.8459 83.5499 38.8628 83.5755C39 83.8216 39.0743 84.0816 39.066 84.3761Z" fill="#CACACA"/>
<path d="M38.1397 84.3564C38.1483 84.2361 38.1169 84.1248 38.0508 84.0245C38.0367 84.0017 38.0253 83.9789 38.0138 83.9561C37.9824 83.8873 38.0024 83.813 38.0681 83.7674C38.131 83.7245 38.2026 83.73 38.2541 83.7874C38.3398 83.8787 38.3913 83.9903 38.4228 84.1103C38.494 84.3733 38.4597 84.6222 38.317 84.8538C38.2938 84.8912 38.2624 84.9254 38.2282 84.951C38.1766 84.9911 38.1137 84.9911 38.0654 84.9541C38.0052 84.9081 37.9824 84.8397 38.0052 84.7795C38.0166 84.7508 38.0308 84.7221 38.0481 84.6965C38.1169 84.5908 38.1452 84.4791 38.1397 84.3564Z" fill="#CACACA"/>
<g opacity="0.13">
<mask id="mask0_1_848" style="mask-type:alpha" maskUnits="userSpaceOnUse" x="19" y="88" width="23" height="8">
<path d="M24.2255 95.7019H22.6446L20.7265 93.3292V95.7019H19.367V88.3849H20.7265V92.7754L22.5392 90.4756H24.1623L22.0439 93.0575L24.2255 95.7019Z" fill="#DFE3FF"/>
<path d="M27.7546 90.4756H29.1141V95.7019H27.7546V95.1167C27.4244 95.6044 26.9009 95.8485 26.1843 95.8485C25.6081 95.8485 25.1304 95.6566 24.7509 95.2736C24.3786 94.8903 24.1924 94.3607 24.1924 93.6845V90.4756H25.5519V93.5172C25.5519 93.8657 25.6468 94.1343 25.8365 94.3223C26.0262 94.5035 26.2791 94.594 26.5953 94.594C26.9466 94.594 27.2276 94.4862 27.4384 94.2701C27.6492 94.0541 27.7546 93.7298 27.7546 93.2977V90.4756Z" fill="#DFE3FF"/>
<path d="M33.932 88.3849H35.2916V95.7019H33.932V95.0852C33.5315 95.5941 32.9624 95.8485 32.2246 95.8485C31.515 95.8485 30.9073 95.5837 30.4014 95.0541C29.9026 94.5173 29.6531 93.8622 29.6531 93.0889C29.6531 92.3153 29.9026 91.6637 30.4014 91.1341C30.9073 90.5976 31.515 90.3294 32.2246 90.3294C32.9624 90.3294 33.5315 90.5838 33.932 91.0923V88.3849ZM31.4237 94.155C31.7047 94.4267 32.056 94.5626 32.4776 94.5626C32.8991 94.5626 33.2469 94.4267 33.5209 94.155C33.795 93.8764 33.932 93.521 33.932 93.0889C33.932 92.6568 33.795 92.3049 33.5209 92.0332C33.2469 91.7543 32.8991 91.615 32.4776 91.615C32.056 91.615 31.7047 91.7543 31.4237 92.0332C31.1497 92.3049 31.0127 92.6568 31.0127 93.0889C31.0127 93.521 31.1497 93.8764 31.4237 94.155Z" fill="#DFE3FF"/>
<path d="M40.1182 90.4756H41.4776V95.7019H40.1182V95.0852C39.7107 95.5941 39.1379 95.8485 38.4003 95.8485C37.6976 95.8485 37.0934 95.5837 36.5874 95.0541C36.0886 94.5173 35.8394 93.8622 35.8394 93.0889C35.8394 92.3153 36.0886 91.6637 36.5874 91.1341C37.0934 90.5976 37.6976 90.3294 38.4003 90.3294C39.1379 90.3294 39.7107 90.5838 40.1182 91.0923V90.4756ZM37.6098 94.155C37.8839 94.4267 38.2316 94.5626 38.6533 94.5626C39.0747 94.5626 39.4224 94.4267 39.6965 94.155C39.9775 93.8764 40.1182 93.521 40.1182 93.0889C40.1182 92.6568 39.9775 92.3049 39.6965 92.0332C39.4224 91.7543 39.0747 91.615 38.6533 91.615C38.2316 91.615 37.8839 91.7543 37.6098 92.0332C37.3357 92.3049 37.1988 92.6568 37.1988 93.0889C37.1988 93.521 37.3357 93.8764 37.6098 94.155Z" fill="#DFE3FF"/>
</mask>
<g mask="url(#mask0_1_848)">
<path d="M41.4703 86.9742H16.4186V96.5699H41.4703V86.9742Z" fill="#DFE3FF"/>
</g>
</g>
<mask id="mask1_1_848" style="mask-type:luminance" maskUnits="userSpaceOnUse" x="20" y="82" width="11" height="3">
<path d="M30.2621 82.0172H20.4623V84.2074H30.2621V82.0172Z" fill="white"/>
</mask>
<g mask="url(#mask1_1_848)">
<path d="M26.2707 82.6958V84.1839H25.8395V83.9665C25.7925 84.0449 25.7309 84.1047 25.6547 84.1455C25.5784 84.1867 25.4923 84.2074 25.3965 84.2074C25.2107 84.2074 25.0719 84.1556 24.9799 84.0519C24.888 83.9478 24.8421 83.7912 24.8421 83.5817V82.6958H25.285V83.5907C25.285 83.7708 25.3623 83.8607 25.5168 83.8607C25.6087 83.8607 25.683 83.8296 25.7397 83.7667C25.7964 83.7041 25.8248 83.6218 25.8248 83.5202V82.6958H26.2707ZM27.9604 82.0172V84.1839H27.5233V83.9637C27.4784 84.0401 27.4148 84.0996 27.3326 84.1428C27.2505 84.186 27.1576 84.2074 27.054 84.2074C26.9268 84.2074 26.8134 84.1749 26.7137 84.1096C26.6139 84.0439 26.5367 83.952 26.4809 83.8334C26.4252 83.7148 26.3978 83.5797 26.3978 83.4272C26.3978 83.2744 26.4252 83.1403 26.4809 83.0238C26.5367 82.9073 26.6139 82.8171 26.7127 82.7535C26.8115 82.6899 26.9249 82.6584 27.054 82.6584C27.1537 82.6584 27.2446 82.6799 27.3268 82.721C27.4089 82.7632 27.4725 82.8209 27.5175 82.8956V82.0172H27.9604ZM27.4353 83.757C27.494 83.6816 27.5233 83.5738 27.5233 83.4331C27.5233 83.2938 27.494 83.1873 27.4344 83.112C27.3747 83.0362 27.2916 82.9993 27.184 82.9993C27.0745 82.9993 26.9894 83.0362 26.9288 83.1109C26.8682 83.1852 26.8378 83.291 26.8378 83.4279C26.8378 83.5689 26.8682 83.6778 26.9288 83.7549C26.9894 83.8323 27.0745 83.8707 27.184 83.8707C27.2935 83.8697 27.3767 83.8323 27.4353 83.757ZM29.6511 82.6958V84.1839H29.214V83.9637C29.1691 84.0401 29.1055 84.0996 29.0234 84.1428C28.9412 84.186 28.8483 84.2074 28.7447 84.2074C28.6156 84.2074 28.5022 84.176 28.4034 84.1134C28.3046 84.0508 28.2274 83.9616 28.1717 83.8451C28.1159 83.7286 28.0885 83.5945 28.0885 83.4417C28.0885 83.2889 28.1159 83.1527 28.1717 83.0335C28.2274 82.9139 28.3046 82.8219 28.4044 82.7562C28.5041 82.6909 28.6175 82.6584 28.7447 82.6584C28.8483 82.6584 28.9412 82.6809 29.0234 82.7262C29.1055 82.7711 29.1691 82.8316 29.214 82.908V82.6958H29.6511ZM29.126 83.758C29.1847 83.6837 29.214 83.5759 29.214 83.4348C29.214 83.2938 29.1847 83.1863 29.126 83.1109C29.0674 83.0356 28.9833 82.9982 28.8737 82.9982C28.7642 82.9982 28.6791 83.0373 28.6185 83.1158C28.5579 83.1939 28.5276 83.3028 28.5276 83.4417C28.5276 83.5807 28.5569 83.6865 28.6166 83.7601C28.6762 83.8334 28.7613 83.8697 28.8728 83.8697C28.9833 83.8697 29.0674 83.8323 29.126 83.758ZM24.7531 84.2053H24.2035L23.6129 83.5309V84.2053H23.165V82.0172H23.6129V83.3456L24.1771 82.7006H24.715L24.0764 83.4231L24.7531 84.2053Z" fill="#CACACA"/>
<path d="M21.936 84.2053L21.0764 83.2146L21.5458 84.2053H21.2202L20.741 83.1949L20.9405 84.2053H20.74L20.5406 83.1932V84.2053H20.4623V82.0172H20.5406V83.1088L20.743 82.0172H20.9425L20.7391 83.1137L21.228 82.0172H21.5497L21.0637 83.1099L21.9467 82.0172H22.4523L21.538 83.1469L22.4562 84.2053H21.936Z" fill="#CACACA"/>
<path d="M30.0218 84.1818C30.1557 84.1818 30.2643 84.0733 30.2643 83.9392C30.2643 83.805 30.1557 83.6962 30.0218 83.6962C29.8879 83.6962 29.7793 83.805 29.7793 83.9392C29.7793 84.0733 29.8879 84.1818 30.0218 84.1818Z" fill="#CACACA"/>
</g>
<path d="M35.8463 115.414H30.4314V115.72H35.8463V115.414Z" fill="#00CAF5"/>
<path d="M41.2011 115.414C41.0234 115.603 40.7683 115.72 40.4901 115.72H35.8463V115.414H41.2011Z" fill="#48D38A"/>
<path d="M30.4312 115.414H24.9676V115.72H30.4312V115.414Z" fill="#FFC700"/>
<path d="M19.6131 115.414C19.7908 115.603 20.046 115.72 20.324 115.72H24.9678V115.414H19.6131Z" fill="#F7685B"/>
<path d="M39.6878 112.768C39.4137 112.768 39.1438 112.768 38.8738 112.768C38.8296 112.888 38.785 113.009 38.7408 113.13C38.5192 113.13 38.3015 113.13 38.0799 113.13C38.084 113.122 38.0878 113.114 38.0878 113.106C38.2531 112.715 38.4145 112.324 38.5797 111.933C38.7287 111.579 38.8738 111.228 39.0228 110.873C39.0591 110.78 39.1237 110.72 39.2205 110.696C39.2485 110.688 39.2769 110.688 39.3011 110.688C39.4704 110.688 39.6395 110.688 39.8088 110.688C39.8168 110.688 39.8209 110.688 39.8289 110.688C39.9982 111.502 40.1676 112.316 40.3408 113.13C40.1476 113.13 39.954 113.13 39.7566 113.13C39.7404 113.009 39.7162 112.888 39.6878 112.768ZM39.5831 112.264C39.5831 112.264 39.5831 112.26 39.5831 112.256C39.5188 111.953 39.4583 111.655 39.3937 111.353C39.3937 111.353 39.3937 111.353 39.3895 111.353C39.281 111.655 39.168 111.957 39.0591 112.264C39.0795 112.268 39.5631 112.268 39.5831 112.264Z" fill="#CACACA"/>
<path d="M34.4684 113.134C34.2468 113.134 34.0251 113.134 33.8034 113.134C33.7994 113.126 33.7994 113.122 33.7954 113.114C33.6462 112.534 33.4971 111.957 33.348 111.377C33.3279 111.3 33.3077 111.224 33.2876 111.147C33.2674 111.058 33.215 110.998 33.1344 110.962C33.0377 110.914 32.941 110.877 32.8362 110.845C32.7394 110.813 32.6427 110.788 32.5419 110.764C32.5339 110.764 32.5299 110.76 32.5218 110.76C32.5218 110.736 32.5299 110.716 32.5339 110.692C32.5419 110.692 32.55 110.692 32.5581 110.692C32.9047 110.692 33.2473 110.692 33.5939 110.692C33.6382 110.692 33.6825 110.696 33.7228 110.716C33.8196 110.76 33.876 110.837 33.9002 110.937C33.9284 111.083 33.9566 111.228 33.9848 111.377C34.0171 111.558 34.0533 111.74 34.0856 111.921C34.1098 112.058 34.138 112.191 34.1621 112.328C34.1621 112.336 34.1662 112.344 34.1662 112.352H34.1702C34.1702 112.352 34.1702 112.348 34.1742 112.348C34.1742 112.348 34.1742 112.344 34.1783 112.34C34.3959 111.792 34.6096 111.248 34.827 110.7C34.827 110.7 34.827 110.7 34.8311 110.696C35.0489 110.696 35.2663 110.696 35.492 110.696C35.1495 111.506 34.8069 112.32 34.4684 113.134Z" fill="#CACACA"/>
<path d="M36.3102 113.042C36.3503 112.86 36.3866 112.687 36.4229 112.506C36.4312 112.51 36.4391 112.514 36.4512 112.518C36.5238 112.554 36.6002 112.586 36.6811 112.606C36.8179 112.647 36.9631 112.663 37.1083 112.659C37.1805 112.655 37.2493 112.643 37.3136 112.61C37.3457 112.594 37.3782 112.574 37.4062 112.55C37.475 112.477 37.4788 112.376 37.4145 112.3C37.3903 112.272 37.3578 112.248 37.3257 112.223C37.2693 112.183 37.2089 112.151 37.1442 112.123C37.0678 112.086 36.9911 112.046 36.9185 111.998C36.8501 111.953 36.7858 111.901 36.7291 111.841C36.6569 111.76 36.6043 111.671 36.5843 111.562C36.568 111.486 36.5722 111.409 36.5843 111.332C36.6206 111.119 36.7374 110.958 36.9147 110.837C37.0274 110.76 37.1563 110.708 37.2894 110.68C37.4183 110.652 37.5514 110.639 37.6803 110.644C37.8618 110.647 38.0391 110.684 38.2123 110.744C38.2164 110.744 38.2206 110.748 38.2244 110.748C38.2244 110.748 38.2285 110.748 38.2285 110.752C38.1922 110.921 38.1559 111.091 38.1196 111.264C38.1117 111.26 38.1075 111.26 38.1037 111.26C37.9866 111.208 37.8618 111.176 37.737 111.159C37.6482 111.151 37.5593 111.147 37.4709 111.163C37.4183 111.171 37.3699 111.188 37.3257 111.216C37.2935 111.236 37.2652 111.26 37.2493 111.297C37.221 111.349 37.221 111.401 37.2573 111.45C37.2735 111.47 37.2894 111.49 37.3136 111.506C37.3499 111.534 37.3862 111.558 37.4266 111.582C37.4909 111.619 37.5555 111.651 37.6198 111.688C37.6924 111.728 37.765 111.768 37.8296 111.816C37.8818 111.853 37.9302 111.897 37.9707 111.945C38.0674 112.054 38.1158 112.183 38.1158 112.328C38.1158 112.631 37.9745 112.856 37.7166 113.009C37.6039 113.074 37.483 113.114 37.3578 113.142C37.221 113.17 37.0799 113.179 36.9389 113.17C36.7574 113.163 36.5801 113.135 36.407 113.078C36.3707 113.066 36.3423 113.054 36.3102 113.042Z" fill="#CACACA"/>
<path d="M36.3949 110.688C36.2213 111.506 36.0482 112.316 35.8709 113.13C35.6614 113.13 35.4516 113.13 35.238 113.13C35.4115 112.316 35.5847 111.502 35.762 110.688C35.9756 110.688 36.185 110.688 36.3949 110.688Z" fill="#CACACA"/>
<path d="M37.3184 114.366C37.3786 114.373 37.4487 114.377 37.5351 114.377C37.7149 114.377 37.8573 114.331 37.9451 114.244C38.0301 114.159 38.0782 114.035 38.0782 113.885C38.0782 113.735 38.0301 113.628 37.9465 113.553C37.8656 113.478 37.7436 113.437 37.5721 113.437C37.4774 113.437 37.391 113.446 37.3184 113.458V114.366ZM37.4377 113.544C37.4691 113.538 37.5158 113.532 37.5777 113.532C37.83 113.532 37.9534 113.671 37.952 113.889C37.952 114.138 37.8148 114.281 37.5583 114.281C37.5116 114.281 37.4677 114.28 37.4377 114.276V113.544Z" fill="#9484A6"/>
<path d="M38.7667 114.059C38.7694 114.045 38.7708 114.027 38.7708 114.003C38.7708 113.88 38.7145 113.691 38.4964 113.691C38.3031 113.691 38.1849 113.848 38.1849 114.048C38.1849 114.248 38.3069 114.384 38.5116 114.384C38.617 114.384 38.691 114.361 38.7335 114.341L38.7117 114.255C38.6678 114.274 38.6142 114.289 38.5278 114.289C38.4058 114.289 38.3031 114.222 38.3004 114.059H38.7667ZM38.3018 113.972C38.3111 113.889 38.3633 113.777 38.4867 113.777C38.6225 113.777 38.6554 113.897 38.654 113.972H38.3018Z" fill="#9484A6"/>
<path d="M38.9201 114.197C38.9201 114.256 38.9174 114.324 38.9146 114.369H39.0176L39.0245 114.26H39.0273C39.0778 114.347 39.1548 114.384 39.2506 114.384C39.3989 114.384 39.5496 114.266 39.5496 114.029C39.5496 113.828 39.4345 113.691 39.2686 113.691C39.1614 113.691 39.0847 113.738 39.0422 113.812H39.0394V113.395H38.9201V114.197ZM39.0394 113.985C39.0394 113.966 39.0422 113.949 39.0463 113.934C39.0712 113.844 39.1479 113.786 39.2288 113.786C39.3591 113.786 39.4276 113.9 39.4276 114.033C39.4276 114.185 39.3536 114.288 39.226 114.288C39.1382 114.288 39.067 114.23 39.0449 114.147C39.0408 114.133 39.0394 114.118 39.0394 114.103V113.985Z" fill="#9484A6"/>
<path d="M39.8216 114.369V113.705H39.701V114.369H39.8216ZM39.7614 113.443C39.7162 113.443 39.6861 113.477 39.6861 113.519C39.6861 113.56 39.7148 113.593 39.7587 113.593C39.8067 113.593 39.8354 113.56 39.8354 113.519C39.8354 113.476 39.8053 113.443 39.7614 113.443Z" fill="#9484A6"/>
<path d="M40.05 113.581V113.705H39.947V113.797H40.05V114.159C40.05 114.237 40.0635 114.296 40.0963 114.333C40.1254 114.365 40.1707 114.384 40.2266 114.384C40.2733 114.384 40.3103 114.376 40.3338 114.368L40.3283 114.276C40.3103 114.281 40.2913 114.284 40.2584 114.284C40.191 114.284 40.1679 114.237 40.1679 114.155V113.797H40.3407V113.705H40.1679V113.546L40.05 113.581Z" fill="#9484A6"/>
</g>
</g>
<defs>
<filter id="filter0_d_1_848" x="5.07123" y="-12.2099" width="120.839" height="168.226" filterUnits="userSpaceOnUse" color-interpolation-filters="sRGB">
<feFlood flood-opacity="0" result="BackgroundImageFix"/>
<feColorMatrix in="SourceAlpha" type="matrix" values="0 0 0 0 0 0 0 0 0 0 0 0 0 0 0 0 0 0 127 0" result="hardAlpha"/>
<feOffset/>
<feGaussianBlur stdDeviation="12.5"/>
<feColorMatrix type="matrix" values="0 0 0 0 0 0 0 0 0 0 0 0 0 0 0 0 0 0 0.06 0"/>
<feBlend mode="normal" in2="BackgroundImageFix" result="effect1_dropShadow_1_848"/>
<feBlend mode="normal" in="SourceGraphic" in2="effect1_dropShadow_1_848" result="shape"/>
</filter>
<filter id="filter1_d_1_848" x="19.1555" y="80.6882" width="35.3573" height="46.0705" filterUnits="userSpaceOnUse" color-interpolation-filters="sRGB">
<feFlood flood-opacity="0" result="BackgroundImageFix"/>
<feColorMatrix in="SourceAlpha" type="matrix" values="0 0 0 0 0 0 0 0 0 0 0 0 0 0 0 0 0 0 127 0" result="hardAlpha"/>
<feOffset dx="8.02823" dy="6.02117"/>
<feGaussianBlur stdDeviation="2.40847"/>
<feComposite in2="hardAlpha" operator="out"/>
<feColorMatrix type="matrix" values="0 0 0 0 0.25098 0 0 0 0 0.0980392 0 0 0 0 0.427451 0 0 0 0.1 0"/>
<feBlend mode="normal" in2="BackgroundImageFix" result="effect1_dropShadow_1_848"/>
<feBlend mode="normal" in="SourceGraphic" in2="effect1_dropShadow_1_848" result="shape"/>
</filter>
<clipPath id="clip0_1_848">
<rect width="131" height="140" fill="white"/>
</clipPath>
</defs>
</svg>
