<svg width="222" height="194" viewBox="0 0 222 194" fill="none" xmlns="http://www.w3.org/2000/svg">
<g clip-path="url(#clip0_1_906)">
<path d="M110.951 193.525C164.718 193.525 208.304 150.214 208.304 96.7872C208.304 43.3607 164.718 0.0498657 110.951 0.0498657C57.1851 0.0498657 13.5988 43.3607 13.5988 96.7872C13.5988 150.214 57.1851 193.525 110.951 193.525Z" fill="#FFDBDB" fill-opacity="0.3"/>
<mask id="mask0_1_906" style="mask-type:alpha" maskUnits="userSpaceOnUse" x="12" y="0" width="195" height="194">
<path d="M109.47 193.64C163.103 193.64 206.582 150.292 206.582 96.8202C206.582 43.3479 163.103 0 109.47 0C55.8371 0 12.3588 43.3479 12.3588 96.8202C12.3588 150.292 55.8371 193.64 109.47 193.64Z" fill="#DBDCE0"/>
</mask>
<g mask="url(#mask0_1_906)">
<g filter="url(#filter0_d_1_906)">
<path d="M163.191 234.089H56.0058C53.1335 234.089 50.8083 231.765 50.8083 228.894V54.153C50.8083 51.2819 53.1335 48.9576 56.0058 48.9576H163.191C166.063 48.9576 168.388 51.2819 168.388 54.153V228.879C168.403 231.765 166.063 234.089 163.191 234.089Z" fill="#40196D" stroke="#DBDCE0" stroke-opacity="0.5" stroke-width="1.61192"/>
<path d="M162.553 66.9616C162.569 65.9431 162.371 64.5906 161.991 63.2532C161.641 62.0526 161.185 60.8973 160.547 59.8184C160.303 59.423 159.893 59.3777 159.589 59.4537C159.178 59.5598 158.92 60.0613 159.087 60.4566C159.193 60.7152 159.315 60.9581 159.437 61.2015C160.258 62.8578 160.775 64.5906 160.866 66.445C160.988 68.6486 160.699 70.7917 159.802 72.8132C159.589 73.2995 159.33 73.7703 159.117 74.2718C158.889 74.7737 159.209 75.3361 159.741 75.3965C159.999 75.4271 160.242 75.3965 160.395 75.1535C160.532 74.9559 160.668 74.7737 160.775 74.561C161.976 72.3112 162.614 69.91 162.553 66.9616ZM159.133 67.2201C159.087 66.779 159.072 66.3233 159.011 65.8827C158.813 64.2868 158.266 62.7975 157.475 61.4143C157.293 61.0949 157.004 61.0039 156.669 61.0341C156.228 61.0798 155.803 61.5511 156.031 62.0677C156.122 62.2804 156.213 62.4932 156.304 62.6908C156.867 63.8004 157.232 64.9552 157.384 66.2016C157.566 67.7367 157.43 69.2415 156.898 70.7002C156.654 71.354 156.335 71.9923 156.061 72.6457C156.001 72.7825 155.94 72.9344 155.955 73.0712C155.985 73.4208 156.183 73.6642 156.502 73.7854C156.837 73.9072 157.111 73.801 157.323 73.5425C157.475 73.3599 157.627 73.1472 157.734 72.9344C158.676 71.1413 159.133 69.2415 159.133 67.2201ZM155.62 67.4937C155.666 65.928 155.27 64.5297 154.526 63.2381C154.45 63.0862 154.343 62.9494 154.221 62.8427C153.993 62.6149 153.537 62.554 153.294 62.7059C152.899 62.9494 152.777 63.2532 152.929 63.6485C153.02 63.9065 153.157 64.1651 153.279 64.4085C154.115 66.1558 154.237 67.9343 153.553 69.743C153.386 70.1836 153.172 70.6092 152.975 71.0498C152.914 71.1866 152.853 71.3389 152.868 71.4602C152.899 71.7947 153.112 72.0381 153.416 72.1593C153.72 72.281 154.039 72.2051 154.252 71.9617C154.343 71.8555 154.434 71.7187 154.511 71.597C155.255 70.3053 155.681 68.9373 155.62 67.4937ZM150.694 67.3871C150.74 68.0405 150.572 68.6335 150.223 69.1807C150.131 69.3175 150.056 69.4694 149.995 69.6213C149.873 69.9558 149.995 70.3053 150.314 70.5483C150.572 70.746 150.922 70.746 151.181 70.5332C151.363 70.3813 151.53 70.2138 151.652 70.0166C152.412 68.7854 152.579 67.4631 152.215 66.0648C152.047 65.4265 151.758 64.834 151.317 64.3476C151.044 64.0434 150.664 64.0283 150.329 64.241C149.98 64.4844 149.858 64.8793 150.04 65.244C150.101 65.3657 150.162 65.5025 150.238 65.6091C150.572 66.1563 150.725 66.7488 150.694 67.3871Z" fill="#CACACA"/>
<path d="M162.555 66.9616C162.615 69.91 161.977 72.3117 160.776 74.5761C160.669 74.7888 160.533 74.9714 160.396 75.1686C160.244 75.3969 160 75.4422 159.742 75.412C159.195 75.3361 158.89 74.7737 159.118 74.2874C159.347 73.801 159.59 73.3297 159.802 72.8283C160.7 70.7917 160.988 68.6637 160.867 66.4601C160.761 64.6057 160.244 62.8734 159.438 61.2166C159.316 60.9737 159.21 60.7151 159.088 60.4717C158.921 60.0769 159.179 59.5754 159.59 59.4688C159.894 59.3928 160.304 59.4386 160.548 59.8335C161.186 60.9128 161.642 62.0677 161.992 63.2683C162.387 64.5906 162.57 65.9435 162.555 66.9616Z" fill="#CACACA"/>
<path d="M159.133 67.2196C159.133 69.226 158.692 71.1408 157.765 72.9193C157.658 73.132 157.506 73.3448 157.354 73.5269C157.141 73.7854 156.852 73.892 156.533 73.7703C156.199 73.6486 156.016 73.3906 155.986 73.0561C155.97 72.9193 156.031 72.7674 156.092 72.6306C156.366 71.9767 156.685 71.3536 156.928 70.6851C157.445 69.226 157.582 67.7367 157.415 66.1865C157.263 64.9401 156.898 63.7848 156.336 62.6753C156.229 62.4781 156.153 62.2497 156.062 62.0525C155.834 61.5506 156.259 61.0642 156.7 61.0189C157.05 60.9883 157.324 61.0798 157.506 61.3987C158.312 62.797 158.86 64.2712 159.042 65.8671C159.057 66.3233 159.088 66.779 159.133 67.2196Z" fill="#CACACA"/>
<path d="M155.621 67.4932C155.681 68.9222 155.255 70.3049 154.526 71.597C154.45 71.7338 154.374 71.855 154.267 71.9617C154.054 72.2046 153.735 72.2961 153.431 72.1593C153.112 72.0376 152.914 71.7946 152.884 71.4602C152.868 71.3234 152.944 71.1715 152.99 71.0498C153.173 70.6091 153.401 70.1836 153.568 69.7426C154.252 67.9339 154.13 66.1558 153.294 64.408C153.173 64.1495 153.051 63.9065 152.944 63.648C152.792 63.2376 152.914 62.9489 153.31 62.7059C153.568 62.554 154.009 62.5993 154.237 62.8427C154.359 62.964 154.45 63.1008 154.541 63.2376C155.271 64.5448 155.666 65.928 155.621 67.4932Z" fill="#CACACA"/>
<path d="M150.695 67.3875C150.741 66.7493 150.573 66.1563 150.224 65.6242C150.148 65.5029 150.087 65.3812 150.026 65.2595C149.859 64.8948 149.965 64.4995 150.315 64.2565C150.649 64.0287 151.03 64.0589 151.303 64.3627C151.759 64.8491 152.033 65.4421 152.2 66.0803C152.58 67.4786 152.398 68.8009 151.638 70.0317C151.516 70.2294 151.349 70.4119 151.166 70.5487C150.893 70.7615 150.558 70.7615 150.3 70.5638C149.98 70.3209 149.859 69.9558 149.98 69.6368C150.041 69.4849 150.117 69.3326 150.208 69.1958C150.573 68.6334 150.725 68.0409 150.695 67.3875Z" fill="#CACACA"/>
<g opacity="0.13">
<mask id="mask1_1_906" style="mask-type:alpha" maskUnits="userSpaceOnUse" x="50" y="88" width="119" height="41">
<path d="M76.7017 127.692H68.295L58.0954 115.08V127.692H50.8655V88.8008H58.0954V112.135L67.7347 99.9127H76.3657L65.1005 113.635L76.7017 127.692Z" fill="#DFE3FF"/>
<path d="M95.4687 99.9128H102.699V127.692H95.4687V124.58C93.7129 127.173 90.9289 128.47 87.1183 128.47C84.0543 128.47 81.5138 127.451 79.4962 125.414C77.516 123.377 76.5259 120.562 76.5259 116.969V99.9128H83.7554V116.08C83.7554 117.932 84.2598 119.358 85.2686 120.358C86.2775 121.321 87.6227 121.803 89.304 121.803C91.172 121.803 92.6665 121.228 93.7875 120.08C94.9085 118.932 95.4687 117.21 95.4687 114.913V99.9128Z" fill="#DFE3FF"/>
<path d="M128.319 88.8008H135.549V127.692H128.319V124.414C126.189 127.118 123.163 128.47 119.24 128.47C115.466 128.47 112.234 127.062 109.544 124.247C106.891 121.395 105.565 117.914 105.565 113.802C105.565 109.691 106.891 106.228 109.544 103.413C112.234 100.561 115.466 99.1349 119.24 99.1349C123.163 99.1349 126.189 100.487 128.319 103.191V88.8008ZM114.98 119.469C116.475 120.914 118.343 121.636 120.585 121.636C122.826 121.636 124.676 120.914 126.133 119.469C127.591 117.988 128.319 116.098 128.319 113.802C128.319 111.506 127.591 109.635 126.133 108.191C124.676 106.709 122.826 105.968 120.585 105.968C118.343 105.968 116.475 106.709 114.98 108.191C113.523 109.635 112.795 111.506 112.795 113.802C112.795 116.098 113.523 117.988 114.98 119.469Z" fill="#DFE3FF"/>
<path d="M161.215 99.9127H168.445V127.692H161.215V124.414C159.049 127.118 156.003 128.47 152.08 128.47C148.344 128.47 145.131 127.062 142.441 124.247C139.788 121.395 138.462 117.914 138.462 113.802C138.462 109.691 139.788 106.228 142.441 103.413C145.131 100.561 148.344 99.1349 152.08 99.1349C156.003 99.1349 159.049 100.487 161.215 103.191V99.9127ZM147.877 119.469C149.334 120.914 151.183 121.636 153.425 121.636C155.667 121.636 157.517 120.914 158.974 119.469C160.468 117.988 161.215 116.098 161.215 113.802C161.215 111.506 160.468 109.635 158.974 108.191C157.517 106.709 155.667 105.968 153.425 105.968C151.183 105.968 149.334 106.709 147.877 108.191C146.42 109.635 145.691 111.506 145.691 113.802C145.691 116.098 146.42 117.988 147.877 119.469Z" fill="#DFE3FF"/>
</mask>
<g mask="url(#mask1_1_906)">
<path d="M168.406 81.3025H35.1859V132.305H168.406V81.3025Z" fill="#DFE3FF"/>
</g>
</g>
<mask id="mask2_1_906" style="mask-type:luminance" maskUnits="userSpaceOnUse" x="56" y="54" width="53" height="13">
<path d="M108.804 54.9546H56.6906V66.596H108.804V54.9546Z" fill="white"/>
</mask>
<g mask="url(#mask2_1_906)">
<path d="M87.5783 58.561V66.4711H85.2851V65.3158C85.0352 65.7321 84.7079 66.0497 84.3023 66.2679C83.8963 66.4866 83.4391 66.596 82.9291 66.596C81.9414 66.596 81.203 66.3201 80.7142 65.7683C80.2253 65.2169 79.9809 64.3842 79.9809 63.2705V58.561H82.3364V63.3172C82.3364 64.2749 82.7474 64.7534 83.5691 64.7534C84.0579 64.7534 84.4529 64.5869 84.7546 64.2543C85.0562 63.9212 85.2068 63.4838 85.2068 62.9425V58.561H87.5783ZM96.5636 54.9546V66.4711H94.2392V65.3002C94.0003 65.7061 93.662 66.0236 93.2254 66.2524C92.7887 66.4816 92.2948 66.596 91.7432 66.596C91.0672 66.596 90.4643 66.424 89.9338 66.0753C89.4033 65.7267 88.9927 65.2375 88.6961 64.608C88.4 63.9784 88.2544 63.26 88.2544 62.4483C88.2544 61.6366 88.4 60.9233 88.6961 60.3043C88.9927 59.6847 89.4033 59.2061 89.9288 58.868C90.4538 58.5294 91.0571 58.3629 91.7432 58.3629C92.2737 58.3629 92.7576 58.4777 93.1942 58.696C93.6309 58.9197 93.9692 59.2272 94.2081 59.6225V54.9546H96.5636ZM93.7714 64.2021C94.0836 63.8013 94.2392 63.2289 94.2392 62.4794C94.2392 61.7405 94.0836 61.1731 93.7664 60.7728C93.4492 60.372 93.007 60.1743 92.4349 60.1743C91.8526 60.1743 91.4004 60.372 91.0777 60.7673C90.7554 61.1631 90.5943 61.7249 90.5943 62.4534C90.5943 63.2028 90.7554 63.7807 91.0777 64.1916C91.4004 64.6029 91.8526 64.8056 92.4349 64.8056C93.0175 64.8006 93.4593 64.6029 93.7714 64.2021ZM105.555 58.561V66.4711H103.23V65.3002C102.991 65.7061 102.653 66.0236 102.216 66.2524C101.779 66.4816 101.286 66.596 100.734 66.596C100.048 66.596 99.4446 66.4294 98.9195 66.0963C98.3941 65.7633 97.9835 65.2897 97.6869 64.6702C97.3907 64.0511 97.2452 63.3383 97.2452 62.5261C97.2452 61.7144 97.3907 60.991 97.6869 60.3564C97.9835 59.7213 98.3941 59.2322 98.9246 58.8836C99.4551 58.5349 100.058 58.3629 100.734 58.3629C101.286 58.3629 101.779 58.4828 102.216 58.7221C102.653 58.9614 102.991 59.2844 103.23 59.6902V58.561H105.555ZM102.762 64.2071C103.074 63.8118 103.23 63.2394 103.23 62.49C103.23 61.7405 103.074 61.1681 102.762 60.7673C102.45 60.3665 102.003 60.1688 101.421 60.1688C100.838 60.1688 100.386 60.377 100.063 60.7934C99.7412 61.2097 99.5796 61.7872 99.5796 62.5261C99.5796 63.2655 99.7357 63.8274 100.053 64.2177C100.37 64.608 100.823 64.8006 101.416 64.8006C102.003 64.8006 102.45 64.6029 102.762 64.2071ZM79.5076 66.5855H76.5854L73.4445 63.0001V66.5855H71.0629V54.9546H73.4445V62.0164L76.4449 58.5871H79.3048L75.9094 62.4273L79.5076 66.5855Z" fill="#CACACA"/>
<path d="M64.527 66.5855L59.956 61.3191L62.4521 66.5855H60.7205L58.1723 61.2148L59.2333 66.5855H58.1672L57.1062 61.2047V66.5855H56.6906V54.9546H57.1062V60.7568L58.1828 54.9546H59.2438L58.1622 60.7829L60.7621 54.9546H62.4727L59.8883 60.7623L64.5842 54.9546H67.2724L62.4104 60.9599L67.293 66.5855H64.527Z" fill="#CACACA"/>
<path d="M107.526 66.4606C108.238 66.4606 108.816 65.8827 108.816 65.1698C108.816 64.4574 108.238 63.8795 107.526 63.8795C106.814 63.8795 106.236 64.4574 106.236 65.1698C106.236 65.8827 106.814 66.4606 107.526 66.4606Z" fill="#CACACA"/>
</g>
</g>
<g opacity="0.7">
<path opacity="0.7" d="M130.152 72.2334V57.818C130.152 57.0648 129.547 56.4508 128.812 56.4508H120.029C119.285 56.4508 118.689 57.074 118.689 57.818V72.2334C118.689 72.987 119.294 73.6006 120.029 73.6006H128.812C129.547 73.6006 130.152 72.987 130.152 72.2334Z" fill="#ECC581"/>
<path opacity="0.7" d="M130.092 57.8244V72.2398C130.092 72.9564 129.515 73.5329 128.827 73.5329H120.044C119.355 73.5329 118.778 72.9564 118.778 72.2398V57.8244C118.778 57.1174 119.346 56.5318 120.044 56.5318H128.827C129.515 56.5226 130.092 57.0991 130.092 57.8244Z" stroke="#C08329" stroke-opacity="0.3" stroke-width="0.360166"/>
</g>
<path d="M126.945 58.2599C128.061 58.2599 128.964 59.181 128.964 60.3157V62.371H130.043V57.758C130.043 57.0602 129.485 56.4929 128.805 56.4929H126.303V58.232H126.945V58.2599Z" fill="#ECC581"/>
<path d="M126.948 58.1785H126.372V56.5789H128.8C129.442 56.5789 129.972 57.1184 129.972 57.7695V62.3079H129.042V60.3175C129.042 59.1645 128.148 58.2252 127.023 58.1881V58.1785H126.948Z" stroke="#C08329" stroke-opacity="0.3" stroke-width="0.360166"/>
<path d="M121.894 71.7137C120.778 71.7137 119.875 70.7931 119.875 69.6584V67.6031H118.796V72.216C118.796 72.9133 119.355 73.4807 120.034 73.4807H122.536V71.7416H121.894V71.7137Z" fill="#ECC581"/>
<path d="M121.894 71.796H122.47V73.3956H120.042C119.4 73.3956 118.869 72.8562 118.869 72.2051V67.6667H119.809V69.657C119.809 70.81 120.703 71.7494 121.828 71.7869V71.796H121.894Z" stroke="#C08329" stroke-opacity="0.3" stroke-width="0.360166"/>
<path d="M119.875 60.3322C119.875 59.1975 120.778 58.2769 121.894 58.2769H122.536L122.537 56.5378H120.034C119.355 56.5378 118.796 57.1051 118.796 57.8024V62.4154H119.875V60.3322Z" fill="#ECC581"/>
<path d="M121.893 58.2005C120.739 58.2005 119.799 59.1586 119.799 60.3304V62.3298H118.86V57.7914C118.86 57.1312 119.39 56.6009 120.032 56.6009H122.46V58.2005H121.893Z" stroke="#C08329" stroke-opacity="0.3" stroke-width="0.360166"/>
<path d="M128.961 69.6474C128.961 70.7821 128.059 71.7027 126.942 71.7027H126.301V73.4418H128.803C129.482 73.4418 130.041 72.8745 130.041 72.1772V67.5642H128.961V69.6474Z" fill="#ECC581"/>
<path d="M126.946 71.7663C128.1 71.7663 129.04 70.8086 129.04 69.6364V67.6369H129.979V72.1758C129.979 72.836 129.449 73.3658 128.807 73.3658H126.379V71.7663H126.946Z" stroke="#C08329" stroke-opacity="0.3" stroke-width="0.360166"/>
<path d="M122.637 62.3802H126.2V58.297V56.502H122.637V58.297V62.3802Z" fill="#ECC581"/>
<path d="M126.138 58.308V62.3166H122.714V58.308V56.5876H126.138V58.308Z" stroke="#C08329" stroke-opacity="0.3" stroke-width="0.360166"/>
<path d="M126.214 67.5852H122.651V71.6496V73.4537H126.214V71.6496V67.5852Z" fill="#ECC581"/>
<path d="M122.711 71.6496V67.6502H126.135V71.6496V73.3887H122.711V71.6496Z" stroke="#C08329" stroke-opacity="0.3" stroke-width="0.360166"/>
<path d="M118.793 62.4854V67.4891H119.873L122.515 64.9873L119.873 62.4854H118.793Z" fill="#ECC581"/>
<path d="M119.848 67.4187H118.871V62.5545H119.848L122.416 64.9818L119.848 67.4187Z" stroke="#C08329" stroke-opacity="0.3" stroke-width="0.360166"/>
<path d="M126.33 64.9932L128.972 67.4951H130.052V62.4913H128.972L126.33 64.9932Z" fill="#ECC581"/>
<path d="M129.978 67.4164H129.002L126.434 64.9886L129.002 62.5613H129.978V67.4164Z" stroke="#C08329" stroke-opacity="0.3" stroke-width="0.360166"/>
<path d="M128.871 60.3317C128.871 59.2624 128.006 58.3789 126.955 58.3789H126.313V62.4428C126.313 62.4708 126.285 62.4895 126.266 62.4895H122.6C122.572 62.4895 122.554 62.4616 122.554 62.4428V58.3789H121.912C120.86 58.3789 119.995 59.2624 119.995 60.3317V62.4524L122.647 64.9543C122.674 64.9822 122.674 65.0193 122.647 65.0284L119.995 67.5303V69.6506C119.995 70.7203 120.86 71.6038 121.912 71.6038H122.554V67.5395C122.554 67.5115 122.582 67.4932 122.6 67.4932H126.266C126.294 67.4932 126.313 67.5212 126.313 67.5395V71.6038H126.955C128.006 71.6038 128.871 70.7203 128.871 69.6506V67.5303L126.22 65.0284C126.21 65.0193 126.21 65.0005 126.21 64.9914C126.21 64.9822 126.21 64.9635 126.22 64.9543L128.871 62.4524V60.3317Z" fill="#ECC581"/>
<path d="M126.946 71.5338H126.369V67.5344C126.369 67.4974 126.351 67.4694 126.332 67.4507C126.313 67.4324 126.286 67.4136 126.248 67.4136H122.582C122.545 67.4136 122.517 67.4324 122.499 67.4507C122.48 67.4694 122.462 67.4974 122.462 67.5344V71.5338H121.884C120.871 71.5338 120.033 70.6782 120.033 69.6455V67.5532L122.657 65.0792C122.694 65.0605 122.703 65.0234 122.703 64.9863C122.703 64.9488 122.685 64.9209 122.666 64.893L120.033 62.4099V60.3175C120.033 59.2853 120.871 58.4297 121.884 58.4297H122.462V62.4286C122.462 62.4657 122.48 62.4936 122.499 62.5124C122.517 62.5311 122.545 62.5494 122.582 62.5494H126.248C126.286 62.5494 126.313 62.5311 126.332 62.5124C126.351 62.4936 126.369 62.4657 126.369 62.4286V58.4297H126.946C127.96 58.4297 128.798 59.2853 128.798 60.3175V62.4099L126.165 64.893C126.137 64.9305 126.137 64.9676 126.137 64.9767C126.137 64.9955 126.137 65.0325 126.165 65.0605L128.798 67.544V69.6364C128.798 70.6782 127.96 71.5338 126.946 71.5338Z" stroke="#C08329" stroke-opacity="0.3" stroke-width="0.360166"/>
<g filter="url(#filter1_d_1_906)">
<path d="M166.386 145.958C182.691 145.958 195.909 132.745 195.909 116.446C195.909 100.147 182.691 86.934 166.386 86.934C150.08 86.934 136.862 100.147 136.862 116.446C136.862 132.745 150.08 145.958 166.386 145.958Z" fill="white"/>
<path d="M166.386 145.729C182.565 145.729 195.68 132.618 195.68 116.446C195.68 100.273 182.565 87.1627 166.386 87.1627C150.207 87.1627 137.091 100.273 137.091 116.446C137.091 132.618 150.207 145.729 166.386 145.729Z" stroke="#F7685B"/>
</g>
<path d="M176.493 122.485L176.555 122.548L176.601 122.472C177.688 120.65 178.263 118.567 178.264 116.446C178.26 114.354 177.704 112.301 176.652 110.494C175.6 108.686 174.089 107.188 172.272 106.152C170.454 105.116 168.395 104.578 166.303 104.592C164.211 104.607 162.16 105.173 160.357 106.235L160.281 106.28L160.343 106.342L176.493 122.485ZM154.507 116.446C154.511 118.537 155.067 120.591 156.119 122.398C157.171 124.205 158.682 125.703 160.5 126.74C162.317 127.776 164.376 128.314 166.467 128.299C168.56 128.285 170.611 127.718 172.413 126.657L172.49 126.612L172.427 126.549L156.278 110.406L156.216 110.344L156.17 110.42C155.083 112.242 154.508 114.324 154.507 116.446ZM156.582 101.78C159.484 99.8418 162.895 98.8073 166.386 98.8073C171.065 98.8073 175.553 100.666 178.863 103.973C182.172 107.282 184.031 111.768 184.031 116.446C184.031 119.935 182.996 123.345 181.057 126.245C179.118 129.146 176.362 131.407 173.138 132.742C169.914 134.076 166.366 134.426 162.943 133.745C159.52 133.065 156.376 131.385 153.908 128.918C151.441 126.451 149.76 123.309 149.079 119.887C148.398 116.465 148.748 112.919 150.083 109.696C151.419 106.473 153.68 103.718 156.582 101.78Z" fill="#F7685B" stroke="white" stroke-width="0.3"/>
</g>
<g filter="url(#filter2_d_1_906)">
<path fill-rule="evenodd" clip-rule="evenodd" d="M11.4433 16.9293H210.557V51.2453H11.4433V16.9293Z" fill="white"/>
</g>
<path d="M66.4618 34.6894C66.8549 34.8017 67.158 35.0013 67.3699 35.2883C67.5823 35.5691 67.6885 35.9122 67.6885 36.3178C67.6885 36.6859 67.5914 37.0072 67.3983 37.2818C67.2047 37.5563 66.9268 37.7684 66.5648 37.9182C66.2091 38.0679 65.7875 38.1428 65.301 38.1428H61.9769V31.4792H65.2167C65.9157 31.4792 66.4714 31.6352 66.8833 31.9472C67.2953 32.2591 67.5013 32.6803 67.5013 33.2107C67.5013 33.5538 67.4106 33.8564 67.2294 34.1185C67.0486 34.3805 66.7927 34.5708 66.4618 34.6894ZM63.6906 34.0904H64.9169C65.2414 34.0904 65.4786 34.0405 65.6287 33.9406C65.7784 33.8408 65.8534 33.6817 65.8534 33.4634C65.8534 33.2387 65.7752 33.0734 65.6191 32.9673C65.4694 32.8612 65.2355 32.8082 64.9169 32.8082H63.6906V34.0904ZM65.095 36.8138C65.4319 36.8138 65.6722 36.7608 65.8159 36.6547C65.9656 36.5486 66.0406 36.3708 66.0406 36.1212C66.0406 35.8655 65.9688 35.6845 65.8251 35.5785C65.6818 35.4724 65.4383 35.4194 65.095 35.4194H63.6906V36.8138H65.095Z" fill="#40196D"/>
<path d="M68.4575 38.1428V31.2546H70.152V38.1428H68.4575Z" fill="#40196D"/>
<path d="M73.5607 38.2177C73.0302 38.2177 72.5684 38.1178 72.1752 37.9182C71.782 37.7185 71.479 37.4315 71.267 37.0571C71.0546 36.6828 70.9485 36.2429 70.9485 35.7375C70.9485 35.2322 71.0546 34.7923 71.267 34.4179C71.479 34.0436 71.782 33.7566 72.1752 33.5569C72.5684 33.3572 73.0302 33.2574 73.5607 33.2574C74.0848 33.2574 74.5407 33.3604 74.9275 33.5663C75.3207 33.7659 75.6237 34.0529 75.8357 34.4273C76.048 34.7954 76.1542 35.2322 76.1542 35.7375C76.1542 36.2429 76.048 36.6828 75.8357 37.0571C75.6237 37.4252 75.3207 37.7123 74.9275 37.9182C74.5407 38.1178 74.0848 38.2177 73.5607 38.2177ZM73.5607 36.9542C74.1723 36.9542 74.4785 36.5486 74.4785 35.7375C74.4785 35.3257 74.4002 35.0231 74.2441 34.8297C74.0944 34.6301 73.8665 34.5303 73.5607 34.5303C73.2486 34.5303 73.0147 34.6301 72.8586 34.8297C72.7025 35.0231 72.6247 35.3257 72.6247 35.7375C72.6247 36.1555 72.7025 36.4644 72.8586 36.6641C73.0147 36.8575 73.2486 36.9542 73.5607 36.9542Z" fill="#40196D"/>
<path d="M79.3108 38.2177C78.5056 38.2177 77.8753 37.9993 77.4199 37.5625C76.964 37.1258 76.736 36.5299 76.736 35.775C76.736 35.2758 76.8454 34.836 77.0638 34.4553C77.2885 34.0748 77.6007 33.7815 78.0003 33.5756C78.3999 33.3635 78.8617 33.2574 79.3858 33.2574C79.7355 33.2574 80.0788 33.3105 80.4157 33.4165C80.7526 33.5164 81.0213 33.6536 81.2209 33.8283L80.7902 34.9982C80.6217 34.8609 80.4253 34.7517 80.2006 34.6706C79.9758 34.5895 79.7603 34.549 79.5543 34.549C79.205 34.549 78.9363 34.6488 78.7491 34.8484C78.5619 35.0481 78.4685 35.3445 78.4685 35.7375C78.4685 36.1368 78.5619 36.4395 78.7491 36.6454C78.9363 36.845 79.2078 36.9448 79.5639 36.9448C79.7699 36.9448 79.9818 36.9043 80.2006 36.8232C80.4253 36.7421 80.6217 36.6329 80.7902 36.4956L81.2209 37.6467C81.0149 37.8277 80.7403 37.9681 80.397 38.0679C80.0601 38.1677 79.698 38.2177 79.3108 38.2177Z" fill="#40196D"/>
<path d="M87.1348 38.1428H85.0846L83.4647 36.0932V38.1428H81.7701V31.2546H83.4647V35.3726L85.0562 33.3978H87.0602L85.1876 35.672L87.1348 38.1428Z" fill="#40196D"/>
<path d="M93.4144 38.227C92.7214 38.227 92.1163 38.0866 91.5981 37.8059C91.0864 37.5189 90.69 37.1164 90.4089 36.5986C90.1343 36.0807 89.997 35.4817 89.997 34.8017C89.997 34.1278 90.1343 33.5351 90.4089 33.0235C90.69 32.5056 91.0864 32.1063 91.5981 31.8255C92.1163 31.5385 92.7214 31.395 93.4144 31.395C93.8515 31.395 94.2726 31.4605 94.6782 31.5915C95.0902 31.7226 95.4211 31.9004 95.671 32.125L95.1373 33.3697C94.594 32.9767 94.0323 32.7802 93.4519 32.7802C92.915 32.7802 92.5031 32.9517 92.2161 33.2949C91.9291 33.6318 91.7853 34.1341 91.7853 34.8017C91.7853 35.4755 91.9291 35.984 92.2161 36.3272C92.5031 36.6703 92.915 36.8419 93.4519 36.8419C94.0323 36.8419 94.594 36.6454 95.1373 36.2523L95.671 37.4971C95.4211 37.7217 95.0902 37.8995 94.6782 38.0305C94.2726 38.1615 93.8515 38.227 93.4144 38.227Z" fill="#40196D"/>
<path d="M101.408 33.3884V38.1428H99.7416V37.497C99.6043 37.7216 99.4047 37.8994 99.1425 38.0305C98.8802 38.1553 98.5932 38.2177 98.281 38.2177C97.8755 38.2177 97.5134 38.1178 97.1953 37.9182C96.8767 37.7185 96.6272 37.4346 96.446 37.0665C96.2711 36.6922 96.1841 36.2617 96.1841 35.775C96.1841 35.2821 96.2743 34.8453 96.4556 34.4647C96.6364 34.0841 96.8863 33.7877 97.2044 33.5756C97.523 33.3635 97.8819 33.2574 98.281 33.2574C98.5932 33.2574 98.8774 33.3261 99.1333 33.4633C99.3951 33.5943 99.5984 33.7722 99.7416 33.9968V33.3884H101.408ZM98.8056 36.9542C99.1049 36.9542 99.3361 36.8512 99.4981 36.6454C99.6606 36.4395 99.7416 36.1431 99.7416 35.7562C99.7416 35.3632 99.6606 35.0637 99.4981 34.8578C99.3361 34.6456 99.1049 34.5396 98.8056 34.5396C98.5122 34.5396 98.281 34.6488 98.1126 34.8671C97.9441 35.0793 97.8599 35.3819 97.8599 35.775C97.8599 36.1555 97.9409 36.4488 98.1034 36.6547C98.2654 36.8544 98.4998 36.9542 98.8056 36.9542Z" fill="#40196D"/>
<path d="M105.421 33.2762C105.652 33.2762 105.83 33.3105 105.954 33.3791V34.9234C105.686 34.7985 105.427 34.7362 105.178 34.7362C104.466 34.7362 104.11 35.0762 104.11 35.7563V38.1428H102.416V34.7549C102.416 34.2433 102.391 33.7878 102.341 33.3885H103.932L104.035 34.184C104.148 33.8907 104.329 33.6661 104.578 33.5101C104.828 33.3541 105.109 33.2762 105.421 33.2762Z" fill="#40196D"/>
<path d="M111.356 31.2546V38.1428H109.69V37.497C109.552 37.7217 109.353 37.8995 109.09 38.0305C108.828 38.1553 108.541 38.2177 108.229 38.2177C107.823 38.2177 107.461 38.1147 107.143 37.9088C106.825 37.6967 106.575 37.4034 106.394 37.0291C106.219 36.6485 106.132 36.2118 106.132 35.7188C106.132 35.2322 106.219 34.8017 106.394 34.4273C106.575 34.053 106.825 33.7659 107.143 33.5663C107.461 33.3604 107.823 33.2575 108.229 33.2575C108.529 33.2575 108.803 33.3198 109.053 33.4446C109.309 33.5694 109.512 33.7379 109.662 33.95V31.2546H111.356ZM108.753 36.9542C109.053 36.9542 109.284 36.8513 109.446 36.6454C109.608 36.4332 109.69 36.1306 109.69 35.7375C109.69 35.357 109.605 35.0637 109.437 34.8578C109.274 34.6457 109.047 34.5396 108.753 34.5396C108.448 34.5396 108.213 34.6425 108.051 34.8484C107.889 35.0481 107.808 35.3382 107.808 35.7188C107.808 36.1119 107.889 36.4176 108.051 36.636C108.22 36.8482 108.454 36.9542 108.753 36.9542Z" fill="#40196D"/>
<path d="M174.958 42.8768C179.586 42.8768 183.338 39.1322 183.338 34.513C183.338 29.8938 179.586 26.1492 174.958 26.1492C170.329 26.1492 166.577 29.8938 166.577 34.513C166.577 39.1322 170.329 42.8768 174.958 42.8768Z" fill="white"/>
<path d="M188.07 23.7924H174.371C168.502 23.7924 163.744 28.5413 163.744 34.3992C163.744 40.2572 168.502 45.006 174.371 45.006H188.07C193.939 45.006 198.697 40.2572 198.697 34.3992C198.697 28.5413 193.939 23.7924 188.07 23.7924Z" fill="#F7685B"/>
<path d="M187.479 42.6487C192.044 42.6487 195.745 38.9551 195.745 34.3989C195.745 29.8427 192.044 26.1492 187.479 26.1492C182.914 26.1492 179.213 29.8427 179.213 34.3989C179.213 38.9551 182.914 42.6487 187.479 42.6487Z" fill="white"/>
<g filter="url(#filter3_d_1_906)">
<path d="M42.729 25.1651H30.4182C29.407 25.1651 28.5872 25.9845 28.5872 26.9953V41.6368C28.5872 42.6476 29.407 43.467 30.4182 43.467H42.729C43.7402 43.467 44.5599 42.6476 44.5599 41.6368V26.9953C44.5599 25.9845 43.7402 25.1651 42.729 25.1651Z" fill="white"/>
<path d="M36.5735 30.249C35.7688 30.249 34.9822 30.4875 34.3131 30.9344C33.644 31.3813 33.1225 32.0165 32.8145 32.7597C32.5065 33.5028 32.426 34.3206 32.583 35.1095C32.74 35.8985 33.1275 36.6232 33.6965 37.192C34.2655 37.7607 34.9905 38.1481 35.7798 38.305C36.569 38.462 37.3871 38.3814 38.1306 38.0736C38.874 37.7658 39.5095 37.2445 39.9565 36.5756C40.4036 35.9068 40.6423 35.1205 40.6423 34.3161C40.6423 33.2374 40.2136 32.2029 39.4506 31.4402C38.6875 30.6775 37.6526 30.249 36.5735 30.249ZM39.286 34.3161C39.2858 34.8006 39.1546 35.276 38.9063 35.6921L35.197 31.9843C35.6086 31.7419 36.077 31.6125 36.5548 31.6092C37.0325 31.6059 37.5026 31.7288 37.9176 31.9654C38.3326 32.2021 38.6777 32.5441 38.918 32.9569C39.1583 33.3697 39.2852 33.8385 39.286 34.3161ZM33.8611 34.3161C33.8612 33.8316 33.9924 33.3562 34.2408 32.9401L37.9501 36.6479C37.5384 36.8902 37.07 37.0196 36.5923 37.0229C36.1146 37.0262 35.6444 36.9034 35.2295 36.6667C34.8145 36.4301 34.4694 36.0881 34.2291 35.6753C33.9888 35.2625 33.8618 34.7936 33.8611 34.3161Z" fill="#F7685B"/>
</g>
</g>
<defs>
<filter id="filter0_d_1_906" x="50.0023" y="48.1516" width="170.773" height="230.266" filterUnits="userSpaceOnUse" color-interpolation-filters="sRGB">
<feFlood flood-opacity="0" result="BackgroundImageFix"/>
<feColorMatrix in="SourceAlpha" type="matrix" values="0 0 0 0 0 0 0 0 0 0 0 0 0 0 0 0 0 0 127 0" result="hardAlpha"/>
<feOffset dx="32.2383" dy="24.1788"/>
<feGaussianBlur stdDeviation="9.6715"/>
<feComposite in2="hardAlpha" operator="out"/>
<feColorMatrix type="matrix" values="0 0 0 0 0.25098 0 0 0 0 0.0980392 0 0 0 0 0.427451 0 0 0 0.1 0"/>
<feBlend mode="normal" in2="BackgroundImageFix" result="effect1_dropShadow_1_906"/>
<feBlend mode="normal" in="SourceGraphic" in2="effect1_dropShadow_1_906" result="shape"/>
</filter>
<filter id="filter1_d_1_906" x="111.591" y="81.6627" width="109.59" height="109.566" filterUnits="userSpaceOnUse" color-interpolation-filters="sRGB">
<feFlood flood-opacity="0" result="BackgroundImageFix"/>
<feColorMatrix in="SourceAlpha" type="matrix" values="0 0 0 0 0 0 0 0 0 0 0 0 0 0 0 0 0 0 127 0" result="hardAlpha"/>
<feOffset dy="20"/>
<feGaussianBlur stdDeviation="12.5"/>
<feColorMatrix type="matrix" values="0 0 0 0 0.968627 0 0 0 0 0.407843 0 0 0 0 0.356863 0 0 0 0.3 0"/>
<feBlend mode="normal" in2="BackgroundImageFix" result="effect1_dropShadow_1_906"/>
<feBlend mode="normal" in="SourceGraphic" in2="effect1_dropShadow_1_906" result="shape"/>
</filter>
<filter id="filter2_d_1_906" x="-13.5567" y="-8.07074" width="249.113" height="84.316" filterUnits="userSpaceOnUse" color-interpolation-filters="sRGB">
<feFlood flood-opacity="0" result="BackgroundImageFix"/>
<feColorMatrix in="SourceAlpha" type="matrix" values="0 0 0 0 0 0 0 0 0 0 0 0 0 0 0 0 0 0 127 0" result="hardAlpha"/>
<feOffset/>
<feGaussianBlur stdDeviation="12.5"/>
<feColorMatrix type="matrix" values="0 0 0 0 0 0 0 0 0 0 0 0 0 0 0 0 0 0 0.06 0"/>
<feBlend mode="normal" in2="BackgroundImageFix" result="effect1_dropShadow_1_906"/>
<feBlend mode="normal" in="SourceGraphic" in2="effect1_dropShadow_1_906" result="shape"/>
</filter>
<filter id="filter3_d_1_906" x="18.5872" y="15.1651" width="35.9727" height="38.3019" filterUnits="userSpaceOnUse" color-interpolation-filters="sRGB">
<feFlood flood-opacity="0" result="BackgroundImageFix"/>
<feColorMatrix in="SourceAlpha" type="matrix" values="0 0 0 0 0 0 0 0 0 0 0 0 0 0 0 0 0 0 127 0" result="hardAlpha"/>
<feOffset/>
<feGaussianBlur stdDeviation="5"/>
<feColorMatrix type="matrix" values="0 0 0 0 0 0 0 0 0 0 0 0 0 0 0 0 0 0 0.06 0"/>
<feBlend mode="normal" in2="BackgroundImageFix" result="effect1_dropShadow_1_906"/>
<feBlend mode="normal" in="SourceGraphic" in2="effect1_dropShadow_1_906" result="shape"/>
</filter>
<clipPath id="clip0_1_906">
<rect width="222" height="194" fill="white"/>
</clipPath>
</defs>
</svg>
